<svg width="225" height="35" viewBox="0 0 225 35" fill="none" xmlns="http://www.w3.org/2000/svg">
<path d="M35.2192 0.330655L21.0358 25.9156C20.7102 26.5029 21.0225 26.9218 21.9712 27.1728C22.6807 27.3601 23.7459 27.4537 25.167 27.4537L60.185 27.4479L55.8984 34.95L19.2188 34.9561C18.0248 34.9564 16.9358 34.9251 15.9495 34.8602C11.1307 34.7267 7.42619 34.3179 4.83565 33.6329C3.72671 33.34 2.82258 32.9968 2.12166 32.6028C-0.217479 31.2898 -0.622375 29.2538 0.906672 26.4959L15.4098 0.334212L35.2192 0.330655Z" fill="black"/>
<path d="M58.6279 34.9497L59.2067 33.9368L96.8921 17.247L77.6484 0.323574L101.164 0.319395L111.115 10.0313L132.859 0.314068L156.375 0.309889L118.363 17.2433L138.713 34.9358L115.197 34.9399L103.096 24.2669L80.4353 34.9459L58.6279 34.9497Z" fill="black"/>
<path d="M219.362 1.36036L219.362 1.36089L219.611 1.427V1.42648C220.46 1.6568 221.22 1.922 221.893 2.22263C224.76 3.50577 225.643 5.1406 224.541 7.12716L219.796 15.6876C218.623 17.8034 215.847 19.5035 211.474 20.7863C207.63 21.8775 203.07 22.4223 197.788 22.4236L170.054 22.4278L163.123 34.9314L143.313 34.9346L162.509 0.308856L208.518 0.300865C213.009 0.300447 216.624 0.654011 219.362 1.36036ZM174.267 14.8294L193.565 14.8262C198.166 14.8252 200.821 14.1848 201.533 12.9014L203.399 9.53482C203.546 8.8707 203.024 8.38089 201.833 8.0661C201.187 7.89514 200.342 7.77586 199.3 7.7086L178.212 7.71227L174.267 14.8294Z" fill="black"/>
</svg>
