<svg width="166" height="28" viewBox="0 0 166 28" fill="none" xmlns="http://www.w3.org/2000/svg">
<path d="M113.937 23.6217L112.189 25.7753C112.164 25.8055 112.127 25.8227 112.088 25.8227H110.088C109.98 25.8227 109.92 25.6968 109.988 25.6126L111.737 23.4589C111.761 23.4288 111.798 23.4115 111.837 23.4115H113.837C113.945 23.4115 114.005 23.5375 113.937 23.6217ZM118.343 23.1196H107.685C107.594 23.1196 107.508 23.1603 107.45 23.2306L105.51 25.5933C105.347 25.7919 105.488 26.0908 105.745 26.0908H116.42C116.512 26.0908 116.599 26.0497 116.656 25.9785L118.579 23.6157C118.741 23.4172 118.599 23.1196 118.343 23.1196Z" fill="black"/>
<path d="M21.6737 23.6217L19.9255 25.7753C19.9009 25.8055 19.8641 25.8227 19.825 25.8227H17.8252C17.7168 25.8227 17.6568 25.6968 17.7251 25.6126L19.4737 23.4589C19.4982 23.4288 19.535 23.4115 19.5738 23.4115H21.5737C21.682 23.4115 21.742 23.5375 21.6737 23.6217ZM26.0798 23.1196H15.422C15.3308 23.1196 15.2447 23.1603 15.187 23.2306L13.2465 25.5933C13.0834 25.7919 13.2246 26.0908 13.4815 26.0908H24.1571C24.249 26.0908 24.3355 26.0497 24.3931 25.9785L26.3158 23.6157C26.4775 23.4172 26.336 23.1196 26.0798 23.1196Z" fill="black"/>
<path d="M77.1958 23.4664H80.3676L80.5946 23.189H77.4264L78.3233 22.1099C78.3475 22.0807 78.3266 22.0363 78.2888 22.0363H74.4041C74.0707 22.0363 73.7549 22.1864 73.5444 22.4453L70.9702 25.6088C70.8045 25.8123 70.9493 26.1172 71.2118 26.1172H78.6448L78.9248 25.8444H75.4819C75.3759 25.8444 75.3195 25.7185 75.3901 25.6393L77.1958 23.4664Z" fill="black"/>
<path d="M139.396 23.6217L138.645 24.5474C138.609 24.5914 138.555 24.6173 138.499 24.6173H136.35C136.312 24.6173 136.292 24.5735 136.315 24.5444L136.909 23.8129C137.115 23.559 137.425 23.4115 137.752 23.4115H139.296C139.405 23.4115 139.465 23.5375 139.396 23.6217ZM143.802 23.1196H133.145C133.053 23.1196 132.967 23.1603 132.91 23.2306L130.969 25.5933C130.806 25.7919 130.947 26.0908 131.204 26.0908H141.88C141.972 26.0908 142.058 26.0497 142.116 25.9785L142.243 25.8227H137.548H135.548C135.439 25.8227 135.379 25.6968 135.448 25.6126L135.863 25.1018C135.988 24.9474 136.176 24.8576 136.375 24.8576H138.393H142.825C142.954 24.8576 143.075 24.7999 143.156 24.7001L143.224 24.6173L144.038 23.6157C144.2 23.4172 144.059 23.1196 143.802 23.1196Z" fill="black"/>
<path d="M66.4716 23.6217L65.7199 24.5474C65.6841 24.5914 65.6304 24.6173 65.5738 24.6173H63.4248C63.3873 24.6173 63.3668 24.5735 63.3903 24.5444L63.9842 23.8129C64.1904 23.559 64.5003 23.4115 64.8274 23.4115H66.3715C66.4799 23.4115 66.5399 23.5375 66.4716 23.6217ZM70.8776 23.1196H60.2198C60.1287 23.1196 60.0425 23.1603 59.9849 23.2306L58.0443 25.5933C57.8813 25.7919 58.0225 26.0908 58.2793 26.0908H68.955C69.0468 26.0908 69.1333 26.0497 69.191 25.9785L69.3179 25.8227H64.6229H62.623C62.5147 25.8227 62.4547 25.6968 62.5229 25.6126L62.9379 25.1018C63.0632 24.9474 63.2514 24.8576 63.4506 24.8576H65.468H69.9006C70.0288 24.8576 70.1501 24.7999 70.2313 24.7001L70.2989 24.6173L71.1136 23.6157C71.2753 23.4172 71.1338 23.1196 70.8776 23.1196Z" fill="black"/>
<path d="M131.233 23.1196H120.575C120.484 23.1196 120.398 23.1603 120.34 23.2306L118.399 25.5933C118.236 25.7919 118.377 26.0908 118.634 26.0908H122.497L122.869 25.6281C122.872 25.6228 122.874 25.6175 122.878 25.6126L123.214 25.1983L124.07 24.1337L124.079 24.1334L124.627 23.4589C124.651 23.4288 124.688 23.4115 124.727 23.4115H126.726C126.835 23.4115 126.895 23.5375 126.827 23.6217L126.465 24.0668L126.472 24.0664L124.844 26.0908H129.31C129.402 26.0908 129.488 26.0497 129.546 25.9785L131.469 23.6157C131.63 23.4172 131.489 23.1196 131.233 23.1196Z" fill="black"/>
<path d="M79.9597 26.0908H84.5699L86.8438 23.2965C86.9015 23.2256 86.8508 23.1196 86.7597 23.1196H82.3453L79.9597 26.0908Z" fill="black"/>
<path d="M44.5306 23.1313H39.9238H39.359H34.4376C34.4297 23.1313 34.422 23.1319 34.4141 23.1326L34.4151 23.1313H28.1888C28.0977 23.1313 28.0115 23.172 27.9535 23.2423L26.0133 25.6051C25.8503 25.8036 25.9914 26.1025 26.2483 26.1025H30.1105L30.4827 25.6399C30.486 25.6346 30.488 25.6293 30.4919 25.6243L30.8283 25.21L31.6844 24.1454L31.6927 24.1451L32.2402 23.4707C32.2648 23.4405 32.3015 23.4233 32.3407 23.4233H34.0538L32.2618 25.6051C32.0987 25.8036 32.2402 26.1025 32.4971 26.1025H36.3592L36.7314 25.6399C36.7344 25.6346 36.7367 25.6293 36.7407 25.6243L37.0771 25.21L37.9329 24.1454L37.9415 24.1451L38.489 23.4707C38.5135 23.4405 38.5503 23.4233 38.5891 23.4233H39.1204H39.6848H40.0245C40.1329 23.4233 40.1929 23.5492 40.1246 23.6334L39.7634 24.0785L39.7703 24.0782L38.1423 26.1025H42.608C42.6998 26.1025 42.7863 26.0614 42.844 25.9902L44.7666 23.6274C44.9284 23.4289 44.7868 23.1313 44.5306 23.1313Z" fill="black"/>
<path d="M83.1307 22.044L82.7224 22.5415H87.3555L87.7641 22.044H83.1307Z" fill="black"/>
<path d="M98.6772 26.0996H103.287L105.561 23.3053C105.619 23.2344 105.568 23.1283 105.477 23.1283H101.063L98.6772 26.0996Z" fill="black"/>
<path d="M101.848 22.0533L101.44 22.5508H106.073L106.481 22.0533H101.848Z" fill="black"/>
<path d="M53.4834 23.5304L51.8863 25.4978C51.8637 25.5253 51.8302 25.5412 51.7948 25.5412H49.9676C49.8685 25.5412 49.8135 25.4262 49.8761 25.3493L51.4733 23.382C51.4958 23.3545 51.5293 23.3382 51.5648 23.3382H53.3919C53.491 23.3382 53.5461 23.4536 53.4834 23.5304ZM57.5086 23.0717H47.7719C47.6887 23.0717 47.6101 23.1089 47.5571 23.1732L46.9407 23.9239L46.9357 23.9232L44.4413 26.9564C44.3827 27.028 44.4334 27.1357 44.5262 27.1357H48.1779C48.3171 27.1357 48.4487 27.0734 48.5372 26.9661L49.5073 25.7862H55.7524C55.8359 25.7862 55.9151 25.7484 55.9678 25.6837L57.7241 23.5251C57.8719 23.3435 57.7426 23.0717 57.5086 23.0717Z" fill="black"/>
<path d="M96.6948 26.0072L96.9503 25.6827C96.9861 25.6377 96.954 25.5714 96.8963 25.5714H93.058L98.3831 23.3621C98.5031 23.3124 98.4676 23.1337 98.3377 23.1337H88.4584C88.4084 23.1337 88.361 23.1566 88.3301 23.196L87.9513 23.6766H92.7902L86.677 26.0059C86.6239 26.0261 86.6385 26.105 86.6952 26.105H96.4933C96.5718 26.105 96.6461 26.0689 96.6948 26.0072Z" fill="black"/>
<path d="M7.31809 25.823H7.27368H5.31825C5.20954 25.823 5.14955 25.6971 5.21816 25.6129L6.96645 23.4593C6.99097 23.4291 7.02776 23.4115 7.06654 23.4115H7.27368H9.06639H13.8771C13.8701 23.2597 13.7485 23.1199 13.5728 23.1199H2.91505C2.82391 23.1199 2.73773 23.1606 2.67973 23.2309L0.739543 25.5937C0.576148 25.7922 0.717669 26.0908 0.974528 26.0908H11.6502C11.7417 26.0908 11.8285 26.0497 11.8862 25.9788L12.0128 25.823H7.31809Z" fill="black"/>
<path d="M105.264 0.00280657C104.197 0.00280657 103.044 0.537071 102.194 1.4253L99.7869 3.94185L136.242 3.92793L133.547 6.67184C132.786 7.44606 131.771 7.90873 130.83 7.90873H97.6889C96.6296 7.90873 95.4865 8.43438 94.6384 9.31068L92.2157 11.8153H128.33L125.796 14.4505C125.033 15.2436 124.002 15.7202 123.047 15.7209L90.0839 15.7328C89.0296 15.7335 87.8912 16.2548 87.044 17.1261L84.5742 19.6646L144.528 19.6526C146.005 19.652 147.419 19.0551 148.45 17.9961C148.45 17.9961 163.935 2.10009 163.936 2.09943L166 0.00413282L105.264 0.00280657Z" fill="black"/>
<path d="M47.9718 7.90377L50.4064 5.4966C51.3643 4.55136 53.1898 3.95545 55.1336 3.95545L91.7404 3.95512C93.8532 3.95512 95.8339 3.29789 96.8457 2.26151L99.0332 0.0210467L28.5659 0.000166696C26.0874 -0.000164734 23.7631 0.768421 22.572 1.98245L5.20703 19.6821L32.7021 19.6818C34.9492 19.6818 37.0564 18.9865 38.1402 17.8864L42.7355 13.2249C43.5859 12.3622 45.2388 11.816 47.0027 11.816L77.4087 11.8047C79.7884 11.804 82.0189 11.0676 83.168 9.90362L85.1307 7.91604L47.9718 7.90377Z" fill="black"/>
</svg>
