<svg width="347" height="92" viewBox="0 0 347 92" fill="none" xmlns="http://www.w3.org/2000/svg">
<path d="M142.07 13.083C142.438 13.1274 142.546 13.2604 142.394 13.4885L119.256 48.9364H141.678C144.351 48.9364 146.847 47.5995 148.324 45.3694L162.078 24.6329C166.684 17.5813 174.496 13.2794 182.916 13.1654L189.328 13.083C189.664 13.1274 189.759 13.2604 189.613 13.4885L158.499 60.3595C157.358 62.0828 155.432 63.1155 153.36 63.1155H109.702C108.428 63.1155 107.237 62.5009 106.496 61.4619L99.8434 52.1105C98.9374 50.8371 98.8994 49.1328 99.7547 47.8213L116.817 21.6424C120.206 16.4472 125.965 13.2731 132.168 13.1844C137.129 13.1147 142.07 13.083 142.07 13.083Z" fill="#1D1D1B"/>
<path d="M299.188 13.1463C299.524 13.1907 299.619 13.3237 299.467 13.5518L287.905 31.2599L309.458 31.0888C313.108 31.0635 316.497 29.2072 318.493 26.1534L319.893 24.0056C324.233 17.3595 331.608 13.3047 339.546 13.216C343.392 13.1717 346.611 13.1527 346.611 13.1527C346.978 13.197 347.086 13.3301 346.934 13.5581L319.843 54.8475C316.453 60.011 310.694 63.1218 304.517 63.1218H294.906C294.538 63.1218 294.449 62.9888 294.62 62.7163L306.677 44.3873H283.932C281.126 44.3873 278.503 45.8065 276.969 48.157L273.155 53.8591C269.538 59.4028 263.417 62.7924 256.803 62.9317L247.73 63.1218C247.673 63.1218 247.623 63.1091 247.578 63.0901H246.653L273.01 22.7195C276.931 16.7133 283.622 13.102 290.794 13.1273L299.176 13.1527L299.188 13.1463Z" fill="#1D1D1B"/>
<path d="M168.376 62.9445L172.253 57.2108C175.909 51.8065 181.827 48.7463 188.606 48.7463H224.345C225.599 48.7463 226.695 48.1825 227.38 47.1878L229.369 43.9503H197.913C195.904 43.9439 195.264 43.3864 193.871 41.4224L189.315 35.0741C188.65 34.0857 189.043 32.1723 189.86 30.9559L199.047 17.3216C200.65 15.2625 204.54 13.2478 208.987 13.2478H268.777L267.731 14.9141C263.379 21.3447 256.327 24.9941 248.262 24.9941H214.024C212.985 24.9941 212.073 25.4629 211.503 26.2802L207.986 30.9559L239.392 31.0193C241.134 31.2157 242.085 32.2484 243.003 33.5852L248.186 40.7191C248.921 41.7518 248.42 43.095 247.755 44.096L237.377 59.6373C235.952 61.7407 233.646 62.9382 231.004 62.9382H168.376V62.9445Z" fill="#1D1D1B"/>
<path d="M110.639 8.80019C108.795 6.04419 107.25 3.93442 106.128 2.47089C104.931 0.905992 103.081 0 101.117 0H51.6861C44.8309 0 38.3813 3.13614 34.1491 8.47074C33.2874 9.42742 32.4828 10.4538 31.7669 11.5562L22.5232 25.4946L0 58.3765L9.63016 58.3639C15.8454 58.3575 21.6552 55.2847 25.1715 50.1655L46.3958 19.2096C48.4866 16.1622 51.9459 14.3375 55.6395 14.3375H90.0293L83.6114 24.1704C81.8564 26.8568 78.8596 28.4787 75.6475 28.4787H51.4137C43.5258 28.4787 37.1268 34.8777 37.1268 42.7655L44.229 42.8099H49.7094C53.1433 42.8099 56.3681 44.4762 58.3575 47.2765L69.0457 62.3173C76.148 72.3213 87.6598 78.2577 99.9319 78.2577L74.7478 42.8099H86.4687C89.6809 42.8099 92.6776 41.1879 94.4326 38.4953L101.978 26.9328L110.671 13.6216C111.628 12.1517 111.621 10.2447 110.645 8.78752" fill="#1D1D1B"/>
<path d="M115.093 78.8596H104.475L106.318 74.9885H134.632L132.789 78.8596H122.17L120.935 81.4445L112.02 85.3156L115.099 78.8596H115.093ZM109.562 90.4918L118.476 86.6144L118.153 87.267L109.258 91.138L109.562 90.4982V90.4918ZM111.71 85.9682L120.624 82.0908L119.389 84.6757L110.474 88.5531L111.71 85.9682Z" fill="#0083CB"/>
<path d="M134.113 90.4918L143.04 86.6144L142.717 87.267L133.803 91.138L134.107 90.4982L134.113 90.4918ZM136.261 85.9682L145.188 82.0908L143.952 84.6757L135.026 88.5531L136.261 85.9682ZM141.482 74.9885H148.571L145.492 81.4445L136.565 85.3156L141.482 74.9885Z" fill="#0083CB"/>
<path d="M164.182 78.8596H153.563L155.407 74.9885H183.721L181.877 78.8596H171.259L170.023 81.4445L161.109 85.3156L164.188 78.8596H164.182ZM158.651 90.4918L167.565 86.6144L167.242 87.267L158.347 91.138L158.651 90.4982V90.4918ZM160.799 85.9682L169.713 82.0908L168.478 84.6757L159.563 88.5531L160.799 85.9682Z" fill="#0083CB"/>
<path d="M183.208 90.4918L192.135 86.6144L191.812 87.267L182.897 91.1381L183.202 90.4982L183.208 90.4918ZM209.564 84.6757H193.047L184.12 88.5531L185.356 85.9682L194.283 82.0908L194.587 81.4509L185.66 85.3219L189.347 77.5735L195.303 74.9949H216.527L220.018 77.5735L214.493 89.2057H207.423L209.57 84.682L209.564 84.6757ZM212.339 78.8596H195.822L194.891 80.792H211.408L212.339 78.8596Z" fill="#0083CB"/>
<path d="M220.74 90.4918L229.667 86.6144L229.344 87.267L220.43 91.138L220.734 90.4982L220.74 90.4918ZM222.888 85.9682L231.815 82.0908L230.579 84.6757L221.652 88.5531L222.888 85.9682ZM246.957 84.9988L232.581 80.4752L232.119 81.4445L223.192 85.3156L228.717 73.696L249.263 80.1521L251.715 74.9885H258.786L252.025 89.193H244.955L246.957 84.9988Z" fill="#0083CB"/>
<path d="M258.278 90.4918L267.205 86.6144L266.882 87.267L257.968 91.138L258.272 90.4982L258.278 90.4918ZM260.426 85.9682L269.353 82.0908L268.117 84.6757L259.191 88.5531L260.426 85.9682ZM265.647 74.9885H272.736L269.657 81.4445L260.73 85.3156L265.647 74.9885Z" fill="#0083CB"/>
<path d="M282.461 83.814L274.764 87.1529L275.226 87.5013L282.132 84.5045L282.461 83.814Z" fill="#0083CB"/>
<path d="M284.394 79.7148L275.474 83.5922L274.264 86.1518L283.184 82.2808L284.394 79.7148Z" fill="#0083CB"/>
<path d="M305.428 74.9062L284.318 74.8745L278.356 77.4784L275.91 82.6673L282.398 79.8543L284.831 78.7963L284.837 78.7836H298.909L301.348 78.8026L298.294 85.3156H283.253L276.322 88.325L277.538 89.2374H298.794L304.763 86.6208L308.526 78.5238L305.428 74.9062Z" fill="#0083CB"/>
</svg>
