<svg width="157" height="32" viewBox="0 0 157 32" fill="none" xmlns="http://www.w3.org/2000/svg">
<g clip-path="url(#clip0_74_3165)">
<path fill-rule="evenodd" clip-rule="evenodd" d="M74.293 22H91.6386L94.5001 23.7169V25.2573L90.7034 27.9692L89.5926 28.1914L96 31L95.5 32H87.3892L79.8892 28.5H75.7072L73.7072 30.5H65.793L74.293 22ZM76.7072 27.5H80.111L87.611 31H93.2463L86.4076 27.8086L90.2968 27.0308L93.5001 24.7427V24.2831L91.3616 23H74.7072L68.2072 29.5H73.293L77.2389 25.5541L75.7072 24H89L87.2072 26H78.2072L76.7072 27.5Z" fill="black"/>
<path d="M108.985 31.1998H104.861L99.3727 28.3998H96.8818L98.4999 27H104.5L105.907 26H96.4999L97.2709 26.8431L93.9641 29.25L92 28.3998L95.4573 26.0439L96.4709 24.7998H107.606L109.171 25.8263V26.194L106.826 28.0244L103.98 28.6467L108.985 31.1998Z" fill="black"/>
<path fill-rule="evenodd" clip-rule="evenodd" d="M41.7632 7.61925L44.1449 5.29797C45.0589 4.36947 46.859 3.79598 48.7422 3.79598H84.496C86.5727 3.79598 88.4838 3.16788 89.4807 2.18475L91.6131 0.0273438H22.8202C20.3831 0.0273438 18.1122 0.764686 16.949 1.93897L0 18.9525H26.8359C29.0514 18.9525 31.1008 18.2697 32.1532 17.232L36.6397 12.726C37.4705 11.9068 39.0769 11.3879 40.8216 11.3879H70.51C72.8366 11.3879 74.9968 10.6778 76.1321 9.55817L78.0426 7.64656L41.7632 7.61925Z" fill="black"/>
<path fill-rule="evenodd" clip-rule="evenodd" d="M97.7049 0C96.5645 0.0475189 95.489 0.538435 94.714 1.36545L92.3598 3.79595H127.947L125.316 6.44491C124.627 7.17722 123.671 7.60943 122.658 7.64652H90.3109C89.1727 7.68093 88.0958 8.16275 87.3193 8.98468L84.9658 11.4151H120.221L117.756 13.9276C117.061 14.6716 116.095 15.1134 115.069 15.1565H82.8884C81.7501 15.1909 80.6732 15.6727 79.8975 16.4946L77.4883 18.9251H136.034C137.479 18.9208 138.864 18.3511 139.884 17.3412L155.005 2.02086L156.999 0H97.7049Z" fill="black"/>
</g>
<defs>
<clipPath id="clip0_74_3165">
<rect width="157" height="32" fill="white"/>
</clipPath>
</defs>
</svg>
