<svg width="260" height="40" viewBox="0 0 260 40" fill="none" xmlns="http://www.w3.org/2000/svg">
<g clip-path="url(#clip0_53_997)">
<path d="M231.719 33.0496H236.821C238.097 33.0508 239.349 32.6838 240.435 31.99C241.52 31.2962 242.396 30.3033 242.963 29.1232C245.627 22.9391 239.265 23.2827 239.265 23.2827H208.534C208.354 24.9189 207.779 26.4822 206.86 27.8287C205.942 29.1753 204.709 30.2618 203.277 30.9882L202.177 32.9146C204.258 33.5649 206.791 34.3134 209.872 35.1784L210.413 35.3257L215.259 26.7857H231.808C231.808 26.7857 234.591 26.7857 234.002 28.2152C233.883 28.4974 233.473 29.4913 231.748 29.5036H222.882C222.882 29.5036 207.802 29.5036 228.056 40.0006H246.252C220.545 32.8042 231.701 33.0619 231.701 33.0619" fill="black"/>
<path fill-rule="evenodd" clip-rule="evenodd" d="M160.856 33.0053H168.187L174.729 21.5328H193.549C194.12 21.5386 194.689 21.6127 195.244 21.7536C195.647 21.8285 196.03 21.9937 196.364 22.2375C196.699 22.4812 196.978 22.7977 197.182 23.1647C197.317 23.458 197.387 23.7787 197.387 24.1034C197.387 24.428 197.317 24.7487 197.182 25.042C196.51 26.631 195.113 27.2936 193.477 27.2936H183.809C183.059 27.2936 178.546 27.4101 179.503 28.8825C179.953 29.5046 180.483 30.0599 181.079 30.5328C182.164 31.4302 183.306 32.2501 184.498 32.9869C186.211 34.0543 187.983 35.0359 189.773 35.9685H199.662L199.418 35.8948C197.479 35.2813 195.523 34.6126 193.632 33.8458C192.596 33.4532 191.6 32.9559 190.659 32.3611C189.886 31.8273 189.196 31.0175 189.47 29.9807C189.916 28.4469 192.151 28.3733 193.436 28.3979H198.984C200.531 28.4276 202.027 27.8256 203.146 26.723C203.673 26.2161 204.11 25.6181 204.437 24.9561C204.782 24.1586 205.198 22.9316 204.966 22.0481C204.905 21.828 204.798 21.6241 204.653 21.4504C204.509 21.2768 204.329 21.1374 204.127 21.042C203.372 20.6836 202.544 20.5154 201.713 20.5512H167.973L160.856 33.0053ZM158.477 34.404H168.955L175.496 22.9316H193.543C193.543 22.9316 196.581 22.9316 195.921 24.4837C195.785 24.7966 195.327 25.8825 193.46 25.8948H183.791C183.791 25.8948 167.343 25.8948 189.434 37.3366H209.313C181.275 29.4899 193.436 29.7721 193.436 29.7721H199.002C200.396 29.7723 201.762 29.3702 202.946 28.6113C204.131 27.8524 205.086 26.767 205.703 25.4776C208.605 18.7291 201.666 19.1033 201.666 19.1033H167.177L158.477 34.404Z" fill="black"/>
<path fill-rule="evenodd" clip-rule="evenodd" d="M5.50635 21.0127L6.4994 20.571C6.75007 20.4632 7.01871 20.407 7.29027 20.4054C11.5003 20.4054 15.7104 20.4054 19.9204 20.4054H20.2177L20.0691 20.6446C17.7619 24.4422 15.7698 28.43 13.4626 32.2275C13.1118 32.841 12.2733 32.9515 11.6371 32.9515H2.05745L7.4092 23.749C7.58445 23.3737 7.61106 22.9427 7.48338 22.5476C7.35571 22.1524 7.0838 21.8241 6.72536 21.6324C6.4025 21.4109 6.02485 21.2895 5.63717 21.2827H4.82847L5.50635 21.0127ZM0 34.1049H11.6609C12.6896 34.1049 13.8729 33.8226 14.4557 32.8779C16.9056 28.7735 19.0701 24.5404 21.5438 20.4667C21.7697 20.117 21.181 19.6078 20.9491 19.4544C20.7546 19.3332 20.5339 19.2636 20.3069 19.252H7.2427C6.80749 19.25 6.37648 19.3397 5.97612 19.5158L1.81365 21.3563C1.71254 21.4283 1.63553 21.5308 1.59319 21.6498C1.55085 21.7688 1.54526 21.8983 1.5772 22.0207C1.60913 22.1431 1.67702 22.2523 1.77154 22.3333C1.86605 22.4142 1.98255 22.463 2.10502 22.4729H5.39337C5.63013 22.4333 5.8729 22.4765 6.08315 22.5956C6.58265 22.9269 6.4221 23.1232 6.1783 23.5281C4.09706 27.0312 2.07529 30.5895 0 34.1049Z" fill="black"/>
<path fill-rule="evenodd" clip-rule="evenodd" d="M50.0333 23.5103V23.5716L47.0957 28.903C46.8614 29.271 46.549 29.5792 46.1823 29.8045C45.8156 30.0299 45.4041 30.1663 44.9788 30.2036H34.4894L37.5577 24.5778C37.7937 24.2113 38.1065 23.9042 38.4728 23.6791C38.8392 23.454 39.2499 23.3166 39.6747 23.2771H49.8549H49.9203H50.1522L50.0333 23.5103ZM32.7055 31.2895L32.8125 31.4244H44.9907C45.6156 31.3843 46.222 31.1901 46.759 30.8581C47.296 30.5261 47.748 30.066 48.0769 29.5165L50.9906 24.179C51.1333 23.965 51.2217 23.7176 51.2477 23.4593C51.2736 23.201 51.2364 22.9401 51.1393 22.7005C51.0047 22.4827 50.8151 22.3071 50.5908 22.1925C50.3665 22.0779 50.1162 22.0286 49.8668 22.0501H39.6806C39.0536 22.0831 38.4433 22.2708 37.9011 22.5974C37.359 22.9241 36.9006 23.3802 36.5647 23.9275L32.9969 30.4674L32.6995 31.0134C32.6781 31.0563 32.6674 31.104 32.6684 31.1522C32.6694 31.2004 32.6822 31.2476 32.7055 31.2895ZM18.0179 32.8171L23.9643 22.0317C24.2275 21.609 24.5829 21.2558 25.0021 21.0001C25.4213 20.7444 25.8927 20.5935 26.3785 20.5593L66.4929 20.59C66.6032 20.5892 66.7132 20.6036 66.8199 20.633C66.9173 20.6575 67.0034 20.716 67.0637 20.7986C67.1529 20.9704 67.0221 21.271 66.9388 21.4121L61.4741 31.3631C61.2151 31.7822 60.8656 32.1337 60.4529 32.3902C60.0403 32.6467 59.5757 32.8012 59.0956 32.8416L18.0179 32.8171ZM68.0151 20.179C67.8551 19.904 67.624 19.6803 67.3479 19.533C67.0717 19.3857 66.7613 19.3204 66.4512 19.3446L26.331 19.3262C25.647 19.3656 24.9825 19.5753 24.3943 19.9375C23.8061 20.2997 23.3117 20.8036 22.9534 21.406L16.5908 32.995C16.5293 33.1084 16.4971 33.2362 16.4971 33.3662C16.4971 33.4961 16.5293 33.6239 16.5908 33.7373C16.6306 33.8138 16.6848 33.8814 16.7501 33.9362C16.8154 33.991 16.8906 34.0318 16.9714 34.0564C17.031 34.076 17.0931 34.0863 17.1557 34.087H59.0539C59.7355 34.0521 60.3989 33.8482 60.9879 33.4926C61.5769 33.137 62.0741 32.6401 62.4374 32.0441L67.8843 22.087C68.0611 21.8098 68.1655 21.4901 68.1874 21.1591C68.2093 20.828 68.1479 20.4968 68.0092 20.1974L68.0151 20.179Z" fill="black"/>
<path fill-rule="evenodd" clip-rule="evenodd" d="M97.8241 23.4461C97.8273 23.4664 97.8273 23.4871 97.8241 23.5074L94.9104 28.8449C94.6727 29.2165 94.3556 29.5269 93.9834 29.7524C93.6113 29.9778 93.1941 30.1123 92.7637 30.1455H82.2684L85.3367 24.5381C85.5718 24.1721 85.8835 23.8652 86.2488 23.6401C86.6142 23.415 87.0239 23.2774 87.4477 23.2375H97.6338H97.6992H97.9252L97.8241 23.4461ZM80.4904 31.2866L80.5974 31.4155H92.7756C93.4002 31.3744 94.0063 31.1797 94.5431 30.8478C95.08 30.5159 95.5321 30.0563 95.8618 29.5075L98.7755 24.17C98.9185 23.9476 99.0049 23.6917 99.0267 23.4258C99.0485 23.1598 99.0051 22.8925 98.9004 22.6485C98.7671 22.4292 98.5778 22.2519 98.3534 22.1361C98.1289 22.0204 97.8779 21.9705 97.6279 21.9921H87.4417C86.8178 22.033 86.2123 22.2269 85.6755 22.5577C85.1388 22.8884 84.6863 23.3465 84.3556 23.8939L81.4656 29.1455C81.1386 29.759 80.8115 30.3725 80.4785 30.986C80.454 31.0298 80.4411 31.0796 80.4411 31.1302C80.4411 31.1808 80.454 31.2305 80.4785 31.2744L80.4904 31.2866ZM65.7969 32.8081L71.7433 22.0228C72.003 21.6043 72.3526 21.2532 72.7651 20.9968C73.1777 20.7404 73.6419 20.5855 74.1218 20.5442L114.236 20.581C114.349 20.5798 114.461 20.5943 114.569 20.624C114.666 20.6462 114.751 20.7054 114.807 20.7896C114.896 20.9553 114.771 21.2559 114.688 21.4031L109.223 31.3541C108.961 31.7765 108.606 32.13 108.188 32.3866C107.77 32.6432 107.3 32.7959 106.815 32.8326L65.7969 32.8081ZM115.8 20.17C115.64 19.8943 115.409 19.6699 115.133 19.5215C114.857 19.3731 114.547 19.3066 114.236 19.3295L74.1218 19.2988C73.4439 19.3387 72.7851 19.5456 72.2006 19.9021C71.6161 20.2586 71.1228 20.7544 70.7621 21.3479L64.3816 32.9369C64.3202 33.0493 64.2878 33.1761 64.2878 33.305C64.2878 33.434 64.3202 33.5608 64.3816 33.6731C64.4181 33.7517 64.4704 33.8213 64.535 33.8773C64.5996 33.9334 64.675 33.9746 64.7563 33.9983C64.8194 34.0077 64.8834 34.0077 64.9465 33.9983L106.845 34.0351C107.529 33.9968 108.194 33.7874 108.782 33.4251C109.371 33.0628 109.865 32.5584 110.222 31.9553L115.687 22.0043C115.859 21.7293 115.959 21.4135 115.979 21.087C115.999 20.7605 115.937 20.4342 115.8 20.1393V20.17ZM145.122 23.5197C145.114 23.5413 145.104 23.5619 145.092 23.581L142.184 28.9185C141.948 29.285 141.635 29.5921 141.269 29.8172C140.903 30.0423 140.492 30.1797 140.067 30.2191H129.566L132.634 24.5381C132.869 24.1707 133.182 23.8629 133.548 23.6377C133.915 23.4125 134.326 23.2756 134.751 23.2375H144.997H145.223L145.122 23.5197ZM127.788 31.2866L127.895 31.4155H140.073C140.697 31.375 141.303 31.1813 141.84 30.8505C142.377 30.5197 142.829 30.0613 143.159 29.5136L146.073 24.1761C146.219 23.954 146.307 23.6967 146.329 23.4292C146.351 23.1617 146.306 22.8928 146.198 22.6485C146.063 22.4308 145.874 22.2552 145.649 22.1405C145.425 22.0259 145.175 21.9767 144.925 21.9982H134.739C134.113 22.0413 133.506 22.2387 132.969 22.5739C132.432 22.9091 131.981 23.3723 131.653 23.9246L128.085 30.4707L127.788 31.0105C127.765 31.0536 127.752 31.1022 127.752 31.1517C127.752 31.2011 127.765 31.2497 127.788 31.2928V31.2866ZM113.1 32.8204L119.047 22.035C119.307 21.6169 119.657 21.2661 120.069 21.0097C120.481 20.7533 120.946 20.5983 121.425 20.5565L161.546 20.5872C161.656 20.5864 161.766 20.6008 161.873 20.6301C161.969 20.6529 162.054 20.712 162.11 20.7957C162.2 20.9675 162.075 21.2681 161.992 21.4093L156.527 31.3602C156.265 31.7833 155.911 32.1373 155.493 32.394C155.074 32.6507 154.604 32.803 154.119 32.8388L113.1 32.8204ZM163.098 20.1761C162.938 19.9011 162.706 19.6775 162.43 19.5301C162.154 19.3828 161.844 19.3176 161.534 19.3418L121.419 19.3049C120.735 19.3443 120.071 19.5541 119.483 19.9163C118.894 20.2785 118.4 20.7823 118.042 21.3847L111.679 32.9738C111.618 33.0872 111.585 33.215 111.585 33.3449C111.585 33.4749 111.618 33.6027 111.679 33.7161C111.719 33.7926 111.773 33.8602 111.838 33.9149C111.904 33.9697 111.979 34.0105 112.06 34.0351C112.119 34.0547 112.182 34.0651 112.244 34.0658L154.142 34.1026C154.827 34.0632 155.492 33.8534 156.082 33.4913C156.671 33.1291 157.166 32.6253 157.526 32.0228L162.967 22.0841C163.149 21.8058 163.257 21.4831 163.28 21.1482C163.303 20.8133 163.24 20.478 163.098 20.1761Z" fill="black"/>
<path d="M22.216 8.74853L20.0158 12.5584H32.2297C39.3 12.5584 41.4109 8.75466 34.4477 8.75466L22.216 8.74853ZM23.7859 6.08593H34.6261C40.7033 6.08593 42.7548 2.66873 36.6063 2.66873H25.7363L23.7859 6.08593ZM8.60474 8.74853L10.1448 6.08593H15.7404L19.2607 0H45.5853C51.2165 0 49.9499 1.35584 48.3801 4.06751C47.5714 5.47857 45.1928 6.59514 42.1126 7.10435C45.6269 7.61355 47.6546 8.87123 46.5367 10.7854C44.9669 13.5032 44.4436 15.1964 37.9918 15.2026H10.4541L14.2003 8.73012L8.60474 8.74853ZM63.2104 6.08593L65.1905 2.67487H75.9951C82.4232 2.67487 80.2944 6.09207 74.0209 6.09207L63.2104 6.08593ZM49.9024 15.221H57.9241L61.6643 8.74853H67.1945L72.7127 15.221H81.9593L75.9535 8.67491C83.0892 8.2884 86.5975 6.39882 87.763 4.3804C89.2853 1.74234 90.5281 0.0368101 82.4113 0.0368101L58.7149 0L55.1947 6.08593H50.7943L49.2542 8.75466H53.6486L49.9024 15.221ZM88.4409 8.92645L93.6083 0H101.624L96.7539 8.40497C95.2079 11.0798 98.2049 12.7302 103.123 12.8529C108.248 12.7302 113.101 11.0798 114.659 8.40497L119.523 0H127.538L122.323 9.01233C120.284 12.5277 112.036 15.5339 102.189 15.5339H97.0096C87.1505 15.5339 86.3537 12.5277 88.3814 9.01233L88.4409 8.92645ZM131.522 15.221L138.795 2.66873H128.002L129.548 0H159.143L157.58 2.66873H146.811L139.544 15.221H131.522ZM174.051 9.81602H164.537L172.124 4.98163L174.051 9.81602ZM147.655 15.1964H156.14L160.612 12.3375H174.996L176.156 15.2026H184.689L177.91 0H161.445L159.988 2.52149H168.432L147.655 15.1964ZM187.109 15.1964H216.407L218.786 11.0553H210.788L209.937 12.5277H196.665L203.961 0H195.916L187.109 15.1964ZM221.89 15.1964H251.193L253.572 11.0614H245.586L244.73 12.5338H231.446L233.652 8.73012H242.672L244.212 6.06753H235.18L237.172 2.64419H250.42L249.57 4.11659H257.586L260 0H230.72L227.152 6.0798H222.758L221.218 8.74853H225.612L221.89 15.1964Z" fill="black"/>
</g>
<defs>
<clipPath id="clip0_53_997">
<rect width="260" height="40" fill="white"/>
</clipPath>
</defs>
</svg>
