<svg width="146" height="44" viewBox="0 0 146 44" fill="none" xmlns="http://www.w3.org/2000/svg">
<path d="M14.0866 1.94339L12.8645 6.79888C11.5769 5.31849 10.4403 4.5773 9.45465 4.57531C8.90502 4.5677 8.37278 4.76783 7.96432 5.13568C7.52588 5.52953 7.22156 6.05062 7.09397 6.62601C6.97435 7.07001 6.98054 7.53853 7.11185 7.97923C7.243 8.40248 7.68712 8.95291 8.4442 9.63051C9.0945 10.1926 9.68122 10.8243 10.1938 11.5143C10.6586 12.2561 10.9396 13.0981 11.0135 13.9703C11.1546 15.0255 11.0215 16.3588 10.6141 17.9704C10.0359 20.2675 9.13472 22.0986 7.91066 23.4637C6.68661 24.8289 5.35525 25.5105 3.91658 25.5085C2.36068 25.5085 1.05515 24.7136 0 23.1239L1.34726 17.7588C1.75354 18.6494 2.29662 19.4711 2.95681 20.194C3.20161 20.4385 3.49343 20.6308 3.81464 20.7594C4.13585 20.888 4.47979 20.9501 4.82569 20.9421C6.04974 20.9421 6.85452 20.1781 7.24002 18.65C7.37237 18.162 7.37237 17.6476 7.24002 17.1597C7.11086 16.6967 6.66177 16.1343 5.89276 15.4726C5.2379 14.9267 4.64874 14.3066 4.13715 13.6246C3.67464 12.8894 3.3984 12.0525 3.33238 11.1864C3.20123 10.1313 3.34231 8.78003 3.75563 7.13272C4.29215 4.99857 5.15853 3.27575 6.35476 1.96426C7.551 0.652769 8.87441 -0.0019826 10.325 4.50932e-06C11.6643 4.50932e-06 12.9172 0.639853 14.0836 1.91955L14.0866 1.94339Z" fill="black"/>
<path d="M26.3642 0.341797H29.482L25.938 14.4433C25.0259 18.0678 23.7939 20.8169 22.242 22.6908C20.6901 24.5646 18.9106 25.5015 16.9036 25.5015C14.9165 25.5015 13.615 24.5527 12.999 22.655C12.383 20.7573 12.5201 18.032 13.4103 14.4791L16.9603 0.341797H20.09L16.5132 14.6191C16.078 16.3499 16.0144 17.7409 16.3224 18.7921C16.6304 19.8432 17.2434 20.3609 18.1615 20.345C19.1232 20.345 20.0274 19.8115 20.8739 18.7444C21.7204 17.6773 22.39 16.1601 22.8828 14.1929L26.3642 0.341797Z" fill="black"/>
<path d="M32.3138 0.341797H37.8995C39.1633 0.341797 39.986 1.07206 40.3675 2.5296C40.749 3.98714 40.6894 5.71294 40.1887 7.70402C39.739 9.61598 38.9098 11.4182 37.7505 13.0036C36.6417 14.4721 35.4494 15.2063 34.1737 15.2063H31.6908L29.1841 25.1796H26.0723L32.3138 0.341797ZM34.3019 4.89326L32.8413 10.6549H34.3019C35.5975 10.6549 36.4916 9.6951 36.9844 7.77556C37.2547 6.69656 37.2696 5.94643 37.0292 5.52516C36.7887 5.10389 36.2502 4.89326 35.4136 4.89326H34.3019Z" fill="black"/>
<path d="M48.3942 20.6282L47.2497 25.1796H38.0186L44.2601 0.341797H53.366L52.2244 4.89326H46.2362L44.9277 10.1034H50.6357L49.4911 14.6549H43.7831L42.2809 20.6282H48.3942Z" fill="black"/>
<path d="M56.1731 0.341797H61.7678C62.9819 0.341797 63.7927 1.03728 64.2 2.42826C64.6074 3.81923 64.5627 5.50827 64.0659 7.49537C63.3804 10.2316 62.1543 12.2565 60.3878 13.57C60.8726 14.1403 61.0863 15.6683 61.0286 18.1542C60.971 20.6401 60.9283 22.9849 60.9005 25.1886H57.4787C57.4787 24.3719 57.5144 22.814 57.586 20.5149C57.6575 18.2158 57.5939 16.7394 57.3952 16.0856C57.1985 15.4358 56.8915 15.108 56.4801 15.108H55.5859L53.0524 25.1886H49.9316L56.1731 0.350739V0.341797ZM58.1463 4.89326L56.7246 10.5565H58.3758C58.6544 10.5473 58.9274 10.4765 59.1753 10.3492C59.4231 10.2219 59.6398 10.0413 59.8095 9.82029C60.3012 9.20551 60.6413 8.48359 60.8021 7.71296C61.273 5.84111 60.9134 4.90419 59.7231 4.9022L58.1463 4.89326Z" fill="black"/>
<path d="M79.8963 0.341797L67.7858 25.5015H66.4326L66.689 0.341797H70.0869L69.8335 14.5357L76.5371 0.341797H79.8963Z" fill="black"/>
<path d="M86.3561 20.6282L85.2116 25.1796H75.9805L82.222 0.341797H91.3309L90.1863 4.89326H84.1982L82.8896 10.1034H88.5976L87.453 14.6549H81.7451L80.2428 20.6282H86.3561Z" fill="black"/>
<path d="M98.5822 20.6282L97.4377 25.1796H87.8906L94.1351 0.341797H97.2559L92.1559 20.6282H98.5822Z" fill="black"/>
<path d="M111.853 0.0253929C113.987 0.0253929 115.393 1.30211 116.07 3.85554C116.748 6.40897 116.66 9.38167 115.808 12.7737C115.035 16.0203 113.585 19.0673 111.555 21.7156C109.581 24.2393 107.546 25.5021 105.447 25.5041C103.349 25.506 101.938 24.2492 101.215 21.7335C100.521 19.2198 100.606 16.2332 101.468 12.7737C102.245 9.53816 103.685 6.49927 105.698 3.84958C107.661 1.29813 109.712 0.0234058 111.853 0.0253929ZM106.732 20.3475C107.924 20.3475 109.053 19.652 110.118 18.2611C111.183 16.8701 112.004 15.0419 112.58 12.7766C113.152 10.4994 113.252 8.6683 112.878 7.28329C112.505 5.89729 111.724 5.19683 110.544 5.19683C109.364 5.19683 108.222 5.89133 107.146 7.28329C106.07 8.67526 105.259 10.5113 104.687 12.7737C104.115 15.036 104.019 16.8661 104.389 18.2581C104.759 19.65 105.554 20.3475 106.732 20.3475Z" fill="black"/>
<path d="M129.116 17.6054L127.754 23.0272C125.767 24.6765 123.92 25.5002 122.213 25.4982C119.989 25.4982 118.525 24.2801 117.819 21.8439C117.114 19.4077 117.213 16.4062 118.117 12.8393C119.013 9.26255 120.469 6.2342 122.484 3.7543C124.499 1.27439 126.627 0.0294668 128.869 0.0195312C130.657 0.0195312 131.985 0.748799 132.854 2.20733L131.462 7.73645C130.371 6.04145 129.147 5.19395 127.79 5.19395C126.432 5.19395 125.166 5.90236 123.989 7.31916C122.708 8.89695 121.808 10.7494 121.36 12.732C120.806 14.9377 120.765 16.7569 121.238 18.1896C121.711 19.6223 122.596 20.3407 123.894 20.3446C124.588 20.3326 125.27 20.1591 125.885 19.8379C126.566 19.5021 127.643 18.7579 129.116 17.6054Z" fill="black"/>
<path d="M140.109 20.6282L138.965 25.1796H129.733L135.975 0.341797H145.081L143.936 4.89326H137.951L136.643 10.1034H142.351L141.206 14.6549H135.498L133.996 20.6282H140.109Z" fill="black"/>
<path fill-rule="evenodd" clip-rule="evenodd" d="M89.5955 29.32L86.2368 43.1973L86.1865 43.1973L86.2348 43.2056L86.2368 43.1973L91.2141 43.1982L94.5658 29.32H89.5955ZM100.312 43.2056L93.3703 43.1985L96.7203 29.32H128.322C123.773 29.9267 115.873 32.671 113.479 34.3469C111.069 36.0335 112.73 36.8441 114.915 37.4592C114.777 37.4197 115.049 37.4969 114.915 37.4592C116.953 38.0412 118.382 38.2566 119.225 38.4168C120.462 38.6519 120.394 38.5771 119.464 39.135C118.1 39.9535 113.479 40.9394 108.212 40.9394C108.212 40.9394 103.195 42.8991 100.312 43.2056ZM118.028 43.2056H133.578L136.303 31.9528C134.122 31.873 130.237 31.9528 128.562 32.4316C126.808 32.9325 125.21 33.7085 127.604 34.1075C130.477 34.5863 133.35 35.0651 133.35 36.7409C133.35 38.6562 123.773 41.7685 118.028 43.2056Z" fill="black"/>
</svg>
