<svg width="146" height="38" viewBox="0 0 146 38" fill="none" xmlns="http://www.w3.org/2000/svg">
<path d="M14.0866 1.94339L12.8645 6.79888C11.5769 5.31849 10.4403 4.5773 9.45465 4.57531C8.90502 4.5677 8.37277 4.76783 7.96432 5.13568C7.52588 5.52953 7.22156 6.05062 7.09397 6.62601C6.97435 7.07001 6.98054 7.53853 7.11185 7.97923C7.243 8.40248 7.68712 8.95291 8.4442 9.63051C9.0945 10.1926 9.68122 10.8243 10.1938 11.5143C10.6586 12.2561 10.9396 13.0981 11.0135 13.9703C11.1546 15.0255 11.0215 16.3588 10.6141 17.9704C10.0359 20.2675 9.13472 22.0986 7.91066 23.4637C6.68661 24.8289 5.35525 25.5105 3.91658 25.5085C2.36068 25.5085 1.05515 24.7136 0 23.1239L1.34726 17.7588C1.75354 18.6494 2.29662 19.4711 2.95681 20.194C3.20161 20.4385 3.49343 20.6308 3.81464 20.7594C4.13585 20.888 4.47979 20.9501 4.82569 20.9421C6.04974 20.9421 6.85452 20.1781 7.24002 18.65C7.37237 18.162 7.37237 17.6476 7.24002 17.1597C7.11086 16.6967 6.66177 16.1343 5.89276 15.4726C5.2379 14.9267 4.64874 14.3066 4.13715 13.6246C3.67464 12.8894 3.3984 12.0525 3.33238 11.1864C3.20123 10.1313 3.34231 8.78003 3.75563 7.13272C4.29215 4.99857 5.15853 3.27575 6.35476 1.96426C7.551 0.652769 8.87441 -0.0019826 10.325 4.50931e-06C11.6643 4.50931e-06 12.9172 0.639853 14.0836 1.91955L14.0866 1.94339Z" fill="black"/>
<path d="M26.3639 0.341526H29.4817L25.9377 14.443C25.0256 18.0675 23.7936 20.8167 22.2417 22.6905C20.6897 24.5643 18.9103 25.5013 16.9033 25.5013C14.9162 25.5013 13.6146 24.5524 12.9986 22.6547C12.3826 20.757 12.5198 18.0317 13.41 14.4788L16.9599 0.341526H20.0896L16.5128 14.6189C16.0777 16.3496 16.0141 17.7406 16.3221 18.7918C16.6301 19.843 17.2431 20.3606 18.1611 20.3447C19.1229 20.3447 20.027 19.8112 20.8735 18.7441C21.7201 17.677 22.3897 16.1599 22.8825 14.1926L26.3639 0.341526Z" fill="black"/>
<path d="M32.3134 0.341526H37.8991C39.1629 0.341526 39.9856 1.07179 40.3671 2.52933C40.7486 3.98687 40.689 5.71267 40.1883 7.70375C39.7386 9.61571 38.9094 11.4179 37.7501 13.0034C36.6413 14.4718 35.449 15.2061 34.1733 15.2061H31.6904L29.1837 25.1793H26.0719L32.3134 0.341526ZM34.3015 4.89299L32.8409 10.6546H34.3015C35.5971 10.6546 36.4912 9.69483 36.9841 7.77529C37.2543 6.69629 37.2692 5.94616 37.0288 5.52489C36.7883 5.10362 36.2498 4.89299 35.4132 4.89299H34.3015Z" fill="black"/>
<path d="M48.3941 20.6279L47.2495 25.1793H38.0184L44.2599 0.341526H53.3658L52.2242 4.89299H46.2361L44.9275 10.1032H50.6355L49.4909 14.6546H43.783L42.2807 20.6279H48.3941Z" fill="black"/>
<path d="M56.1735 0.341526H61.7682C62.9823 0.341526 63.7931 1.03701 64.2004 2.42799C64.6078 3.81896 64.5631 5.508 64.0663 7.4951C63.3807 10.2313 62.1547 12.2562 60.3882 13.5697C60.873 14.14 61.0866 15.6681 61.029 18.1539C60.9714 20.6398 60.9287 22.9846 60.9008 25.1883H57.479C57.479 24.3716 57.5148 22.8137 57.5863 20.5146C57.6579 18.2155 57.5943 16.7391 57.3956 16.0854C57.1989 15.4356 56.8919 15.1077 56.4805 15.1077H55.5863L53.0528 25.1883H49.932L56.1735 0.350468V0.341526ZM58.1467 4.89299L56.7249 10.5562H58.3762C58.6547 10.547 58.9277 10.4762 59.1756 10.3489C59.4235 10.2216 59.6401 10.041 59.8099 9.82002C60.3016 9.20524 60.6417 8.48332 60.8025 7.71269C61.2734 5.84084 60.9138 4.90392 59.7235 4.90193L58.1467 4.89299Z" fill="black"/>
<path d="M79.8966 0.341526L67.7862 25.5013H66.433L66.6893 0.341526H70.0872L69.8339 14.5354L76.5374 0.341526H79.8966Z" fill="black"/>
<path d="M86.3557 20.6279L85.2111 25.1793H75.98L82.2215 0.341526H91.3304L90.1858 4.89299H84.1977L82.8892 10.1032H88.5971L87.4526 14.6546H81.7446L80.2424 20.6279H86.3557Z" fill="black"/>
<path d="M98.5823 20.6279L97.4378 25.1793H87.8907L94.1352 0.341526H97.2559L92.156 20.6279H98.5823Z" fill="black"/>
<path d="M111.852 0.0257779C113.986 0.0257779 115.392 1.30249 116.07 3.85592C116.747 6.40935 116.66 9.38206 115.808 12.774C115.034 16.0207 113.585 19.0676 111.554 21.716C109.581 24.2396 107.545 25.5024 105.447 25.5044C103.348 25.5064 101.938 24.2496 101.214 21.7339C100.521 19.2202 100.605 16.2336 101.468 12.774C102.244 9.53855 103.685 6.49966 105.697 3.84996C107.66 1.29852 109.712 0.0237908 111.852 0.0257779ZM106.731 20.3479C107.924 20.3479 109.052 19.6524 110.117 18.2614C111.183 16.8705 112.003 15.0423 112.579 12.777C113.152 10.4998 113.251 8.66869 112.878 7.28368C112.505 5.89767 111.724 5.19722 110.544 5.19722C109.363 5.19722 108.222 5.89171 107.146 7.28368C106.07 8.67564 105.259 10.5117 104.687 12.774C104.114 15.0364 104.019 16.8665 104.389 18.2585C104.758 19.6504 105.554 20.3479 106.731 20.3479Z" fill="black"/>
<path d="M129.116 17.6052L127.754 23.027C125.767 24.6763 123.92 25.5 122.213 25.498C119.989 25.498 118.525 24.2799 117.819 21.8437C117.114 19.4075 117.213 16.406 118.117 12.8391C119.014 9.26235 120.469 6.234 122.484 3.7541C124.499 1.27419 126.627 0.0292672 128.869 0.0193317C130.657 0.0193317 131.986 0.748599 132.854 2.20713L131.462 7.73625C130.371 6.04125 129.147 5.19375 127.79 5.19375C126.433 5.19375 125.166 5.90216 123.989 7.31896C122.708 8.89675 121.808 10.7492 121.36 12.7318C120.806 14.9375 120.765 16.7567 121.238 18.1894C121.711 19.6221 122.596 20.3405 123.894 20.3444C124.588 20.3324 125.27 20.1589 125.885 19.8377C126.567 19.5019 127.644 18.7577 129.116 17.6052Z" fill="black"/>
<path d="M140.109 20.6279L138.964 25.1793H129.733L135.975 0.341526H145.081L143.936 4.89299H137.951L136.642 10.1032H142.35L141.206 14.6546H135.498L133.995 20.6279H140.109Z" fill="black"/>
<path fill-rule="evenodd" clip-rule="evenodd" d="M135.923 33.7596C133.982 33.7596 131.254 35.7658 130.778 36.291C130.392 36.7191 130.731 36.9481 131.366 36.9481C133.155 36.9481 135.647 35.1709 136.344 34.3993C136.819 33.8741 136.406 33.7596 135.923 33.7596ZM129.412 35.8056C130.494 34.6084 133.832 33.3838 136.167 33.3838C138.014 33.3838 138.367 34.1828 137.66 34.9519C136.724 35.9873 133.812 37.2318 131.025 37.2318C129.053 37.2318 128.785 36.4851 129.402 35.8056H129.412Z" fill="black"/>
<path fill-rule="evenodd" clip-rule="evenodd" d="M94.4852 33.8815C94.6246 33.8815 94.647 34.0557 94.52 34.1304L91.7971 35.9822C91.5403 36.1493 91.2973 36.3365 91.0703 36.5422C90.9234 36.704 91.0877 36.7638 91.252 36.7638C91.6029 36.7214 91.6527 36.7364 93.5916 36.1614L93.3427 36.4402C91.2569 37.1172 90.4829 37.2267 89.9925 37.2242C88.9969 37.2242 89.3728 36.6965 89.5321 36.5198C90.107 35.8851 91.8842 34.7029 93.1785 33.8491L94.4852 33.8815Z" fill="black"/>
<path fill-rule="evenodd" clip-rule="evenodd" d="M101.322 34.437C101.442 34.3051 101.466 34.096 100.824 34.096C99.3309 34.096 96.9788 35.3405 96.2022 35.9876C100.419 35.4077 101.188 34.5863 101.322 34.437ZM99.9158 36.4282C98.2606 36.9011 96.9987 37.257 95.6845 37.257C94.6217 37.257 93.6933 36.9758 94.4226 36.1619C95.5302 34.9373 98.8231 33.7749 101.277 33.7749C102.694 33.7749 102.621 34.3026 102.37 34.5838C101.434 35.6168 97.5164 36.0897 95.911 36.2664C95.458 36.7393 95.9632 36.8638 96.6726 36.8638C97.2725 36.8638 98.0665 36.7542 99.9083 36.239L99.9233 36.4282H99.9158Z" fill="black"/>
<path fill-rule="evenodd" clip-rule="evenodd" d="M82.6379 34.437C82.7574 34.3051 82.7823 34.096 82.1401 34.096C80.6467 34.096 78.2971 35.3405 77.518 35.9876C81.7245 35.4077 82.4936 34.5863 82.6379 34.437ZM81.2316 36.4282C79.5764 36.9011 78.3145 37.257 77.0003 37.257C75.9375 37.257 75.0091 36.9758 75.7409 36.1619C76.8485 34.9373 80.139 33.7749 82.5931 33.7749C84.0094 33.7749 83.9397 34.3026 83.6858 34.5838C82.7499 35.6168 78.8322 36.0897 77.2268 36.2664C76.7738 36.7393 77.2791 36.8638 77.9885 36.8638C78.5883 36.8638 79.3823 36.7542 81.2117 36.239L81.2267 36.4282H81.2316Z" fill="black"/>
<path fill-rule="evenodd" clip-rule="evenodd" d="M88.0445 33.8265L85.1672 35.8178C88.0992 34.3567 89.8191 33.8738 90.862 33.8265C93.351 33.727 90.5783 34.3916 89.2989 34.4712C88.495 34.5235 86.2374 35.5465 83.4871 37.2091L81.6353 37.229L86.4639 33.834L88.0445 33.8265Z" fill="black"/>
<path fill-rule="evenodd" clip-rule="evenodd" d="M127.005 33.4535L123.807 35.6563C127.065 34.031 128.977 33.4959 130.136 33.4486C132.912 33.3391 129.823 34.0758 128.394 34.1654C127.501 34.2227 124.992 35.3626 121.923 37.1995L119.862 37.2244L125.231 33.4486L127.005 33.4535Z" fill="black"/>
<path fill-rule="evenodd" clip-rule="evenodd" d="M122.415 30.9521C122.141 30.5239 121.355 30.3746 120.578 30.3746C116.504 30.3746 112.817 32.8163 110.906 34.932C109.736 36.2412 110.062 36.968 111.777 36.968C115.575 36.968 120.22 34.3819 121.773 32.6645C122.218 32.1866 122.749 31.4623 122.415 30.9521ZM118.184 35.8454C116.464 36.4851 113.952 37.2468 111.536 37.2468C108.549 37.2468 107.872 36.0023 109.233 34.4864C111.588 31.8829 117.756 29.8594 121.462 29.8594C123.62 29.8594 125.223 30.8724 123.597 32.6695C122.766 33.5904 121.066 34.7777 118.184 35.8454Z" fill="black"/>
<path fill-rule="evenodd" clip-rule="evenodd" d="M64.1873 36.3062C65.6676 36.7065 67.1963 36.9 68.7297 36.8811C70.4994 36.8811 73.3792 36.5999 73.9915 35.7387C74.2976 35.2807 73.755 34.8775 72.8864 34.3274L71.938 33.7699C71.2809 33.3716 70.5716 32.9834 70.9723 32.386C71.7837 31.1738 75.8632 30.2031 79.0168 30.2031C80.9532 30.2031 81.3266 30.7009 81.0852 31.0718C80.7292 31.602 79.1288 32.1694 77.8992 32.5179L76.7792 32.2914C78.3672 31.9031 79.9128 31.3829 80.2165 30.9274C80.3509 30.7109 80.1518 30.5192 78.8077 30.5192C76.5676 30.5192 72.961 31.1664 72.3213 32.1222C72.0724 32.4905 72.406 32.6424 73.1104 33.0481L74.1781 33.6653C74.9672 34.1109 75.9503 34.763 75.4451 35.5221C74.9746 36.2216 72.8764 37.2221 68.0651 37.2221C66.3661 37.2372 64.6697 37.0863 63 36.7716L64.1773 36.3062H64.1873Z" fill="black"/>
<path fill-rule="evenodd" clip-rule="evenodd" d="M20.9537 31.5396H18.8775C18.7178 31.5261 18.5573 31.5544 18.4117 31.6215C18.2661 31.6887 18.1405 31.7925 18.0471 31.9228C17.5999 32.6255 17.1527 33.3602 16.6736 34.0629L15.3321 36.2029H18.079C18.189 36.2169 18.3008 36.2005 18.4022 36.1555C18.5035 36.1104 18.5906 36.0385 18.6539 35.9474L19.9635 33.9032C20.3787 33.2005 20.794 32.5297 21.2411 31.859C21.305 31.7631 21.1134 31.5396 20.9537 31.5396ZM28.3959 30.5813L26.2878 33.8712L24.2116 37.1611C24.0534 37.3609 23.8479 37.5181 23.6137 37.6185C23.3795 37.7189 23.1239 37.7593 22.8701 37.7361H8.01765C8.78423 36.5543 9.55081 35.3725 10.2854 34.1587L12.5532 30.5813C12.8088 30.198 13.2559 30.0064 13.8948 30.0064H27.821C28.1404 30.0064 28.4917 30.3897 28.3959 30.5813Z" fill="black"/>
<path fill-rule="evenodd" clip-rule="evenodd" d="M38.3599 31.5395H36.3157C36.156 31.5261 35.9954 31.5543 35.8499 31.6215C35.7043 31.6887 35.5787 31.7925 35.4853 31.9228L34.1118 34.0629C33.6966 34.7656 33.2175 35.5002 32.7703 36.2029H35.5172C35.6313 36.2105 35.7455 36.1913 35.8509 36.1469C35.9562 36.1026 36.0498 36.0342 36.1241 35.9474C36.5393 35.2447 36.9545 34.5739 37.4017 33.9032C37.8489 33.2324 38.2641 32.5297 38.6793 31.8589C38.7432 31.7631 38.5516 31.5395 38.3599 31.5395ZM45.8021 30.5813L43.726 33.8712C43.0233 34.9572 42.3206 36.0432 41.6498 37.1611C41.4916 37.3609 41.2861 37.5181 41.0519 37.6185C40.8177 37.7188 40.5621 37.7593 40.3083 37.7361H25.4878L27.7556 34.1587C28.4902 32.9769 29.2568 31.7951 29.9914 30.5813C30.1496 30.3815 30.3552 30.2243 30.5894 30.124C30.8236 30.0236 31.0792 29.9832 31.333 30.0064H45.2272C45.5466 30.0064 45.9299 30.3897 45.8021 30.5813Z" fill="black"/>
<path fill-rule="evenodd" clip-rule="evenodd" d="M55.8326 31.5395H53.7884C53.6286 31.5261 53.4681 31.5543 53.3225 31.6215C53.1769 31.6887 53.0513 31.7925 52.9579 31.9228C52.5107 32.6255 52.0316 33.3602 51.6164 34.0629L50.2429 36.2029H52.9898C53.1039 36.2105 53.2181 36.1913 53.3235 36.1469C53.4289 36.1026 53.5224 36.0342 53.5967 35.9474C54.0119 35.2447 54.4272 34.5739 54.8743 33.9032C55.3215 33.2324 55.7367 32.5297 56.152 31.8589C56.2159 31.7631 56.0242 31.5395 55.8326 31.5395ZM63.2748 30.5813L61.1986 33.8712C60.4959 34.9572 59.7932 36.0432 59.1225 37.1611C58.9643 37.3609 58.7587 37.5181 58.5245 37.6185C58.2903 37.7188 58.0347 37.7593 57.781 37.7361H42.9604L45.2282 34.1587C45.9629 32.9769 46.7294 31.7951 47.4641 30.5813C47.6223 30.3815 47.8278 30.2243 48.062 30.124C48.2962 30.0236 48.5518 29.9832 48.8056 30.0064H62.6998C63.0193 30.0064 63.4025 30.3897 63.2748 30.5813Z" fill="black"/>
<path fill-rule="evenodd" clip-rule="evenodd" d="M10.1891 30.0063H4.12037C3.92101 29.9997 3.72322 30.0436 3.54543 30.134L1.5651 30.9964C1.50809 31.0258 1.46254 31.0734 1.43569 31.1316C1.40884 31.1899 1.40223 31.2554 1.41692 31.3178C1.43161 31.3802 1.46675 31.436 1.51675 31.4761C1.56675 31.5163 1.62874 31.5386 1.69286 31.5394H3.35379C3.51349 31.5394 3.70514 31.763 3.6732 31.8588L0 37.7679H5.27024C5.90905 37.7679 6.38817 37.5443 6.61175 37.161L8.68791 33.8711C9.3906 32.7851 10.0933 31.6991 10.7641 30.5812C10.9238 30.3896 10.5085 30.0063 10.1891 30.0063Z" fill="black"/>
</svg>
