<svg width="287" height="39" viewBox="0 0 287 39" fill="none" xmlns="http://www.w3.org/2000/svg">
<path fill-rule="evenodd" clip-rule="evenodd" d="M166.599 38.9126H275.301C275.774 38.9126 276.32 38.4587 276.521 37.8992L281.416 25.8587C281.617 25.2992 281.245 24.8453 280.669 24.8453L172.93 24.6562C172.457 24.6562 171.91 25.1093 171.71 25.6688L166.106 37.8992C165.905 38.4587 166.126 38.9126 166.599 38.9126ZM187.844 26.7922H182.177L170.089 36.6428H174.952L177.005 34.9015H185.829L186.404 36.6428H191.246L187.844 26.7922ZM179.581 32.779H185.149L183.98 29.0776L179.581 32.779ZM193.655 33.4218H198.007C197.559 34.4697 198.131 34.5508 199.385 34.5508H204.718C205.641 34.5508 206.612 34.4827 206.953 33.7211C207.335 32.8646 206.85 32.8087 201.242 32.8087C194.693 32.8087 194.191 32.2653 195.274 29.8429C196.07 28.0603 196.92 26.6864 202.41 26.6864H208.489C213.508 26.6864 213.449 27.8696 212.677 29.5979L212.537 29.911H208.184C208.506 29.1899 208.523 28.8907 206.523 28.8907H201.699C200.718 28.8907 199.949 29.1219 199.711 29.653C199.328 30.5103 199.846 30.5371 204.519 30.5241C211.289 30.5103 212.73 30.7951 211.447 33.6661C210.261 36.3196 208.773 36.7544 202.989 36.7544H197.714C193.754 36.7544 192.396 36.2378 193.351 34.1015L193.655 33.4218ZM218.998 33.4218H214.645L214.341 34.1015C213.386 36.2378 214.744 36.7544 218.704 36.7544H223.979C229.763 36.7544 231.252 36.3196 232.437 33.6661C233.72 30.7951 232.279 30.5103 225.508 30.5241C220.836 30.5371 220.319 30.5103 220.701 29.653C220.939 29.1219 221.709 28.8907 222.689 28.8907H227.513C229.513 28.8907 229.496 29.1899 229.174 29.911H233.528L233.668 29.5979C234.44 27.8696 234.498 26.6864 229.478 26.6864H223.4C217.909 26.6864 217.06 28.0603 216.264 29.8429C215.181 32.2653 215.683 32.8087 222.232 32.8087C227.84 32.8087 228.325 32.8646 227.943 33.7211C227.602 34.4827 226.631 34.5508 225.709 34.5508H220.376C219.122 34.5508 218.549 34.4697 218.998 33.4218ZM238.851 26.792H254.379L253.358 29.0775H242.182L241.477 30.6558H252.065L251.153 32.6964H240.565L239.86 34.2746H251.292L250.233 36.6428H234.449L238.851 26.792ZM264.384 26.792H257.808L253.516 36.6428H257.761L260.879 29.4862H260.917L265.771 36.6428H272.348L276.64 26.792H272.396L269.277 33.9493H269.239L264.384 26.792Z" fill="black"/>
<path d="M243.779 17.6064H245.145L276.769 17.6011L279.462 13.089H270.442L269.482 14.6949H254.54L257.019 10.5502H267.178L268.912 7.64558H258.739L260.982 3.91113H275.9L274.941 5.51466H283.966L286.682 1.00258L253.696 1.00182L249.729 7.63865L246.152 7.63637L246.149 7.63721L244.784 7.63637L243.05 10.5449H247.996L243.779 17.6064ZM204.624 17.608L237.608 17.6095L240.306 13.0899H231.282L230.325 14.6956L215.383 14.6979L223.563 1.00182H214.538L204.624 17.608ZM160.207 17.6111L169.763 17.6102L174.794 14.4874L190.988 14.4859L192.297 17.6102H201.905L194.268 1.00182L175.734 1.00258L174.091 3.75574L183.6 3.75345L160.207 17.6111ZM189.922 11.7374L179.205 11.7359L187.743 6.46223L189.922 11.7374ZM142.051 17.6102L150.236 3.91265H138.086L139.825 1.00258L173.143 1.00182L171.404 3.91502L170.04 3.91265V3.91502L159.259 3.91113L151.081 17.6073L143.417 17.6102V17.6095L142.051 17.6102ZM93.5478 10.7439L99.3648 1.00495H100.732L108.39 1.00638L102.906 10.179C101.166 13.0998 104.542 14.8992 110.079 15.0355C115.845 14.8992 121.313 13.1013 123.065 10.1775L128.545 1.00182L137.571 1.00258L131.696 10.8388C129.401 14.6728 120.119 17.9547 109.031 17.9531H103.202C92.1051 17.9524 91.2034 14.6704 93.4919 10.838L93.5478 10.7439ZM50.1626 17.6102H59.1905L63.4064 10.5502L69.6352 10.548L75.8525 17.6095L86.2574 17.608L79.4966 10.4669C87.5402 10.0466 91.479 7.98392 92.7923 5.79104C94.5084 2.90853 95.9075 1.04781 86.7343 1.04705L60.0822 1.00258L56.1197 7.64254L52.5369 7.63865V7.64017L51.1707 7.63865L49.4355 10.548H54.3838L50.1626 17.6102ZM65.1453 7.64558L67.3757 3.9173L79.5402 3.91502C86.7725 3.93412 84.376 7.64017 77.316 7.64017L65.1453 7.64558ZM3.67065 10.5495L5.40584 7.64558H11.7043L15.6721 1.00258H17.0369L45.3062 1.00638C51.6453 1.00258 50.217 2.48522 48.452 5.44728C47.5335 6.97659 44.8293 8.19816 41.395 8.7531C45.3498 9.30805 47.6361 10.6834 46.3724 12.7928C44.6059 15.755 44.0218 17.6064 36.7567 17.6102H5.7572L9.97381 10.5495H3.67065ZM20.736 7.64558L32.9672 7.64017C39.8098 7.64017 42.1152 3.91502 35.1952 3.91502H22.961L20.736 7.64558ZM18.9971 10.5502L16.5203 14.7049L30.2676 14.6987C38.2262 14.7002 40.6036 10.5502 32.7636 10.5495L18.9971 10.5502Z" fill="black"/>
<path d="M243.779 17.6064H245.145L276.769 17.6011L279.462 13.089H270.442L269.482 14.6949H254.54L257.019 10.5502H267.178L268.912 7.64558H258.739L260.982 3.91113H275.9L274.941 5.51466H283.966L286.682 1.00258L253.696 1.00182L249.729 7.63865L246.152 7.63637L246.149 7.63721L244.784 7.63637L243.05 10.5449H247.996L243.779 17.6064ZM204.624 17.608L237.608 17.6095L240.306 13.0899H231.282L230.325 14.6956L215.383 14.6979L223.563 1.00182H214.538L204.624 17.608ZM160.207 17.6111L169.763 17.6102L174.794 14.4874L190.988 14.4859L192.297 17.6102H201.905L194.268 1.00182L175.734 1.00258L174.091 3.75574L183.6 3.75345L160.207 17.6111ZM189.922 11.7374L179.205 11.7359L187.743 6.46223L189.922 11.7374ZM142.051 17.6102L150.236 3.91265H138.086L139.825 1.00258L173.143 1.00182L171.404 3.91502L170.04 3.91265V3.91502L159.259 3.91113L151.081 17.6073L143.417 17.6102V17.6095L142.051 17.6102ZM93.5478 10.7439L99.3648 1.00495H100.732L108.39 1.00638L102.906 10.179C101.166 13.0998 104.542 14.8992 110.079 15.0355C115.845 14.8992 121.313 13.1013 123.065 10.1775L128.545 1.00182L137.571 1.00258L131.696 10.8388C129.401 14.6728 120.119 17.9547 109.031 17.9531H103.202C92.1051 17.9524 91.2034 14.6704 93.4919 10.838L93.5478 10.7439ZM50.1626 17.6102H59.1905L63.4064 10.5502L69.6352 10.548L75.8525 17.6095L86.2574 17.608L79.4966 10.4669C87.5402 10.0466 91.479 7.98392 92.7923 5.79104C94.5084 2.90853 95.9075 1.04781 86.7343 1.04705L60.0822 1.00258L56.1197 7.64254L52.5369 7.63865V7.64017L51.1707 7.63865L49.4355 10.548H54.3838L50.1626 17.6102ZM65.1453 7.64558L67.3757 3.9173L79.5402 3.91502C86.7725 3.93412 84.376 7.64017 77.316 7.64017L65.1453 7.64558ZM3.67065 10.5495L5.40584 7.64558H11.7043L15.6721 1.00258H17.0369L45.3062 1.00638C51.6453 1.00258 50.217 2.48522 48.452 5.44728C47.5335 6.97659 44.8293 8.19816 41.395 8.7531C45.3498 9.30805 47.6361 10.6834 46.3724 12.7928C44.6059 15.755 44.0218 17.6064 36.7567 17.6102H5.7572L9.97381 10.5495H3.67065ZM20.736 7.64558L32.9672 7.64017C39.8098 7.64017 42.1152 3.91502 35.1952 3.91502H22.961L20.736 7.64558ZM18.9971 10.5502L16.5203 14.7049L30.2676 14.6987C38.2262 14.7002 40.6036 10.5502 32.7636 10.5495L18.9971 10.5502Z" fill="black" stroke="white" stroke-width="0.133333" stroke-miterlimit="10"/>
<path d="M0 35.9766L7.1971 35.9744C7.83617 35.9735 8.59165 35.753 9.04243 35.0084C10.9398 31.8732 12.6759 28.6019 14.5878 25.4738C14.7599 25.205 14.4424 24.811 14.3015 24.6961C14.1944 24.6081 14.0597 24.54 13.9219 24.54C11.2384 24.54 8.55487 24.5384 5.87138 24.5384C5.60506 24.5384 5.32489 24.6058 5.06314 24.7428C4.15616 25.2158 3.24833 25.682 2.34135 26.155C1.96251 26.3524 2.02904 27.013 2.41642 27.013H4.42788C4.59164 27.013 4.70493 26.9878 4.83969 27.111C5.11826 27.365 5.00193 27.5136 4.81365 27.8273C4.10027 29.0191 3.39383 30.2177 2.68882 31.417C1.79486 32.9387 0.902417 34.4619 0 35.9766ZM4.63222 25.8925C4.85034 25.7799 5.06847 25.6674 5.28667 25.5565C5.45043 25.473 5.62417 25.4287 5.79106 25.4287C8.39111 25.4287 10.9904 25.4294 13.5897 25.4294H13.7573L13.6463 25.6131C11.863 28.5377 10.2549 31.6068 8.47455 34.5339C8.19979 34.9847 7.66015 35.0864 7.27818 35.0864C5.36775 35.0864 3.45656 35.0856 1.54613 35.0856H1.38085L5.55527 28.021C5.90967 27.4194 5.70229 26.7375 5.33258 26.3899C5.15419 26.2231 4.93227 26.1229 4.69495 26.1229H4.64068H4.18904L4.63222 25.8925Z" fill="black"/>
<path d="M43.2986 25.2751C43.16 24.8129 42.8049 24.6307 42.413 24.6291L17.6508 24.6039C16.8578 24.6031 15.8643 25.321 15.366 26.2044L10.3473 35.1273C10.2478 35.3033 10.2126 35.5192 10.2662 35.6983C10.3014 35.8185 10.3734 35.9081 10.4698 35.9463C10.505 35.9616 10.5433 35.9685 10.5831 35.9685L36.4468 35.9961C37.2381 35.9968 38.2332 35.2775 38.7299 34.3956L43.0406 26.731C43.2925 26.284 43.441 25.7466 43.2986 25.2751ZM11.2383 35.0087L15.9095 26.7027C16.2493 26.0979 16.9941 25.5652 17.5375 25.5652L42.2989 25.5905C42.3678 25.5905 42.4368 25.5989 42.4987 25.6241C42.5508 25.6448 42.612 25.6846 42.632 25.7512C42.6709 25.8821 42.5653 26.1125 42.4972 26.2327L38.1865 33.8966C37.8474 34.5005 37.1011 35.0355 36.5592 35.0355L11.2383 35.0087ZM20.4521 33.8323L20.5057 33.9349L28.0235 33.9425C28.7361 33.9433 29.6638 33.2712 30.1092 32.4753L32.41 28.3651C32.609 28.0099 32.743 27.5705 32.6289 27.1924C32.5172 26.822 32.2179 26.6895 31.9064 26.6888L25.6201 26.6819C24.9068 26.6819 23.9791 27.354 23.5337 28.1491L20.7131 33.1893C20.6351 33.3287 20.5577 33.468 20.479 33.6065C20.4407 33.6731 20.4299 33.758 20.4514 33.8254L20.4521 33.8323ZM31.8895 27.8239C31.8818 27.84 31.8727 27.856 31.865 27.8706L29.5642 31.9808C29.278 32.4929 28.5952 32.9827 28.1368 32.9827L21.6538 32.9758L24.0779 28.6444C24.3641 28.1324 25.0476 27.6434 25.5061 27.644L31.7923 27.6501C31.8061 27.6501 31.8199 27.6501 31.8329 27.6509L31.9722 27.6623L31.8895 27.8239Z" fill="black"/>
<path d="M102.006 25.2524C101.866 24.7902 101.512 24.6079 101.119 24.6072L76.3571 24.5812C75.5641 24.5804 74.5707 25.2983 74.0731 26.1817L69.0544 35.1046C68.9549 35.2807 68.9189 35.4958 68.9725 35.6749C69.0085 35.7957 69.0796 35.8854 69.1769 35.9235C69.2114 35.9389 69.2496 35.9459 69.2902 35.9451L95.153 35.9727C95.9445 35.9742 96.9403 35.2547 97.437 34.3722L101.747 26.7074C102 26.2612 102.148 25.724 102.006 25.2524ZM69.9446 34.9859L74.6166 26.6799C74.9564 26.0752 75.7012 25.5424 76.243 25.5424L101.006 25.5678C101.074 25.5678 101.144 25.5762 101.206 25.6015C101.258 25.6228 101.318 25.6619 101.339 25.7293C101.377 25.8586 101.272 26.0898 101.204 26.21L96.8936 33.8746C96.553 34.4778 95.8075 35.0136 95.2663 35.0128L69.9446 34.9859ZM79.1593 33.8095L79.2128 33.9114L86.7305 33.9199C87.4432 33.9206 88.3701 33.2493 88.8156 32.4526L91.1163 28.3431C91.3153 27.9872 91.45 27.5478 91.336 27.1689C91.2243 26.7993 90.9242 26.6668 90.6135 26.6661L84.3256 26.66C83.6131 26.66 82.6862 27.3312 82.2407 28.1257L79.4195 33.1667C79.3422 33.306 79.2649 33.4453 79.186 33.5837C79.147 33.6503 79.137 33.7353 79.1577 33.8027L79.1593 33.8095ZM90.5959 27.8019C90.5882 27.8173 90.5798 27.8334 90.5721 27.8479L88.2713 31.9581C87.9843 32.4694 87.3023 32.9599 86.8438 32.9593L80.3609 32.953L82.7849 28.6218C83.0713 28.1096 83.7547 27.6206 84.2124 27.6214L90.4994 27.6274C90.5132 27.6274 90.527 27.6274 90.54 27.6291L90.6777 27.6412L90.5959 27.8019ZM72.8087 25.2219C72.6694 24.7587 72.3143 24.5773 71.9223 24.5773L47.1601 24.5513C46.3672 24.5505 45.373 25.2685 44.8754 26.1517L39.8567 35.0756C39.7579 35.2508 39.7219 35.466 39.7756 35.645C39.8108 35.7643 39.882 35.8555 39.9791 35.8938C40.0144 35.9091 40.0527 35.9152 40.0917 35.9152L65.9561 35.9427C66.7483 35.9435 67.7433 35.2241 68.2393 34.3423L72.5508 26.6776C72.8018 26.2306 72.9511 25.6933 72.8087 25.2219ZM40.7468 34.9562L45.4189 26.6493C45.7587 26.0462 46.5049 25.5111 47.0461 25.5119L71.8091 25.5371C71.8765 25.5371 71.9453 25.5463 72.0081 25.5716C72.0601 25.5916 72.1213 25.6321 72.1413 25.6978C72.1803 25.8273 72.0747 26.0592 72.0073 26.1801L67.6966 33.8441C67.3568 34.4472 66.6112 34.9821 66.0686 34.9821L40.7468 34.9562ZM49.9623 33.7812L50.0151 33.8823L57.5329 33.8899C58.2455 33.8899 59.1731 33.218 59.6178 32.4227L61.9186 28.3117C62.1176 27.9566 62.2531 27.5173 62.1383 27.1391C62.0265 26.7679 61.7272 26.6363 61.4165 26.6354L55.1287 26.6287C54.4154 26.6279 53.4892 27.3006 53.0438 28.0958L50.7706 32.1571C50.5096 32.6224 50.2524 33.0917 49.9898 33.5509C49.9524 33.6213 49.9386 33.7048 49.9615 33.7751L49.9623 33.7812ZM61.3996 27.7706C61.3913 27.7874 61.3836 27.8019 61.3752 27.8173L59.0736 31.9275C58.7873 32.4395 58.1062 32.9286 57.6469 32.9279L51.1647 32.9225L53.5872 28.5911C53.875 28.0806 54.5562 27.5883 55.0154 27.59L61.3025 27.5968C61.3155 27.5968 61.3284 27.5976 61.3415 27.5984L61.4823 27.6075L61.3996 27.7706Z" fill="black"/>
<path d="M154.084 33.9949H157.815C161.079 33.9949 162.312 31.1699 162.312 31.1699C164.257 26.7122 159.602 26.9585 159.602 26.9585H136.789C136.718 27.649 136.597 28.5217 136.248 29.3221C136.195 29.4416 135.282 31.6391 133.053 32.6602L132.469 33.9016C133.996 34.3685 135.848 34.9082 138.1 35.5289L138.496 35.6376L142.056 29.4852H154.162C154.162 29.4852 156.2 29.5029 155.768 30.5125C155.68 30.7184 155.38 31.4332 154.12 31.4424L147.634 31.4332C147.634 31.4332 136.599 31.4155 151.416 38.9961H164.731C145.924 33.8105 154.084 33.9949 154.084 33.9949Z" fill="black"/>
<path d="M154.084 33.9949H157.815C161.079 33.9949 162.312 31.1699 162.312 31.1699C164.257 26.7122 159.602 26.9585 159.602 26.9585H136.789C136.718 27.649 136.597 28.5217 136.248 29.3221C136.195 29.4416 135.282 31.6391 133.053 32.6602L132.469 33.9016C133.996 34.3685 135.848 34.9082 138.1 35.5289L138.496 35.6376L142.056 29.4852H154.162C154.162 29.4852 156.2 29.5029 155.768 30.5125C155.68 30.7184 155.38 31.4332 154.12 31.4424L147.634 31.4332C147.634 31.4332 136.599 31.4155 151.416 38.9961H164.731C145.924 33.8105 154.084 33.9949 154.084 33.9949Z" fill="black"/>
<path fill-rule="evenodd" clip-rule="evenodd" d="M100.608 35.8497H108.275L113.021 27.6041H126.223C126.223 27.6041 128.484 27.471 128.013 28.5891C127.918 28.8172 127.59 29.6093 126.215 29.6186L119.143 29.6093C119.143 29.6093 107.108 29.5895 123.267 37.9883H137.788C117.278 32.2432 126.177 32.4476 126.177 32.4476H130.245C133.805 32.4476 135.15 29.317 135.15 29.317C136.538 26.0871 134.917 25.1203 133.581 24.8141C132.874 24.6527 132.195 24.652 132.195 24.652H106.983L100.608 35.8497ZM102.343 34.8248H107.707L112.453 26.5792H126.223C126.616 26.5792 127.316 26.6159 127.693 26.7162C128.273 26.8701 128.646 27.0429 128.922 27.6232C129.132 28.0657 129.112 28.5517 128.924 28.9971C128.434 30.1613 127.411 30.6458 126.214 30.6442L119.142 30.6343C118.594 30.6335 115.292 30.723 115.991 31.7977C116.28 32.2415 116.746 32.6703 117.145 33.0055C117.921 33.6599 118.789 34.2423 119.644 34.7774C120.897 35.5611 122.197 36.2798 123.504 36.9634H130.737C130.678 36.9443 130.619 36.9251 130.561 36.906C129.142 36.4505 127.709 35.9699 126.326 35.4074C125.611 35.1157 124.778 34.7621 124.137 34.3204C123.571 33.9316 123.067 33.3369 123.286 32.5777C123.612 31.4555 125.247 31.402 126.188 31.4226H130.245C131.411 31.4226 132.447 31.0238 133.295 30.1973C133.634 29.8666 134.047 29.3453 134.242 28.9014C134.493 28.319 134.799 27.4211 134.629 26.7729C134.538 26.4246 134.321 26.188 134.013 26.0373C133.851 25.9584 133.576 25.8474 133.104 25.7854C132.463 25.7006 131.61 25.6768 131.61 25.6768H107.551L102.343 34.8248Z" fill="black"/>
<path d="M100.608 35.8497H108.275L113.021 27.6041H126.223C126.223 27.6041 128.484 27.471 128.013 28.5891C127.918 28.8172 127.59 29.6093 126.215 29.6186L119.143 29.6093C119.143 29.6093 107.108 29.5895 123.267 37.9883H137.788C117.278 32.2432 126.177 32.4476 126.177 32.4476H130.245C133.805 32.4476 135.15 29.317 135.15 29.317C136.538 26.0871 134.917 25.1203 133.581 24.8141C132.874 24.6527 132.195 24.652 132.195 24.652H106.983L100.608 35.8497ZM102.343 34.8248H107.707L112.453 26.5792H126.223C126.616 26.5792 127.316 26.6159 127.693 26.7162C128.273 26.8701 128.646 27.0429 128.922 27.6232C129.132 28.0657 129.112 28.5517 128.924 28.9971C128.434 30.1613 127.411 30.6458 126.214 30.6442L119.142 30.6343C118.594 30.6335 115.292 30.723 115.991 31.7977C116.28 32.2415 116.746 32.6703 117.145 33.0055C117.921 33.6599 118.789 34.2423 119.644 34.7774C120.897 35.5611 122.197 36.2798 123.504 36.9634H130.737C130.678 36.9443 130.619 36.9251 130.561 36.906C129.142 36.4505 127.709 35.9699 126.326 35.4074C125.611 35.1157 124.778 34.7621 124.137 34.3204C123.571 33.9316 123.067 33.3369 123.286 32.5777C123.612 31.4555 125.247 31.402 126.188 31.4226H130.245C131.411 31.4226 132.447 31.0238 133.295 30.1973C133.634 29.8666 134.047 29.3453 134.242 28.9014C134.493 28.319 134.799 27.4211 134.629 26.7729C134.538 26.4246 134.321 26.188 134.013 26.0373C133.851 25.9584 133.576 25.8474 133.104 25.7854C132.463 25.7006 131.61 25.6768 131.61 25.6768H107.551L102.343 34.8248Z" fill="black"/>
</svg>
