<svg width="221" height="30" viewBox="0 0 221 30" fill="none" xmlns="http://www.w3.org/2000/svg">
<path d="M16.213 3.22582L14.4507 5.78326H23.6048C24.9257 5.72942 25.7461 5.47192 26.0624 5.0131L26.7341 4.03811C26.9206 3.76774 26.7742 3.53833 26.2997 3.34755C25.9621 3.26679 25.6517 3.22582 25.3672 3.22582H16.213ZM12.2693 8.94934L10.4786 11.5466H19.5784C20.8651 11.4939 21.676 11.2224 22.0112 10.7355L22.6546 9.8026C22.991 9.31452 22.5082 9.03127 21.2086 8.94934H12.2693ZM10.069 0.100708H29.9826C33.8013 0.100708 35.8292 0.628583 36.0653 1.68316C36.1432 2.03664 35.9118 2.60431 35.3712 3.38851L34.5603 4.56599C33.5911 5.97287 31.8406 6.9069 29.3109 7.36689C31.3342 7.74494 31.8807 8.61108 30.947 9.96529L29.9413 11.4248C28.4304 13.6159 24.9623 14.7127 19.5383 14.7127H0L10.069 0.100708Z" fill="#131415"/>
<path d="M52.7305 6.29471H56.1065C57.5714 6.29471 58.4921 6.0255 58.871 5.48826L59.6655 4.30259C59.9417 3.81803 59.8177 3.37442 58.5181 3.29366C58.3221 3.28664 58.1061 3.26908 57.8559 3.26908H49.6036L47.5166 6.23969L52.7305 6.29471ZM45.7944 8.69063L41.5862 14.681H33.2808L43.4796 0.165039H62.8785C68.2011 0.165039 70.1723 1.14705 68.7948 3.10873L66.755 6.01146C66.094 6.9525 64.7873 7.69223 62.8384 8.2283C61.4656 8.60635 59.9842 8.83342 58.3918 8.91418C57.7638 8.94227 57.2739 8.95515 56.9163 8.95515L55.6579 8.91418L61.0383 14.681H51.2326L45.7944 8.69063Z" fill="#131415"/>
<path d="M67.7054 11.1263L75.3002 0.170898H83.6115L76.5042 10.444C76.5042 10.444 75.6413 11.4447 76.9186 11.4447C77.3341 11.4447 84.2277 11.5501 84.2277 11.5501C85.2771 11.5501 86.0526 11.5056 86.5897 11.3862C86.742 11.3534 86.9851 11.268 87.1811 11.1217C87.3995 10.959 87.5636 10.7342 87.5636 10.7342L94.927 0.170898H103.238L95.6435 11.1263C94.9872 12.0732 94.2329 12.7498 93.3795 13.1547C91.1638 14.2362 88.1963 14.777 84.4791 14.777H73.807C69.8384 14.777 67.7042 14.31 67.153 13.1477C66.957 12.5988 67.0857 12.0194 67.7054 11.1263Z" fill="#131415"/>
<path d="M104.231 3.29249L106.408 0.165039H132.358L130.181 3.29249H121.425L113.423 14.7899H105.057L113.059 3.29249H104.231Z" fill="#131415"/>
<path d="M138.657 8.64731H145.396L144.842 3.89644L138.657 8.64731ZM120.595 14.777L140.073 1.94646C142.071 0.648431 145.018 0 148.277 0C151.497 0 152.948 0.639067 153.128 1.96285L154.902 14.777H146.037L145.712 11.6109H134.08L129.199 14.777H120.595Z" fill="#131415"/>
<path d="M158.562 11.2059L166.148 0.165039H174.501L168.454 8.96568C168.454 8.96568 167.439 10.3995 167.326 10.5774C167.205 10.7705 167.095 11.0187 167.166 11.2106C167.304 11.5816 168.036 11.6109 168.737 11.6109H184.512L182.282 14.777H165.807C165.303 14.777 164.846 14.7641 164.433 14.7372C161.542 14.6564 159.643 14.3392 158.729 13.7833C157.818 13.2285 157.761 12.3694 158.562 11.2059Z" fill="#131415"/>
<path d="M186.871 11.7338L192.813 3.33112C192.945 3.14267 193.153 2.92497 193.431 2.68151C195.329 1.00542 198.547 0.165039 203.078 0.165039H220.204L217.995 3.29015H203.062C202.937 3.31707 202.739 3.34516 202.471 3.37208C201.446 3.50786 200.782 3.79228 200.477 4.22417L199.326 5.84759H216.186L213.947 9.01367H197.089L195.941 10.6371C195.518 11.2329 196.002 11.5582 197.393 11.6109H212.11L209.871 14.777H193.922C187.785 14.777 185.434 13.7622 186.871 11.7338Z" fill="#131415"/>
<path d="M64.8049 22.2105C64.9347 22.2105 65.1755 22.1988 65.4423 22.0958C65.8436 21.9402 66.0183 21.7131 66.1824 21.4849C66.3359 21.2601 66.3441 21.0436 66.1682 20.8844C66.0478 20.7838 65.7846 20.7568 65.6548 20.7568H39.7434C39.6136 20.7568 39.3987 20.7873 39.1308 20.8879C38.7247 21.0483 38.5205 21.1922 38.3316 21.431C38.1569 21.6511 38.1534 21.9004 38.334 22.056C38.4544 22.159 38.648 22.2105 38.7767 22.2105H64.8049ZM62.1548 26.6653C62.5597 26.5084 62.8241 26.2966 62.9847 26.073C63.1476 25.846 63.1393 25.654 62.9575 25.4983C62.8324 25.3965 62.5526 25.345 62.4228 25.345H36.4784C36.3497 25.345 36.1632 25.3696 35.9012 25.4714C35.4998 25.6271 35.2342 25.8132 35.0701 26.0403C34.912 26.265 34.8943 26.4897 35.0701 26.6466C35.2413 26.8092 35.8221 26.7999 35.8221 26.7999H61.1963C61.1963 26.7999 61.436 26.7987 61.4832 26.7964C61.5575 26.7917 61.6709 26.7835 61.7629 26.7683C61.9128 26.7425 62.0238 26.7156 62.1548 26.6653ZM71.9464 23.8738C72.827 24.1699 73.1233 24.5198 72.8317 24.9248C72.8317 24.9248 72.4587 25.6072 72.1494 26.0918C71.97 26.3715 71.5875 26.8654 71.27 27.2376C70.9537 27.6087 70.7022 27.858 70.5559 27.9692C70.0129 28.3823 69.2893 28.7452 68.4181 29.0799C66.9473 29.6488 65.3856 29.9332 63.7319 29.9332H28.8104C27.1566 29.9332 25.9986 29.6488 25.3352 29.0799C24.7344 28.5638 24.6896 27.9434 25.203 27.2189L26.832 24.9248C27.1224 24.5198 27.9133 24.1699 29.2035 23.8738C29.5363 23.7883 29.3369 23.6806 29.3369 23.6806C28.4669 23.3857 28.1753 23.0357 28.4598 22.6296L30.0888 20.3366C30.6023 19.6133 31.5289 18.993 32.8651 18.4756C34.3359 17.9044 35.9 17.6177 37.5596 17.6177H72.4811C74.1396 17.6177 75.2964 17.9044 75.948 18.4756C76.5559 18.993 76.6031 19.6133 76.0885 20.3366L74.4607 22.6296C74.175 23.0357 73.3818 23.3857 72.081 23.6806C71.7469 23.752 71.9464 23.8738 71.9464 23.8738Z" fill="#BC2C34"/>
<path d="M112.612 26.7999C112.74 26.7999 112.94 26.7484 113.208 26.6466C113.613 26.4897 113.895 26.2966 114.055 26.073L117.311 21.4825C117.47 21.2566 117.461 21.0658 117.285 20.9067C117.16 20.806 117.032 20.7568 116.903 20.7568H91.2308C91.101 20.7568 90.905 20.806 90.6418 20.9067C90.2369 21.0658 89.9548 21.2566 89.7954 21.4825L86.5398 26.073C86.3805 26.2966 86.3888 26.4897 86.5646 26.6466C86.6839 26.7484 86.809 26.7999 86.9388 26.7999H112.612ZM79.946 29.9332C78.2864 29.9332 77.1284 29.6488 76.4709 29.0799C75.8689 28.5626 75.824 27.9411 76.3387 27.2189L81.2232 20.3366C81.7367 19.611 82.6634 18.9906 84.0008 18.4756C85.4704 17.9044 87.0321 17.6177 88.687 17.6177H124.041C125.7 17.6177 126.858 17.9044 127.517 18.4756C128.124 18.993 128.171 19.6133 127.655 20.3366L122.772 27.2189C122.257 27.9434 121.329 28.5638 119.986 29.0799C118.516 29.6488 116.953 29.9332 115.3 29.9332H79.946Z" fill="#BC2C34"/>
<path d="M164.079 26.7999C164.208 26.7999 164.407 26.7484 164.675 26.6466C165.08 26.4897 165.362 26.2966 165.523 26.073L168.778 21.4825C168.938 21.2566 168.928 21.0658 168.752 20.9067C168.627 20.806 168.5 20.7568 168.371 20.7568H142.698C142.569 20.7568 142.372 20.806 142.11 20.9067C141.704 21.0658 141.422 21.2566 141.263 21.4825L138.007 26.073C137.848 26.2966 137.856 26.4897 138.032 26.6466C138.152 26.7484 138.277 26.7999 138.406 26.7999H164.079ZM131.413 29.9332C129.754 29.9332 128.596 29.6488 127.938 29.0799C127.336 28.5626 127.291 27.9411 127.806 27.2189L132.691 20.3366C133.205 19.611 134.131 18.9906 135.468 18.4756C136.938 17.9044 138.499 17.6177 140.154 17.6177H175.508C177.167 17.6177 178.325 17.9044 178.984 18.4756C179.591 18.993 179.638 19.6133 179.123 20.3366L174.239 27.2189C173.725 27.9434 172.796 28.5638 171.453 29.0799C169.983 29.6488 168.421 29.9332 166.767 29.9332H131.413Z" fill="#BC2C34"/>
</svg>
