<svg width="157" height="32" viewBox="0 0 157 32" fill="none" xmlns="http://www.w3.org/2000/svg">
<g clip-path="url(#clip0_73_2264)">
<path fill-rule="evenodd" clip-rule="evenodd" d="M106.5 22H123.846L126.707 23.7169V25.2573L122.91 27.9692L121.8 28.1914L128.207 31L127.707 32H119.596L112.096 28.5H107.914L105.914 30.5H98L106.5 22ZM108.914 27.5H112.318L119.818 31H125.453L118.615 27.8086L122.504 27.0308L125.707 24.7427V24.2831L123.569 23H106.914L100.414 29.5H105.5L109.446 25.5541L107.914 24H121.207L119.414 26H110.414L108.914 27.5Z" fill="black"/>
<path fill-rule="evenodd" clip-rule="evenodd" d="M41.7632 7.61925L44.1449 5.29797C45.0589 4.36947 46.859 3.79598 48.7422 3.79598H84.496C86.5727 3.79598 88.4838 3.16788 89.4807 2.18475L91.6131 0.0273438H22.8202C20.3831 0.0273438 18.1122 0.764686 16.949 1.93897L0 18.9525H26.8359C29.0514 18.9525 31.1008 18.2697 32.1532 17.232L36.6397 12.726C37.4705 11.9068 39.0769 11.3879 40.8216 11.3879H70.51C72.8366 11.3879 74.9968 10.6778 76.1321 9.55817L78.0426 7.64656L41.7632 7.61925Z" fill="black"/>
<path fill-rule="evenodd" clip-rule="evenodd" d="M97.7049 0C96.5645 0.0475189 95.489 0.538435 94.714 1.36545L92.3598 3.79595H127.947L125.316 6.44491C124.627 7.17722 123.671 7.60943 122.658 7.64652H90.3109C89.1727 7.68093 88.0958 8.16275 87.3193 8.98468L84.9658 11.4151H120.221L117.756 13.9276C117.061 14.6716 116.095 15.1134 115.069 15.1565H82.8884C81.7501 15.1909 80.6732 15.6727 79.8975 16.4946L77.4883 18.9251H136.034C137.479 18.9208 138.864 18.3511 139.884 17.3412L155.005 2.02086L156.999 0H97.7049Z" fill="black"/>
</g>
<defs>
<clipPath id="clip0_73_2264">
<rect width="157" height="32" fill="white"/>
</clipPath>
</defs>
</svg>
