<svg width="244" height="44" viewBox="0 0 244 44" fill="none" xmlns="http://www.w3.org/2000/svg">
<path d="M17.9013 3.59201L15.9547 6.44001H26.0627C27.5213 6.38001 28.4267 6.09334 28.7773 5.58267L29.5187 4.49601C29.724 4.19601 29.5627 3.94001 29.0373 3.72801C28.6653 3.63867 28.3227 3.59201 28.008 3.59201H17.9013ZM13.5467 9.96534L11.5707 12.8573H21.6173C23.0373 12.7987 23.9333 12.4973 24.304 11.9533L25.0133 10.916C25.384 10.372 24.852 10.056 23.4187 9.96534H13.5467ZM11.1187 0.113341H33.1053C37.32 0.113341 39.56 0.700008 39.82 1.87601C39.9067 2.26801 39.6507 2.90001 39.0547 3.77467L38.1587 5.08401C37.088 6.65067 35.156 7.69201 32.364 8.20267C34.596 8.62534 35.2 9.58934 34.1707 11.096L33.0587 12.7227C31.392 15.1613 27.5627 16.3827 21.5733 16.3827H0L11.1187 0.113341Z" fill="black"/>
<path d="M58.2198 7.00961H61.9464C63.5638 7.00961 64.5811 6.71094 64.9998 6.11227L65.8758 4.79227C66.1811 4.25227 66.0451 3.75894 64.6091 3.66827C64.3931 3.66027 64.1544 3.64027 63.8798 3.64027H54.7678L52.4625 6.94961L58.2198 7.00961ZM50.5611 9.67761L45.9158 16.3469H36.7451L48.0051 0.184273H69.4238C75.2998 0.184273 77.4784 1.27761 75.9558 3.46161L73.7038 6.69361C72.9744 7.74294 71.5304 8.56694 69.3798 9.16427C67.8651 9.58294 66.2278 9.83627 64.4691 9.92694C63.7771 9.95761 63.2358 9.97227 62.8411 9.97227L61.4518 9.92694L67.3931 16.3469H56.5651L50.5611 9.67761Z" fill="black"/>
<path d="M74.7525 12.3896L83.1378 0.190939H92.3151L84.4671 11.6296C84.4671 11.6296 83.5151 12.7443 84.9258 12.7443C85.3831 12.7443 92.9951 12.8603 92.9951 12.8603C94.1538 12.8603 95.0098 12.8123 95.6031 12.6789C95.7711 12.6416 96.0391 12.5469 96.2565 12.3843C96.4978 12.2029 96.6791 11.9536 96.6791 11.9536L104.808 0.190939H113.986L105.599 12.3896C104.874 13.4443 104.04 14.1976 103.099 14.6483C100.652 15.8523 97.3778 16.4549 93.2725 16.4549H81.4885C77.1085 16.4549 74.7525 15.9349 74.1431 14.6403C73.9271 14.0296 74.0685 13.3829 74.7525 12.3896Z" fill="black"/>
<path d="M115.081 3.66667L117.485 0.184002H146.136L143.733 3.66667H134.065L125.23 16.468H115.994L124.828 3.66667H115.081Z" fill="black"/>
<path d="M153.089 9.62933H160.53L159.918 4.34L153.089 9.62933ZM133.147 16.4547L154.653 2.168C156.859 0.722666 160.113 0 163.711 0C167.266 0 168.869 0.713333 169.066 2.18533L171.025 16.4547H161.237L160.879 12.928H148.037L142.647 16.4547H133.147Z" fill="black"/>
<path d="M175.067 12.4783L183.444 0.183613H192.665L185.989 9.98361C185.989 9.98361 184.867 11.5809 184.745 11.7783C184.609 11.9929 184.488 12.2703 184.567 12.4836C184.719 12.8969 185.527 12.9303 186.3 12.9303H203.719L201.256 16.4556H183.065C182.511 16.4556 182.005 16.4409 181.551 16.4103C178.359 16.3196 176.261 15.9663 175.252 15.3476C174.247 14.7303 174.184 13.7729 175.067 12.4783Z" fill="black"/>
<path d="M206.323 13.066L212.883 3.71C213.03 3.50067 213.259 3.258 213.567 2.98734C215.662 1.11934 219.215 0.184669 224.218 0.184669H243.126L240.686 3.66467H224.2C224.062 3.694 223.843 3.726 223.547 3.75534C222.415 3.90734 221.682 4.222 221.346 4.70467L220.076 6.51134H238.691L236.218 10.0367H217.606L216.338 11.8447C215.871 12.5087 216.406 12.87 217.94 12.93H234.19L231.718 16.4553H214.108C207.332 16.4553 204.738 15.3247 206.323 13.066Z" fill="black"/>
<path d="M198.977 32.9425C198.297 32.7065 197.441 32.5905 196.411 32.5905C195.319 32.5905 194.257 32.7225 193.214 32.9879C192.173 33.2545 191.27 33.6225 190.506 34.0972C189.745 34.5692 189.198 35.0759 188.869 35.6172C188.565 36.1159 188.501 36.5719 188.678 36.9865C188.858 37.3999 189.314 37.7239 190.053 37.9559C190.79 38.1892 191.651 38.3065 192.638 38.3065C193.686 38.3065 194.729 38.1759 195.763 37.9132C196.798 37.6532 197.687 37.2865 198.438 36.8132C199.186 36.3412 199.715 35.8452 200.031 35.3265C200.339 34.8239 200.411 34.3599 200.246 33.9345C200.079 33.5079 199.655 33.1785 198.977 32.9425Z" fill="black"/>
<path d="M204.025 37.4484C203.049 38.1097 201.879 38.6697 200.519 39.1311C199.159 39.5937 197.667 39.9297 196.041 40.1444C194.417 40.3577 192.794 40.4657 191.177 40.4657C189.574 40.4657 188.106 40.3604 186.77 40.1511C185.429 39.9417 184.362 39.6031 183.563 39.1351C182.767 38.6671 182.315 38.1457 182.213 37.5711C182.109 36.9977 182.27 36.3591 182.698 35.6591C183.327 34.6297 184.361 33.7257 185.794 32.9471C187.231 32.1671 189.026 31.5604 191.181 31.1217C193.334 30.6844 195.593 30.4657 197.962 30.4657C199.475 30.4657 200.869 30.5657 202.149 30.7684C203.425 30.9724 204.451 31.2951 205.23 31.7404C206.01 32.1844 206.483 32.6951 206.649 33.2737C206.821 33.8524 206.673 34.5191 206.214 35.2711C205.73 36.0617 205.001 36.7871 204.025 37.4484ZM179.477 33.1964C179.285 33.5111 179.025 33.8071 178.695 34.0817C178.366 34.3577 177.955 34.6164 177.462 34.8591C176.967 35.1017 176.406 35.3097 175.774 35.4871C175.141 35.6631 174.294 35.8431 173.235 36.0257L173.427 36.9231C173.483 37.1724 173.551 37.4271 173.629 37.6857L174.269 39.7524C174.299 39.8417 174.343 40.0177 174.399 40.2817C172.846 40.2724 171.799 40.2671 171.259 40.2671C170.581 40.2671 169.459 40.2724 167.903 40.2817C167.902 40.0377 167.903 39.5831 167.91 38.9204C167.921 38.6417 167.913 38.4284 167.891 38.2777C167.867 37.9431 167.817 37.4764 167.739 36.8737L167.493 34.8764C167.977 34.9231 168.465 34.9471 168.955 34.9471C169.646 34.9471 170.305 34.8951 170.931 34.7924C171.555 34.6871 172.079 34.5284 172.502 34.3124C172.922 34.0951 173.206 33.8671 173.353 33.6271C173.475 33.4257 173.477 33.2471 173.351 33.0937C173.227 32.9404 172.955 32.8271 172.531 32.7524C172.109 32.6777 171.41 32.6391 170.435 32.6391C170.105 32.6391 169.759 32.6417 169.401 32.6497C169.041 32.6577 168.625 32.6631 168.147 32.6671C167.437 33.6311 166.611 34.8071 165.67 36.1964C164.729 37.5831 163.839 38.9457 162.995 40.2817C161.417 40.2724 160.395 40.2671 159.921 40.2671C159.37 40.2671 158.378 40.2724 156.941 40.2817C157.626 39.4551 158.223 38.7084 158.734 38.0444C159.243 37.3817 159.803 36.6111 160.413 35.7364C161.023 34.8617 161.643 33.9391 162.273 32.9671C162.905 31.9951 163.397 31.2231 163.747 30.6497C164.922 30.6631 165.873 30.6697 166.599 30.6697C167.359 30.6697 168.287 30.6604 169.387 30.6377C170.49 30.6177 171.554 30.6071 172.586 30.6071C173.798 30.6071 174.861 30.6311 175.779 30.6777C176.469 30.7097 177.071 30.7791 177.591 30.8817C178.11 30.9844 178.522 31.1111 178.829 31.2604C179.135 31.4084 179.367 31.5737 179.518 31.7577C179.671 31.9404 179.746 32.1551 179.743 32.4031C179.737 32.6497 179.65 32.9151 179.477 33.1964ZM154.851 35.2711C154.369 36.0617 153.641 36.7871 152.663 37.4484C151.687 38.1097 150.519 38.6697 149.159 39.1311C147.798 39.5937 146.306 39.9297 144.681 40.1444C143.053 40.3577 141.433 40.4657 139.814 40.4657C138.214 40.4657 136.745 40.3604 135.406 40.1511C134.066 39.9417 132.999 39.6031 132.201 39.1351C131.403 38.6671 130.953 38.1457 130.849 37.5711C130.746 36.9977 130.907 36.3591 131.337 35.6591C131.966 34.6297 132.997 33.7257 134.433 32.9471C135.869 32.1671 137.662 31.5604 139.817 31.1217C141.973 30.6844 144.233 30.4657 146.599 30.4657C148.113 30.4657 149.509 30.5657 150.786 30.7684C152.061 30.9724 153.091 31.2951 153.87 31.7404C154.65 32.1844 155.122 32.6951 155.289 33.2737C155.455 33.8524 155.311 34.5191 154.851 35.2711ZM132.158 27.8364L122.13 43.0471H205.457L215.485 27.8364H132.158Z" fill="black"/>
<path d="M147.614 32.9425C146.936 32.7065 146.078 32.5905 145.048 32.5905C143.958 32.5905 142.894 32.7225 141.852 32.9879C140.81 33.2545 139.906 33.6225 139.146 34.0972C138.382 34.5692 137.838 35.0759 137.508 35.6172C137.204 36.1159 137.14 36.5719 137.316 36.9865C137.496 37.3999 137.954 37.7239 138.692 37.9559C139.429 38.1892 140.289 38.3065 141.274 38.3065C142.324 38.3065 143.366 38.1759 144.401 37.9132C145.436 37.6532 146.326 37.2865 147.074 36.8132C147.824 36.3412 148.354 35.8452 148.67 35.3265C148.977 34.8239 149.048 34.3599 148.882 33.9345C148.717 33.5079 148.294 33.1785 147.614 32.9425Z" fill="black"/>
<path d="M22.9014 40.1337C23.368 39.1311 23.7014 38.3297 23.8974 37.7271C24.8067 37.9631 25.6414 38.1271 26.4067 38.2191C27.172 38.3097 27.864 38.3564 28.48 38.3564C29.2934 38.3564 29.9747 38.2951 30.5294 38.1751C31.0787 38.0564 31.4254 37.8777 31.5654 37.6417C31.612 37.5617 31.6334 37.4871 31.6294 37.4137C31.6267 37.3391 31.584 37.2591 31.5094 37.1671C31.432 37.0751 31.3027 36.9751 31.124 36.8671L29.1654 35.7084C28.7054 35.4457 28.3894 35.2551 28.2147 35.1377C27.8614 34.8977 27.6054 34.6737 27.4507 34.4671C27.2974 34.2591 27.2214 34.0497 27.2187 33.8351C27.22 33.6204 27.2907 33.3937 27.432 33.1551C27.6 32.8684 27.8667 32.5857 28.228 32.3111C28.5907 32.0364 29.044 31.7791 29.5867 31.5377C30.1307 31.2991 30.7854 31.0911 31.5494 30.9191C32.3147 30.7444 33.0947 30.6244 33.8867 30.5617C34.6814 30.4964 35.4787 30.4657 36.2827 30.4657C37.8614 30.4657 39.524 30.5591 41.272 30.7417C41.1107 31.0657 40.9694 31.3631 40.8454 31.6337C40.7227 31.9044 40.5334 32.3777 40.2734 33.0564C39.516 32.8817 38.804 32.7604 38.136 32.6924C37.4667 32.6244 36.8747 32.5911 36.3627 32.5911C35.632 32.5911 34.9867 32.6577 34.4267 32.7951C33.868 32.9311 33.5267 33.1004 33.4067 33.3031C33.3534 33.3964 33.332 33.4884 33.3587 33.5777C33.3814 33.6671 33.4574 33.7711 33.592 33.8924C33.7267 34.0124 33.9187 34.1431 34.172 34.2871C34.4227 34.4311 34.824 34.6431 35.3774 34.9257L36.1507 35.3271C36.3774 35.4511 36.612 35.5991 36.852 35.7724C37.0974 35.9457 37.2934 36.1177 37.4467 36.2871C37.5987 36.4577 37.7 36.6124 37.7507 36.7524C37.804 36.8937 37.82 37.0364 37.8014 37.1804C37.784 37.3244 37.728 37.4764 37.628 37.6417C37.3774 38.0657 36.9387 38.4684 36.3107 38.8537C35.6867 39.2364 34.9294 39.5511 34.0467 39.7991C33.1654 40.0457 32.2547 40.2191 31.3134 40.3177C30.372 40.4164 29.4134 40.4657 28.432 40.4657C26.9187 40.4657 25.0774 40.3551 22.9014 40.1337Z" fill="black"/>
<path d="M41.6865 40.2818C42.6359 39.0671 43.4052 38.0524 43.9959 37.2351C44.5825 36.4151 45.3319 35.3258 46.2399 33.9684C47.1465 32.6124 47.7292 31.7111 47.9905 31.2698L48.3425 30.6498C50.5399 30.6578 53.2039 30.6644 56.3265 30.6644C59.2132 30.6644 61.7585 30.6578 63.9679 30.6498L63.7999 30.8818C63.7625 30.9378 63.6159 31.1404 63.3719 31.4938L62.8359 32.2604C62.7185 32.4244 62.6119 32.5911 62.5145 32.7591C60.7345 32.7204 59.2345 32.7018 58.0092 32.7018C56.6665 32.7018 55.7572 32.7031 55.2852 32.7058C54.8132 32.7098 54.0679 32.7191 53.0612 32.7391L51.9345 34.3604C53.0265 34.3751 54.3092 34.3831 55.7745 34.3831C56.2959 34.3831 57.6972 34.3658 59.9772 34.3338C59.5279 34.9351 59.0172 35.6524 58.4439 36.4844C56.8345 36.4751 55.5959 36.4711 54.7305 36.4711C53.4425 36.4711 51.9892 36.4884 50.3759 36.5204L49.2012 38.2351H50.8092C51.2839 38.2351 52.2732 38.2298 53.7719 38.2138L56.6879 38.1791C57.1225 38.1751 57.8519 38.1564 58.8772 38.1231C58.3572 38.8191 57.8399 39.5391 57.3265 40.2818C55.0545 40.2724 52.5612 40.2684 49.8425 40.2684L43.6799 40.2738L41.6865 40.2818Z" fill="black"/>
<path d="M63.4434 40.2818C64.11 39.4538 64.6887 38.7071 65.1807 38.0444C65.674 37.3818 66.2194 36.6124 66.8087 35.7378C67.398 34.8631 67.9994 33.9378 68.61 32.9671C69.2167 31.9964 69.69 31.2231 70.03 30.6498C71.1887 30.6644 72.126 30.6711 72.8447 30.6711C73.5927 30.6711 74.506 30.6591 75.594 30.6391C76.6794 30.6164 77.73 30.6071 78.7474 30.6071C79.942 30.6071 80.9927 30.6298 81.898 30.6764C82.578 30.7111 83.1767 30.7791 83.69 30.8818C84.202 30.9858 84.6114 31.1111 84.9167 31.2591C85.222 31.4071 85.4487 31.5738 85.6007 31.7564C85.754 31.9404 85.8327 32.1564 85.83 32.4031C85.83 32.6498 85.7474 32.9138 85.5807 33.1964C85.394 33.5111 85.142 33.8071 84.822 34.0818C84.5007 34.3578 84.098 34.6164 83.614 34.8591C83.1314 35.1004 82.578 35.3111 81.958 35.4858C81.3367 35.6631 80.5007 35.8431 79.4607 36.0271L79.662 36.9231C79.718 37.1724 79.79 37.4258 79.8714 37.6844L80.5287 39.7524C80.562 39.8418 80.6074 40.0191 80.6647 40.2818C79.1314 40.2724 78.0967 40.2684 77.5674 40.2684C76.8954 40.2684 75.7914 40.2724 74.2567 40.2818C74.2514 40.0378 74.25 39.5844 74.246 38.9204C74.2514 38.6418 74.242 38.4284 74.2167 38.2778C74.19 37.9444 74.134 37.4764 74.0487 36.8724L73.7807 34.8764C74.2594 34.9231 74.7407 34.9471 75.2247 34.9471C75.906 34.9471 76.554 34.8951 77.1714 34.7911C77.7887 34.6884 78.3034 34.5271 78.7154 34.3111C79.126 34.0964 79.4034 33.8684 79.5447 33.6284C79.6634 33.4244 79.6607 33.2471 79.538 33.0951C79.4127 32.9418 79.1407 32.8284 78.722 32.7524C78.3047 32.6778 77.6167 32.6391 76.654 32.6391C76.3287 32.6391 75.9874 32.6431 75.6314 32.6498C75.2794 32.6564 74.8647 32.6618 74.3967 32.6684C73.71 33.6324 72.9114 34.8084 72.0007 36.1951C71.09 37.5844 70.23 38.9458 69.4154 40.2818C67.8594 40.2724 66.8487 40.2684 66.3834 40.2684C65.8407 40.2684 64.8594 40.2724 63.4434 40.2818Z" fill="black"/>
<path d="M86.4854 40.2818C89.2507 36.5044 91.232 33.5978 92.4294 31.5591L92.9534 30.6498C94.5814 30.6578 95.672 30.6644 96.2214 30.6644C96.4773 30.6644 97.4827 30.6578 99.2454 30.6498C98.452 31.7071 97.7253 32.7111 97.0694 33.6564C96.1587 34.9724 95.34 36.2044 94.608 37.3498C93.8773 38.4951 93.276 39.4724 92.7987 40.2818L89.9374 40.2684C89.3774 40.2684 88.228 40.2724 86.4854 40.2818Z" fill="black"/>
<path d="M99.0869 40.2818C100.036 39.0671 100.806 38.0524 101.395 37.2351C101.986 36.4151 102.731 35.3258 103.64 33.9684C104.548 32.6124 105.131 31.7111 105.391 31.2698L105.743 30.6498C107.939 30.6578 110.6 30.6644 113.728 30.6644C116.612 30.6644 119.158 30.6578 121.368 30.6498L121.203 30.8818C121.159 30.9378 121.018 31.1404 120.774 31.4938L120.236 32.2604C120.12 32.4244 120.015 32.5911 119.915 32.7591C118.132 32.7204 116.635 32.7018 115.41 32.7018C114.067 32.7018 113.159 32.7031 112.686 32.7058C112.211 32.7098 111.468 32.7191 110.459 32.7391L109.336 34.3604C110.427 34.3751 111.707 34.3831 113.172 34.3831C113.695 34.3831 115.098 34.3658 117.378 34.3338C116.928 34.9351 116.415 35.6524 115.844 36.4844C114.235 36.4751 112.998 36.4711 112.13 36.4711C110.84 36.4711 109.39 36.4884 107.776 36.5204L106.599 38.2351H108.21C108.686 38.2351 109.674 38.2298 111.176 38.2138L114.092 38.1791C114.523 38.1751 115.252 38.1564 116.279 38.1231C115.755 38.8191 115.24 39.5391 114.727 40.2818C112.455 40.2724 109.96 40.2684 107.244 40.2684L101.079 40.2738L99.0869 40.2818Z" fill="black"/>
</svg>
