<svg width="294" height="36" viewBox="0 0 294 36" fill="none" xmlns="http://www.w3.org/2000/svg">
<g clip-path="url(#clip0_107_884)">
<path d="M276.368 35.9452H275.716L275.983 35.3229C276.013 35.2044 276.072 35.0859 276.102 34.9673C276.131 34.8488 276.102 34.9081 276.072 34.8784C276.066 34.8721 276.06 34.8671 276.052 34.8636C276.044 34.8602 276.036 34.8584 276.027 34.8584C276.019 34.8584 276.011 34.8602 276.003 34.8636C275.995 34.8671 275.989 34.8721 275.983 34.8784L275.39 35.2933L274.65 35.8563H274.531L274.235 35.3229C274.167 35.1688 274.088 35.0202 273.998 34.8784H273.909C273.879 34.8784 273.849 34.8784 273.849 34.9377L273.672 35.3822L273.405 36.0045H272.753C272.901 35.6489 273.049 35.3229 273.168 34.9673C273.286 34.6117 273.464 34.2858 273.583 33.9598H274.264C274.361 34.1635 274.47 34.3614 274.59 34.5525L274.857 35.0562H275.005L275.716 34.5228L276.516 33.9302H277.198C277.05 34.2561 276.931 34.6117 276.783 34.9377L276.368 35.9749" fill="black"/>
<path d="M273.108 34.3744H270.886C270.826 34.3744 270.797 34.404 270.797 34.4337C270.797 34.4633 270.767 34.5226 270.738 34.5522V34.6411H272.842L272.664 35.1152H270.56L270.471 35.1745C270.471 35.2338 270.441 35.2634 270.412 35.3227C270.382 35.3819 270.412 35.3819 270.441 35.3819L270.5 35.4412H272.693C272.634 35.5894 272.545 35.7375 272.486 35.9153H269.789C269.758 35.9179 269.727 35.9107 269.701 35.8947C269.674 35.8788 269.653 35.8549 269.641 35.8264C269.617 35.7809 269.607 35.7295 269.611 35.6783C269.73 35.4116 269.849 35.1449 269.937 34.8782C270.026 34.6115 270.204 34.2855 270.323 33.9892C270.33 33.9552 270.348 33.9247 270.375 33.9031C270.402 33.8814 270.436 33.8699 270.471 33.8706H273.316C273.259 34.0339 273.19 34.1924 273.108 34.3448" fill="black"/>
<path d="M269.937 34.3747H268.752L268.663 34.4339L268.367 35.1451L268.041 35.9452H267.418L267.715 35.1451L268.011 34.4932C268.012 34.4772 268.01 34.461 268.005 34.4457C268 34.4304 267.992 34.4163 267.981 34.4043H266.796L267.003 33.9302H270.145C270.063 34.0825 269.994 34.2411 269.937 34.4043" fill="black"/>
<path d="M266.145 35.3228C266.058 35.495 265.925 35.639 265.759 35.7376C265.571 35.8765 265.342 35.9494 265.107 35.9451H262.707C262.766 35.7673 262.855 35.6191 262.914 35.471H265.315C265.356 35.4667 265.395 35.4504 265.426 35.424C265.458 35.3976 265.481 35.3624 265.493 35.3228C265.522 35.2043 265.522 35.145 265.433 35.145H263.685C263.593 35.1526 263.501 35.1407 263.414 35.1101C263.327 35.0794 263.248 35.0307 263.181 34.9672C263.14 34.9012 263.116 34.8261 263.111 34.7486C263.106 34.6711 263.12 34.5935 263.152 34.5227C263.256 34.3464 263.398 34.1947 263.566 34.0782C263.764 33.9613 263.989 33.8999 264.218 33.9004H266.589L266.411 34.3745H264.011C263.966 34.3769 263.922 34.3921 263.886 34.4184C263.849 34.4446 263.82 34.4808 263.803 34.5227C263.774 34.6412 263.774 34.6709 263.863 34.6709H265.611C265.705 34.665 265.8 34.6806 265.887 34.7165C265.974 34.7525 266.052 34.8078 266.115 34.8783C266.156 34.9443 266.18 35.0193 266.185 35.0968C266.19 35.1743 266.176 35.2519 266.145 35.3228Z" fill="black"/>
<path d="M262.885 34.5227C262.809 34.7091 262.673 34.8652 262.5 34.9672C262.301 35.0843 262.078 35.1552 261.848 35.1746H261.285L261.107 35.5598C261.04 35.6807 260.99 35.8104 260.959 35.9451H260.307C260.366 35.7969 260.396 35.6784 260.455 35.5598L260.633 35.1746H260.04C259.946 35.1805 259.851 35.1649 259.764 35.129C259.677 35.093 259.599 35.0377 259.536 34.9672C259.495 34.9012 259.471 34.8261 259.466 34.7486C259.461 34.6711 259.475 34.5935 259.507 34.5227L259.625 34.2264L259.773 33.9004H260.425L260.277 34.2264L260.158 34.5227C260.099 34.6412 260.129 34.7005 260.218 34.7005H262.055C262.144 34.7005 262.203 34.6412 262.263 34.5227L262.381 34.2264C262.411 34.1078 262.47 34.0189 262.5 33.9004H263.152C263.122 34.0189 263.063 34.1078 263.033 34.2264C263.003 34.3449 262.944 34.4338 262.885 34.5227Z" fill="black"/>
<path d="M258.913 35.3225C258.827 35.4947 258.693 35.6387 258.528 35.7373C258.339 35.8762 258.11 35.9491 257.876 35.9448H255.476C255.557 35.7924 255.626 35.6339 255.683 35.4706H258.083C258.126 35.4712 258.167 35.4566 258.2 35.4294C258.232 35.4023 258.254 35.3643 258.261 35.3225C258.32 35.2039 258.291 35.1743 258.202 35.1743H256.454C256.36 35.1781 256.266 35.1615 256.179 35.1257C256.092 35.0899 256.014 35.0357 255.95 34.9669C255.909 34.9065 255.884 34.8363 255.879 34.7634C255.874 34.6906 255.888 34.6177 255.92 34.552C256.008 34.3635 256.153 34.2078 256.335 34.1075C256.524 33.9687 256.753 33.8958 256.987 33.9001H259.358L259.18 34.3742H256.779C256.691 34.3742 256.631 34.4335 256.572 34.552C256.513 34.6705 256.542 34.7002 256.661 34.7002H258.38C258.472 34.6906 258.565 34.7015 258.652 34.7323C258.739 34.763 258.818 34.8128 258.884 34.878C258.934 34.9399 258.964 35.0159 258.969 35.0955C258.974 35.1751 258.955 35.2544 258.913 35.3225Z" fill="black"/>
<path fill-rule="evenodd" clip-rule="evenodd" d="M285.111 21.3354H265.434V21.3651C263.152 21.3651 261.493 21.5429 260.515 21.8985C260.041 22.0632 259.606 22.3248 259.239 22.6667C258.872 23.0085 258.579 23.423 258.381 23.8839L257.848 25.0692C257.403 26.0175 257.522 26.6694 258.174 27.025C258.825 27.3806 260.307 27.5584 262.589 27.5584H274.68C274.72 27.5584 274.764 27.548 274.806 27.5381C274.95 27.5041 275.064 27.4773 274.858 27.914C274.724 28.1955 274.598 28.44 274.472 28.6845C274.346 28.929 274.22 29.1734 274.087 29.4549C274.047 29.5568 273.978 29.6447 273.888 29.7078C273.799 29.771 273.693 29.8067 273.583 29.8105H254.914L253.995 31.9145H260.189L274.176 31.8552C276.448 31.8552 278.078 31.6774 279.066 31.3218C279.539 31.1657 279.975 30.9142 280.347 30.5829C280.719 30.2516 281.019 29.8475 281.229 29.3957C281.312 29.2189 281.392 29.0458 281.47 28.875C281.615 28.5591 281.757 28.2514 281.91 27.9437C282.385 26.9954 282.266 26.3435 281.644 26.0175C280.992 25.6619 279.51 25.4841 277.199 25.4841H265.108C264.93 25.4841 264.841 25.3063 264.93 25.0989L265.641 23.5579C265.687 23.46 265.758 23.3757 265.846 23.3134C265.934 23.251 266.037 23.2127 266.145 23.2023H284.192L284.192 23.2019C284.489 22.5797 284.785 21.9576 285.111 21.3354ZM254.825 31.3515L255.269 30.3439L273.583 30.4032C273.797 30.3912 274.004 30.3215 274.181 30.2015C274.359 30.0815 274.5 29.9157 274.591 29.7216L275.332 28.1807C275.399 28.0647 275.434 27.9332 275.435 27.7993C275.436 27.6653 275.401 27.5335 275.336 27.4168C275.27 27.3001 275.175 27.2026 275.06 27.1339C274.945 27.0652 274.814 27.0277 274.68 27.025H262.589C261.67 27.025 258.944 26.8472 258.44 26.5805C257.936 26.3138 258.174 25.7212 258.351 25.3359L258.885 24.1506C259.043 23.7533 259.287 23.3959 259.6 23.1039C259.912 22.812 260.285 22.5926 260.692 22.4615C261.996 21.9874 264.071 21.9281 265.434 21.9281H284.222L283.866 22.6689H266.145C265.933 22.6869 265.729 22.7589 265.552 22.8783C265.376 22.9976 265.233 23.1602 265.138 23.3505L264.426 24.9211C264.365 25.0384 264.335 25.1694 264.34 25.3015C264.344 25.4337 264.382 25.5625 264.451 25.6756C264.519 25.7887 264.616 25.8823 264.731 25.9474C264.846 26.0124 264.976 26.0468 265.108 26.0471H277.228C278.117 26.0471 280.903 26.2546 281.377 26.5213C281.851 26.788 281.614 27.351 281.436 27.7362L280.725 29.1882C280.546 29.5739 280.291 29.9196 279.975 30.2047C279.659 30.4898 279.29 30.7085 278.888 30.8477C277.614 31.2922 275.539 31.3515 274.176 31.3515H254.825Z" fill="black"/>
<path d="M260.721 21.3952C258.824 21.8397 258.291 22.5805 257.935 23.3214H237.725C237.515 23.347 237.315 23.4258 237.144 23.5502C236.973 23.6747 236.836 23.8407 236.747 24.0326C236.006 25.7809 235.028 27.47 234.287 29.2184C234.11 29.6036 234.287 29.9296 234.643 29.9296L254.35 29.8703L253.401 32.0039H229.368C228.064 32.0039 227.501 30.8482 228.064 29.4851C228.835 27.6478 229.872 25.7809 230.672 23.8548C231.265 22.462 232.806 21.3359 234.11 21.3359H260.721V21.3952Z" fill="black"/>
<path fill-rule="evenodd" clip-rule="evenodd" d="M232.48 21.3354H209.454V21.3651C207.083 21.3651 205.394 21.5429 204.416 21.9281C203.936 22.0893 203.496 22.353 203.128 22.701C202.759 23.0489 202.471 23.4728 202.282 23.9432C202.216 24.1162 202.137 24.2892 202.058 24.4648L202.058 24.4651C201.96 24.6806 201.86 24.9 201.779 25.1285C201.393 26.0768 201.571 26.7583 202.253 27.1139C202.934 27.4695 204.475 27.6473 206.817 27.6473H219.292C219.47 27.6473 219.559 27.7955 219.47 28.0029L218.789 29.692C218.748 29.7939 218.679 29.8817 218.59 29.9449C218.5 30.0081 218.394 30.0438 218.285 30.0476H199.438C199.297 30.4065 199.116 30.7655 198.936 31.1201L198.936 31.1204C198.775 31.439 198.616 31.7542 198.489 32.0627H209.098L219.055 32.0034C221.426 32.0034 223.056 31.796 224.034 31.4404C224.506 31.2948 224.939 31.0428 225.299 30.7037C225.658 30.3646 225.935 29.9476 226.108 29.4846C226.194 29.2883 226.25 29.1681 226.315 29.0275C226.406 28.8284 226.517 28.588 226.76 28.0325C227.175 27.0843 227.027 26.4324 226.345 26.0768C225.664 25.7212 224.152 25.5434 221.782 25.5434H209.335C209.3 25.5434 209.265 25.5468 209.232 25.5499L209.232 25.5502C209.07 25.5659 208.956 25.5766 209.128 25.1581C209.223 24.9282 209.336 24.6922 209.451 24.4527L209.451 24.4524C209.587 24.1673 209.726 23.8774 209.839 23.5876C209.879 23.4857 209.949 23.3978 210.038 23.3347C210.128 23.2715 210.234 23.2358 210.343 23.232H230.079C230.298 22.7465 230.63 22.3208 231.048 21.9907C231.466 21.6606 231.957 21.4359 232.48 21.3354ZM199.349 31.4996L199.823 30.581H218.285C218.504 30.5733 218.716 30.5019 218.895 30.3756C219.074 30.2493 219.212 30.0735 219.292 29.8698C219.53 29.3068 219.767 28.7437 219.974 28.1807C220.036 28.0612 220.066 27.9274 220.061 27.7927C220.055 27.658 220.014 27.5272 219.942 27.4132C219.87 27.2992 219.77 27.2061 219.65 27.1432C219.531 27.0803 219.398 27.0498 219.263 27.0547H206.817C205.839 27.0547 203.023 26.8472 202.49 26.5805C201.957 26.3138 202.105 25.6619 202.282 25.2767C202.46 24.8914 202.638 24.5062 202.786 24.0913C202.945 23.6941 203.189 23.3367 203.501 23.0447C203.814 22.7527 204.187 22.5333 204.594 22.4022C205.898 21.9281 208.061 21.8985 209.454 21.8985H230.346C230.106 22.1385 229.897 22.4073 229.724 22.6986H210.343C210.124 22.7063 209.912 22.7777 209.733 22.904C209.554 23.0303 209.416 23.2061 209.335 23.4098C209.232 23.6765 209.106 23.9358 208.98 24.1951C208.854 24.4543 208.728 24.7136 208.624 24.9803C208.562 25.0999 208.532 25.2337 208.538 25.3683C208.543 25.503 208.584 25.6339 208.656 25.7479C208.728 25.8618 208.829 25.9549 208.948 26.0178C209.067 26.0807 209.201 26.1113 209.335 26.1064H221.782C222.76 26.1064 225.545 26.3138 226.079 26.5805C226.612 26.8472 226.464 27.351 226.256 27.8547C226.153 28.1066 226.042 28.3437 225.931 28.5808C225.819 28.8178 225.708 29.0549 225.605 29.3068C225.447 29.6914 225.21 30.0383 224.909 30.3244C224.607 30.6105 224.248 30.8292 223.856 30.9662C222.552 31.4404 220.448 31.4996 219.055 31.4996H199.349Z" fill="black"/>
<path fill-rule="evenodd" clip-rule="evenodd" d="M232.48 21.3357H209.454V21.3654C207.083 21.3654 205.394 21.5432 204.416 21.9284C203.936 22.0896 203.496 22.3533 203.128 22.7013C202.759 23.0492 202.471 23.4731 202.282 23.9435C202.216 24.1165 202.137 24.2894 202.058 24.4651C201.96 24.6807 201.86 24.9002 201.779 25.1288C201.393 26.0771 201.571 26.7586 202.253 27.1142C202.934 27.4698 204.475 27.6476 206.816 27.6476H219.292C219.47 27.6476 219.559 27.7958 219.47 28.0032L218.789 29.6923C218.748 29.7941 218.679 29.882 218.59 29.9452C218.5 30.0084 218.394 30.0441 218.285 30.0479H199.438C199.297 30.4068 199.116 30.7658 198.936 31.1204C198.775 31.4391 198.616 31.7544 198.489 32.063H209.098L219.055 32.0037C221.426 32.0037 223.056 31.7963 224.034 31.4407C224.506 31.2951 224.939 31.0431 225.299 30.704C225.658 30.3649 225.935 29.9478 226.108 29.4849C226.194 29.2885 226.25 29.1682 226.315 29.0275C226.406 28.8284 226.517 28.5883 226.76 28.0328C227.175 27.0846 227.027 26.4327 226.345 26.0771C225.664 25.7215 224.152 25.5437 221.782 25.5437H209.335C209.3 25.5437 209.265 25.547 209.232 25.5502C209.07 25.566 208.956 25.577 209.128 25.1584C209.223 24.9284 209.336 24.6922 209.451 24.4527C209.587 24.1676 209.726 23.8777 209.839 23.5879C209.879 23.486 209.949 23.3981 210.038 23.335C210.127 23.2718 210.233 23.2361 210.343 23.2323H230.079C230.298 22.7468 230.63 22.3211 231.048 21.991C231.466 21.6609 231.957 21.4362 232.48 21.3357ZM199.349 31.4996L199.823 30.581H218.285C218.504 30.5733 218.716 30.5019 218.895 30.3756C219.074 30.2493 219.212 30.0735 219.292 29.8698C219.53 29.3068 219.767 28.7437 219.974 28.1807C220.036 28.0612 220.066 27.9274 220.061 27.7927C220.055 27.658 220.014 27.5272 219.942 27.4132C219.87 27.2992 219.77 27.2061 219.65 27.1432C219.531 27.0803 219.398 27.0498 219.263 27.0547H206.817C205.839 27.0547 203.023 26.8472 202.49 26.5805C201.957 26.3138 202.105 25.6619 202.282 25.2767C202.46 24.8914 202.638 24.5062 202.786 24.0913C202.945 23.6941 203.189 23.3367 203.501 23.0447C203.814 22.7527 204.187 22.5333 204.594 22.4022C205.898 21.9281 208.061 21.8985 209.454 21.8985H230.346C230.106 22.1385 229.897 22.4073 229.724 22.6986H210.343C210.124 22.7063 209.912 22.7777 209.733 22.904C209.554 23.0303 209.416 23.2061 209.335 23.4098C209.232 23.6765 209.106 23.9358 208.98 24.1951C208.854 24.4543 208.728 24.7136 208.624 24.9803C208.562 25.0999 208.532 25.2337 208.538 25.3683C208.543 25.503 208.584 25.6339 208.656 25.7479C208.728 25.8618 208.829 25.9549 208.948 26.0178C209.067 26.0807 209.201 26.1113 209.335 26.1064H221.782C222.76 26.1064 225.545 26.3138 226.079 26.5805C226.612 26.8472 226.464 27.351 226.256 27.8547C226.153 28.1066 226.042 28.3437 225.931 28.5808C225.819 28.8178 225.708 29.0549 225.605 29.3068C225.447 29.6914 225.21 30.0383 224.909 30.3244C224.607 30.6105 224.248 30.8292 223.856 30.9662C222.552 31.4404 220.448 31.4996 219.055 31.4996H199.349Z" fill="black"/>
<path d="M220.715 34.4043H219.589C219.53 34.4043 219.441 34.4339 219.441 34.4932C219.441 34.5525 219.234 34.9673 219.145 35.1748C219.056 35.3822 218.908 35.7082 218.819 35.9749H218.167L218.493 35.1748L218.76 34.5228C218.766 34.5173 218.771 34.5104 218.774 34.5028C218.778 34.4951 218.78 34.4868 218.78 34.4784C218.78 34.47 218.778 34.4617 218.774 34.454C218.771 34.4463 218.766 34.4395 218.76 34.4339C218.76 34.4043 218.73 34.4043 218.7 34.4043H217.574C217.656 34.252 217.725 34.0934 217.782 33.9302H220.923C220.866 34.0934 220.797 34.252 220.715 34.4043Z" fill="black"/>
<path d="M205.631 35.3521C205.545 35.5244 205.411 35.6683 205.246 35.767C205.057 35.9058 204.828 35.9787 204.594 35.9744H202.193C202.253 35.7966 202.342 35.6484 202.401 35.5003H204.801C204.89 35.5003 204.949 35.441 205.009 35.3521C205.068 35.2632 205.009 35.1743 204.92 35.1743H203.201C203.107 35.1802 203.012 35.1646 202.925 35.1287C202.838 35.0927 202.76 35.0374 202.697 34.9669C202.656 34.9009 202.632 34.8258 202.627 34.7483C202.622 34.6708 202.636 34.5932 202.668 34.5224C202.766 34.349 202.909 34.2055 203.082 34.1075C203.271 33.9687 203.5 33.8958 203.734 33.9001H206.105C206.054 34.0655 205.985 34.2245 205.898 34.3742H203.527C203.482 34.3766 203.438 34.3918 203.402 34.418C203.365 34.4443 203.336 34.4805 203.319 34.5224C203.26 34.6409 203.29 34.7002 203.379 34.7002H205.127C205.217 34.6943 205.307 34.7101 205.389 34.7462C205.472 34.7823 205.545 34.8376 205.601 34.9076C205.656 34.9672 205.689 35.0438 205.694 35.1246C205.7 35.2055 205.677 35.2857 205.631 35.3521Z" fill="black"/>
<path d="M216.418 35.9746H215.529L215.084 35.382C214.96 35.2569 214.85 35.1177 214.758 34.9671C214.748 34.9551 214.74 34.941 214.734 34.9257C214.729 34.9104 214.727 34.8943 214.729 34.8782L214.818 34.8189H216.299C216.361 34.8205 216.421 34.8007 216.47 34.7628C216.518 34.725 216.552 34.6716 216.566 34.6115C216.625 34.4633 216.596 34.4041 216.477 34.4041H214.521C214.506 34.4041 214.491 34.4103 214.479 34.4214C214.468 34.4325 214.462 34.4476 214.462 34.4633L214.136 35.1745C214.047 35.4412 213.929 35.7079 213.81 35.9746H213.158L213.603 34.9375L214.047 33.9299H216.714C216.809 33.9161 216.906 33.928 216.995 33.9645C217.083 34.001 217.161 34.0607 217.218 34.1374C217.263 34.2083 217.287 34.2905 217.287 34.3744C217.287 34.4583 217.263 34.5405 217.218 34.6115C217.131 34.8077 216.986 34.973 216.803 35.0856C216.617 35.2287 216.386 35.3021 216.151 35.2931H215.885L216.151 35.619L216.418 35.9746Z" fill="black"/>
<path d="M212.891 35.9744H212.239C212.283 35.8633 212.333 35.7545 212.388 35.6484C212.425 35.5346 212.474 35.4252 212.536 35.3225H210.817C210.898 35.1701 210.968 35.0116 211.024 34.8483H212.714C212.766 34.7551 212.805 34.6555 212.832 34.552C212.891 34.4631 212.862 34.4038 212.773 34.4038H210.935C210.893 34.4033 210.852 34.4179 210.819 34.445C210.787 34.4722 210.765 34.5102 210.758 34.552L210.432 35.2632C210.346 35.5054 210.247 35.7428 210.135 35.9744H209.483L209.809 35.2632C209.895 35.021 209.994 34.7836 210.106 34.552C210.202 34.3695 210.345 34.216 210.521 34.1075C210.705 33.987 210.922 33.925 211.143 33.9297H212.98C213.068 33.9177 213.157 33.9277 213.24 33.9588C213.322 33.9898 213.396 34.0409 213.454 34.1075C213.509 34.1671 213.542 34.2437 213.547 34.3245C213.553 34.4054 213.53 34.4856 213.484 34.552C213.398 34.7942 213.299 35.0316 213.188 35.2632C213.102 35.5054 213.003 35.7428 212.891 35.9744Z" fill="black"/>
<path d="M209.217 35.9745H208.594L208.861 35.3522C208.898 35.2288 208.947 35.1096 209.009 34.9966C209.01 34.9806 209.009 34.9644 209.003 34.9491C208.998 34.9338 208.99 34.9198 208.98 34.9077H208.861L208.268 35.3226L207.527 35.8856H207.409C207.299 35.7143 207.2 35.5361 207.113 35.3522L206.905 34.9077H206.816C206.787 34.9077 206.757 34.9077 206.757 34.9374L206.55 35.4115L206.283 36.0338H205.631L206.075 34.9966L206.52 33.9891H207.201C207.29 34.1965 207.409 34.3743 207.498 34.5818C207.575 34.7556 207.664 34.9239 207.765 35.0855H207.883L208.624 34.5521C208.861 34.3447 209.157 34.1669 209.424 33.9595H210.106L209.661 34.967L209.217 36.0042" fill="black"/>
<path d="M243.148 34.4043H242.022C241.963 34.4043 241.874 34.4339 241.874 34.4932C241.763 34.7148 241.664 34.9423 241.577 35.1748L241.251 35.9452H240.6L240.925 35.1748C241.006 34.9497 241.105 34.7316 241.222 34.5228C241.223 34.5068 241.221 34.4906 241.216 34.4753C241.211 34.4601 241.203 34.446 241.192 34.4339C241.192 34.4043 241.163 34.4043 241.133 34.4043H240.007C240.058 34.2389 240.127 34.0798 240.214 33.9302H243.355C243.269 34.0798 243.199 34.2389 243.148 34.4043Z" fill="black"/>
<path d="M248.986 35.9452H248.334L248.511 35.56L248.63 35.2933V35.2044H247.059C247.03 35.2044 247 35.2044 247 35.2637C246.933 35.3635 246.883 35.4736 246.852 35.5896L246.674 35.9749H246.052C246.17 35.6489 246.318 35.2933 246.467 34.9673C246.615 34.6414 246.763 34.2858 246.882 33.9598H247.533L247.356 34.345L247.267 34.6117C247.237 34.6414 247.237 34.671 247.267 34.671L247.326 34.7303H248.808L248.897 34.671C248.928 34.555 248.978 34.4448 249.045 34.345C249.081 34.2024 249.13 34.0634 249.193 33.9302H249.845C249.697 34.2858 249.549 34.6117 249.43 34.9673L248.986 35.9749" fill="black"/>
<path d="M245.786 35.9449H243.622C243.42 35.954 243.22 35.891 243.059 35.7671C242.998 35.7063 242.958 35.6264 242.947 35.5404C242.937 35.4543 242.955 35.3672 243 35.293L243.148 34.9374C243.208 34.8189 243.237 34.6707 243.296 34.5522C243.401 34.3557 243.568 34.1994 243.771 34.1077C243.988 33.9873 244.233 33.926 244.482 33.9299H246.615L246.438 34.404H244.274C244.126 34.404 244.008 34.4336 243.948 34.5522C243.889 34.6707 243.859 34.8189 243.8 34.9374L243.652 35.293C243.593 35.4115 243.652 35.4708 243.83 35.4708H245.963L245.786 35.9449Z" fill="black"/>
<path d="M239.355 35.3229C239.276 35.5167 239.128 35.6748 238.94 35.7674C238.743 35.8843 238.518 35.9457 238.289 35.9452H236.481C236.389 35.9549 236.296 35.9439 236.209 35.9131C236.122 35.8824 236.043 35.8326 235.977 35.7674C235.927 35.7055 235.897 35.6295 235.891 35.5499C235.886 35.4703 235.906 35.391 235.947 35.3229C236.034 35.0808 236.132 34.8434 236.244 34.6117C236.33 34.3793 236.429 34.1518 236.54 33.9302H237.192C237.103 34.1672 236.985 34.3747 236.896 34.6117L236.599 35.3229C236.54 35.4118 236.57 35.4711 236.659 35.4711H238.496C238.541 35.4687 238.585 35.4535 238.621 35.4273C238.658 35.401 238.687 35.3648 238.703 35.3229L239 34.6117C239.089 34.3747 239.207 34.1672 239.296 33.9302H239.948C239.859 34.1672 239.741 34.3747 239.652 34.6117L239.355 35.3229Z" fill="black"/>
<path d="M235.413 35.9449H232.687C232.687 35.9153 232.657 35.8856 232.687 35.856C232.717 35.8264 232.924 35.2633 233.072 34.967C233.22 34.6707 233.339 34.2854 233.487 33.9595H234.139C234.021 34.1965 233.932 34.4632 233.813 34.7299C233.727 34.9527 233.628 35.1703 233.517 35.3819C233.515 35.3979 233.517 35.4141 233.522 35.4294C233.528 35.4447 233.536 35.4587 233.546 35.4708C233.546 35.5004 233.576 35.5004 233.606 35.5004H235.591L235.413 35.9745" fill="black"/>
<path d="M232.361 35.9449H230.228C230.127 35.9555 230.024 35.9451 229.928 35.9145C229.831 35.8839 229.741 35.8338 229.664 35.7671C229.608 35.7096 229.57 35.637 229.554 35.5581C229.538 35.4792 229.546 35.3973 229.576 35.3226L229.753 34.9374C229.813 34.8189 229.842 34.7003 229.902 34.5522C230.006 34.3557 230.173 34.1994 230.376 34.1077C230.593 33.9873 230.838 33.926 231.087 33.9299H233.221C233.161 34.078 233.072 34.2262 233.013 34.404H230.879C230.817 34.3977 230.754 34.408 230.696 34.4341C230.639 34.4601 230.59 34.5008 230.554 34.5522C230.496 34.6774 230.447 34.806 230.405 34.9374L230.228 35.3226C230.198 35.4115 230.257 35.4708 230.435 35.4708H232.569C232.509 35.6486 232.42 35.7968 232.361 35.9449Z" fill="black"/>
<path fill-rule="evenodd" clip-rule="evenodd" d="M249.845 15.9426C249.875 15.9426 249.994 15.9426 249.964 16.0315C249.934 16.1204 249.342 16.7724 249.045 16.9205C248.749 17.0687 248.482 17.0391 247.919 17.0391H240.007C239.888 17.2465 239.948 17.6021 240.451 17.6021H250.586C251.357 17.6021 252.424 17.4836 253.046 16.6835L253.342 16.2982C253.668 15.8834 253.402 15.587 253.046 15.587H244.748C244.733 15.591 244.716 15.5885 244.702 15.5802C244.688 15.5718 244.678 15.5583 244.674 15.5426C244.67 15.5269 244.673 15.5102 244.681 15.4963C244.69 15.4824 244.703 15.4724 244.719 15.4685C244.95 15.1137 245.253 14.8109 245.608 14.5795C245.971 14.4633 246.354 14.423 246.734 14.461H255.031C255.15 14.2535 255.061 13.8979 254.587 13.8979H244.067C243.296 13.8979 242.23 14.0165 241.607 14.8166L241.311 15.1722C240.866 15.7648 241.4 15.9426 241.785 15.9426H249.845Z" fill="black"/>
<path fill-rule="evenodd" clip-rule="evenodd" d="M227.116 13.8979C226.345 13.8979 225.278 14.0165 224.656 14.8166L224.211 15.3796L223.885 15.8241L223.5 16.2982L222.967 16.9502C222.789 17.1576 222.819 17.6021 223.382 17.6021H233.665C234.435 17.6021 235.502 17.4836 236.095 16.6835L236.539 16.1204L236.895 15.6759L237.25 15.2018L237.813 14.5499C237.962 14.3424 237.932 13.8979 237.369 13.8979H234.554L234.05 14.5202L233.576 15.1425L233.072 15.7945L232.568 16.4168C232.242 16.8316 231.946 17.0391 231.175 17.0391H226.79C226.73 17.0391 226.73 16.9502 226.76 16.9205L227.353 16.1797C227.53 15.913 227.767 15.6759 227.945 15.4092L228.538 14.6684L229.16 13.8979H227.116Z" fill="black"/>
<path fill-rule="evenodd" clip-rule="evenodd" d="M209.987 13.8979C209.217 13.8979 208.15 14.0165 207.528 14.8166L207.083 15.3796L206.728 15.8241L206.372 16.2982L205.839 16.9502C205.69 17.1872 205.72 17.6021 206.254 17.6021H219.915C220.087 17.6286 220.263 17.588 220.406 17.4888C220.55 17.3896 220.649 17.2393 220.685 17.0687H209.691C209.573 17.0687 209.573 17.0094 209.602 16.9502L210.788 15.4389L212.003 13.9276H209.987" fill="black"/>
<path fill-rule="evenodd" clip-rule="evenodd" d="M267.27 15.9426C267.3 15.9426 267.419 15.9426 267.359 16.0315C267.128 16.3863 266.825 16.6891 266.47 16.9205C266.097 17.0359 265.704 17.0762 265.315 17.0391H257.402C257.284 17.2465 257.373 17.6021 257.876 17.6021H268.011C268.752 17.6021 269.849 17.4836 270.441 16.6835C270.556 16.5683 270.656 16.4388 270.738 16.2982C271.093 15.8834 270.827 15.587 270.471 15.587H262.144C262.084 15.587 262.055 15.5278 262.084 15.4685C262.324 15.1205 262.625 14.8192 262.973 14.5795C263.24 14.461 263.566 14.461 264.159 14.461H272.456C272.575 14.2535 272.486 13.8979 271.982 13.8979H261.462C260.692 13.8979 259.625 14.0165 259.002 14.8166L258.706 15.1722C258.262 15.7648 258.795 15.913 259.18 15.9426H267.27Z" fill="black"/>
<path fill-rule="evenodd" clip-rule="evenodd" d="M280.546 15.0833C280.872 14.6684 281.169 14.461 281.939 14.461H286.147C286.206 14.461 286.206 14.5499 286.177 14.5795C285.921 14.8711 285.684 15.1779 285.466 15.4981C285.228 15.7945 284.962 16.0908 284.725 16.4168C284.488 16.7427 284.043 17.0391 283.273 17.0391H279.153C279.094 17.0391 279.094 16.9502 279.124 16.9205L279.835 16.0019L280.546 15.0833ZM279.42 13.8979C278.679 13.8979 277.612 14.0165 277.02 14.8166L276.575 15.3796L276.22 15.8241L275.864 16.2982L275.36 16.9502C275.182 17.1576 275.212 17.6021 275.775 17.6021H285.851C286.621 17.6021 287.688 17.4836 288.281 16.6835L288.725 16.1204L289.051 15.6759L289.436 15.2018L289.94 14.5499C290.118 14.3424 290.088 13.8979 289.525 13.8979H279.42Z" fill="black"/>
<path fill-rule="evenodd" clip-rule="evenodd" d="M68.3069 8.77194H73.4039C73.7674 8.28731 74.1511 7.81279 74.5314 7.34247C74.8022 7.00757 75.0713 6.67479 75.3301 6.34202C75.9525 5.54192 76.6044 4.7122 77.2564 3.9121H72.9001C72.6809 3.89424 72.4606 3.93088 72.259 4.01878C72.0573 4.10668 71.8806 4.24309 71.7444 4.41586L69.996 6.57909L68.3069 8.77194ZM44.8366 3.88247H40.5101C40.287 3.8696 40.0641 3.90836 39.8585 3.99574C39.6529 4.08311 39.4702 4.21674 39.3247 4.38623L38.1393 5.89752L36.954 7.37918C36.8618 7.46048 36.7533 7.52107 36.6357 7.55685C36.5181 7.59264 36.3942 7.60279 36.2724 7.58661H26.345C26.1079 7.58661 25.9301 7.49771 26.0782 7.29028L27.4118 5.60119L28.775 3.88247H24.4187C24.2003 3.87196 23.9824 3.91195 23.782 3.99931C23.5816 4.08668 23.404 4.21908 23.263 4.38623L22.1665 5.74936L21.1293 7.11248C19.9144 8.68304 21.8702 8.74231 22.9074 8.74231H38.8802C38.9035 8.74231 38.9273 8.74233 38.9514 8.74236C39.7829 8.74318 41.0339 8.74442 41.7251 7.79405L43.266 5.83826L44.8366 3.88247ZM83.9833 5.74936C83.361 5.74936 83.8055 5.33449 83.8944 5.27523C83.9828 5.18694 84.09 5.11977 84.2081 5.07872C84.3261 5.03767 84.4519 5.02381 84.576 5.03816H95.7184C95.9258 5.03816 96.1037 5.12706 96.0444 5.30486H101.112C101.971 3.97137 100.164 3.88247 99.156 3.88247H81.9682C81.1088 3.88247 79.8049 3.88247 79.0937 4.83073L78.5899 5.45302C77.6712 6.81615 79.5382 6.90505 80.5457 6.90505H94.1774C94.6015 6.90505 94.4376 7.157 94.3398 7.30744C94.3214 7.33573 94.3054 7.36042 94.296 7.37918H94.3256C94.228 7.46124 94.1143 7.52206 93.9918 7.55777C93.8694 7.59348 93.7408 7.60331 93.6144 7.58661H82.5312C82.3238 7.58661 82.146 7.49771 82.2645 7.34955H77.1378C76.2784 8.68304 78.1157 8.74231 79.0937 8.74231H96.2222C96.2447 8.74231 96.2676 8.74233 96.2908 8.74236C97.0952 8.74318 98.347 8.74446 99.0671 7.79405C99.1865 7.62889 99.3151 7.4706 99.4523 7.31992C100.519 5.86789 98.7707 5.74936 97.5557 5.74936H83.9833ZM135.458 5.27523C135.549 5.19175 135.657 5.12771 135.774 5.08697C135.891 5.04622 136.016 5.02962 136.139 5.03816H146.096C146.304 5.03816 146.482 5.15669 146.333 5.33449L145.533 6.37165C145.237 6.69762 144.97 7.02358 144.704 7.37918C144.611 7.46048 144.503 7.52107 144.385 7.55685C144.268 7.59264 144.144 7.60279 144.022 7.58661H134.095C133.887 7.58661 133.68 7.49771 133.858 7.29028L135.458 5.27523ZM128.82 7.11248C127.605 8.65341 129.59 8.74231 130.627 8.74231H146.659C146.682 8.74231 146.705 8.74233 146.728 8.74236C147.534 8.74318 148.813 8.74448 149.504 7.79405L150.393 6.66799C150.598 6.37189 150.838 6.09331 151.086 5.80531C151.161 5.71861 151.237 5.63106 151.312 5.54192C152.527 3.97137 150.542 3.88247 149.504 3.88247H133.532C132.731 3.88247 131.398 3.88247 130.687 4.83073C130.578 4.95877 130.467 5.08682 130.355 5.21486L130.354 5.21592C130.13 5.47275 129.906 5.72959 129.709 5.98642L128.82 7.11248ZM30.1381 1.80814H4.29717C4.12855 1.79247 3.9587 1.81955 3.80331 1.88688C3.64793 1.95422 3.51202 2.05963 3.40815 2.19338C3.21168 2.41585 3.03331 2.65368 2.87474 2.90457H12.002L9.66095 5.83826L7.34949 8.77194H14.9655L16.8028 6.43092C17.1979 5.91728 17.6193 5.40364 18.0408 4.89C18.2515 4.63318 18.4623 4.37636 18.6697 4.11953C19.292 3.34907 20.2403 2.90457 21.4553 2.90457H29.2491L30.1381 1.80814ZM161.358 8.77194H166.396C167.581 8.17928 168.796 7.61625 170.041 7.05322L181.065 1.80814H176.679C176.146 1.78921 175.617 1.90113 175.138 2.13411L170.011 4.47513L164.944 6.84578C164.786 6.63831 164.624 6.43084 164.463 6.22336L164.462 6.22251C164.14 5.80797 163.817 5.39343 163.521 4.97889L162.158 3.14164C161.865 2.7376 161.483 2.40693 161.04 2.17557C160.598 1.94421 160.108 1.81844 159.61 1.80814H154.957L156.231 3.5565C156.508 3.95161 156.811 4.34672 157.114 4.74183C157.265 4.93938 157.417 5.13694 157.565 5.33449L159.343 7.70515C159.578 8.02238 159.88 8.28292 160.229 8.46755C160.578 8.65218 160.964 8.7562 161.358 8.77194ZM228.894 5.27523C228.981 5.18509 229.088 5.11667 229.207 5.07549C229.325 5.03431 229.451 5.02153 229.576 5.03816H239.444C239.681 5.03816 239.888 5.15669 239.711 5.33449L238.91 6.37165L238.14 7.37918C238.043 7.46286 237.93 7.52471 237.807 7.56051C237.684 7.59631 237.555 7.60521 237.429 7.58661H227.531C227.323 7.58661 227.116 7.49771 227.294 7.29028L228.894 5.27523ZM222.286 7.11248C221.071 8.65341 223.056 8.74231 224.123 8.74231H240.066C240.089 8.74231 240.112 8.74233 240.135 8.74236C240.939 8.74318 242.191 8.74446 242.911 7.79405C243.044 7.60143 243.193 7.41622 243.341 7.23102C243.489 7.04581 243.637 6.8606 243.77 6.66799L244.689 5.54192C245.904 3.97137 243.919 3.88247 242.852 3.88247H226.938C226.138 3.88247 224.805 3.88247 224.093 4.83073L223.145 5.98642C223.045 6.12036 222.936 6.2585 222.825 6.39926L222.824 6.39996C222.641 6.6327 222.452 6.87259 222.286 7.11248ZM128.82 3.9121C128.168 4.7122 127.516 5.51229 126.894 6.34202C126.582 6.75669 126.264 7.15656 125.946 7.55642L125.945 7.55698L125.945 7.55755C125.626 7.95741 125.308 8.35727 124.997 8.77194H120.7C121.003 8.35494 121.319 7.95007 121.631 7.54956L121.631 7.54922L121.631 7.5489L121.631 7.54859C121.807 7.32328 121.981 7.09935 122.152 6.87542L123.634 4.97889L119.218 6.87542L114.832 8.77194H111.573L110.032 6.96432C109.836 6.73549 109.647 6.51066 109.461 6.28837C109.142 5.90615 108.828 5.53142 108.491 5.15669C108.47 5.12034 108.439 5.09021 108.403 5.06939C108.367 5.04856 108.325 5.03778 108.283 5.03816C108.251 5.02603 108.216 5.02531 108.184 5.03611C108.151 5.04691 108.124 5.06857 108.105 5.09743C107.602 5.69009 107.098 6.31239 106.624 6.93468L105.201 8.77194H101.082C101.407 8.32058 101.754 7.88021 102.103 7.43744C102.327 7.15349 102.551 6.86855 102.771 6.57909C103.334 5.83826 103.897 5.12706 104.49 4.41586C104.628 4.25052 104.8 4.11716 104.994 4.02504C105.189 3.93293 105.401 3.88427 105.616 3.88247H110.95C111.107 4.07588 111.263 4.26642 111.419 4.45589C111.764 4.87602 112.105 5.29084 112.432 5.71972L113.973 7.55698L118.003 5.77899L122.033 4.03063C122.311 3.94342 122.602 3.90335 122.893 3.9121H128.82ZM43.5327 8.74231H49.1336L51.8599 5.24559C52.0377 5.03816 52.1266 4.94926 52.6304 4.94926H61.7577C62.0837 4.94926 62.2022 5.06779 62.1133 5.24559L61.7577 5.69009C61.4614 6.07532 61.0169 6.07532 60.4835 6.07532H53.1638L53.1046 6.13459C53.1046 6.17986 53.1391 6.20785 53.1687 6.23175C53.1778 6.23913 53.1865 6.24613 53.1935 6.25312L57.0459 7.49771L60.928 8.77194H66.7066L62.1726 7.05322C62.1133 7.02358 62.0837 6.99395 62.0837 6.93468C62.0837 6.87542 62.1133 6.87542 62.143 6.87542H64.1581C64.3388 6.87201 64.5117 6.87017 64.677 6.86841C65.949 6.85487 66.7782 6.84604 67.3289 6.16422C67.4188 6.02036 67.5306 5.88742 67.6443 5.75214C67.7179 5.66449 67.7924 5.57587 67.8623 5.48266C69.1391 3.8939 66.6402 3.9077 65.9048 3.91176C65.8915 3.91183 65.8788 3.9119 65.8667 3.91196C65.849 3.91204 65.8326 3.9121 65.8176 3.9121H48.0371C47.8417 3.90158 47.6465 3.9362 47.4666 4.01328C47.2868 4.09037 47.1271 4.20784 46.9999 4.3566C46.8168 4.58546 46.6337 4.8115 46.4515 5.03646L46.4511 5.037C46.0436 5.54004 45.6405 6.03767 45.2515 6.54945L43.5327 8.74231ZM201.097 8.74231H221.13C220.581 8.48245 220.539 7.96938 220.51 7.6143C220.509 7.60496 220.508 7.59573 220.508 7.58661H207.143L208.565 5.74936C208.909 5.26778 209.289 4.80395 209.676 4.33039C209.677 4.32986 209.677 4.32931 209.677 4.32877L209.678 4.32834C209.79 4.19064 209.904 4.05212 210.017 3.9121H205.631C205.435 3.89416 205.238 3.9254 205.056 4.00301C204.875 4.08062 204.716 4.20215 204.594 4.3566C204.382 4.62188 204.173 4.88716 203.966 5.15107C203.966 5.15172 203.965 5.15236 203.965 5.153C203.593 5.62546 203.226 6.09355 202.846 6.54945C202.55 6.90471 202.261 7.27476 201.972 7.64482L201.972 7.64588L201.971 7.64694C201.682 8.017 201.393 8.38705 201.097 8.74231ZM269.345 8.77194H285.436C287.392 8.77194 289.437 8.17928 290.533 7.40881H285.762C285.068 7.65869 284.336 7.78895 283.599 7.79405H272.604C272.367 7.79405 272.19 7.67551 272.338 7.49771L272.871 6.81615H283.243C283.717 6.81615 284.014 6.72725 284.221 6.46055L284.517 6.04569V5.95679H273.582L274.234 5.12706C274.332 5.04501 274.446 4.98419 274.568 4.94847C274.691 4.91276 274.819 4.90294 274.945 4.91963H285.762C286.503 4.91963 287.095 5.03816 287.392 5.27523H292.163C292.281 4.50476 291.037 3.94173 289.081 3.94173H272.16C272.132 3.94173 272.103 3.94169 272.074 3.94165C271.332 3.94055 270.236 3.93893 269.552 4.6233C269.378 4.80752 269.219 5.00574 269.078 5.21596C268.782 5.60119 268.663 5.92716 268.722 6.13459C268.358 6.27119 268.04 6.50736 267.804 6.81615L267.3 7.43845C266.618 8.68304 268.367 8.77194 269.345 8.77194ZM179.109 8.77194H195.17C197.126 8.77194 199.23 8.17928 200.268 7.40881H195.496C194.804 7.66391 194.071 7.79433 193.333 7.79405H182.398C182.161 7.79405 181.983 7.67551 182.131 7.49771L182.665 6.81615H193.007C193.187 6.83746 193.369 6.81639 193.538 6.75463C193.708 6.69288 193.861 6.59215 193.985 6.46055L194.281 6.04569C194.302 6.04569 194.294 6.03087 194.276 6.00124L194.276 6.0009C194.273 5.99555 194.27 5.98972 194.266 5.98342C194.263 5.97863 194.261 5.97357 194.258 5.96824C194.256 5.96455 194.254 5.96074 194.252 5.95679H183.376L183.998 5.12706C184.092 5.04735 184.2 4.98778 184.318 4.95208C184.435 4.91639 184.558 4.90534 184.68 4.91963H195.526C196.267 4.91963 196.889 5.03816 197.156 5.27523H201.927C202.046 4.50476 200.801 3.94173 198.845 3.94173H181.954C181.926 3.94173 181.897 3.94169 181.868 3.94165C181.128 3.94055 180.059 3.93897 179.346 4.6233C179.172 4.80752 179.013 5.00574 178.872 5.21596C178.546 5.60119 178.427 5.92716 178.457 6.13459C178.115 6.2818 177.819 6.51698 177.597 6.81615L177.064 7.46808C176.382 8.68304 178.131 8.77194 179.109 8.77194ZM245.726 7.11248C244.511 8.65341 246.497 8.74231 247.564 8.74231H262.499C262.523 8.74231 262.546 8.74233 262.57 8.74236C263.402 8.74318 264.653 8.74442 265.344 7.79405L265.492 7.58661H250.972C250.764 7.58661 250.557 7.49771 250.705 7.29028L251.475 6.28275C251.557 6.18264 251.639 6.07974 251.722 5.97575C251.909 5.74116 252.1 5.50108 252.305 5.27523C252.396 5.19026 252.503 5.12526 252.621 5.08443C252.738 5.0436 252.863 5.02783 252.987 5.03816H267.448C267.893 3.97137 266.233 3.88247 265.314 3.88247H250.379C249.549 3.88247 248.216 3.88247 247.534 4.83073L246.586 5.98642C246.487 6.11777 246.381 6.25316 246.272 6.39109C246.271 6.39226 246.27 6.39343 246.269 6.3946C246.268 6.39616 246.267 6.3977 246.265 6.39926L246.265 6.39992L246.264 6.40055C246.081 6.6331 245.892 6.87279 245.726 7.11248Z" fill="black"/>
<path fill-rule="evenodd" clip-rule="evenodd" d="M243.593 9.63101C242.615 10.4015 241.37 10.5496 240.066 10.5496H179.109L178.131 10.4904C177.034 10.4015 175.938 10.0755 175.405 9.03834C174.871 8.00118 175.049 7.31962 175.493 6.51952L175.553 6.46026C175.553 6.44155 175.553 6.42285 175.56 6.4116L175.582 6.40099C175.571 6.40099 175.565 6.40502 175.56 6.4116L170.811 8.68275L167.166 10.4015L166.929 10.52L166.692 10.5793H161.358C160.687 10.5678 160.027 10.4014 159.431 10.093C158.835 9.78455 158.318 9.34248 157.92 8.80128C157.624 8.38641 157.328 8.00118 157.002 7.61595L156.113 6.43062C155.829 6.03313 155.533 5.64772 155.24 5.26668L155.239 5.26575L155.239 5.26546C155.074 5.05038 154.91 4.83669 154.75 4.623L152.053 0.859586C151.992 0.779392 151.957 0.682934 151.952 0.582605C151.947 0.482276 151.972 0.38266 152.023 0.296556C152.067 0.208127 152.135 0.133606 152.218 0.0812884C152.302 0.0289706 152.399 0.000907975 152.497 0.000223949H159.61C160.392 0.00937167 161.162 0.201777 161.856 0.562008C162.551 0.922239 163.152 1.44027 163.61 2.07455L164.973 3.9118L165.21 4.23777C165.29 4.33641 165.399 4.4069 165.522 4.43891C165.645 4.47091 165.774 4.46273 165.892 4.41557L169.241 2.84501L174.397 0.474355C175.114 0.152816 175.893 -0.0089632 176.679 0.000223949H186.695C186.828 -0.0200557 186.964 0.0107821 187.076 0.0865463C187.187 0.16231 187.266 0.277392 187.296 0.408685C187.326 0.539979 187.305 0.677765 187.237 0.794381C187.17 0.910996 187.061 0.997807 186.932 1.03739H186.903C186.79 1.08364 186.698 1.16917 186.643 1.27814C186.589 1.38711 186.576 1.51213 186.606 1.63005C186.628 1.75561 186.693 1.86945 186.791 1.95097C186.889 2.03249 187.012 2.07633 187.14 2.07455H198.845C200.06 2.07455 201.631 2.28198 202.638 3.02281C202.748 3.10459 202.884 3.14368 203.02 3.13277C203.156 3.12187 203.284 3.06171 203.379 2.96354C203.675 2.67099 204.027 2.4414 204.414 2.28861C204.801 2.13583 205.215 2.06301 205.631 2.07455H212.655C212.756 2.07892 212.856 2.10822 212.944 2.15989C213.031 2.21156 213.105 2.28401 213.158 2.37088C213.205 2.46721 213.221 2.5752 213.205 2.68088C213.189 2.78655 213.142 2.88502 213.07 2.96354L211.529 4.8897C211.467 4.96853 211.429 5.06313 211.418 5.1627C211.408 5.26227 211.425 5.36278 211.469 5.45273C211.507 5.546 211.573 5.62496 211.658 5.67822C211.743 5.73148 211.843 5.75629 211.943 5.74906H220.745C220.83 5.75257 220.915 5.73557 220.992 5.69947C221.07 5.66338 221.137 5.60925 221.189 5.54163L221.723 4.86007L222.671 3.70437C223.738 2.31161 225.308 2.07455 226.938 2.07455H242.852L243.859 2.13381C244.681 2.155 245.473 2.44665 246.112 2.96354C246.206 3.05518 246.33 3.10888 246.462 3.11434C246.593 3.11981 246.721 3.07667 246.823 2.99318C247.801 2.22271 249.075 2.07455 250.379 2.07455H265.314L266.322 2.13381C267.031 2.16404 267.718 2.38965 268.308 2.78574C268.401 2.84344 268.509 2.87399 268.619 2.87399C268.729 2.87399 268.836 2.84344 268.93 2.78574C269.878 2.19308 271.004 2.10418 272.16 2.10418H289.081C290.889 2.10418 293.556 2.57831 293.941 4.74153C294.326 6.90476 293.141 7.76412 291.57 8.89018C290 10.0162 287.422 10.5793 285.436 10.5793H269.345L268.367 10.52C267.639 10.49 266.933 10.2649 266.322 9.86807C266.234 9.80947 266.131 9.77818 266.026 9.77818C265.92 9.77818 265.817 9.80947 265.729 9.86807C264.811 10.4311 263.655 10.5496 262.499 10.5496H246.526C245.726 10.4607 244.897 10.2533 244.304 9.69027C244.207 9.60418 244.083 9.55421 243.954 9.54881C243.824 9.54341 243.697 9.58291 243.593 9.66064V9.63101ZM97.4965 10.4904C97.0737 10.5396 96.6479 10.5594 96.2223 10.5496H78.0862C77.2564 10.4607 76.397 10.2237 75.8044 9.66064C75.6949 9.54897 75.5458 9.48507 75.3895 9.48284C75.3147 9.48996 75.242 9.51198 75.1759 9.54761C75.1097 9.58323 75.0514 9.63174 75.0042 9.69027L74.8561 9.89771L74.4708 10.3718C74.4267 10.4426 74.3657 10.5013 74.2933 10.5427C74.2209 10.5841 74.1393 10.6068 74.0559 10.6089H60.5724L60.365 10.5496L56.4829 9.27541L52.6305 8.03082H52.5712C52.5633 8.03082 52.5558 8.02769 52.5503 8.02214C52.5447 8.01658 52.5416 8.00904 52.5416 8.00118H52.4823L52.186 7.85302L51.9193 8.20862L50.5561 9.95697L50.1708 10.4311C50.1275 10.5005 50.0658 10.5566 49.9926 10.5932C49.9194 10.6298 49.8375 10.6455 49.756 10.6385H21.9295C20.8627 10.5496 19.7959 10.194 19.2328 9.21614C19.0673 8.9249 18.9663 8.60153 18.9365 8.26788C18.9331 8.15756 18.8935 8.05142 18.8239 7.96576C18.7543 7.8801 18.6585 7.81967 18.5512 7.79375C18.4479 7.7581 18.3353 7.75927 18.2327 7.79707C18.1301 7.83488 18.0437 7.90698 17.9882 8.00118C17.4548 8.65311 16.9214 9.30504 16.4176 9.98661L16.0323 10.4607C15.9818 10.5321 15.9152 10.5906 15.8381 10.6318C15.7609 10.6729 15.6753 10.6955 15.5878 10.6978H4.74175C4.63477 10.7003 4.52952 10.6705 4.43968 10.6124C4.34984 10.5542 4.27956 10.4704 4.23797 10.3718C4.19725 10.2811 4.18128 10.1812 4.19169 10.0823C4.2021 9.98343 4.23852 9.88906 4.29724 9.80881L5.92712 7.64558L7.52736 5.6009C7.60114 5.52856 7.64741 5.43279 7.65823 5.33004C7.66904 5.22728 7.64373 5.12397 7.58663 5.03787C7.55033 4.94163 7.48543 4.85881 7.40067 4.80053C7.31591 4.74226 7.21534 4.71133 7.11248 4.7119H0.533709C0.438581 4.71112 0.345202 4.68625 0.262288 4.63961C0.179374 4.59297 0.109629 4.52609 0.0595629 4.4452C0.0145724 4.35703 -0.00637748 4.25856 -0.00117478 4.15971C0.00402793 4.06086 0.0351993 3.96513 0.089197 3.88217L1.36346 1.92638C1.55077 1.61646 1.75868 1.31946 1.98578 1.03739C2.26623 0.699423 2.62039 0.430214 3.02108 0.250424C3.42177 0.0706338 3.85833 -0.0149563 4.29724 0.000223949H32.9238C33.0308 -0.00224229 33.136 0.0275241 33.2259 0.0856551C33.3157 0.143786 33.386 0.227594 33.4276 0.326189C33.4713 0.418037 33.4863 0.520987 33.4704 0.621487C33.4545 0.721987 33.4086 0.815327 33.3387 0.889219C32.7581 1.56391 32.2938 2.20538 31.7963 2.89279C31.3543 3.50362 30.8859 4.15074 30.2864 4.8897C30.2148 4.96936 30.1704 5.06976 30.1597 5.17633C30.1491 5.28291 30.1727 5.39011 30.2271 5.48236C30.271 5.57079 30.3385 5.64531 30.4222 5.69763C30.5059 5.74995 30.6025 5.77801 30.7012 5.77869H35.6501C35.7308 5.77989 35.8107 5.76166 35.8829 5.72557C35.9551 5.68947 36.0175 5.63655 36.065 5.57126L36.717 4.77117L37.9023 3.25987C38.218 2.87677 38.6171 2.57084 39.069 2.36542C39.521 2.15999 40.0139 2.06051 40.5101 2.07455H65.8177C66.2926 2.06467 66.7676 2.08447 67.2401 2.13381C68.0995 2.25235 68.9589 2.54868 69.4923 3.20061C69.5444 3.26822 69.6119 3.32235 69.6893 3.35845C69.7666 3.39454 69.8515 3.41155 69.9368 3.40804C70.0931 3.40581 70.2422 3.34191 70.3517 3.23024C70.6597 2.8574 71.0505 2.56149 71.4929 2.36603C71.9352 2.17056 72.4171 2.0809 72.9002 2.10418H80.9607L81.9683 2.04491H99.156L100.104 2.10418C100.993 2.16345 101.882 2.40051 102.475 3.02281C102.525 3.07331 102.585 3.11262 102.652 3.13816C102.718 3.16369 102.789 3.17488 102.86 3.17097C103.012 3.17122 103.158 3.11884 103.275 3.02281C103.583 2.71696 103.948 2.47555 104.35 2.31272C104.752 2.14989 105.183 2.06892 105.616 2.07455H111.573C111.654 2.06758 111.736 2.08326 111.809 2.11986C111.883 2.15646 111.944 2.21256 111.988 2.28198L112.373 2.75611C112.529 2.94952 112.686 3.14006 112.842 3.32952L112.842 3.32994C113.187 3.74994 113.528 4.16462 113.855 4.59337L114.21 5.03787C114.286 5.13317 114.391 5.19981 114.51 5.22676C114.629 5.25371 114.753 5.23934 114.862 5.18603L117.292 4.11924L121.322 2.37088C121.823 2.17988 122.357 2.08926 122.893 2.10418H132.524L133.532 2.04491H149.504L150.512 2.10418C151.579 2.19308 152.675 2.54868 153.209 3.55621C153.742 4.56373 153.416 5.74906 152.705 6.63806L151.816 7.73448L150.927 8.89018C149.86 10.2829 148.289 10.52 146.66 10.52H129.62C128.792 10.4777 128.001 10.1654 127.368 9.63101C127.249 9.53895 127.103 9.48708 126.953 9.48284C126.875 9.48959 126.799 9.51454 126.732 9.55571C126.665 9.59687 126.609 9.6531 126.568 9.71991C126.526 9.74057 126.499 9.77563 126.477 9.80501C126.467 9.81778 126.458 9.82947 126.449 9.83844L126.064 10.3422C126.022 10.4149 125.961 10.4752 125.888 10.5168C125.816 10.5585 125.733 10.58 125.649 10.5793H118.181C118.078 10.5798 117.978 10.5489 117.893 10.4906C117.808 10.4324 117.743 10.3495 117.707 10.2533C117.662 10.1651 117.641 10.0667 117.646 9.96781C117.651 9.86896 117.683 9.77324 117.737 9.69027L118.003 9.36431L115.544 10.4311L115.307 10.52L115.099 10.5793H111.01C110.93 10.5761 110.851 10.556 110.78 10.5203C110.708 10.4845 110.645 10.4339 110.595 10.3718L110.21 9.95697L108.728 8.23825C108.678 8.17638 108.615 8.12647 108.543 8.09219C108.471 8.05791 108.393 8.04011 108.313 8.04011C108.233 8.04011 108.155 8.05791 108.083 8.09219C108.011 8.12647 107.948 8.17638 107.898 8.23825L106.653 9.86807L106.268 10.3422C106.218 10.4135 106.151 10.4721 106.074 10.5132C105.997 10.5544 105.911 10.577 105.824 10.5793H97.4076L97.4965 10.4904ZM178.753 3.9118L178.724 3.92559C178.731 3.9118 178.739 3.9118 178.753 3.9118ZM178.724 3.92559C178.717 3.94005 178.709 3.96967 178.694 4.03034H178.635L178.131 4.65263C177.898 4.92305 177.717 5.23457 177.598 5.57126C177.316 5.75834 177.066 5.98832 176.857 6.25283L176.323 6.93439H176.294V6.99366L176.287 7.00648C175.994 7.53373 175.764 7.94763 176.175 8.65311C176.59 9.36431 177.449 9.57174 178.19 9.63101H195.171C196.682 9.63101 198.638 9.30504 200.09 8.56421L199.26 9.63101H240.066C241.4 9.63101 242.733 9.48284 243.622 8.32715L244.808 6.78622C244.482 7.31962 244.245 7.88265 244.63 8.59385C245.015 9.30504 245.875 9.51248 246.615 9.57174L247.564 9.63101H262.499C263.833 9.63101 265.196 9.48284 266.055 8.29751L266.115 8.23825H266.174L266.233 8.14935C266.266 8.33499 266.326 8.51477 266.411 8.68275C266.796 9.39394 267.685 9.60138 268.426 9.66064H285.436C287.214 9.66064 289.615 9.18651 291.067 8.14935L293.348 6.51952H285.466C285.392 6.55693 285.314 6.58456 285.233 6.60174C285.317 6.48539 285.376 6.35288 285.406 6.21257C285.437 6.06958 285.437 5.92172 285.406 5.77869H285.762C286.029 5.77869 286.651 5.80833 286.859 5.98613L287.096 6.16393H292.934L293.052 5.39346C293.082 5.22688 293.082 5.05628 293.052 4.8897C292.756 3.28951 290.385 2.99318 289.081 2.99318H272.16C271.004 2.99318 269.819 3.08207 268.93 3.94144H268.841C268.686 4.11645 268.547 4.30487 268.426 4.50447C268.399 4.30819 268.339 4.11789 268.248 3.94144C267.863 3.23024 267.004 3.05244 266.233 2.96354H250.379C249.045 2.96354 247.682 3.08207 246.823 4.2674C246.721 4.38751 246.62 4.50474 246.519 4.62088L246.517 4.62316L246.515 4.6252L246.514 4.62701C246.293 4.88126 246.077 5.13045 245.875 5.39346L245.697 5.63053C245.861 5.39458 245.959 5.11869 245.98 4.83189C246.001 4.54508 245.944 4.25795 245.815 4.0007C245.43 3.25987 244.541 3.05244 243.771 2.99318H226.938C225.605 2.99318 224.242 3.11171 223.382 4.29704C223.056 4.65263 222.73 5.03786 222.434 5.4231L221.545 6.57879L221.367 6.84549V6.69732H208.98C209.072 6.5635 209.171 6.43489 209.276 6.31209C209.751 5.68979 210.225 5.0675 210.728 4.47483L211.914 2.99318H205.631C205.291 2.98156 204.952 3.05067 204.643 3.19487C204.334 3.33906 204.063 3.55426 203.853 3.8229L202.846 5.12676C202.846 5.08231 202.838 5.04527 202.831 5.00823C202.824 4.97119 202.816 4.93415 202.816 4.8897C202.52 3.28951 200.149 2.99318 198.845 2.99318H181.954C181.447 2.9873 180.942 3.02697 180.442 3.11171L185.095 0.918853H176.679C176.016 0.897884 175.357 1.02969 174.753 1.30408L165.21 5.71943L165.21 5.71876C164.884 5.30412 164.558 4.88946 164.262 4.4452L162.869 2.60794C162.499 2.08839 162.01 1.66433 161.443 1.37067C160.876 1.07701 160.248 0.922155 159.61 0.918853H153.179L155.49 4.0896C155.83 4.59827 156.208 5.06734 156.594 5.54536L156.6 5.55296L156.609 5.56376L156.622 5.57941C156.699 5.67494 156.776 5.77087 156.854 5.86759L158.632 8.23825C158.948 8.66742 159.358 9.01869 159.83 9.26521C160.303 9.51173 160.825 9.64699 161.358 9.66064H166.603L166.781 9.57174L170.426 7.88265L175.938 5.2453L178.724 3.92559ZM285.233 6.60174L285.229 6.60842H285.199C285.211 6.60641 285.222 6.60418 285.233 6.60174ZM252.927 5.95649H267.33L267.093 6.22319L266.737 6.69732H252.335C252.516 6.43762 252.714 6.19014 252.927 5.95649ZM196.83 6.16393H202.016L201.72 6.51952H195.348L195.2 6.57879L194.993 6.63806C195.011 6.62426 195.026 6.60636 195.036 6.58579C195.047 6.56521 195.052 6.54253 195.052 6.51952C195.121 6.4106 195.167 6.28871 195.188 6.16133C195.208 6.03395 195.202 5.90375 195.171 5.77869H195.526C195.763 5.77869 196.386 5.80833 196.593 5.95649L196.83 6.16393ZM166.396 8.77194H161.358C160.964 8.7562 160.578 8.65218 160.229 8.46755C159.88 8.28292 159.578 8.02238 159.343 7.70515L157.565 5.33449C157.417 5.13694 157.265 4.93938 157.114 4.74183C156.811 4.34672 156.508 3.95161 156.231 3.5565L154.957 1.80814H159.61C160.108 1.81844 160.598 1.94421 161.04 2.17557C161.483 2.40693 161.865 2.7376 162.158 3.14164L163.521 4.97889C163.817 5.39343 164.14 5.80797 164.462 6.22251L164.463 6.22336C164.624 6.43084 164.786 6.63831 164.944 6.84578L170.011 4.47513L175.138 2.13411C175.617 1.90113 176.146 1.78921 176.679 1.80814H181.065L170.041 7.05322C168.796 7.61625 167.581 8.17928 166.396 8.77194ZM224.123 8.74231C223.056 8.74231 221.071 8.65341 222.286 7.11248C222.452 6.87259 222.641 6.6327 222.824 6.39996L222.825 6.39926C222.936 6.2585 223.045 6.12036 223.145 5.98642L224.093 4.83073C224.805 3.88247 226.138 3.88247 226.938 3.88247H242.852C243.919 3.88247 245.904 3.97137 244.689 5.54192L243.77 6.66799C243.637 6.8606 243.489 7.04581 243.341 7.23102C243.193 7.41622 243.044 7.60143 242.911 7.79405C242.191 8.74446 240.939 8.74318 240.135 8.74236L240.066 8.74231H224.123ZM221.13 8.74231H201.097C201.393 8.38705 201.682 8.017 201.971 7.64694L201.972 7.64588L201.972 7.64482C202.261 7.27476 202.55 6.90471 202.846 6.54945C203.226 6.09355 203.593 5.62546 203.965 5.153L203.966 5.15107C204.173 4.88716 204.382 4.62188 204.594 4.3566C204.716 4.20215 204.875 4.08062 205.056 4.00301C205.238 3.9254 205.435 3.89416 205.631 3.9121H210.017C209.904 4.05212 209.79 4.19064 209.678 4.32834L209.677 4.32877L209.676 4.33039C209.289 4.80395 208.909 5.26778 208.565 5.74936L207.143 7.58661H220.508L220.51 7.6143C220.539 7.96938 220.581 8.48245 221.13 8.74231ZM285.436 8.77194H269.345C268.367 8.77194 266.618 8.68304 267.3 7.43845L267.804 6.81615C268.04 6.50736 268.358 6.27119 268.722 6.13459C268.663 5.92716 268.782 5.60119 269.078 5.21596C269.219 5.00574 269.378 4.80752 269.552 4.6233C270.236 3.93893 271.332 3.94055 272.074 3.94165L272.16 3.94173H289.081C291.037 3.94173 292.281 4.50476 292.163 5.27523H287.392C287.095 5.03816 286.503 4.91963 285.762 4.91963H274.945C274.819 4.90294 274.691 4.91276 274.568 4.94847C274.446 4.98419 274.332 5.04501 274.234 5.12706L273.582 5.95679H284.517V6.04569L284.221 6.46055C284.014 6.72725 283.717 6.81615 283.243 6.81615H272.871L272.338 7.49771C272.19 7.67551 272.367 7.79405 272.604 7.79405H283.599C284.336 7.78895 285.068 7.65869 285.762 7.40881H290.533C289.437 8.17928 287.392 8.77194 285.436 8.77194ZM195.17 8.77194H179.109C178.131 8.77194 176.382 8.68304 177.064 7.46808L177.597 6.81615C177.819 6.51698 178.115 6.2818 178.457 6.13459C178.427 5.92716 178.546 5.60119 178.872 5.21596C179.013 5.00574 179.172 4.80752 179.346 4.6233C180.059 3.93897 181.128 3.94055 181.868 3.94165L181.954 3.94173H198.845C200.801 3.94173 202.046 4.50476 201.927 5.27523H197.156C196.889 5.03816 196.267 4.91963 195.526 4.91963H184.68C184.558 4.90534 184.435 4.91639 184.318 4.95208C184.2 4.98778 184.092 5.04735 183.998 5.12706L183.376 5.95679H194.252C194.254 5.96074 194.256 5.96455 194.258 5.96824C194.261 5.97357 194.263 5.97863 194.266 5.98342C194.27 5.98972 194.273 5.99555 194.276 6.0009L194.276 6.00124C194.294 6.03087 194.302 6.04569 194.281 6.04569L193.985 6.46055C193.861 6.59215 193.708 6.69288 193.538 6.75463C193.369 6.81639 193.187 6.83746 193.007 6.81615H182.665L182.131 7.49771C181.983 7.67551 182.161 7.79405 182.398 7.79405H193.333C194.071 7.79433 194.804 7.66391 195.496 7.40881H200.268C199.23 8.17928 197.126 8.77194 195.17 8.77194ZM247.564 8.74231C246.497 8.74231 244.511 8.65341 245.726 7.11248C245.892 6.87279 246.081 6.6331 246.264 6.40055L246.265 6.39992L246.265 6.39926L246.269 6.3946L246.272 6.39109C246.381 6.25316 246.487 6.11777 246.586 5.98642L247.534 4.83073C248.216 3.88247 249.549 3.88247 250.379 3.88247H265.314C266.233 3.88247 267.893 3.97137 267.448 5.03816H252.987C252.863 5.02783 252.738 5.0436 252.621 5.08443C252.503 5.12526 252.396 5.19026 252.305 5.27523C252.1 5.50108 251.909 5.74116 251.722 5.97575C251.639 6.07974 251.557 6.18264 251.475 6.28275L250.705 7.29028C250.557 7.49771 250.764 7.58661 250.972 7.58661H265.492L265.344 7.79405C264.653 8.74442 263.402 8.74318 262.57 8.74236L262.499 8.74231H247.564ZM229.207 5.07549C229.088 5.11667 228.981 5.18509 228.894 5.27523L227.294 7.29028C227.116 7.49771 227.323 7.58661 227.531 7.58661H237.429C237.555 7.60521 237.684 7.59631 237.807 7.56051C237.93 7.52471 238.043 7.46286 238.14 7.37918L238.91 6.37165L239.711 5.33449C239.888 5.15669 239.681 5.03816 239.444 5.03816H229.576C229.451 5.02153 229.325 5.03431 229.207 5.07549ZM228.924 6.69732H237.547L238.081 5.95649H229.487C229.423 6.04134 229.356 6.12619 229.287 6.2124C229.164 6.36705 229.038 6.52608 228.924 6.69732ZM129.976 4.2674C130.835 3.11171 132.198 2.99318 133.532 2.99318H150.423C151.194 3.08208 152.053 3.25987 152.438 3.97107C152.823 4.68227 152.468 5.48236 151.994 6.07503L150.216 8.32715C149.356 9.48284 147.993 9.63101 146.66 9.63101H130.627L129.709 9.57174C128.968 9.51248 128.109 9.30504 127.723 8.59385C127.338 7.88265 127.634 7.11219 128.109 6.54916L128.998 5.39346C129.121 5.24546 129.255 5.09746 129.392 4.94518C129.585 4.73159 129.785 4.5096 129.976 4.2674ZM130.627 8.74231C129.59 8.74231 127.605 8.65341 128.82 7.11248L129.709 5.98642C129.906 5.72959 130.13 5.47275 130.354 5.21592L130.355 5.21486C130.467 5.08682 130.578 4.95877 130.687 4.83073C131.398 3.88247 132.731 3.88247 133.532 3.88247H149.504C150.542 3.88247 152.527 3.97137 151.312 5.54192C151.237 5.63106 151.161 5.71861 151.086 5.80531C150.838 6.09331 150.598 6.37189 150.393 6.66799L149.504 7.79405C148.813 8.74448 147.534 8.74318 146.728 8.74236L146.659 8.74231H130.627ZM135.774 5.08697C135.657 5.12771 135.549 5.19175 135.458 5.27523L133.858 7.29028C133.68 7.49771 133.887 7.58661 134.095 7.58661H144.022C144.144 7.60279 144.268 7.59264 144.385 7.55685C144.503 7.52107 144.611 7.46048 144.704 7.37918C144.97 7.02358 145.237 6.69762 145.533 6.37165L146.333 5.33449C146.482 5.15669 146.304 5.03816 146.096 5.03816H136.139C136.016 5.02962 135.891 5.04622 135.774 5.08697ZM136.08 5.95649L135.487 6.69732H144.111C144.292 6.43762 144.49 6.19014 144.704 5.95649H136.08ZM120.789 7.17145L119.574 7.70485L115.188 9.60138L115.01 9.66064H111.158L110.891 9.36431C110.545 8.98027 110.212 8.58378 109.875 8.18292C109.692 7.96516 109.508 7.74611 109.321 7.52705L108.283 6.28246L107.335 7.46779L105.913 9.30504L105.646 9.66064H99.2449L100.371 8.20862C100.681 7.77745 101.012 7.35631 101.339 6.93938C101.574 6.63994 101.808 6.34267 102.031 6.04539C102.397 5.55734 102.805 5.05534 103.216 4.54895C103.404 4.31743 103.593 4.08498 103.779 3.85254C103.995 3.57379 104.274 3.35048 104.594 3.20105C104.913 3.05161 105.264 2.98036 105.616 2.99318H111.395L111.662 3.34877C111.818 3.54218 111.975 3.73272 112.13 3.92219L112.131 3.92261C112.476 4.3426 112.817 4.75728 113.143 5.18603L114.21 6.48989L117.648 4.94897L121.678 3.20061C122.067 3.06007 122.479 2.98984 122.893 2.99318H130.687L129.531 4.47483C129.296 4.77732 129.052 5.07556 128.808 5.37438C128.406 5.86596 128.003 6.35908 127.634 6.87512C127.302 7.34042 126.942 7.78707 126.58 8.236L126.579 8.23647L126.579 8.2368C126.296 8.58815 126.011 8.94089 125.738 9.30504L125.471 9.66064H118.892L119.989 8.20862L120.789 7.17145ZM126.894 6.34202C127.516 5.51229 128.168 4.7122 128.82 3.9121H122.893C122.602 3.90335 122.311 3.94342 122.033 4.03063L118.003 5.77899L113.973 7.55698L112.432 5.71972C112.105 5.29084 111.764 4.87602 111.419 4.45589C111.263 4.26642 111.107 4.07588 110.95 3.88247H105.616C105.401 3.88427 105.189 3.93293 104.994 4.02504C104.8 4.11716 104.628 4.25052 104.49 4.41586C103.897 5.12706 103.334 5.83826 102.771 6.57909C102.551 6.86855 102.327 7.15349 102.103 7.43744C101.754 7.88021 101.407 8.32058 101.082 8.77194H105.201L106.624 6.93468C107.098 6.31239 107.602 5.69009 108.105 5.09743C108.124 5.06857 108.151 5.04691 108.184 5.03611C108.216 5.02531 108.251 5.02603 108.283 5.03816C108.325 5.03778 108.367 5.04856 108.403 5.06939C108.439 5.09021 108.47 5.12034 108.491 5.15669C108.828 5.53142 109.142 5.90615 109.461 6.28837C109.647 6.51066 109.836 6.73549 110.032 6.96432L111.573 8.77194H114.832L119.218 6.87542L123.634 4.97889L122.152 6.87542C121.981 7.09935 121.807 7.32328 121.631 7.54859L121.631 7.5489L121.631 7.54922L121.631 7.54956C121.319 7.95007 121.003 8.35494 120.7 8.77194H124.997C125.308 8.35727 125.626 7.95741 125.945 7.55755L125.945 7.55698L125.946 7.55642C126.264 7.15656 126.582 6.75669 126.894 6.34202ZM81.9682 2.99318C80.6051 2.99318 79.2715 3.11171 78.3825 4.2674L77.8787 4.86007H77.8491V4.91933C77.6855 5.12552 77.569 5.36494 77.5075 5.62086C77.4461 5.87678 77.4413 6.14303 77.4935 6.40099H76.6341L76.3674 6.81586C76.0414 7.37889 75.8044 7.94192 76.1896 8.62348C76.5748 9.30504 77.4342 9.51248 78.1751 9.57174L79.0937 9.63101H96.2223C97.5558 9.63101 98.8893 9.48284 99.7784 8.32715L100.164 7.82338C100.519 7.34925 100.786 6.75659 100.638 6.16393H101.616L101.882 5.74906C102.075 5.49896 102.194 5.19979 102.226 4.8855C102.257 4.57122 102.2 4.25442 102.06 3.97107C101.675 3.25987 100.786 3.05244 100.045 2.99318H81.9682ZM83.9833 5.74936C83.361 5.74936 83.8055 5.33449 83.8944 5.27523C83.9828 5.18694 84.09 5.11977 84.2081 5.07872C84.3261 5.03767 84.4519 5.02381 84.576 5.03816H95.7184C95.9258 5.03816 96.1037 5.12706 96.0444 5.30486H101.112C101.971 3.97137 100.164 3.88247 99.156 3.88247H81.9682C81.1088 3.88247 79.8049 3.88247 79.0937 4.83073L78.5899 5.45302C77.6712 6.81615 79.5382 6.90505 80.5457 6.90505H94.1774C94.6015 6.90505 94.4376 7.157 94.3398 7.30744C94.3214 7.33573 94.3054 7.36042 94.296 7.37918H94.3256C94.228 7.46124 94.1143 7.52206 93.9918 7.55777C93.8694 7.59348 93.7408 7.60331 93.6144 7.58661H82.5312C82.3238 7.58661 82.146 7.49771 82.2645 7.34955H77.1378C76.2784 8.68304 78.1157 8.74231 79.0937 8.74231H96.2222L96.2908 8.74236C97.0952 8.74318 98.347 8.74446 99.0671 7.79405C99.1865 7.62889 99.3151 7.4706 99.4523 7.31992C100.519 5.86789 98.7707 5.74936 97.5557 5.74936H83.9833ZM67.6253 8.14935C67.8281 7.89323 68.027 7.63712 68.2249 7.38238C68.5764 6.92976 68.9246 6.48151 69.2849 6.04539C69.6087 5.6534 69.9423 5.2222 70.2801 4.78561L70.2804 4.78528C70.5298 4.46288 70.7815 4.13755 71.0333 3.8229C71.2615 3.5525 71.5481 3.33736 71.8714 3.19365C72.1948 3.04993 72.5465 2.98139 72.9002 2.99318H79.1234L77.9676 4.47483C77.813 4.66455 77.6585 4.8526 77.5043 5.04017L77.5038 5.04071C77.0079 5.644 76.516 6.24233 76.0414 6.87512C75.7303 7.28999 75.4117 7.69003 75.0931 8.09008C74.7746 8.49013 74.456 8.89018 74.1448 9.30504L73.8781 9.66064H60.6613L56.7496 8.38641L52.8972 7.14182H52.8379C52.6727 7.07534 52.5281 6.96627 52.4188 6.82573C52.3095 6.68518 52.2394 6.51818 52.2156 6.34172C51.9678 6.63087 51.7343 6.93441 51.5052 7.23227L51.5048 7.2328C51.4053 7.36214 51.3067 7.4904 51.208 7.61595L49.8449 9.36431L49.5782 9.71991H41.6955L42.792 8.26788C43.0735 7.89747 43.3698 7.53446 43.6662 7.17145C43.9625 6.80845 44.2588 6.44544 44.5404 6.07503C45.1034 5.3342 45.6961 4.59337 46.2888 3.85254C46.4957 3.58984 46.7622 3.38023 47.0662 3.24109C47.3703 3.10195 47.7031 3.03728 48.0372 3.05244H65.8177C66.2531 3.0426 66.6888 3.0624 67.1216 3.11171C67.8328 3.20061 68.6033 3.43767 68.9589 4.11924C69.3145 4.8008 69.0181 5.54163 68.5736 6.10466H68.544L68.0402 6.72696C67.6263 7.2461 67.0354 7.59429 66.3807 7.70485L67.0327 7.94192L67.6253 8.14935ZM73.4039 8.77194H68.3069L69.996 6.57909L71.7444 4.41586C71.8806 4.24309 72.0573 4.10668 72.259 4.01878C72.4606 3.93088 72.6809 3.89424 72.9001 3.9121H77.2564C76.6044 4.7122 75.9525 5.54192 75.3301 6.34202C75.0713 6.67479 74.8022 7.00757 74.5314 7.34247C74.1511 7.81279 73.7674 8.28731 73.4039 8.77194ZM49.1336 8.74231H43.5327L45.2515 6.54945C45.6405 6.03767 46.0436 5.54004 46.4511 5.037L46.4515 5.03646C46.6337 4.8115 46.8168 4.58546 46.9999 4.3566C47.1271 4.20784 47.2868 4.09037 47.4666 4.01328C47.6465 3.9362 47.8417 3.90158 48.0371 3.9121H65.8176C65.8326 3.9121 65.849 3.91204 65.8667 3.91196L65.9048 3.91176C66.6402 3.9077 69.1391 3.8939 67.8623 5.48266C67.7924 5.57587 67.7179 5.66449 67.6443 5.75214C67.5306 5.88742 67.4188 6.02036 67.3289 6.16422C66.7782 6.84604 65.949 6.85487 64.677 6.86841C64.5117 6.87017 64.3388 6.87201 64.1581 6.87542H62.143C62.1133 6.87542 62.0837 6.87542 62.0837 6.93468C62.0837 6.99395 62.1133 7.02358 62.1726 7.05322L66.7066 8.77194H60.928L57.0459 7.49771L53.1935 6.25312C53.1865 6.24613 53.1778 6.23913 53.1687 6.23175C53.1391 6.20785 53.1046 6.17986 53.1046 6.13459L53.1638 6.07532H60.4835C61.0169 6.07532 61.4614 6.07532 61.7577 5.69009L62.1133 5.24559C62.2022 5.06779 62.0837 4.94926 61.7577 4.94926H52.6304C52.1266 4.94926 52.0377 5.03816 51.8599 5.24559L49.1336 8.74231ZM27.7082 6.69732L28.1231 6.13429L32.1237 0.918853H4.29724C3.99298 0.900073 3.68868 0.954907 3.41012 1.07871C3.13156 1.20251 2.88694 1.39163 2.697 1.63005C2.47608 1.87862 2.27773 2.14638 2.10432 2.43014L1.21529 3.8229H10.1055L8.9498 5.27493L6.63834 8.20862L5.48261 9.66064H15.41L15.6767 9.30504L19.3514 4.68227C19.8848 4.03034 20.6256 3.8229 21.4554 3.8229H22.5519L21.4554 5.21566L20.4182 6.54916C19.9737 7.14182 19.6477 7.94192 20.033 8.65311C20.4182 9.36431 21.2776 9.54211 22.0184 9.60138L22.9075 9.66064H38.8802C40.2138 9.66064 41.577 9.51248 42.466 8.35678C42.7821 7.90241 43.1245 7.47437 43.467 7.04634C43.6382 6.83232 43.8094 6.6183 43.9773 6.40099C44.4811 5.74906 45.0145 5.09713 45.5479 4.47483L46.7037 2.99318H40.5101C40.1513 2.97454 39.793 3.03982 39.4638 3.18386C39.1345 3.32789 38.8434 3.5467 38.6135 3.8229L37.4282 5.3342L36.3317 6.69732H27.7082ZM44.8366 3.88247H40.5101C40.287 3.8696 40.0641 3.90836 39.8585 3.99574C39.6529 4.08311 39.4702 4.21674 39.3247 4.38623L38.1393 5.89752L36.954 7.37918C36.8618 7.46048 36.7533 7.52107 36.6357 7.55685C36.5181 7.59264 36.3942 7.60279 36.2724 7.58661H26.345C26.1079 7.58661 25.9301 7.49771 26.0782 7.29028L27.4118 5.60119L28.775 3.88247H24.4187C24.2003 3.87196 23.9824 3.91195 23.782 3.99931C23.5816 4.08668 23.404 4.21908 23.263 4.38623L22.1665 5.74936L21.1293 7.11248C19.9144 8.68304 21.8702 8.74231 22.9074 8.74231H38.8802C38.9035 8.74231 38.9273 8.74233 38.9514 8.74236C39.7829 8.74318 41.0339 8.74442 41.7251 7.79405L43.266 5.83826L44.8366 3.88247ZM30.1381 1.80814H4.29717C4.12855 1.79247 3.9587 1.81955 3.80331 1.88688C3.64793 1.95422 3.51202 2.05963 3.40815 2.19338C3.21168 2.41585 3.03331 2.65368 2.87474 2.90457H12.002L9.66095 5.83826L7.34949 8.77194H14.9655L16.8028 6.43092C17.1979 5.91728 17.6193 5.40364 18.0408 4.89C18.2515 4.63318 18.4623 4.37636 18.6697 4.11953C19.292 3.34907 20.2403 2.90457 21.4553 2.90457H29.2491L30.1381 1.80814Z" fill="black"/>
</g>
<defs>
<clipPath id="clip0_107_884">
<rect width="294" height="35.9747" fill="white"/>
</clipPath>
</defs>
</svg>
