<svg width="294" height="24" viewBox="0 0 294 24" fill="none" xmlns="http://www.w3.org/2000/svg">
<path fill-rule="evenodd" clip-rule="evenodd" d="M68.3054 8.28859H73.4022C73.7656 7.83099 74.1493 7.38292 74.5296 6.93882C74.8004 6.6226 75.0695 6.30837 75.3283 5.99416C75.9505 5.23868 76.6025 4.4552 77.2544 3.69972H72.8985C72.6792 3.68285 72.4589 3.71745 72.2573 3.80045C72.0556 3.88344 71.8788 4.01226 71.7427 4.1754L69.9944 6.218L68.3054 8.28859ZM44.8365 3.67174H40.5101C40.2871 3.65959 40.0642 3.69619 39.8586 3.77869C39.653 3.86119 39.4704 3.98738 39.3248 4.14741L38.1395 5.57445L36.9542 6.97349C36.8621 7.05026 36.7535 7.10746 36.636 7.14126C36.5184 7.17504 36.3946 7.18462 36.2727 7.16935H26.3458C26.1087 7.16935 25.931 7.08541 26.0792 6.88955L27.4126 5.29463L28.7757 3.67174H24.4197C24.2014 3.66181 23.9835 3.69958 23.783 3.78208C23.5826 3.86457 23.405 3.98959 23.2641 4.14741L22.1677 5.43453L21.1305 6.72165C19.9156 8.20464 21.8713 8.26062 22.9085 8.26062H38.8804C38.9038 8.26062 38.9274 8.26063 38.9515 8.26065C39.783 8.26144 41.034 8.2626 41.725 7.36522L43.2659 5.51847L44.8365 3.67174ZM83.9812 5.43453C83.3587 5.43453 83.8029 5.0428 83.892 4.98685C83.9803 4.90347 84.0878 4.84005 84.2054 4.80129C84.3238 4.76253 84.4495 4.74944 84.5738 4.76299H95.7154C95.9227 4.76299 96.1008 4.84694 96.0415 5.01482H101.108C101.968 3.75568 100.16 3.67174 99.1525 3.67174H81.9659C81.1066 3.67174 79.8028 3.67174 79.0916 4.56713L78.5879 5.15473C77.6693 6.44185 79.5361 6.52579 80.5436 6.52579H94.1745C94.5983 6.52579 94.4348 6.76369 94.3371 6.90574C94.3188 6.93246 94.3024 6.95577 94.2932 6.97349H94.3225C94.2256 7.05097 94.1115 7.10839 93.9891 7.14212C93.8658 7.17584 93.7379 7.18512 93.6109 7.16935H82.529C82.3215 7.16935 82.1437 7.08541 82.2623 6.94551H77.1359C76.2765 8.20464 78.1137 8.26062 79.0916 8.26062H96.2187C96.2415 8.26062 96.2643 8.26063 96.2881 8.26065C97.0919 8.26144 98.3441 8.26264 99.0639 7.36522C99.1835 7.20927 99.3114 7.0598 99.4493 6.91753C100.516 5.54646 98.767 5.43453 97.5522 5.43453H83.9812ZM135.452 4.98685C135.544 4.90802 135.652 4.84755 135.769 4.80907C135.886 4.77061 136.01 4.75494 136.134 4.76299H146.091C146.298 4.76299 146.475 4.87492 146.327 5.0428L145.527 6.02214C145.231 6.32993 144.964 6.63771 144.698 6.97349C144.605 7.05026 144.497 7.10746 144.38 7.14126C144.262 7.17504 144.138 7.18462 144.016 7.16935H134.09C133.882 7.16935 133.675 7.08541 133.852 6.88955L135.452 4.98685ZM128.815 6.72165C127.6 8.17667 129.585 8.26062 130.622 8.26062H146.654C146.675 8.26062 146.699 8.26063 146.723 8.26065C147.528 8.26144 148.807 8.26266 149.498 7.36522L150.387 6.30194C150.593 6.02236 150.833 5.75931 151.08 5.48737C151.155 5.40551 151.23 5.32284 151.306 5.23868C152.521 3.75568 150.535 3.67174 149.498 3.67174H133.526C132.726 3.67174 131.392 3.67174 130.682 4.56713C130.573 4.68803 130.462 4.80894 130.35 4.92984L130.349 4.93084C130.125 5.17336 129.902 5.41586 129.704 5.65839L128.815 6.72165ZM30.1388 1.71307H4.29931C4.1307 1.69827 3.96086 1.72384 3.80548 1.78742C3.6501 1.851 3.51421 1.95054 3.41034 2.07682C3.21388 2.28689 3.03553 2.51146 2.87695 2.74837H12.0037L9.66278 5.51847L7.35146 8.28859H14.967L16.8042 6.0781C17.1992 5.5931 17.6207 5.1081 18.0422 4.6231C18.2529 4.38059 18.4636 4.13809 18.6711 3.89558C19.2934 3.16809 20.2416 2.74837 21.4566 2.74837H29.2499L30.1388 1.71307ZM161.351 8.28859H166.389C167.574 7.72898 168.789 7.19733 170.033 6.6657L181.057 1.71307H176.672C176.139 1.69519 175.61 1.80087 175.131 2.02086L170.004 4.23136L164.938 6.46982C164.779 6.27392 164.617 6.07802 164.456 5.88211L164.455 5.88131C164.133 5.48989 163.81 5.09846 163.514 4.70703L162.151 2.97221C161.858 2.59071 161.476 2.27847 161.034 2.06001C160.592 1.84154 160.102 1.72279 159.602 1.71307H154.951L156.225 3.36394C156.501 3.73703 156.804 4.1101 157.107 4.48318C157.259 4.66973 157.41 4.85627 157.558 5.0428L159.336 7.28128C159.57 7.58083 159.874 7.82684 160.223 8.00117C160.571 8.17551 160.957 8.27373 161.351 8.28859ZM228.883 4.98685C228.971 4.90173 229.078 4.83713 229.196 4.79825C229.314 4.75937 229.441 4.74728 229.565 4.76299H239.433C239.67 4.76299 239.877 4.87492 239.699 5.0428L238.899 6.02214L238.129 6.97349C238.032 7.0525 237.918 7.1109 237.796 7.1447C237.673 7.1785 237.544 7.18692 237.418 7.16935H227.521C227.313 7.16935 227.106 7.08541 227.284 6.88955L228.883 4.98685ZM222.276 6.72165C221.06 8.17667 223.046 8.26062 224.113 8.26062H240.056C240.077 8.26062 240.1 8.26063 240.123 8.26065C240.928 8.26144 242.179 8.26264 242.9 7.36522C243.033 7.18335 243.181 7.00846 243.329 6.83358C243.478 6.6587 243.625 6.48383 243.758 6.30194L244.678 5.23868C245.892 3.75568 243.907 3.67174 242.84 3.67174H226.928C226.128 3.67174 224.795 3.67174 224.083 4.56713L223.134 5.65839C223.035 5.78486 222.925 5.9153 222.814 6.04821L222.814 6.04887C222.63 6.26862 222.442 6.49514 222.276 6.72165ZM128.815 3.69972C128.164 4.4552 127.51 5.21069 126.889 5.99416C126.578 6.3857 126.26 6.76328 125.94 7.14084L125.939 7.14191C125.622 7.51947 125.303 7.89704 124.992 8.28859H120.696C120.999 7.89484 121.314 7.51254 121.626 7.13436C121.803 6.92161 121.977 6.70925 122.148 6.49781L123.629 4.70703L119.214 6.49781L114.828 8.28859H111.568L110.027 6.58176C109.832 6.36569 109.644 6.1534 109.457 5.94349C109.138 5.58259 108.824 5.22876 108.486 4.87492C108.465 4.84059 108.436 4.81214 108.399 4.79248C108.363 4.77281 108.322 4.76264 108.28 4.76299C108.247 4.75154 108.212 4.75086 108.179 4.76106C108.148 4.77126 108.12 4.79171 108.102 4.81896C107.599 5.37857 107.094 5.96617 106.619 6.55377L105.198 8.28859H101.079C101.403 7.8624 101.751 7.44658 102.099 7.0285C102.324 6.76038 102.548 6.49133 102.768 6.218C103.331 5.51848 103.894 4.84694 104.487 4.1754C104.625 4.01927 104.796 3.89335 104.991 3.80636C105.185 3.71938 105.397 3.67345 105.613 3.67174H110.947C111.102 3.85436 111.259 4.03428 111.415 4.21319C111.76 4.6099 112.101 5.00158 112.428 5.40656L113.969 7.14138L117.999 5.46251L122.029 3.81164C122.307 3.72929 122.597 3.69146 122.889 3.69972H128.815ZM43.5326 8.26062H49.1332L51.8594 4.95886C52.0372 4.76299 52.1261 4.67905 52.6298 4.67905H61.7566C62.0827 4.67905 62.2011 4.79097 62.1122 4.95886L61.7566 5.37857C61.4603 5.74233 61.0158 5.74233 60.4824 5.74233H53.1632L53.1039 5.79828C53.1039 5.84104 53.1386 5.86746 53.1682 5.89003C53.1772 5.897 53.1859 5.9036 53.1929 5.91022L57.045 7.08541L60.9269 8.28859H66.7052L62.1714 6.6657C62.1122 6.63771 62.0826 6.60974 62.0826 6.55377C62.0826 6.49781 62.1122 6.49781 62.1418 6.49781H64.1569C64.3375 6.4946 64.5104 6.49285 64.6758 6.49119C65.9477 6.4784 66.7768 6.47007 67.3275 5.82627C67.4174 5.69043 67.5292 5.5649 67.6428 5.43716C67.7165 5.3544 67.791 5.27072 67.8609 5.18271C69.1376 3.68254 66.6388 3.69556 65.9035 3.6994C65.8902 3.69947 65.8775 3.69953 65.8655 3.69959C65.8476 3.69967 65.8313 3.69972 65.8162 3.69972H48.0367C47.8414 3.68979 47.6463 3.72248 47.4664 3.79527C47.2865 3.86804 47.1268 3.97897 46.9997 4.11943C46.8166 4.33554 46.6335 4.54897 46.4513 4.76139C46.0438 5.23638 45.6404 5.70678 45.2514 6.19002L43.5326 8.26062ZM201.089 8.26062H221.12C220.571 8.01524 220.529 7.53078 220.5 7.19549C220.499 7.18668 220.498 7.17796 220.498 7.16935H207.133L208.555 5.43453C208.9 4.97981 209.279 4.54183 209.667 4.09469C209.667 4.09419 209.668 4.09366 209.668 4.09316C209.781 3.96315 209.895 3.83194 210.008 3.69972H205.623C205.425 3.68278 205.228 3.71228 205.047 3.78557C204.866 3.85885 204.707 3.9736 204.585 4.11943C204.373 4.36992 204.165 4.62041 203.957 4.86961C203.957 4.87021 203.957 4.87083 203.956 4.87143C203.585 5.31755 203.216 5.75954 202.837 6.19002C202.54 6.52548 202.252 6.87489 201.964 7.22431L201.963 7.22532L201.962 7.22632C201.673 7.57575 201.384 7.92516 201.089 8.26062ZM269.332 8.28859H285.423C287.378 8.28859 289.422 7.72898 290.519 7.00147H285.748C285.054 7.23742 284.323 7.36041 283.586 7.36522H272.591C272.355 7.36522 272.177 7.2533 272.325 7.08541L272.858 6.44185H283.23C283.704 6.44185 284 6.35791 284.207 6.10608L284.504 5.71434V5.6304H273.57L274.221 4.84694C274.319 4.76946 274.432 4.71203 274.554 4.6783C274.678 4.64458 274.805 4.63531 274.932 4.65107H285.748C286.489 4.65107 287.081 4.76299 287.378 4.98685H292.149C292.267 4.25934 291.023 3.72769 289.067 3.72769H272.147C272.118 3.72769 272.09 3.72767 272.061 3.72762C271.319 3.72658 270.224 3.72505 269.539 4.37126C269.365 4.54521 269.206 4.73238 269.065 4.93088C268.769 5.29463 268.65 5.60242 268.709 5.79828C268.346 5.92727 268.027 6.15028 267.791 6.44185L267.287 7.02945C266.606 8.20464 268.354 8.28859 269.332 8.28859ZM179.101 8.28859H195.162C197.117 8.28859 199.222 7.72898 200.258 7.00147H195.488C194.795 7.24234 194.063 7.36549 193.325 7.36522H182.391C182.154 7.36522 181.975 7.2533 182.124 7.08541L182.657 6.44185H192.999C193.178 6.46197 193.36 6.44208 193.529 6.38376C193.699 6.32545 193.853 6.23034 193.976 6.10608L194.273 5.71434C194.294 5.71434 194.286 5.70036 194.268 5.67237C194.265 5.66733 194.261 5.6615 194.257 5.65555C194.255 5.65104 194.252 5.64625 194.249 5.64122C194.247 5.63773 194.245 5.63413 194.243 5.6304H183.368L183.991 4.84694C184.084 4.77167 184.192 4.71542 184.31 4.68172C184.427 4.64801 184.551 4.63758 184.672 4.65107H195.517C196.259 4.65107 196.881 4.76299 197.147 4.98685H201.918C202.037 4.25934 200.792 3.72769 198.837 3.72769H181.946C181.917 3.72769 181.889 3.72767 181.86 3.72762C181.12 3.72658 180.051 3.72509 179.338 4.37126C179.164 4.54521 179.006 4.73238 178.864 4.93088C178.538 5.29463 178.419 5.60242 178.449 5.79828C178.108 5.93729 177.811 6.15935 177.59 6.44185L177.056 7.05744C176.375 8.20464 178.123 8.28859 179.101 8.28859ZM245.715 6.72165C244.5 8.17667 246.486 8.26062 247.553 8.26062H262.487C262.51 8.26062 262.534 8.26063 262.558 8.26065C263.39 8.26144 264.64 8.2626 265.332 7.36522L265.48 7.16935H250.96C250.752 7.16935 250.545 7.08541 250.693 6.88955L251.464 5.9382C251.545 5.84366 251.627 5.74649 251.71 5.6483C251.897 5.4268 252.088 5.2001 252.293 4.98685C252.384 4.90661 252.491 4.84524 252.608 4.80668C252.726 4.76813 252.851 4.75325 252.975 4.76299H267.435C267.88 3.75568 266.221 3.67174 265.303 3.67174H250.367C249.537 3.67174 248.204 3.67174 247.523 4.56713L246.574 5.65839C246.476 5.78241 246.369 5.91025 246.26 6.04049C246.26 6.04159 246.258 6.0427 246.257 6.0438C246.257 6.04527 246.255 6.04673 246.254 6.0482L246.253 6.04882C246.07 6.2684 245.88 6.49534 245.715 6.72165Z" fill="black"/>
<path fill-rule="evenodd" clip-rule="evenodd" d="M243.581 9.09955C242.603 9.82706 241.358 9.967 240.055 9.967H179.1L178.123 9.911C177.026 9.82706 175.931 9.51934 175.397 8.5399C174.864 7.5606 175.041 6.91703 175.486 6.16155L175.545 6.10559C175.545 6.08793 175.545 6.07027 175.552 6.05964L175.574 6.04963C175.563 6.04963 175.557 6.05343 175.552 6.05964L170.804 8.20416L167.158 9.82706L166.922 9.93895L166.684 9.99495H161.351C160.68 9.98408 160.02 9.82697 159.424 9.53578C158.828 9.2445 158.31 8.82708 157.914 8.31606C157.617 7.92435 157.321 7.5606 156.995 7.19685L156.106 6.07761C155.821 5.70227 155.526 5.33836 155.233 4.97856L155.232 4.97768C155.068 4.7746 154.903 4.57255 154.743 4.37078L152.046 0.817191C151.986 0.741469 151.95 0.650389 151.946 0.555654C151.939 0.460919 151.965 0.366857 152.016 0.285553C152.061 0.202055 152.129 0.13169 152.212 0.0822887C152.296 0.032888 152.392 0.00639003 152.491 0.00574414H159.603C160.385 0.0143819 161.155 0.19606 161.849 0.536205C162.544 0.87635 163.145 1.36549 163.603 1.96442L164.966 3.69924L165.204 4.00702C165.282 4.10015 165.392 4.16673 165.514 4.19694C165.638 4.22716 165.767 4.21944 165.884 4.1749L169.233 2.69191L174.39 0.453439C175.107 0.149828 175.885 -0.00293077 176.671 0.00574414H186.687C186.819 -0.0134048 186.955 0.0157137 187.067 0.0872534C187.179 0.158793 187.257 0.267458 187.287 0.391431C187.317 0.515405 187.296 0.645508 187.228 0.755621C187.161 0.865735 187.053 0.947705 186.923 0.985081H186.895C186.781 1.02875 186.689 1.10952 186.635 1.21241C186.581 1.3153 186.567 1.43335 186.598 1.5447C186.619 1.66326 186.685 1.77074 186.782 1.84772C186.88 1.92469 187.004 1.96609 187.131 1.96442H198.837C200.05 1.96442 201.621 2.16028 202.629 2.85979C202.738 2.93702 202.874 2.97393 203.011 2.96363C203.147 2.95333 203.274 2.89654 203.37 2.80384C203.666 2.5276 204.017 2.31081 204.405 2.16654C204.792 2.02227 205.206 1.95352 205.622 1.96442H212.645C212.747 1.96854 212.846 1.9962 212.933 2.045C213.021 2.09379 213.094 2.16219 213.148 2.24422C213.195 2.33518 213.211 2.43715 213.195 2.53694C213.179 2.63671 213.132 2.7297 213.059 2.80384L211.519 4.6226C211.458 4.69704 211.419 4.78636 211.408 4.88039C211.397 4.9744 211.416 5.0693 211.459 5.15424C211.496 5.24231 211.563 5.31686 211.648 5.36716C211.734 5.41745 211.833 5.44088 211.934 5.43405H220.734C220.82 5.43736 220.905 5.4213 220.982 5.38722C221.059 5.35315 221.127 5.30202 221.179 5.23818L221.712 4.59461L222.66 3.50336C223.727 2.18825 225.297 1.96442 226.928 1.96442H242.84L243.847 2.02037C244.669 2.04037 245.461 2.31576 246.099 2.80384C246.194 2.89037 246.318 2.94107 246.45 2.94624C246.581 2.9514 246.709 2.91066 246.811 2.83182C247.789 2.10431 249.063 1.96442 250.366 1.96442H265.302L266.309 2.02037C267.018 2.04891 267.705 2.26194 268.294 2.63596C268.388 2.69043 268.495 2.71928 268.606 2.71928C268.715 2.71928 268.823 2.69043 268.916 2.63596C269.864 2.07633 270.991 1.99239 272.147 1.99239H289.067C290.874 1.99239 293.541 2.44008 293.927 4.4827C294.312 6.52531 293.127 7.33675 291.556 8.40001C289.985 9.46326 287.407 9.99495 285.422 9.99495H269.331L268.354 9.93895C267.627 9.91073 266.92 9.69809 266.309 9.32342C266.221 9.26807 266.119 9.23857 266.013 9.23857C265.907 9.23857 265.804 9.26807 265.716 9.32342C264.798 9.85501 263.641 9.967 262.487 9.967H246.515C245.714 9.88305 244.885 9.68713 244.291 9.15545C244.195 9.07419 244.072 9.02706 243.941 9.02191C243.813 9.01684 243.685 9.05416 243.581 9.12755V9.09955ZM97.4923 9.911C97.0703 9.9575 96.6447 9.97622 96.2181 9.967H78.0838C77.2541 9.88305 76.3947 9.65918 75.802 9.12755C75.6925 9.02208 75.5435 8.96174 75.3872 8.95966C75.3124 8.96639 75.2398 8.98717 75.1736 9.02083C75.1074 9.05441 75.0491 9.10021 75.0019 9.15545L74.8539 9.35137L74.4686 9.79912C74.4245 9.86588 74.3635 9.92133 74.291 9.96042C74.2186 9.99951 74.1371 10.0209 74.0537 10.0229H60.571L60.3636 9.967L56.4818 8.76374L52.6295 7.58858H52.5703C52.5623 7.58858 52.5548 7.58563 52.5493 7.58038C52.5437 7.57514 52.5406 7.56802 52.5406 7.5606H52.4813L52.185 7.42069L51.9183 7.75647L50.5552 9.40736L50.17 9.85501C50.1266 9.9206 50.0649 9.97357 49.9918 10.0081C49.9186 10.0427 49.8367 10.0575 49.7551 10.0509H21.9303C20.8635 9.967 19.7968 9.63114 19.2337 8.70781C19.0682 8.43284 18.9671 8.12748 18.9374 7.81243C18.934 7.70826 18.8944 7.60804 18.8248 7.52715C18.7552 7.44627 18.6595 7.38921 18.5521 7.36473C18.4488 7.33106 18.3362 7.33218 18.2337 7.36787C18.1311 7.40357 18.0447 7.47165 17.9892 7.5606C17.4557 8.17618 16.9224 8.79176 16.4186 9.43531L16.0334 9.88305C15.9828 9.95037 15.9163 10.0056 15.8391 10.0445C15.7619 10.0834 15.6763 10.1047 15.589 10.1068H4.74344C4.63647 10.1092 4.53123 10.0811 4.44138 10.0262C4.35154 9.97129 4.28128 9.89219 4.23969 9.79912C4.19897 9.71335 4.183 9.61909 4.19341 9.52574C4.20382 9.43239 4.24023 9.34324 4.29895 9.26743L5.92874 7.22483L7.52889 5.29414C7.60266 5.22585 7.64893 5.13541 7.65975 5.03838C7.67057 4.94136 7.64525 4.84381 7.58816 4.7625C7.55185 4.67164 7.48696 4.59343 7.4022 4.5384C7.31745 4.48339 7.21689 4.45418 7.11404 4.45472H0.535632C0.440511 4.45398 0.347135 4.4305 0.26423 4.38646C0.181317 4.34243 0.111576 4.27927 0.061513 4.20289C0.016525 4.11962 -0.00442362 4.02665 0.000778128 3.93332C0.00598171 3.83997 0.0371511 3.74959 0.0911452 3.67125L1.36534 1.8245C1.55264 1.53185 1.76053 1.25142 1.98763 0.985081C2.26806 0.665959 2.6222 0.41176 3.02286 0.241994C3.42353 0.0722282 3.86007 -0.00858977 4.29895 0.00574414H32.9239C33.0309 0.00341541 33.1361 0.0315222 33.226 0.0864122C33.3157 0.141302 33.386 0.220437 33.4276 0.313535C33.4715 0.400261 33.4864 0.497471 33.4705 0.592368C33.4546 0.687264 33.4087 0.775399 33.3388 0.845171C32.7582 1.48225 32.294 2.08794 31.7965 2.73703C31.3544 3.3138 30.8861 3.92484 30.2866 4.6226C30.215 4.69782 30.1707 4.79263 30.16 4.89325C30.1493 4.99388 30.1729 5.09511 30.2274 5.18222C30.2711 5.26572 30.3387 5.33608 30.4225 5.38549C30.5062 5.43489 30.6027 5.46138 30.7014 5.46203H35.6501C35.7308 5.46316 35.8106 5.44595 35.8828 5.41186C35.955 5.37777 36.0175 5.32781 36.065 5.26616L36.7168 4.51067L37.9021 3.08365C38.2178 2.72191 38.6169 2.43303 39.0688 2.23906C39.5207 2.04509 40.0136 1.95115 40.5098 1.96442H65.8159C66.2907 1.95509 66.7658 1.97377 67.2383 2.02037C68.0976 2.1323 68.9569 2.41211 69.4903 3.02768C69.5424 3.09153 69.61 3.14264 69.6874 3.17672C69.7646 3.21081 69.8495 3.22687 69.9349 3.22355C70.0911 3.22145 70.2402 3.1611 70.3497 3.05567C70.6577 2.70361 71.0484 2.42421 71.4908 2.23964C71.9332 2.05506 72.4149 1.97042 72.8981 1.99239H80.9581L81.9656 1.93643H99.1519L100.1 1.99239C100.99 2.04836 101.879 2.2722 102.471 2.85979C102.521 2.90748 102.582 2.9446 102.648 2.96872C102.714 2.99283 102.785 3.0034 102.857 2.99971C103.007 2.99994 103.154 2.95048 103.271 2.85979C103.579 2.57101 103.944 2.34304 104.345 2.1893C104.748 2.03554 105.178 1.95909 105.612 1.96442H111.568C111.65 1.95783 111.731 1.97264 111.805 2.00719C111.878 2.04175 111.939 2.09473 111.983 2.16028L112.368 2.60797C112.525 2.79059 112.681 2.97052 112.837 3.14941C113.183 3.54599 113.523 3.93794 113.85 4.34279L114.205 4.7625C114.28 4.8525 114.386 4.91542 114.506 4.94087C114.624 4.96631 114.748 4.95274 114.858 4.90241L117.288 3.89509L121.317 2.24422C121.818 2.06388 122.352 1.97831 122.888 1.99239H132.518L133.526 1.93643H149.498L150.505 1.99239C151.572 2.07633 152.668 2.41211 153.202 3.36346C153.735 4.31481 153.409 5.43405 152.698 6.27348L151.809 7.30877L150.92 8.40001C149.854 9.71517 148.283 9.93895 146.654 9.93895H129.614C128.787 9.89895 127.996 9.6042 127.363 9.09955C127.243 9.0126 127.098 8.96365 126.947 8.95966C126.87 8.96606 126.794 8.98958 126.727 9.02848C126.66 9.0673 126.604 9.12041 126.563 9.18349C126.521 9.20304 126.494 9.2361 126.471 9.26387C126.462 9.27592 126.452 9.28698 126.443 9.29538L126.059 9.77107C126.017 9.83976 125.956 9.89666 125.883 9.93594C125.81 9.97531 125.728 9.99568 125.644 9.99495H118.176C118.074 9.99549 117.973 9.96626 117.888 9.91119C117.803 9.8562 117.738 9.77802 117.702 9.68713C117.657 9.60392 117.636 9.51094 117.642 9.41759C117.647 9.32424 117.678 9.23391 117.732 9.15545L117.999 8.84769L115.539 9.85501L115.302 9.93895L115.095 9.99495H111.006C110.926 9.99202 110.847 9.97293 110.776 9.93923C110.704 9.90543 110.641 9.85766 110.59 9.79912L110.206 9.40736L108.723 7.78445C108.674 7.72602 108.61 7.6789 108.539 7.64653C108.467 7.61416 108.389 7.59735 108.309 7.59735C108.229 7.59735 108.152 7.61416 108.078 7.64653C108.007 7.6789 107.943 7.72602 107.894 7.78445L106.649 9.32342L106.264 9.77107C106.213 9.83839 106.147 9.89374 106.07 9.93256C105.992 9.97138 105.906 9.99275 105.82 9.99495H97.4046L97.4923 9.911ZM178.746 3.69924L178.716 3.71225C178.723 3.69924 178.73 3.69924 178.746 3.69924ZM178.716 3.71225C178.709 3.7259 178.701 3.75387 178.686 3.81115H178.626L178.123 4.39876C177.89 4.65408 177.709 4.94824 177.589 5.26616C177.309 5.4428 177.059 5.65996 176.848 5.90972L176.315 6.55329H176.286V6.60925L176.279 6.62136C175.986 7.11921 175.756 7.51003 176.167 8.17618C176.582 8.84769 177.441 9.0436 178.182 9.09955H195.162C196.673 9.09955 198.629 8.79176 200.081 8.09224L199.25 9.09955H240.055C241.389 9.09955 242.721 8.95965 243.611 7.86839L244.796 6.41338C244.47 6.91703 244.233 7.44868 244.618 8.12022C245.004 8.79176 245.862 8.98767 246.604 9.0436L247.552 9.09955H262.487C263.82 9.09955 265.182 8.95966 266.043 7.84041L266.102 7.78445H266.161L266.22 7.7005C266.253 7.8758 266.313 8.04554 266.398 8.20416C266.783 8.87571 267.672 9.07154 268.413 9.12755H285.422C287.2 9.12755 289.601 8.67987 291.052 7.7005L293.334 6.16155H285.451C285.377 6.19688 285.3 6.22296 285.219 6.23918C285.303 6.12932 285.362 6.00419 285.392 5.87172C285.423 5.73669 285.423 5.59708 285.393 5.46203H285.747C286.014 5.46203 286.637 5.49001 286.844 5.65789L287.081 5.82578H292.919L293.037 5.09827C293.067 4.94098 293.067 4.77989 293.037 4.6226C292.741 3.11162 290.371 2.83182 289.067 2.83182H272.147C270.991 2.83182 269.806 2.91576 268.916 3.72721H268.828C268.673 3.89246 268.534 4.07038 268.413 4.25884C268.386 4.07352 268.325 3.89382 268.236 3.72721C267.849 3.05567 266.99 2.88778 266.22 2.80384H250.366C249.033 2.80384 247.67 2.91576 246.811 4.03501C246.709 4.14841 246.608 4.25911 246.507 4.36877L246.505 4.37092L246.504 4.37284L246.502 4.37456C246.281 4.61463 246.065 4.84992 245.862 5.09827L245.685 5.32212C245.85 5.09932 245.947 4.83883 245.967 4.56801C245.988 4.2972 245.932 4.02607 245.804 3.78318C245.418 3.08365 244.529 2.88778 243.758 2.83182H226.928C225.594 2.83182 224.231 2.94374 223.372 4.06298C223.046 4.39876 222.72 4.7625 222.423 5.12626L221.534 6.21751L221.356 6.46934V6.32943H208.971C209.062 6.20307 209.161 6.08163 209.266 5.96568C209.741 5.37809 210.215 4.79049 210.719 4.23087L211.904 2.83182H205.622C205.281 2.82086 204.943 2.88611 204.634 3.02226C204.324 3.15842 204.054 3.36162 203.845 3.61529L202.836 4.84644C202.836 4.80447 202.829 4.7695 202.822 4.73453C202.814 4.69954 202.807 4.66457 202.807 4.6226C202.511 3.11162 200.14 2.83182 198.837 2.83182H181.946C181.439 2.82627 180.933 2.86374 180.434 2.94374L185.086 0.873157H176.671C176.007 0.85335 175.349 0.977811 174.745 1.2369L165.204 5.40607L165.203 5.40544C164.877 5.01391 164.551 4.62238 164.255 4.20289L162.863 2.46807C162.492 1.97748 162.002 1.57707 161.436 1.29978C160.869 1.02249 160.24 0.876275 159.603 0.873157H153.173L155.483 3.86712C155.822 4.34741 156.202 4.79033 156.588 5.2417L156.593 5.24887L156.602 5.25908L156.615 5.27386C156.692 5.36406 156.769 5.45464 156.847 5.54597L158.625 7.78445C158.941 8.1897 159.351 8.52137 159.823 8.75418C160.295 8.98692 160.818 9.11468 161.351 9.12755H166.596L166.774 9.0436L170.418 7.44868L175.931 4.95837L178.716 3.71225ZM285.219 6.23918L285.214 6.24549H285.186C285.197 6.24359 285.208 6.24149 285.219 6.23918ZM252.915 5.62991H267.316L267.079 5.88174L266.723 6.32943H252.323C252.504 6.08421 252.702 5.85053 252.915 5.62991ZM196.821 5.82578H202.007L201.711 6.16155H195.339L195.191 6.21751L194.984 6.27348C195.002 6.26044 195.017 6.24355 195.028 6.22413C195.038 6.20469 195.042 6.18327 195.042 6.16155C195.112 6.05869 195.158 5.94361 195.178 5.82332C195.199 5.70306 195.193 5.58011 195.162 5.46203H195.517C195.755 5.46203 196.377 5.49001 196.583 5.62991L196.821 5.82578ZM166.388 8.28838H161.351C160.956 8.27352 160.571 8.17529 160.222 8.00096C159.873 7.82662 159.571 7.58062 159.335 7.28106L157.558 5.04259C157.41 4.85605 157.259 4.66952 157.106 4.48298C156.803 4.1099 156.501 3.73682 156.224 3.36374L154.95 1.71286H159.602C160.101 1.72259 160.591 1.84134 161.033 2.0598C161.475 2.27827 161.858 2.5905 162.15 2.972L163.514 4.70682C163.81 5.09825 164.132 5.48968 164.455 5.88109L164.456 5.8819C164.616 6.07781 164.778 6.27372 164.937 6.46962L170.004 4.23115L175.13 2.02065C175.609 1.80066 176.139 1.69498 176.671 1.71286H181.056L170.033 6.66549C168.789 7.19712 167.574 7.72876 166.388 8.28838ZM224.113 8.2604C223.046 8.2604 221.06 8.17646 222.275 6.72145C222.441 6.49494 222.63 6.26842 222.813 6.04866L222.814 6.048C222.925 5.91508 223.034 5.78464 223.134 5.65817L224.083 4.56692C224.794 3.67153 226.128 3.67153 226.928 3.67153H242.84C243.907 3.67153 245.892 3.75547 244.678 5.23846L243.758 6.30173C243.625 6.48361 243.477 6.65849 243.33 6.83338C243.181 7.00825 243.033 7.18313 242.899 7.36501C242.179 8.26243 240.927 8.26122 240.123 8.26045L240.055 8.2604H224.113ZM221.12 8.2604H201.088C201.384 7.92495 201.673 7.57553 201.961 7.22611L201.962 7.22511L201.963 7.22411C202.252 6.87468 202.54 6.52526 202.836 6.18981C203.216 5.75932 203.584 5.31733 203.955 4.87122L203.957 4.86941C204.164 4.6202 204.373 4.36971 204.584 4.11922C204.707 3.97339 204.866 3.85863 205.047 3.78535C205.227 3.71208 205.425 3.68257 205.622 3.69951H210.007C209.894 3.83172 209.781 3.96252 209.668 4.09254L209.667 4.09294L209.667 4.09449C209.278 4.54163 208.899 4.97961 208.555 5.43433L207.133 7.16915H220.498L220.499 7.19529C220.529 7.53057 220.571 8.01503 221.12 8.2604ZM285.422 8.28838H269.331C268.354 8.28838 266.605 8.20444 267.287 7.02923L267.79 6.44164C268.027 6.15006 268.345 5.92707 268.709 5.79808C268.65 5.60221 268.768 5.29442 269.064 4.93067C269.207 4.73217 269.365 4.545 269.539 4.37105C270.223 3.72484 271.319 3.72637 272.061 3.72741L272.147 3.72749H289.067C291.022 3.72749 292.266 4.25913 292.148 4.98663H287.378C287.081 4.76279 286.489 4.65086 285.747 4.65086H274.932C274.805 4.63509 274.677 4.64437 274.555 4.6781C274.431 4.71182 274.318 4.76925 274.221 4.84673L273.569 5.63019H284.503V5.71414L284.206 6.10587C283.999 6.35769 283.703 6.44164 283.229 6.44164H272.858L272.324 7.08521C272.176 7.25309 272.354 7.36501 272.591 7.36501H283.585C284.322 7.3602 285.053 7.2372 285.747 7.00126H290.519C289.422 7.72876 287.378 8.28838 285.422 8.28838ZM195.162 8.28838H179.1C178.123 8.28838 176.374 8.20444 177.056 7.05723L177.589 6.44164C177.81 6.15915 178.107 5.93709 178.449 5.79808C178.419 5.60221 178.538 5.29442 178.863 4.93067C179.005 4.73217 179.164 4.545 179.338 4.37105C180.051 3.72487 181.119 3.72637 181.86 3.72741L181.946 3.72749H198.837C200.791 3.72749 202.036 4.25913 201.917 4.98663H197.147C196.88 4.76279 196.258 4.65086 195.517 4.65086H184.672C184.55 4.63737 184.427 4.6478 184.309 4.68151C184.192 4.71522 184.083 4.77146 183.99 4.84673L183.367 5.63019H194.242C194.245 5.63392 194.247 5.63752 194.249 5.641C194.251 5.64604 194.254 5.65082 194.257 5.65533C194.26 5.6613 194.264 5.6668 194.268 5.67184C194.285 5.69981 194.293 5.71414 194.272 5.71414L193.975 6.10587C193.852 6.23013 193.7 6.32524 193.529 6.38356C193.36 6.44186 193.177 6.46176 192.998 6.44164H182.657L182.123 7.08521C181.974 7.25309 182.153 7.36501 182.39 7.36501H193.324C194.062 7.36529 194.795 7.24214 195.488 7.00126H200.258C199.221 7.72876 197.117 8.28838 195.162 8.28838ZM247.552 8.2604C246.485 8.2604 244.5 8.17646 245.714 6.72145C245.881 6.49513 246.07 6.2688 246.252 6.04921L246.253 6.04799L246.257 6.0436L246.261 6.04028C246.368 5.91004 246.475 5.7822 246.574 5.65817L247.522 4.56692C248.203 3.67153 249.537 3.67153 250.366 3.67153H265.302C266.22 3.67153 267.88 3.75547 267.436 4.76279H252.974C252.851 4.75303 252.726 4.76791 252.609 4.80647C252.491 4.84503 252.383 4.9064 252.293 4.98663C252.087 5.1999 251.896 5.42659 251.71 5.6481C251.627 5.74629 251.545 5.84345 251.463 5.93798L250.692 6.88934C250.544 7.08521 250.753 7.16915 250.959 7.16915H265.479L265.331 7.36501C264.64 8.26239 263.389 8.26122 262.557 8.26045L262.487 8.2604H247.552ZM229.196 4.79803C229.077 4.83692 228.97 4.90152 228.883 4.98663L227.283 6.88934C227.105 7.08521 227.313 7.16915 227.521 7.16915H237.417C237.543 7.18671 237.673 7.1783 237.795 7.14449C237.918 7.1107 238.032 7.0523 238.129 6.97328L238.899 6.02193L239.699 5.04259C239.877 4.8747 239.67 4.76279 239.432 4.76279H229.565C229.441 4.74708 229.314 4.75915 229.196 4.79803ZM228.913 6.32943H237.536L238.069 5.62991H229.476C229.412 5.71004 229.345 5.79015 229.276 5.87155C229.154 6.01758 229.027 6.16774 228.913 6.32943ZM129.971 4.03501C130.83 2.94374 132.192 2.83182 133.526 2.83182H150.416C151.187 2.91576 152.046 3.08365 152.432 3.75519C152.816 4.42673 152.462 5.18222 151.987 5.74184L150.209 7.86839C149.35 8.95965 147.987 9.09955 146.654 9.09955H130.622L129.704 9.0436C128.963 8.98767 128.104 8.79176 127.718 8.12022C127.333 7.44868 127.63 6.72118 128.104 6.18954L128.992 5.09827C129.116 4.95853 129.25 4.81878 129.386 4.67498C129.58 4.47332 129.78 4.26369 129.971 4.03501ZM130.622 8.2604C129.584 8.2604 127.599 8.17646 128.814 6.72145L129.704 5.65817C129.901 5.41566 130.125 5.17314 130.349 4.93063L130.35 4.92964C130.461 4.80872 130.573 4.68782 130.681 4.56692C131.392 3.67153 132.725 3.67153 133.526 3.67153H149.498C150.535 3.67153 152.52 3.75547 151.306 5.23846C151.23 5.32263 151.155 5.4053 151.08 5.48717C150.832 5.7591 150.592 6.02215 150.388 6.30173L149.498 7.36501C148.807 8.26246 147.528 8.26122 146.722 8.26045L146.654 8.2604H130.622ZM135.769 4.80887C135.652 4.84734 135.543 4.90781 135.452 4.98663L133.852 6.88934C133.674 7.08521 133.882 7.16915 134.089 7.16915H144.016C144.137 7.18442 144.261 7.17483 144.379 7.14104C144.496 7.10726 144.605 7.05004 144.697 6.97328C144.964 6.6375 145.231 6.32971 145.527 6.02193L146.327 5.04259C146.476 4.8747 146.297 4.76279 146.09 4.76279H136.133C136.01 4.75472 135.886 4.7704 135.769 4.80887ZM136.074 5.62991L135.482 6.32943H144.105C144.286 6.08421 144.484 5.85053 144.697 5.62991H136.074ZM120.784 6.77714L119.569 7.28079L115.184 9.07154L115.006 9.12755H111.154L110.887 8.84769C110.541 8.48512 110.208 8.11072 109.871 7.7322C109.688 7.52658 109.503 7.31975 109.316 7.11291L108.279 5.93771L107.331 7.05695L105.908 8.79176L105.642 9.12755H99.2414L100.367 7.75647C100.678 7.34933 101.008 6.95169 101.336 6.558C101.571 6.27526 101.803 5.99456 102.026 5.71386C102.394 5.25302 102.801 4.779 103.212 4.30086C103.4 4.08223 103.589 3.86275 103.775 3.64327C103.991 3.38006 104.271 3.16921 104.59 3.0281C104.909 2.887 105.26 2.81972 105.612 2.83182H111.39L111.657 3.16759C111.814 3.35021 111.97 3.53013 112.127 3.70904C112.472 4.10561 112.813 4.49757 113.139 4.90241L114.205 6.13357L117.643 4.67856L121.673 3.02768C122.062 2.89498 122.474 2.82867 122.888 2.83182H130.681L129.526 4.23087C129.29 4.51648 129.047 4.7981 128.803 5.08025C128.401 5.54443 127.998 6.01006 127.63 6.49732C127.297 6.93668 126.937 7.35843 126.575 7.78232L126.574 7.78308C126.291 8.11483 126.006 8.44788 125.732 8.79176L125.466 9.12755H118.888L119.984 7.75647L120.784 6.77714ZM126.889 5.99394C127.51 5.21048 128.163 4.45499 128.814 3.69951H122.888C122.597 3.69124 122.306 3.72909 122.029 3.81143L117.999 5.46231L113.968 7.14117L112.427 5.40635C112.101 5.00137 111.759 4.60968 111.415 4.21298C111.259 4.03408 111.102 3.85416 110.947 3.67153H105.612C105.397 3.67323 105.185 3.71918 104.99 3.80615C104.796 3.89313 104.624 4.01906 104.486 4.17519C103.893 4.84673 103.331 5.51827 102.767 6.21779C102.547 6.49112 102.323 6.76017 102.099 7.02829C101.751 7.44637 101.403 7.86218 101.078 8.28838H105.198L106.619 6.55356C107.094 5.96596 107.598 5.37837 108.101 4.81875C108.12 4.7915 108.147 4.77104 108.18 4.76085C108.212 4.75065 108.247 4.75133 108.279 4.76279C108.321 4.76243 108.363 4.7726 108.399 4.79227C108.436 4.81194 108.466 4.84039 108.486 4.8747C108.824 5.22854 109.137 5.58238 109.457 5.94329C109.643 6.15318 109.831 6.36547 110.027 6.58155L111.568 8.28838H114.828L119.214 6.4976L123.629 4.70682L122.147 6.4976C121.977 6.70905 121.802 6.9205 121.627 7.13324L121.626 7.13416C121.313 7.51233 120.998 7.89463 120.695 8.28838H124.992C125.302 7.89684 125.621 7.51927 125.939 7.1417L125.94 7.14117C126.259 6.7636 126.577 6.3855 126.889 5.99394ZM81.9656 2.83182C80.6025 2.83182 79.2691 2.94374 78.3801 4.03501L77.8763 4.59461H77.8467V4.65058C77.6831 4.84527 77.5665 5.07134 77.5051 5.31299C77.4437 5.55464 77.4389 5.80605 77.4911 6.04963H76.6318L76.3651 6.44137C76.0391 6.973 75.802 7.50464 76.1873 8.1482C76.5725 8.79176 77.4318 8.98767 78.1727 9.0436L79.0912 9.09955H96.2181C97.5517 9.09955 98.8852 8.95965 99.7749 7.86839L100.159 7.39272C100.516 6.94502 100.782 6.3854 100.633 5.82578H101.613L101.879 5.43405C102.071 5.19789 102.191 4.9154 102.222 4.61864C102.253 4.32188 102.195 4.02273 102.057 3.75519C101.671 3.08365 100.782 2.88778 100.042 2.83182H81.9656ZM83.9808 5.43433C83.3582 5.43433 83.8024 5.04259 83.8916 4.98663C83.9799 4.90327 84.0875 4.83985 84.205 4.80108C84.3233 4.76232 84.4491 4.74923 84.5733 4.76279H95.7148C95.9222 4.76279 96.1003 4.84673 96.0409 5.01462H101.108C101.967 3.75547 100.159 3.67153 99.1519 3.67153H81.9655C81.1062 3.67153 79.8023 3.67153 79.0912 4.56692L78.5874 5.15452C77.6688 6.44164 79.5356 6.52558 80.5432 6.52558H94.174C94.5987 6.52558 94.4343 6.76348 94.3365 6.90553C94.3183 6.93225 94.3018 6.95556 94.2927 6.97328H94.3228C94.2251 7.05076 94.1109 7.10819 93.9885 7.14191C93.8661 7.17563 93.7374 7.1849 93.6104 7.16915H82.5286C82.3212 7.16915 82.1432 7.08521 82.2619 6.94529H77.1354C76.276 8.20444 78.1133 8.2604 79.0912 8.2604H96.2181L96.2875 8.26045C97.0922 8.26122 98.3436 8.26243 99.0633 7.36501C99.183 7.20906 99.3109 7.0596 99.4488 6.91732C100.516 5.54625 98.7674 5.43433 97.5517 5.43433H83.9808ZM67.6235 7.7005C67.8262 7.45867 68.0252 7.21684 68.2229 6.9763C68.5745 6.54891 68.9227 6.12565 69.2829 5.71386C69.6067 5.34372 69.9404 4.93656 70.2781 4.52431C70.5275 4.21988 70.7795 3.91238 71.0312 3.61529C71.2595 3.35997 71.546 3.15681 71.8694 3.02112C72.1927 2.88542 72.5443 2.8207 72.8981 2.83182H79.1208L77.9652 4.23087C77.8106 4.41001 77.656 4.58757 77.5019 4.76468C77.006 5.33433 76.5137 5.89981 76.0391 6.49732C75.7279 6.88906 75.4094 7.2668 75.0909 7.64454C74.7723 8.02229 74.4537 8.40001 74.1426 8.79176L73.8759 9.12755H60.6598L56.7484 7.92435L52.8962 6.74915H52.8369C52.6717 6.68638 52.5271 6.58339 52.4178 6.45068C52.3086 6.31798 52.2383 6.16028 52.2146 5.99366C51.9668 6.26669 51.7333 6.5533 51.5043 6.83456C51.4049 6.95668 51.3058 7.07829 51.2071 7.19685L49.844 8.84769L49.5773 9.18349H41.6951L42.7915 7.81243C43.073 7.46267 43.3693 7.1199 43.6656 6.77714C43.962 6.43436 44.2582 6.09159 44.5398 5.74184C45.1028 5.04232 45.6955 4.34279 46.2882 3.64327C46.4949 3.39521 46.7615 3.1973 47.0655 3.06591C47.3696 2.93453 47.7024 2.87346 48.0364 2.88778H65.8159C66.2514 2.87849 66.687 2.89718 67.1197 2.94374C67.8309 3.02768 68.6013 3.25153 68.9569 3.89509C69.3125 4.53866 69.0162 5.23818 68.5717 5.76982H68.5421L68.0383 6.35742C67.6245 6.84762 67.0336 7.17639 66.3789 7.28079L67.0309 7.50464L67.6235 7.7005ZM73.4017 8.28838H68.3049L69.994 6.21779L71.7423 4.17519C71.8784 4.01204 72.0552 3.88324 72.2569 3.80024C72.4585 3.71725 72.6787 3.68264 72.898 3.69951H77.254C76.6021 4.45499 75.9501 5.23846 75.3279 5.99394C75.069 6.30817 74.8 6.62238 74.5291 6.93862C74.1489 7.38272 73.7652 7.83077 73.4017 8.28838ZM49.1327 8.2604H43.5322L45.2509 6.18981C45.6399 5.70656 46.0429 5.23668 46.4504 4.76169C46.6325 4.54927 46.8162 4.33532 46.9992 4.11922C47.1264 3.97876 47.286 3.86783 47.466 3.79505C47.6458 3.72226 47.841 3.68957 48.0364 3.69951H65.8159C65.8308 3.69951 65.8473 3.69946 65.865 3.69937L65.903 3.69918C66.6384 3.69535 69.1371 3.68233 67.8605 5.1825C67.7906 5.2705 67.7161 5.35419 67.6424 5.43695C67.5287 5.56469 67.4169 5.69022 67.3272 5.82606C66.7764 6.46986 65.9472 6.4782 64.6753 6.49098C64.51 6.49265 64.3371 6.49439 64.1564 6.4976H62.1414C62.1118 6.4976 62.0822 6.49761 62.0822 6.55356C62.0822 6.60952 62.1118 6.6375 62.171 6.66549L66.7048 8.28838H60.9265L57.0446 7.08521L53.1925 5.91C53.1854 5.9034 53.1768 5.89679 53.1677 5.88983C53.1381 5.86726 53.1035 5.84083 53.1035 5.79808L53.1628 5.74212H60.4819C61.0154 5.74212 61.4599 5.74212 61.7561 5.37837L62.1118 4.95864C62.2007 4.79076 62.0822 4.67885 61.7561 4.67885H52.6294C52.1257 4.67885 52.0368 4.76279 51.859 4.95864L49.1327 8.2604ZM27.7085 6.32943L28.1234 5.7978L32.1239 0.873157H4.29895C3.99471 0.85542 3.69042 0.907195 3.41189 1.02409C3.13334 1.141 2.88873 1.31957 2.6988 1.5447C2.47789 1.77941 2.27956 2.03224 2.10615 2.30019L1.21718 3.61529H10.1069L8.95126 4.98635L6.63991 7.75647L5.48425 9.12755H15.4111L15.6778 8.79176L19.3523 4.42673C19.8856 3.81115 20.6265 3.61529 21.4561 3.61529H22.5525L21.4561 4.93038L20.419 6.18954C19.9745 6.74915 19.6485 7.50464 20.0338 8.17618C20.419 8.84769 21.2784 9.01559 22.0191 9.07154L22.9081 9.12755H38.88C40.2135 9.12755 41.5765 8.98767 42.4655 7.89637C42.7817 7.46733 43.124 7.06316 43.4664 6.65899C43.6377 6.4569 43.8089 6.25482 43.9768 6.04963C44.4806 5.43405 45.0139 4.81847 45.5473 4.23087L46.703 2.83182H40.5098C40.1509 2.81423 39.7928 2.87586 39.4635 3.01187C39.1342 3.14788 38.8431 3.35448 38.6133 3.61529L37.428 5.04232L36.3316 6.32943H27.7085ZM44.836 3.67153H40.5097C40.2867 3.65938 40.0638 3.69598 39.8582 3.77848C39.6526 3.86099 39.47 3.98716 39.3245 4.14721L38.1391 5.57423L36.9539 6.97328C36.8616 7.05004 36.7531 7.10726 36.6355 7.14104C36.5181 7.17483 36.3941 7.18442 36.2723 7.16915H26.3454C26.1084 7.16915 25.9305 7.08521 26.0788 6.88934L27.4122 5.29442L28.7753 3.67153H24.4192C24.2009 3.6616 23.9831 3.69936 23.7826 3.78186C23.5822 3.86436 23.4046 3.98938 23.2637 4.14721L22.1673 5.43433L21.1301 6.72145C19.9151 8.20444 21.8709 8.2604 22.908 8.2604H38.8799C38.9033 8.2604 38.927 8.26043 38.9511 8.26045C39.7825 8.26122 41.0335 8.26239 41.7247 7.36501L43.2656 5.51827L44.836 3.67153ZM30.1383 1.71286H4.29889C4.13028 1.69806 3.96043 1.72363 3.80505 1.78721C3.64967 1.85079 3.51377 1.95032 3.40991 2.07662C3.21345 2.28669 3.03509 2.51125 2.87652 2.74816H12.0034L9.66234 5.51827L7.35102 8.28838H14.9666L16.8038 6.07789C17.1988 5.59288 17.6203 5.10789 18.0418 4.62288C18.2525 4.38039 18.4632 4.13788 18.6706 3.89537C19.2929 3.16787 20.2412 2.74816 21.4561 2.74816H29.2494L30.1383 1.71286Z" fill="black"/>
<path fill-rule="evenodd" clip-rule="evenodd" d="M276.719 23.7483H285.879L278.839 19.0338C284.552 18.7392 287.349 17.3838 288.291 15.9399C289.498 14.0247 287.113 12.7871 280.606 12.7871H262.471C262.651 13.144 262.733 13.5426 262.707 13.9416C262.681 14.3406 262.549 14.7254 262.324 15.056L257.229 22.5108C256.912 22.9993 256.502 23.42 256.021 23.7483H264.737L267.893 19.0356H270.538L276.719 23.7483ZM275.012 14.7024H270.686L269.109 17.148H272.63H273.451C278.486 17.1775 280.135 14.7024 275.012 14.7024Z" fill="black"/>
</svg>
