<svg width="225" height="53" viewBox="0 0 225 53" fill="none" xmlns="http://www.w3.org/2000/svg">
<path d="M36.4463 44.1269C35.402 44.0964 34.5021 43.9894 33.7537 43.8083C33.0123 43.6288 32.4478 43.3564 32.0789 43.0027C31.7046 42.6441 31.5234 42.1944 31.6425 41.6729C31.7655 41.1337 32.1052 40.6359 32.5519 40.148C32.9997 39.6592 33.5735 39.215 34.2793 38.8243C34.9966 38.4272 35.8272 38.1112 36.7885 37.8647C37.7417 37.6202 38.7854 37.4811 39.9331 37.4586C40.0224 37.4571 40.2398 37.4576 40.6073 37.4497C40.9748 37.4423 41.2815 37.4408 41.5197 37.4482C42.9415 37.4903 43.6098 37.7751 43.5175 38.3082C43.4685 38.5922 43.4202 38.8766 43.3713 39.1606C43.2775 39.704 43.0845 40.0215 42.7879 40.0925C42.4972 40.1618 42.0568 40.3101 41.4768 40.545C40.8926 40.7818 40.4788 40.9773 40.216 41.1203C39.8564 41.316 39.5706 41.4307 39.3717 41.4485C39.2831 41.4559 39.2302 41.3943 39.2145 41.2953C39.3206 40.9704 39.848 40.5135 40.8048 39.9275C40.7454 39.9261 40.6639 39.9201 40.5535 39.9112C40.4429 39.9024 40.3614 39.8961 40.3094 39.8948C39.3511 39.8671 38.359 39.9674 37.3336 40.2037C36.316 40.4379 35.4546 40.7442 34.76 41.1151C34.0618 41.4881 33.6847 41.8456 33.6276 42.1891C33.5982 42.3656 33.7188 42.5027 33.9797 42.6049C34.2413 42.7074 34.6096 42.7886 35.0935 42.8413C35.57 42.8933 36.2183 42.9591 37.0398 42.9781C37.5544 42.9899 38.4093 42.9796 39.6025 43.0139C40.1956 43.0307 40.4595 43.2239 40.3979 43.5908C40.3556 43.8428 40.1667 44.1239 39.8382 44.4323C39.5053 44.7451 39.2424 44.9084 39.0621 44.9223C37.8524 45.0169 36.7489 45.201 35.7306 45.467C34.7131 45.733 33.8465 46.0419 33.1219 46.389C32.3999 46.7349 31.8157 47.0883 31.3736 47.4462C30.9316 47.8041 30.6335 48.1435 30.4647 48.4552C30.44 48.5835 30.6214 48.7145 30.9904 48.8393C31.3647 48.9659 31.8655 49.0606 32.4908 49.0803C33.2081 49.1029 33.9811 49.0182 34.7933 48.8763C35.6134 48.7332 36.501 48.48 37.465 48.1133C38.4364 47.7438 39.3886 47.2589 40.3357 46.6584C40.3531 46.9497 40.3431 47.2223 40.2988 47.4818C40.1472 48.3761 39.6258 49.1258 38.723 49.7356C37.8231 50.3431 36.7385 50.786 35.4939 51.0605C34.2429 51.3365 33.0277 51.4573 31.8495 51.4246C30.7964 51.3952 29.9336 51.2168 29.2675 50.8909C28.602 50.565 28.3019 49.9585 28.425 49.0749C28.5152 48.4279 28.9254 47.7875 29.5981 47.1405C30.2646 46.4995 31.1917 45.9103 32.3622 45.3808C33.5365 44.8498 34.8941 44.4309 36.4463 44.1269ZM47.4539 44.2185C47.9618 43.4586 48.4006 42.8279 48.773 42.3161C49.1418 41.8093 49.5101 41.3271 49.8926 40.8708C50.2735 40.4163 50.6282 40.0483 50.9686 39.7724C51.3085 39.4972 51.5907 39.3626 51.8213 39.3686C52.0071 39.373 52.1436 39.4554 52.2384 39.6185C52.3327 39.7804 52.3559 39.9548 52.322 40.1461C52.2506 40.5474 51.8289 41.2227 51.0323 42.1532C50.588 42.6721 49.9243 43.4538 49.0442 44.5224C48.1684 45.5857 47.6434 46.2441 47.4563 46.49C47.1632 46.8757 46.8965 47.3936 46.7726 48.0862C46.6748 48.632 46.8044 48.9168 47.0256 48.9228C47.188 48.9273 47.3719 48.8873 47.5699 48.7996C47.7687 48.7117 48.0296 48.5652 48.3629 48.3548C48.6927 48.1466 49.3255 47.7253 50.2575 47.1059C50.2759 47.3259 50.2942 47.5459 50.3203 47.766C49.655 48.3391 49.0299 48.8296 48.4519 49.2409C47.877 49.6496 47.3499 49.9651 46.8594 50.1828C46.3748 50.3979 45.9404 50.5554 45.5696 50.4945C45.0751 50.4135 44.854 49.8726 45.007 49.0455C45.111 48.484 45.286 48.0622 45.4129 47.7549C45.0029 48.0721 44.6098 48.3731 44.2426 48.6539C43.8752 48.9345 43.5524 49.1697 43.2795 49.3594C43.0082 49.5478 42.7474 49.696 42.4951 49.8114C42.2555 49.921 42.0329 50.0008 41.848 49.9856C41.5778 49.9637 41.3662 49.7945 41.2031 49.5301C41.0426 49.2695 40.9401 48.9624 40.8983 48.6175C40.8558 48.2659 40.8529 47.9526 40.9028 47.6644C41.0775 46.6545 41.9265 45.6733 43.472 44.7519C43.8312 44.5378 44.3559 44.3152 45.0185 44.0445C45.6773 43.7751 46.2376 43.6469 46.6895 43.6593C47.1783 43.6726 47.4332 43.8584 47.4539 44.2185ZM46.6739 45.2125C45.6635 45.5127 44.9058 45.7645 44.3937 45.9642C43.8741 46.1666 43.4485 46.4302 43.1048 46.7552C42.7595 47.0819 42.5363 47.5083 42.4424 48.0396C42.4118 48.2132 42.4806 48.3336 42.6485 48.3545C42.8244 48.3763 43.2334 48.157 43.8566 47.7486C44.4802 47.3398 45.0796 46.8834 45.6619 46.3769C46.2466 45.8681 46.5818 45.4835 46.6739 45.2125ZM51.522 47.7632C51.5101 47.8464 51.4806 47.9379 51.4361 48.0341C51.4029 48.3487 51.4434 48.5732 51.5775 48.7089C51.7122 48.8443 51.9462 48.9148 52.2853 48.9253C52.5358 48.9327 52.7878 48.8873 53.047 48.7895C53.2992 48.6944 53.5796 48.5465 53.8844 48.3579C54.1946 48.1658 54.6329 47.8825 55.2041 47.5001C55.2056 47.7259 55.216 47.9531 55.2244 48.1789C54.4188 49.0215 53.6296 49.6652 52.8578 50.1105C52.0859 50.5562 51.4614 50.7701 50.9678 50.7564C50.909 50.755 50.828 50.7461 50.723 50.7139C49.9307 50.4684 49.6415 49.7315 49.8566 48.5244C50.0897 47.2161 50.9355 46.0288 52.3714 44.932C52.5846 44.7694 52.8397 44.5932 53.1458 44.4393C53.4521 44.2852 53.7386 44.2135 53.9975 44.2206C54.1827 44.2251 54.3464 44.2759 54.4871 44.3727C54.6217 44.4653 54.6719 44.6088 54.6376 44.7925C54.5854 45.0719 54.3632 45.4164 53.9656 45.8215C53.5609 46.2337 53.1206 46.6204 52.6423 46.9881C52.1613 47.3576 51.782 47.615 51.522 47.7632ZM54.6985 42.4806C54.9244 42.2098 55.1663 42.0036 55.4404 41.8741C55.7132 41.7452 55.9691 41.6862 56.2065 41.693C56.3919 41.699 56.538 41.7563 56.6345 41.8613C56.7351 41.9707 56.7696 42.1231 56.7347 42.3161C56.6619 42.7172 56.4645 43.0594 56.136 43.3378C55.804 43.6191 55.4432 43.8189 55.0275 43.8607C54.8287 43.8808 54.6733 43.7777 54.5587 43.6226C54.4461 43.4701 54.4043 43.2756 54.4246 43.0484C54.5385 42.7456 54.632 42.5602 54.6985 42.4806ZM72.8645 40.9227C73.1514 40.8563 73.4028 40.8259 73.6104 40.832C74.5676 40.861 74.9252 41.5021 74.6766 42.7545C74.499 43.6493 74.1436 44.5538 73.5517 45.4252C72.835 46.4803 71.937 47.4154 70.9176 48.2686C69.9007 49.1195 68.8567 49.7799 67.7777 50.2552C66.7009 50.7295 65.7236 50.9544 64.8402 50.9287C64.3618 50.9153 63.9222 50.8347 63.5284 50.6721C62.9379 50.4285 62.5299 49.9612 62.318 49.2824C62.1055 48.6018 62.0275 47.8397 62.1946 47.0188C62.3862 46.078 62.7305 45.3549 63.1225 44.8162C63.6001 44.1602 64.1699 43.4968 64.8564 42.8435C65.5442 42.1894 66.2986 41.5784 67.1227 41.0147C67.945 40.4523 68.8198 39.9544 69.7349 39.5215C70.6511 39.0878 71.5798 38.7459 72.5105 38.509C72.8752 38.4161 73.1455 38.377 73.3239 38.3822C73.6582 38.3926 73.9876 38.5704 74.3159 38.9195C74.6389 39.263 74.7681 39.6157 74.6969 39.9702C74.67 40.1047 74.5984 40.1974 74.4691 40.2567C74.3479 40.3121 74.1014 40.4046 73.7286 40.5323C73.3573 40.6596 73.0734 40.789 72.8645 40.9227ZM66.5257 44.5079C65.8572 45.0022 65.2914 45.5792 64.8298 46.2401C64.3708 46.8973 63.9404 47.596 63.76 48.3871C63.6022 49.0793 63.8434 49.5215 64.2801 49.5574C65.0372 49.6193 65.9599 49.3434 67.0408 48.8502C68.1237 48.3561 69.1274 47.5991 70.1326 46.6742C70.8132 46.048 71.4778 45.434 72.041 44.7356C72.6062 44.0349 72.9517 43.3457 73.0819 42.6735C73.189 42.12 72.9631 41.836 72.3923 41.8191C71.9327 41.8058 71.3168 41.9643 70.5543 42.2941C69.7833 42.6274 69.1382 42.9919 68.6021 43.3763C68.3944 43.5251 68.1337 43.7513 67.819 44.0612C67.5032 44.3722 67.2616 44.6065 67.0926 44.7664C66.918 44.9319 66.7839 45.0165 66.6784 45.0251C66.5528 44.9755 66.4994 44.802 66.5257 44.5079ZM76.4391 46.8167C76.4258 46.8049 76.4137 46.792 76.4085 46.779C76.0851 46.847 75.7024 46.9178 75.2581 46.9943C74.8074 47.0723 74.5388 47.1214 74.4456 47.1462C74.2214 47.4153 73.9967 47.6489 73.7616 47.8501C73.528 48.0499 73.1838 48.3132 72.7285 48.6481C72.2774 48.9802 71.9669 49.2064 71.8125 49.3313C71.8346 49.0693 71.8642 48.8071 71.894 48.5435C72.3203 48.2588 72.8168 47.824 73.3711 47.2262C73.0314 47.2174 72.8978 47.0463 72.9604 46.7174C73.0339 46.3333 73.308 45.8863 73.7734 45.389C74.2439 44.886 74.7947 44.4516 75.4726 44.1463C75.6194 44.0802 75.7511 44.0851 75.8324 44.0872C76.0248 44.0931 76.0993 44.2051 76.0567 44.4253C76.0308 44.5601 75.9458 44.7237 75.8164 44.9142C76.2089 44.8798 76.6101 44.8392 77.0263 44.7951C77.4354 44.7518 77.7456 44.7205 77.9493 44.7017C78.1611 44.682 78.3186 44.6743 78.4368 44.6777C78.6882 44.6851 78.8441 44.8193 78.903 45.073C78.9629 45.3305 78.9556 45.6071 78.8986 45.9087C78.8661 46.08 78.8292 46.1875 78.7965 46.2391C78.7472 46.3173 78.5578 46.4884 78.2098 46.7508C77.8658 47.0101 77.5929 47.2192 77.3963 47.3745C77.2063 47.5245 76.98 47.7126 76.7745 47.9663C76.4141 48.4111 76.2233 48.7532 76.1585 48.9569C76.1588 49.1273 76.1963 49.2516 76.2649 49.327C76.333 49.4017 76.4493 49.4597 76.6122 49.5036C77.0737 49.4903 78.0334 48.9551 79.4783 47.8971C79.4664 48.1299 79.4561 48.3615 79.4527 48.593C78.4961 49.4435 77.6254 50.1027 76.8411 50.5741C76.0641 51.0413 75.4979 51.2931 75.1483 51.2943C74.8467 51.2953 74.5956 51.162 74.3961 50.9365C74.1933 50.7071 74.0796 50.3796 74.1411 49.9649C74.2242 49.4042 74.4857 48.9036 74.8541 48.4427C75.2217 47.9828 75.7527 47.4407 76.4391 46.8167ZM80.5499 48.5886C80.5351 48.6716 80.5046 48.7603 80.4578 48.8578C80.4175 49.1723 80.4533 49.3939 80.5836 49.532C80.7089 49.6651 80.9398 49.7358 81.2786 49.7455C81.529 49.7529 81.7812 49.7098 82.043 49.6111C82.297 49.5154 82.5803 49.3673 82.8899 49.1799C83.2034 48.9899 83.6487 48.7077 84.2284 48.3256C84.2254 48.5513 84.2289 48.7769 84.2328 49.0011C83.4082 49.843 82.6051 50.4855 81.8233 50.93C81.0418 51.3743 80.4123 51.5878 79.9268 51.5754C79.868 51.574 79.7807 51.5621 79.6832 51.5315C78.9054 51.2847 78.6323 50.5541 78.8749 49.3494C79.1385 48.0417 80.0025 46.8569 81.4565 45.7608C81.6722 45.5983 81.932 45.4245 82.2421 45.2697C82.5513 45.1155 82.8398 45.0433 83.0982 45.0512C83.2829 45.0571 83.4456 45.1064 83.584 45.2033C83.7163 45.2959 83.7635 45.4392 83.7245 45.6243C83.6663 45.9005 83.4363 46.2469 83.0289 46.6511C82.6161 47.0609 82.1664 47.4486 81.6796 47.8156C81.1911 48.1839 80.8132 48.4403 80.5499 48.5886ZM83.8315 43.3153C84.0601 43.043 84.3179 42.8408 84.5945 42.7107C84.8703 42.5811 85.1272 42.5216 85.3642 42.5285C85.5494 42.5344 85.6935 42.5922 85.7878 42.6978C85.8856 42.8076 85.9172 42.9597 85.8779 43.1522C85.796 43.5519 85.587 43.8882 85.2484 44.1704C84.914 44.4491 84.5531 44.6512 84.1361 44.693C83.9373 44.713 83.7791 44.6094 83.673 44.4552C83.5667 44.3008 83.5265 44.1082 83.5519 43.8812C83.6729 43.5786 83.7672 43.3916 83.8315 43.3153ZM88.5298 46.6093C87.574 47.0475 86.8226 47.4709 86.2742 47.8757C85.7275 48.2788 85.3577 48.8104 85.2078 49.4728C85.1041 49.9313 85.3056 50.2329 85.7949 50.2406C86.3275 50.2495 86.8724 49.9713 87.4329 49.5366C87.3346 49.2615 87.2631 48.9772 87.3176 48.7038C87.4299 48.1403 87.8646 47.4483 88.5298 46.6093ZM90.2279 45.808C90.6613 45.8757 90.8162 46.2229 90.6817 46.8537C90.5433 47.5035 90.1549 48.2243 89.5143 49.0082C89.61 49.0111 89.6817 49.0243 89.7214 49.0507C89.9605 49.0388 90.2111 48.955 90.4857 48.8027C90.7637 48.6486 91.1144 48.4076 91.5548 48.0704C91.5651 48.3368 91.5822 48.6032 91.5998 48.8683C91.0594 49.4279 90.5374 49.8031 90.0451 49.9884C89.5513 50.1743 88.9935 50.2725 88.3712 50.2759C87.3064 51.1247 86.3369 51.5364 85.4616 51.5112C84.8144 51.4924 84.3655 51.2168 84.1255 50.6752C83.8863 50.1361 83.8424 49.5138 83.9852 48.8144C84.1415 48.0485 84.5397 47.3348 85.1758 46.6846C85.8127 46.0338 86.5655 45.5221 87.4205 45.1533C88.2743 44.785 89.0874 44.6126 89.8342 44.6342C90.5145 44.6538 90.8139 44.8543 90.7352 45.2323C90.6874 45.4625 90.5164 45.654 90.2279 45.808ZM93.8099 46.5567C94.3293 46.1995 94.9711 45.6213 95.7391 44.8215C96.505 44.0239 97.0945 43.2733 97.4938 42.5766C97.1424 42.7829 96.7211 43.1214 96.2322 43.5836C95.7437 44.0456 95.2813 44.5476 94.8418 45.0881C94.403 45.6277 94.0625 46.1174 93.8099 46.5567ZM93.0955 48.1584C93.0439 48.2748 92.9851 48.4335 92.9253 48.6342C92.8668 48.8305 92.822 48.9508 92.8143 48.9922C92.6674 49.7809 92.9176 50.1863 93.5434 50.204C94.3531 50.2273 95.5058 49.6492 97.0031 48.4692C97.0399 48.6659 97.0766 48.8624 97.1209 49.0588C96.8486 49.2842 96.4959 49.5769 96.0495 49.9452C95.6102 50.3076 95.1901 50.6295 94.7902 50.8956C94.387 51.1639 93.9668 51.3817 93.544 51.5461C93.1136 51.7135 92.7146 51.7898 92.325 51.7789C91.8543 51.7655 91.5045 51.6051 91.2847 51.29C91.0663 50.9772 90.9882 50.5897 91.0475 50.1325C91.0931 49.7806 91.1302 49.5498 91.1528 49.4425C91.3672 48.4277 91.7662 47.449 92.3567 46.5068C92.9472 45.5643 93.6775 44.655 94.5488 43.792C95.4299 42.9196 96.4556 42.0405 97.6479 41.1695C98.3924 40.6258 98.8669 40.3649 99.0671 40.3711C99.2598 40.377 99.3072 40.6243 99.2038 41.1034C99.0589 41.775 98.7783 42.4306 98.359 43.0816C97.9448 43.7245 97.4708 44.325 96.942 44.8684C96.41 45.415 95.8003 45.9957 95.102 46.5935C94.2351 47.3357 93.5607 47.8504 93.0955 48.1584ZM98.1451 49.0879C98.1295 49.1708 98.0974 49.261 98.0493 49.3584C98.0044 49.6714 98.0374 49.8936 98.1657 50.0295C98.29 50.1617 98.519 50.2349 98.8577 50.2445C99.1079 50.2519 99.3608 50.2076 99.6233 50.11C99.8789 50.015 100.165 49.8679 100.476 49.6805C100.793 49.4889 101.241 49.2055 101.826 48.8249C101.82 49.0505 101.82 49.2762 101.822 49.5017C100.986 50.3418 100.174 50.9844 99.3859 51.4283C98.5987 51.8715 97.9665 52.0829 97.4814 52.0706C97.4226 52.0691 97.3423 52.0602 97.2383 52.0281C96.4562 51.7831 96.1939 51.0511 96.4536 49.847C96.7348 48.5427 97.6239 47.3578 99.0919 46.2643C99.3109 46.1013 99.5721 45.9271 99.8836 45.7735C100.196 45.6196 100.484 45.5491 100.743 45.5562C100.927 45.5607 101.089 45.612 101.226 45.7083C101.357 45.7998 101.402 45.9425 101.361 46.1262C101.299 46.4037 101.064 46.7486 100.651 47.1528C100.233 47.5624 99.7779 47.9483 99.286 48.3153C98.7927 48.6833 98.4106 48.9397 98.1451 49.0879ZM101.499 43.8211C101.735 43.552 101.985 43.3467 102.263 43.2183C102.54 43.0901 102.798 43.0269 103.035 43.0344C103.22 43.0403 103.364 43.0995 103.456 43.2054C103.552 43.315 103.587 43.4635 103.54 43.6565C103.443 44.0555 103.241 44.3959 102.904 44.6759C102.568 44.955 102.202 45.1539 101.785 45.1969C101.586 45.2171 101.437 45.113 101.325 44.9589C101.214 44.8057 101.176 44.6138 101.205 44.3869C101.33 44.0857 101.43 43.8995 101.499 43.8211Z" fill="black"/>
<path d="M103.673 51.4943C104.229 50.4726 104.79 49.4527 105.352 48.4286C105.912 47.4086 106.475 46.3847 107.033 45.3608C109.052 45.3623 111.089 45.3638 113.117 45.3653C112.931 45.7089 112.744 46.0511 112.558 46.3939C111.092 46.3929 109.618 46.3924 108.152 46.391C107.896 46.8535 107.639 47.3161 107.384 47.7781C108.794 47.7785 110.223 47.7792 111.642 47.7796C111.456 48.1218 111.269 48.4641 111.083 48.8065C109.645 48.8061 108.226 48.806 106.797 48.8059C106.638 49.0828 106.48 49.36 106.33 49.6369C106.18 49.9136 106.021 50.1907 105.862 50.4671C107.456 50.467 109.05 50.467 110.645 50.4661C110.459 50.8084 110.272 51.1506 110.077 51.4925C107.939 51.4935 105.801 51.4943 103.673 51.4943ZM116.795 51.4884C116.279 51.4886 115.772 51.4888 115.265 51.4889C115.345 51.3311 115.435 51.1739 115.534 51.0154C115.181 51.2246 114.855 51.3741 114.544 51.4651C114.243 51.5552 113.907 51.6015 113.557 51.6012C112.949 51.6009 112.485 51.4452 112.185 51.1308C111.893 50.8171 111.834 50.3516 111.997 49.7368C112.092 49.3795 112.253 49.0411 112.471 48.7195C112.688 48.3978 112.985 48.0943 113.34 47.8049C114.044 47.2311 114.832 46.9414 115.726 46.9418C116.537 46.9423 117.08 47.1807 117.354 47.6578C117.56 47.2766 117.782 46.8937 117.992 46.5144C118.205 46.1308 118.433 45.7516 118.649 45.3699C119.184 45.3704 119.718 45.3709 120.244 45.3704C119.667 46.3916 119.087 47.4091 118.514 48.4304C117.943 49.4478 117.362 50.4692 116.795 51.4884ZM113.568 49.6895C113.48 50.0077 113.522 50.2572 113.685 50.4362C113.857 50.6142 114.099 50.7035 114.422 50.7037C114.707 50.704 115.014 50.6298 115.304 50.4802C115.594 50.3304 115.869 50.1012 116.101 49.7935C116.333 49.4872 116.488 49.1926 116.566 48.909C116.655 48.5884 116.607 48.328 116.431 48.1297C116.246 47.9312 116.006 47.8315 115.693 47.8315C115.223 47.8317 114.782 48.0266 114.37 48.4186C113.958 48.8102 113.693 49.2335 113.568 49.6895ZM121.673 45.3719C122.208 45.3724 122.733 45.373 123.277 45.3734C123.076 45.7358 122.874 46.097 122.682 46.4588C122.138 46.4584 121.604 46.4582 121.078 46.4577C121.27 46.0958 121.472 45.7346 121.673 45.3719ZM120.737 47.056C121.272 47.0562 121.807 47.0565 122.342 47.0562C121.935 47.7951 121.522 48.5366 121.12 49.2729C120.717 50.013 120.298 50.7495 119.9 51.4872C119.356 51.4882 118.831 51.4882 118.297 51.4882C118.694 50.7502 119.119 50.0117 119.517 49.273C119.914 48.5348 120.331 47.7949 120.737 47.056ZM121.218 51.4869C121.366 51.2172 121.515 50.9469 121.663 50.6767C122.312 50.2291 122.991 49.7831 123.648 49.333C124.298 48.8874 124.974 48.4368 125.633 47.9884C124.757 47.9881 123.872 47.9879 122.978 47.9869C123.156 47.6769 123.325 47.3668 123.503 47.0567C125.052 47.0578 126.591 47.0582 128.14 47.0597C128.009 47.2988 127.878 47.5375 127.748 47.776C127.077 48.2339 126.398 48.6941 125.736 49.1495C125.066 49.6091 124.403 50.0655 123.733 50.5226C124.682 50.5226 125.631 50.5227 126.581 50.5222C126.399 50.8436 126.228 51.1648 126.056 51.4851C124.434 51.4862 122.821 51.4869 121.218 51.4869ZM130.551 45.3792C131.086 45.3797 131.612 45.3802 132.137 45.3807C131.935 45.7424 131.734 46.1028 131.541 46.4642C131.007 46.4638 130.472 46.4637 129.947 46.4632C130.148 46.102 130.35 45.7411 130.551 45.3792ZM129.624 47.0602C130.149 47.0606 130.684 47.0608 131.21 47.0606C130.802 47.7982 130.388 48.5383 129.987 49.2733C129.583 50.0121 129.163 50.7473 128.765 51.4838C128.24 51.4843 127.705 51.4848 127.18 51.4848C127.578 50.748 127.994 50.0107 128.392 49.2735C128.79 48.5364 129.216 47.7979 129.624 47.0602ZM131.081 49.6491C131.195 49.2384 131.371 48.8681 131.61 48.5413C131.847 48.2145 132.166 47.9265 132.539 47.6837C133.291 47.194 134.172 46.9512 135.167 46.9516C136.043 46.9521 136.675 47.133 137.063 47.4939C137.442 47.8539 137.556 48.3381 137.386 48.9481C137.287 49.3061 137.119 49.641 136.886 49.9513C136.652 50.2615 136.333 50.5466 135.965 50.8079C135.211 51.331 134.318 51.5926 133.305 51.5929C132.743 51.5929 132.278 51.5095 131.9 51.3434C131.504 51.1766 131.256 50.9402 131.129 50.6344C131.003 50.3285 130.983 50.0002 131.081 49.6491ZM135.854 48.7904C135.933 48.5058 135.886 48.2766 135.713 48.1049C135.54 47.9332 135.287 47.8465 134.928 47.8461C134.587 47.8457 134.262 47.9309 133.957 48.0875C133.638 48.2515 133.368 48.4819 133.136 48.7871C132.912 49.0938 132.76 49.3767 132.689 49.6337C132.6 49.9533 132.647 50.2081 132.818 50.3932C132.994 50.5824 133.266 50.6734 133.616 50.6734C134.049 50.6735 134.448 50.5314 134.821 50.25C135.356 49.8507 135.695 49.3642 135.854 48.7904ZM139.746 47.065C140.262 47.0654 140.769 47.0655 141.276 47.0655C141.167 47.2592 141.057 47.452 140.957 47.6451C141.405 47.3959 141.805 47.2212 142.166 47.1138C142.519 47.0089 142.883 46.9556 143.243 46.9557C143.74 46.9559 144.089 47.0611 144.316 47.2722C144.533 47.4837 144.594 47.7624 144.496 48.1109C144.453 48.2655 144.307 48.5576 144.058 48.9869C143.822 49.4026 143.577 49.8191 143.35 50.234C143.124 50.6484 142.887 51.0641 142.661 51.4786C142.127 51.4786 141.601 51.479 141.076 51.479C141.303 51.0629 141.539 50.6465 141.766 50.2306C141.993 49.8142 142.238 49.397 142.475 48.9798C142.68 48.6057 142.798 48.3829 142.828 48.3091C142.872 48.1519 142.841 48.03 142.746 47.9408C142.652 47.8513 142.489 47.806 142.277 47.8061C142.047 47.8061 141.758 47.8798 141.432 48.0271C141.105 48.1743 140.829 48.3697 140.605 48.6124C140.428 48.7841 140.2 49.1367 139.895 49.6687C139.728 49.9712 139.551 50.2733 139.394 50.5745C139.236 50.8764 139.059 51.1783 138.901 51.4799C138.367 51.4804 137.841 51.4804 137.307 51.4809C137.715 50.7455 138.123 50.0094 138.521 49.2739C138.92 48.538 139.337 47.8015 139.746 47.065ZM150.428 49.643C149.101 49.6433 147.773 49.6435 146.446 49.6435C146.433 49.6897 146.423 49.7269 146.416 49.7524C146.333 50.0483 146.377 50.2863 146.556 50.4675C146.727 50.648 146.978 50.7389 147.301 50.7389C147.835 50.7388 148.298 50.5349 148.707 50.1269C149.16 50.1866 149.613 50.2463 150.076 50.3054C149.68 50.7321 149.222 51.0524 148.701 51.2659C148.18 51.4795 147.634 51.5868 147.054 51.5871C146.27 51.5874 145.677 51.4001 145.285 51.0249C144.893 50.6493 144.783 50.1516 144.957 49.5312C145.126 48.9268 145.488 48.3882 146.072 47.915C146.85 47.2765 147.806 46.9575 148.931 46.9584C149.65 46.959 150.174 47.1261 150.505 47.4606C150.835 47.7949 150.918 48.2639 150.756 48.8645C150.678 49.1542 150.566 49.4126 150.428 49.643ZM149.294 48.921C149.309 48.8675 149.32 48.8277 149.328 48.7991C149.42 48.4693 149.388 48.2218 149.241 48.0563C149.094 47.8903 148.859 47.8084 148.527 47.8083C148.195 47.8081 147.874 47.9014 147.563 48.0898C147.252 48.2769 147 48.5545 146.814 48.921C147.634 48.9215 148.464 48.9213 149.294 48.921ZM153.692 51.4744C154.253 50.4626 154.813 49.4505 155.374 48.4384C155.935 47.4262 156.497 46.4134 157.067 45.4002C157.62 45.4007 158.164 45.4013 158.718 45.4013C158.25 46.2446 157.783 47.0874 157.315 47.9296C156.848 48.7719 156.39 49.6143 155.922 50.4561C157.286 50.4562 158.65 50.4559 160.014 50.4556C159.836 50.7948 159.648 51.1337 159.461 51.4722C157.534 51.4727 155.618 51.474 153.692 51.4744ZM163.872 45.4054C164.397 45.4059 164.923 45.4064 165.448 45.4069C165.245 45.7665 165.052 46.1245 164.859 46.4828C164.324 46.4831 163.798 46.4828 163.273 46.4822C163.466 46.124 163.669 45.7648 163.872 45.4054ZM162.949 47.0755C163.474 47.0759 164 47.076 164.525 47.0766C164.116 47.8091 163.696 48.5426 163.296 49.2746C162.896 50.007 162.478 50.7393 162.078 51.471C161.562 51.4713 161.037 51.4713 160.511 51.4714C160.911 50.7394 161.33 50.007 161.73 49.2745C162.13 48.542 162.549 47.8086 162.949 47.0755ZM166.028 47.077C166.526 47.0773 167.014 47.0775 167.522 47.0775C167.426 47.2532 167.33 47.4284 167.235 47.6036C167.935 47.1793 168.613 46.9674 169.24 46.9682C169.682 46.9685 169.995 47.0378 170.195 47.1752C170.396 47.3123 170.499 47.5032 170.495 47.7457C170.76 47.5248 171.098 47.3414 171.518 47.1924C171.938 47.0444 172.346 46.9695 172.752 46.9697C173.222 46.97 173.547 47.0644 173.759 47.2568C173.965 47.4445 174.03 47.6975 173.941 48.0121C173.898 48.1626 173.769 48.4232 173.553 48.7936C173.298 49.2393 173.043 49.6851 172.797 50.1307C172.551 50.576 172.295 51.0216 172.049 51.4674C171.524 51.4675 170.998 51.4669 170.482 51.4673C170.728 51.0225 170.98 50.5741 171.22 50.1314C171.463 49.6843 171.722 49.2397 171.977 48.7939C172.164 48.4581 172.265 48.2663 172.287 48.2215C172.322 48.0964 172.305 47.9968 172.224 47.9242C172.143 47.8518 172.005 47.8156 171.812 47.8153C171.415 47.8148 171.021 47.9716 170.618 48.2859C170.333 48.5101 170.036 48.9089 169.718 49.4802C169.532 49.8121 169.346 50.1439 169.16 50.4746C168.974 50.8057 168.788 51.1373 168.602 51.468C168.086 51.469 167.561 51.469 167.045 51.469C167.29 51.026 167.532 50.5804 167.771 50.1394C168.013 49.694 168.262 49.2521 168.516 48.8085C168.686 48.5026 168.779 48.304 168.805 48.2125C168.837 48.0963 168.809 48.0005 168.729 47.9258C168.649 47.8514 168.512 47.8144 168.336 47.8144C168.161 47.8142 167.975 47.8535 167.769 47.931C167.562 48.0086 167.367 48.1142 167.199 48.2512C167.013 48.3862 166.853 48.5616 166.692 48.7742C166.617 48.8746 166.48 49.1003 166.279 49.4519C166.092 49.7886 165.907 50.1273 165.726 50.4608C165.543 50.7987 165.352 51.1337 165.165 51.4691C164.63 51.4702 164.105 51.4702 163.58 51.4702C163.98 50.7386 164.399 50.0065 164.799 49.2745C165.199 48.5425 165.618 47.8096 166.028 47.077ZM176.973 45.4162C177.49 45.4167 178.015 45.4173 178.532 45.4164C178.328 45.7749 178.125 46.1336 177.932 46.4908C177.415 46.4905 176.899 46.4902 176.374 46.4897C176.567 46.1321 176.77 45.7742 176.973 45.4162ZM176.04 47.0815C176.565 47.0818 177.081 47.082 177.616 47.0825C177.206 47.8133 176.786 48.5449 176.385 49.2751C175.984 50.0055 175.574 50.7359 175.173 51.4664C174.648 51.4669 174.122 51.467 173.606 51.4675C174.007 50.7368 174.417 50.0055 174.818 49.275C175.219 48.5444 175.638 47.8126 176.04 47.0815ZM178.095 47.9609C178.252 47.6684 178.409 47.3759 178.575 47.0827C178.833 47.0829 179.082 47.0829 179.349 47.0831C179.469 46.8554 179.599 46.6269 179.728 46.3992C180.386 46.1265 181.064 45.8539 181.731 45.5807C181.451 46.0821 181.17 46.5826 180.898 47.0841C181.211 47.0846 181.534 47.0843 181.848 47.0841C181.681 47.3772 181.524 47.6695 181.367 47.9619C181.054 47.962 180.731 47.9624 180.427 47.9619C180.247 48.2707 180.076 48.5791 179.906 48.8873C179.735 49.195 179.565 49.5031 179.394 49.8111C179.207 50.1431 179.117 50.3308 179.104 50.3775C179.078 50.4687 179.086 50.539 179.145 50.5898C179.213 50.6409 179.345 50.6657 179.547 50.6658C179.612 50.6658 179.78 50.6569 180.062 50.6372C179.896 50.9291 179.73 51.2208 179.574 51.5121C179.295 51.5529 179.012 51.5741 178.736 51.5743C178.183 51.5745 177.801 51.4938 177.598 51.3319C177.395 51.1698 177.33 50.9449 177.411 50.6579C177.45 50.5224 177.602 50.2135 177.879 49.7281C178.045 49.4336 178.215 49.141 178.378 48.8447C178.539 48.5521 178.702 48.2558 178.869 47.9613C178.611 47.9611 178.353 47.9611 178.095 47.9609ZM183.527 48.309C183.029 48.2764 182.532 48.244 182.025 48.2116C182.31 47.8231 182.7 47.5192 183.196 47.3032C183.7 47.0839 184.303 46.976 185.022 46.9763C185.76 46.9765 186.28 47.0926 186.567 47.3168C186.86 47.5461 186.959 47.8228 186.873 48.1496C186.838 48.282 186.78 48.4237 186.707 48.5699C186.631 48.7204 186.415 49.1089 186.059 49.7415C185.753 50.2642 185.575 50.631 185.516 50.8399C185.462 51.0269 185.449 51.2337 185.476 51.4624C184.969 51.4629 184.462 51.4634 183.946 51.4634C183.927 51.3045 183.937 51.1386 183.968 50.9682C183.692 51.1608 183.382 51.3104 183.057 51.4156C182.732 51.5211 182.413 51.5726 182.109 51.5726C181.63 51.5726 181.272 51.4585 181.022 51.2151C180.781 50.9808 180.712 50.6682 180.814 50.2944C180.929 49.8741 181.204 49.5394 181.607 49.2885C182.029 49.037 182.681 48.8854 183.581 48.8332C184.341 48.7853 184.855 48.729 185.132 48.6631C185.243 48.4977 185.309 48.3648 185.337 48.2668C185.373 48.1392 185.338 48.0334 185.225 47.9478C185.111 47.8623 184.92 47.82 184.662 47.8197C184.377 47.8192 184.143 47.8615 183.962 47.9474C183.772 48.032 183.627 48.1526 183.527 48.309ZM184.705 49.4142C184.608 49.4338 184.473 49.452 184.312 49.4687C183.517 49.5403 182.962 49.6459 182.692 49.7851C182.488 49.8866 182.367 50.0216 182.318 50.1905C182.279 50.3304 182.314 50.4428 182.42 50.5439C182.517 50.6354 182.674 50.6876 182.896 50.6876C183.135 50.6874 183.359 50.6438 183.597 50.5548C183.834 50.4678 184.022 50.3553 184.154 50.2179C184.304 50.0806 184.457 49.8655 184.614 49.5732C184.638 49.5203 184.672 49.4673 184.705 49.4142ZM188.014 47.9638C188.171 47.672 188.328 47.38 188.495 47.0872C188.753 47.0874 189.002 47.0877 189.269 47.0878C189.389 46.8603 189.519 46.6323 189.648 46.4044C190.307 46.133 190.975 45.8602 191.643 45.5883C191.362 46.0886 191.081 46.5882 190.808 47.0887C191.122 47.089 191.435 47.0897 191.758 47.0892C191.592 47.3809 191.434 47.6728 191.277 47.9646C190.964 47.9648 190.641 47.9651 190.337 47.9648C190.156 48.2726 189.985 48.5808 189.815 48.888C189.644 49.1954 189.473 49.5029 189.312 49.8103C189.125 50.1417 189.025 50.3296 189.012 50.3754C188.986 50.4664 189 50.5393 189.062 50.5875C189.128 50.6402 189.252 50.6633 189.446 50.6632C189.519 50.6633 189.697 50.6543 189.97 50.6348C189.804 50.9259 189.637 51.2173 189.49 51.5086C189.202 51.5492 188.919 51.5697 188.643 51.57C188.099 51.5704 187.717 51.4897 187.514 51.3281C187.312 51.1665 187.247 50.9421 187.328 50.6554C187.367 50.5204 187.519 50.212 187.796 49.7274C187.963 49.4336 188.13 49.1395 188.296 48.8459C188.463 48.5518 188.621 48.2578 188.788 47.9641C188.53 47.9639 188.272 47.964 188.014 47.9638ZM193.427 48.3114C192.93 48.2789 192.432 48.2463 191.934 48.2137C192.22 47.8264 192.602 47.5265 193.097 47.3074C193.584 47.0918 194.196 46.9807 194.906 46.981C195.652 46.9815 196.171 47.0977 196.458 47.3219C196.751 47.5505 196.852 47.8237 196.764 48.152C196.73 48.2822 196.681 48.4256 196.607 48.5717C196.531 48.7218 196.314 49.1102 195.94 49.7409C195.643 50.2627 195.464 50.6286 195.405 50.8372C195.351 51.0237 195.338 51.2301 195.355 51.4584C194.849 51.4587 194.342 51.4589 193.844 51.459C193.825 51.3009 193.835 51.1352 193.866 50.9653C193.581 51.1573 193.28 51.3066 192.955 51.4118C192.63 51.517 192.31 51.5686 192.016 51.5686C191.536 51.5686 191.179 51.4547 190.929 51.2118C190.689 50.9779 190.615 50.6671 190.722 50.2927C190.842 49.8746 191.113 49.5391 191.516 49.2888C191.929 49.0377 192.581 48.8866 193.481 48.8343C194.232 48.7866 194.745 48.7304 195.013 48.6645C195.125 48.4995 195.2 48.3674 195.228 48.2691C195.265 48.142 195.228 48.0361 195.116 47.9507C195.003 47.8654 194.821 47.8232 194.554 47.8228C194.277 47.8226 194.044 47.8647 193.854 47.9505C193.672 48.0348 193.527 48.1553 193.427 48.3114ZM194.596 49.4144C194.507 49.4339 194.373 49.452 194.211 49.4687C193.398 49.5403 192.861 49.6454 192.591 49.7846C192.387 49.8858 192.265 50.0204 192.217 50.1891C192.177 50.3291 192.21 50.4434 192.319 50.5418C192.422 50.6352 192.573 50.6853 192.794 50.6853C193.024 50.6852 193.258 50.6416 193.495 50.5529C193.723 50.4659 193.912 50.3542 194.053 50.2164C194.202 50.0795 194.347 49.8647 194.504 49.573C194.529 49.5201 194.562 49.4674 194.596 49.4144Z" fill="black"/>
<path d="M35.2192 0.330654L21.0358 25.9156C20.7102 26.5029 21.0225 26.9218 21.9712 27.1728C22.6807 27.3601 23.7459 27.4537 25.167 27.4537L60.185 27.4479L55.8984 34.95L19.2188 34.9561C18.0248 34.9564 16.9358 34.9251 15.9495 34.8602C11.1307 34.7267 7.42619 34.3179 4.83565 33.6329C3.72671 33.34 2.82258 32.9968 2.12167 32.6028C-0.217479 31.2898 -0.622375 29.2538 0.906672 26.4959L15.4098 0.334213L35.2192 0.330654Z" fill="black"/>
<path d="M58.6279 34.9497L59.2067 33.9368L96.8921 17.247L77.6484 0.323574L101.164 0.319397L111.115 10.0313L132.859 0.314068L156.375 0.309891L118.363 17.2433L138.713 34.9358L115.197 34.9399L103.096 24.2669L80.4354 34.9459L58.6279 34.9497Z" fill="black"/>
<path d="M219.362 1.36036L219.362 1.36089L219.611 1.427V1.42648C220.46 1.6568 221.22 1.922 221.893 2.22263C224.76 3.50577 225.643 5.14059 224.541 7.12716L219.796 15.6876C218.623 17.8034 215.847 19.5035 211.474 20.7863C207.63 21.8775 203.07 22.4223 197.788 22.4236L170.054 22.4278L163.123 34.9314L143.313 34.9346L162.509 0.308857L208.518 0.300865C213.009 0.300446 216.624 0.654011 219.362 1.36036ZM174.267 14.8294L193.565 14.8262C198.166 14.8252 200.821 14.1848 201.533 12.9014L203.399 9.53482C203.546 8.8707 203.024 8.38089 201.833 8.0661C201.187 7.89514 200.342 7.77586 199.3 7.7086L178.212 7.71227L174.267 14.8294Z" fill="black"/>
</svg>
