<svg width="260" height="43" viewBox="0 0 260 43" fill="none" xmlns="http://www.w3.org/2000/svg">
<g clip-path="url(#clip0_55_2156)">
<path fill-rule="evenodd" clip-rule="evenodd" d="M160.856 33.0073H168.187L174.729 21.5348H193.549C194.12 21.5406 194.689 21.6147 195.244 21.7556C195.647 21.8305 196.03 21.9957 196.364 22.2395C196.699 22.4832 196.978 22.7997 197.182 23.1667C197.317 23.46 197.387 23.7807 197.387 24.1054C197.387 24.43 197.317 24.7507 197.182 25.044C196.51 26.633 195.113 27.2956 193.477 27.2956H183.809C183.059 27.2956 178.546 27.4121 179.503 28.8845C179.953 29.5066 180.483 30.0619 181.079 30.5348C182.164 31.4322 183.306 32.2521 184.498 32.9889C186.211 34.0563 187.983 35.0379 189.773 35.9705H199.662L199.418 35.8968C197.479 35.2833 195.523 34.6146 193.632 33.8478C192.596 33.4552 191.6 32.9579 190.659 32.3631C189.886 31.8293 189.196 31.0195 189.47 29.9827C189.916 28.4489 192.151 28.3753 193.436 28.3999H198.984C200.531 28.4296 202.027 27.8276 203.146 26.725C203.673 26.2181 204.11 25.6201 204.437 24.9581C204.782 24.1606 205.198 22.9336 204.966 22.0501C204.905 21.83 204.798 21.6261 204.653 21.4524C204.509 21.2788 204.329 21.1394 204.127 21.044C203.372 20.6856 202.544 20.5174 201.713 20.5532H167.973L160.856 33.0073ZM158.477 34.406H168.955L175.496 22.9336H193.543C193.543 22.9336 196.581 22.9336 195.921 24.4857C195.785 24.7986 195.327 25.8845 193.46 25.8968H183.791C183.791 25.8968 167.343 25.8968 189.434 37.3386H209.313C181.275 29.4919 193.436 29.7741 193.436 29.7741H199.002C200.396 29.7743 201.762 29.3722 202.946 28.6133C204.131 27.8544 205.086 26.769 205.703 25.4796C208.605 18.7311 201.666 19.1053 201.666 19.1053H167.177L158.477 34.406Z" fill="black"/>
<path fill-rule="evenodd" clip-rule="evenodd" d="M5.50635 21.0146L6.4994 20.5729C6.75007 20.4651 7.01871 20.4089 7.29027 20.4073C11.5003 20.4073 15.7104 20.4073 19.9204 20.4073H20.2177L20.0691 20.6465C17.7619 24.4441 15.7698 28.4319 13.4626 32.2294C13.1118 32.8429 12.2733 32.9534 11.6371 32.9534H2.05745L7.4092 23.7509C7.58445 23.3756 7.61106 22.9446 7.48338 22.5495C7.35571 22.1543 7.0838 21.826 6.72536 21.6343C6.4025 21.4128 6.02485 21.2914 5.63717 21.2846H4.82847L5.50635 21.0146ZM0 34.1068H11.6609C12.6896 34.1068 13.8729 33.8245 14.4557 32.8798C16.9056 28.7754 19.0701 24.5423 21.5438 20.4686C21.7697 20.1189 21.181 19.6097 20.9491 19.4563C20.7546 19.3351 20.5339 19.2655 20.3069 19.2539H7.2427C6.80749 19.2519 6.37648 19.3416 5.97612 19.5177L1.81365 21.3582C1.71254 21.4302 1.63553 21.5327 1.59319 21.6517C1.55085 21.7707 1.54526 21.9002 1.5772 22.0226C1.60913 22.145 1.67702 22.2542 1.77154 22.3352C1.86605 22.4161 1.98255 22.4649 2.10502 22.4748H5.39337C5.63013 22.4352 5.8729 22.4784 6.08315 22.5975C6.58265 22.9288 6.4221 23.1251 6.1783 23.53C4.09706 27.0331 2.07529 30.5914 0 34.1068Z" fill="black"/>
<path fill-rule="evenodd" clip-rule="evenodd" d="M50.0342 23.5083V23.5696L47.0966 28.901C46.8623 29.269 46.5499 29.5772 46.1832 29.8025C45.8165 30.0279 45.405 30.1643 44.9797 30.2016H34.4903L37.5586 24.5758C37.7946 24.2093 38.1074 23.9022 38.4737 23.6771C38.8401 23.452 39.2508 23.3146 39.6756 23.2751H49.8559H49.9212H50.1531L50.0342 23.5083ZM32.7064 31.2875L32.8134 31.4224H44.9916C45.6165 31.3823 46.2229 31.1881 46.7599 30.8561C47.2969 30.5241 47.7489 30.064 48.0778 29.5145L50.9915 24.177C51.1342 23.963 51.2226 23.7156 51.2486 23.4573C51.2746 23.199 51.2374 22.9381 51.1403 22.6985C51.0056 22.4807 50.8161 22.3051 50.5918 22.1905C50.3675 22.0759 50.1171 22.0266 49.8677 22.0481H39.6815C39.0545 22.0811 38.4442 22.2688 37.902 22.5954C37.3599 22.9221 36.9015 23.3782 36.5656 23.9255L32.9978 30.4654L32.7004 31.0114C32.679 31.0543 32.6683 31.102 32.6693 31.1502C32.6703 31.1984 32.6831 31.2456 32.7064 31.2875ZM18.0188 32.8151L23.9652 22.0297C24.2284 21.607 24.5838 21.2538 25.003 20.9981C25.4222 20.7424 25.8936 20.5915 26.3794 20.5573L66.4938 20.588C66.6041 20.5872 66.7141 20.6016 66.8208 20.631C66.9182 20.6555 67.0043 20.714 67.0646 20.7966C67.1538 20.9684 67.023 21.269 66.9397 21.4101L61.475 31.3611C61.216 31.7802 60.8666 32.1317 60.4538 32.3882C60.0412 32.6447 59.5766 32.7992 59.0965 32.8396L18.0188 32.8151ZM68.016 20.177C67.856 19.902 67.6249 19.6783 67.3488 19.531C67.0726 19.3837 66.7622 19.3184 66.4521 19.3426L26.3319 19.3242C25.6479 19.3636 24.9834 19.5733 24.3952 19.9355C23.807 20.2977 23.3126 20.8016 22.9543 21.404L16.5917 32.993C16.5302 33.1064 16.498 33.2342 16.498 33.3642C16.498 33.4941 16.5302 33.6219 16.5917 33.7353C16.6315 33.8118 16.6857 33.8794 16.751 33.9342C16.8163 33.989 16.8915 34.0298 16.9723 34.0544C17.0319 34.074 17.094 34.0843 17.1566 34.085H59.0548C59.7364 34.0501 60.3998 33.8462 60.9888 33.4906C61.5778 33.135 62.075 32.6381 62.4383 32.0421L67.8852 22.085C68.062 21.8078 68.1664 21.4881 68.1883 21.1571C68.2102 20.826 68.1488 20.4948 68.0101 20.1954L68.016 20.177Z" fill="black"/>
<path fill-rule="evenodd" clip-rule="evenodd" d="M97.8234 23.4481C97.8266 23.4684 97.8266 23.4891 97.8234 23.5094L94.9097 28.8469C94.672 29.2185 94.3549 29.5289 93.9827 29.7544C93.6106 29.9798 93.1934 30.1143 92.763 30.1475H82.2677L85.336 24.5401C85.5711 24.1741 85.8828 23.8672 86.2481 23.6421C86.6135 23.417 87.0232 23.2794 87.447 23.2395H97.6331H97.6985H97.9245L97.8234 23.4481ZM80.4897 31.2886L80.5967 31.4175H92.7749C93.3995 31.3764 94.0056 31.1817 94.5424 30.8498C95.0793 30.5179 95.5314 30.0583 95.8611 29.5095L98.7748 24.172C98.9178 23.9496 99.0042 23.6937 99.026 23.4278C99.0478 23.1618 99.0044 22.8945 98.8997 22.6505C98.7664 22.4312 98.5771 22.2539 98.3527 22.1381C98.1282 22.0224 97.8772 21.9725 97.6272 21.9941H87.441C86.8171 22.035 86.2116 22.2289 85.6748 22.5597C85.1381 22.8904 84.6856 23.3485 84.3549 23.8959L81.4649 29.1475C81.1379 29.761 80.8108 30.3745 80.4778 30.988C80.4533 31.0318 80.4404 31.0816 80.4404 31.1322C80.4404 31.1828 80.4533 31.2325 80.4778 31.2764L80.4897 31.2886ZM65.7962 32.8101L71.7426 22.0248C72.0023 21.6063 72.3519 21.2552 72.7644 20.9988C73.177 20.7424 73.6412 20.5875 74.1211 20.5462L114.235 20.583C114.348 20.5818 114.46 20.5963 114.568 20.626C114.665 20.6482 114.75 20.7074 114.806 20.7916C114.895 20.9573 114.77 21.2579 114.687 21.4051L109.222 31.3561C108.96 31.7785 108.605 32.132 108.187 32.3886C107.769 32.6452 107.299 32.7979 106.814 32.8346L65.7962 32.8101ZM115.799 20.172C115.639 19.8963 115.408 19.6719 115.132 19.5235C114.856 19.3751 114.546 19.3086 114.235 19.3315L74.1211 19.3008C73.4432 19.3407 72.7844 19.5476 72.1999 19.9041C71.6154 20.2606 71.1221 20.7564 70.7614 21.3499L64.3809 32.9389C64.3195 33.0513 64.2871 33.1781 64.2871 33.307C64.2871 33.436 64.3195 33.5628 64.3809 33.6751C64.4174 33.7537 64.4697 33.8233 64.5343 33.8793C64.5989 33.9354 64.6743 33.9766 64.7556 34.0003C64.8187 34.0097 64.8827 34.0097 64.9458 34.0003L106.844 34.0371C107.528 33.9988 108.193 33.7894 108.781 33.4271C109.37 33.0648 109.864 32.5604 110.221 31.9573L115.686 22.0063C115.858 21.7313 115.958 21.4155 115.978 21.089C115.998 20.7625 115.936 20.4362 115.799 20.1413V20.172ZM145.121 23.5217C145.113 23.5433 145.103 23.5639 145.091 23.583L142.183 28.9205C141.947 29.287 141.634 29.5941 141.268 29.8192C140.902 30.0443 140.491 30.1817 140.066 30.2211H129.565L132.633 24.5401C132.868 24.1727 133.181 23.8649 133.547 23.6397C133.914 23.4145 134.325 23.2776 134.75 23.2395H144.996H145.222L145.121 23.5217ZM127.787 31.2886L127.894 31.4175H140.072C140.696 31.377 141.302 31.1833 141.839 30.8525C142.376 30.5217 142.828 30.0633 143.158 29.5156L146.072 24.1781C146.218 23.956 146.306 23.6987 146.328 23.4312C146.35 23.1637 146.305 22.8948 146.197 22.6505C146.062 22.4328 145.873 22.2572 145.648 22.1425C145.424 22.0279 145.174 21.9787 144.924 22.0002H134.738C134.112 22.0433 133.505 22.2407 132.968 22.5759C132.431 22.9111 131.98 23.3743 131.652 23.9266L128.084 30.4727L127.787 31.0125C127.764 31.0556 127.751 31.1042 127.751 31.1537C127.751 31.2031 127.764 31.2517 127.787 31.2948V31.2886ZM113.099 32.8224L119.046 22.037C119.306 21.6189 119.656 21.2681 120.068 21.0117C120.48 20.7553 120.945 20.6003 121.424 20.5585L161.545 20.5892C161.655 20.5884 161.765 20.6028 161.872 20.6321C161.968 20.6549 162.053 20.714 162.109 20.7977C162.199 20.9695 162.074 21.2701 161.991 21.4113L156.526 31.3622C156.264 31.7853 155.91 32.1393 155.492 32.396C155.073 32.6527 154.603 32.805 154.118 32.8408L113.099 32.8224ZM163.097 20.1781C162.937 19.9031 162.705 19.6795 162.429 19.5321C162.153 19.3848 161.843 19.3196 161.533 19.3438L121.418 19.3069C120.734 19.3463 120.07 19.5561 119.482 19.9183C118.893 20.2805 118.399 20.7843 118.041 21.3867L111.678 32.9758C111.617 33.0892 111.584 33.217 111.584 33.3469C111.584 33.4769 111.617 33.6047 111.678 33.7181C111.718 33.7946 111.772 33.8622 111.837 33.9169C111.903 33.9717 111.978 34.0125 112.059 34.0371C112.118 34.0567 112.181 34.0671 112.243 34.0678L154.141 34.1046C154.826 34.0652 155.491 33.8554 156.081 33.4933C156.67 33.1311 157.165 32.6273 157.525 32.0248L162.966 22.0861C163.148 21.8078 163.256 21.4851 163.279 21.1502C163.302 20.8153 163.239 20.48 163.097 20.1781Z" fill="black"/>
<path d="M22.2167 8.74853L20.0165 12.5584H32.2304C39.3007 12.5584 41.4116 8.75466 34.4484 8.75466L22.2167 8.74853ZM23.7866 6.08593H34.6268C40.704 6.08593 42.7555 2.66873 36.607 2.66873H25.737L23.7866 6.08593ZM8.60547 8.74853L10.1455 6.08593H15.7411L19.2614 0H45.586C51.2172 0 49.9506 1.35584 48.3808 4.06751C47.5721 5.47857 45.1935 6.59514 42.1133 7.10435C45.6276 7.61355 47.6553 8.87123 46.5374 10.7854C44.9676 13.5032 44.4443 15.1964 37.9925 15.2026H10.4548L14.201 8.73012L8.60547 8.74853ZM63.2111 6.08593L65.1912 2.67487H75.9958C82.4239 2.67487 80.2951 6.09207 74.0216 6.09207L63.2111 6.08593ZM49.9031 15.221H57.9248L61.665 8.74853H67.1952L72.7134 15.221H81.96L75.9542 8.67491C83.0899 8.2884 86.5982 6.39882 87.7637 4.3804C89.286 1.74234 90.5288 0.0368101 82.412 0.0368101L58.7156 0L55.1954 6.08593H50.795L49.2549 8.75466H53.6493L49.9031 15.221ZM88.4416 8.92645L93.609 0H101.625L96.7546 8.40497C95.2086 11.0798 98.2056 12.7302 103.124 12.8529C108.249 12.7302 113.102 11.0798 114.66 8.40497L119.524 0H127.539L122.324 9.01233C120.285 12.5277 112.037 15.5339 102.19 15.5339H97.0103C87.1512 15.5339 86.3544 12.5277 88.3821 9.01233L88.4416 8.92645ZM131.523 15.221L138.796 2.66873H128.003L129.549 0H159.144L157.581 2.66873H146.812L139.545 15.221H131.523ZM174.052 9.81602H164.538L172.125 4.98163L174.052 9.81602ZM147.656 15.1964H156.141L160.613 12.3375H174.997L176.157 15.2026H184.69L177.911 0H161.446L159.989 2.52149H168.433L147.656 15.1964ZM187.11 15.1964H216.408L218.787 11.0553H210.789L209.938 12.5277H196.666L203.962 0H195.917L187.11 15.1964ZM221.891 15.1964H251.194L253.573 11.0614H245.587L244.731 12.5338H231.447L233.653 8.73012H242.673L244.213 6.06753H235.181L237.173 2.64419H250.421L249.571 4.11659H257.587L260.001 0H230.721L227.153 6.0798H222.759L221.219 8.74853H225.613L221.891 15.1964Z" fill="black"/>
<path d="M209.268 25H253L251.465 28.1658H220.601C220.601 28.1658 218.581 28.2563 218.581 30.4271C218.581 32.598 220.601 32.5075 220.601 32.5075H240.558C241.366 32.5075 245.567 32.7789 245.567 36.5779C245.567 41.4118 236.679 43 231.993 43H192L194.101 39.7437H227.711C227.711 39.7437 229.893 39.9246 229.893 37.4824C229.893 35.3116 227.711 35.3116 227.711 35.3116H210.725C206.139 35.3116 202.629 33.0401 201.854 31.8824C207.1 30.8874 207.814 27.6471 209.268 25Z" fill="black"/>
</g>
<defs>
<clipPath id="clip0_55_2156">
<rect width="260" height="43" fill="white"/>
</clipPath>
</defs>
</svg>
