<svg width="128" height="30" viewBox="0 0 128 30" fill="none" xmlns="http://www.w3.org/2000/svg">
<path d="M53.0034 4.88184C53.1412 4.88184 53.1815 4.93227 53.1244 5.03313L44.4929 18.2615H52.8572C53.3483 18.2612 53.8318 18.1396 54.2645 17.9073C54.6973 17.675 55.066 17.3393 55.3377 16.9301L60.4651 9.19378C61.3113 7.89782 62.4628 6.82962 63.8184 6.08304C65.174 5.33646 66.6923 4.93437 68.2396 4.91209L70.6343 4.88184C70.762 4.88184 70.7974 4.93227 70.7403 5.03313L59.1442 22.523C58.9329 22.8362 58.6473 23.0922 58.3131 23.2682C57.9788 23.4442 57.6061 23.5347 57.2284 23.5316H40.9233C40.6896 23.5317 40.4592 23.4759 40.2513 23.3689C40.0435 23.2619 39.8642 23.1067 39.7284 22.9164L37.2479 19.4265C37.0819 19.1943 36.9901 18.9172 36.9846 18.6318C36.9792 18.3464 37.0605 18.0661 37.2176 17.8278L43.5802 8.06915C44.2043 7.11559 45.0531 6.32995 46.0517 5.78123C47.0504 5.23251 48.1685 4.93753 49.3078 4.92218L53.0034 4.88184Z" fill="black"/>
<path d="M110.178 4.90631C110.306 4.90631 110.341 4.95674 110.284 5.05761L105.973 11.6642L114.015 11.5986C114.685 11.5958 115.344 11.426 115.932 11.1046C116.52 10.7832 117.019 10.3204 117.383 9.75788L117.887 8.95601C118.683 7.73203 119.768 6.7234 121.047 6.0196C122.326 5.3158 123.758 4.93859 125.218 4.92144C126.655 4.92144 127.855 4.92144 127.855 4.92144C127.992 4.92144 128.033 4.97187 127.976 5.07274L117.887 20.4646C117.265 21.4134 116.417 22.1924 115.419 22.7312C114.42 23.27 113.304 23.5518 112.17 23.5511H108.585C108.447 23.5511 108.412 23.5006 108.479 23.3998L112.976 16.5612H104.491C103.975 16.5608 103.468 16.6893 103.014 16.935C102.561 17.1808 102.176 17.5359 101.895 17.9682L100.468 20.0965C99.804 21.1153 98.9008 21.9562 97.8375 22.546C96.7742 23.1358 95.5828 23.4566 94.3672 23.4805L90.9842 23.5511H90.9287H90.5859L100.417 8.48699C101.136 7.3831 102.12 6.477 103.279 5.85149C104.438 5.22598 105.735 4.90102 107.052 4.90631H110.178Z" fill="black"/>
<path d="M61.9648 23.4913L63.4118 21.353C64.085 20.3595 64.9956 19.5499 66.061 18.9977C67.1263 18.4455 68.3127 18.1682 69.5123 18.1909H82.8478C83.0699 18.1954 83.2896 18.1443 83.4868 18.0421C83.6841 17.9399 83.8526 17.7899 83.9771 17.6059L84.7031 16.4006H72.9861C72.2349 16.4006 71.9778 16.1938 71.4736 15.4625L69.7745 13.1124C69.6741 12.8598 69.6404 12.5856 69.6766 12.3162C69.7128 12.0469 69.8177 11.7913 69.9812 11.5742L73.4096 6.48562C74.0045 5.71905 75.4566 4.97266 77.1153 4.97266H99.4251L99.0318 5.54758C98.2321 6.73518 97.1479 7.70352 95.8779 8.36423C94.608 9.02493 93.1928 9.35695 91.7616 9.32999H78.9959C78.8114 9.32594 78.6288 9.36756 78.4643 9.45115C78.2999 9.53473 78.1586 9.6577 78.0531 9.8091L76.7422 11.5541L88.4593 11.5793C88.7432 11.6218 89.013 11.7308 89.2469 11.8973C89.4808 12.0638 89.6722 12.2831 89.8054 12.5375L91.7616 15.2003C91.8632 15.4018 91.9021 15.6291 91.8733 15.8529C91.8446 16.0767 91.7495 16.2868 91.6003 16.4561L87.7282 22.2558C87.4657 22.6435 87.1105 22.9596 86.695 23.1754C86.2794 23.3911 85.8166 23.4997 85.3485 23.4913H61.9648Z" fill="black"/>
<path d="M41.277 3.28314C40.5913 2.27449 40.0115 1.46758 39.593 0.922912C39.3744 0.635515 39.0922 0.402644 38.7685 0.242531C38.4449 0.0824178 38.0886 -0.000590931 37.7276 3.59646e-06H19.2848C18.0247 -0.00116538 16.7806 0.282649 15.6456 0.830223C14.5107 1.3778 13.5141 2.17496 12.7305 3.1621C12.4045 3.52106 12.1078 3.90557 11.8432 4.31195L8.40461 9.51151L0 21.7816H3.59477C4.73623 21.7791 5.86005 21.4998 6.86988 20.9675C7.87971 20.4352 8.74543 19.6659 9.39279 18.7255L17.3084 7.17146C17.6935 6.61232 18.2085 6.155 18.8092 5.83877C19.4098 5.52254 20.0782 5.35684 20.757 5.3559H33.5883L31.1934 9.02736C30.8727 9.52006 30.434 9.92481 29.9171 10.2049C29.4003 10.4849 28.8217 10.6315 28.2339 10.6311H19.1588C17.7489 10.6364 16.3986 11.2004 15.4035 12.1995C14.4085 13.1987 13.8498 14.5515 13.8498 15.9618H16.5018H18.5487C19.1816 15.9652 19.8045 16.1204 20.3651 16.4144C20.9257 16.7083 21.4076 17.1325 21.7704 17.6513L25.7584 23.2644C27.0647 25.103 28.7924 26.6019 30.7967 27.6355C32.8011 28.6691 35.0238 29.2074 37.2788 29.2053L27.8861 15.9769H32.2673C32.8582 15.9792 33.4401 15.8332 33.9598 15.5521C34.4795 15.271 34.9204 14.8639 35.242 14.3681L38.0553 10.0562L41.2971 5.08861C41.4702 4.81852 41.5606 4.50367 41.557 4.18286C41.5534 3.86204 41.4561 3.54929 41.277 3.28314Z" fill="black"/>
</svg>
