<svg width="305" height="20" viewBox="0 0 305 20" fill="none" xmlns="http://www.w3.org/2000/svg">
<path d="M98.087 0.12673L104.542 0.128061C104.542 0.128061 99.7496 9.60673 97.5336 13.9161C96.1083 16.3641 93.059 18.1081 88.8456 18.8801C84.799 19.6214 80.8683 19.6094 77.615 18.9041C74.0123 18.1227 72.7776 16.4201 74.1843 13.8041C75.8176 10.5787 81.1123 0.122728 81.1123 0.122728L87.703 0.124063C87.703 0.124063 83.3603 9.00806 81.371 12.8547C80.7643 14.0307 80.3176 15.0907 82.051 15.5494C83.955 16.0521 86.4096 16.1174 88.911 15.2307C90.4056 14.7014 91.0163 13.8467 91.491 13.0027C93.1523 10.0547 98.087 0.12673 98.087 0.12673Z" fill="#131415"/>
<path d="M25.96 3.62747L27.7227 0.139473L9.73467 0.135475L9.68667 0.228807L7.944 3.69547L5.85733 7.84214L5.252 9.04747L4.2 11.1395L2.57867 14.3635L1.508 16.4915L0 19.4888L17.912 19.4941L19.7013 15.9341L8.40267 15.9315L9.25333 14.2408L10.7267 11.3115L19.3907 11.3128L21.1813 7.75414L12.4907 7.80481L14.584 3.62747H25.96Z" fill="#131415"/>
<path d="M112.544 3.63773C114.043 3.58706 115.889 3.54973 117.34 3.58173C119.069 3.62039 119.532 4.09506 119.249 5.08573C119.205 5.24306 119.148 5.39506 119.081 5.54173C118.992 5.68706 118.615 6.34439 118.492 6.50173C117.716 7.49239 116.747 7.96706 114.977 8.00439C113.488 8.03639 111.679 7.99773 110.231 7.94573L112.544 3.63773ZM119.699 19.3124L117.38 11.1951C117.703 11.1551 118.025 11.1111 118.348 11.0591C120.757 10.6737 122.736 9.75639 123.861 8.29106C124.428 7.55106 125.203 6.29373 125.635 5.54306H125.636C126.005 4.79239 126.305 4.04039 126.528 3.30039C126.969 1.83373 125.971 0.916393 123.973 0.529726C122.757 0.295059 121.412 0.17906 120.071 0.0870609C116.536 -0.154274 111.636 0.139061 107.42 0.549726L97.8813 19.4324L104.541 19.4351L108.321 11.4977C108.949 11.5324 109.932 11.5524 110.565 11.5657L112.632 19.3111L119.699 19.3124Z" fill="#131415"/>
<path d="M60.4697 15.8442C58.9271 15.9442 56.0444 15.9228 54.8591 15.6002L60.7111 4.0095C61.3017 3.72816 64.3711 3.42683 67.4364 3.56016C69.1604 3.63483 69.6111 4.07216 69.2977 5.06016C69.2524 5.20416 66.3737 12.0335 63.9764 14.3442C63.4044 14.8948 62.2271 15.7308 60.4697 15.8442ZM70.9164 13.8522C72.6231 11.2708 74.4924 7.93616 75.6284 5.5495C75.6391 5.53883 75.6604 5.5295 75.6671 5.5175H75.6684C76.0631 4.76816 76.3857 4.0175 76.6324 3.27883C77.1217 1.81483 76.1511 0.900164 74.1671 0.513496C72.9577 0.27883 71.3764 -0.0251694 67.7964 0.00149727C61.7657 0.0468311 55.6884 0.574831 55.6884 0.574831L46.2817 19.1522C46.2817 19.1522 53.5217 19.5482 57.4671 19.4015C61.2711 19.2602 62.2684 19.1282 63.7444 18.8935C66.1657 18.5082 68.1737 17.5935 69.3444 16.1295C69.9364 15.3908 70.4644 14.6402 70.9204 13.8908C70.9284 13.8762 70.9137 13.8655 70.9164 13.8522Z" fill="#131415"/>
<path d="M135.743 15.8652C135.3 15.8652 134.857 15.8666 134.416 15.8652C133.973 15.8666 133.532 15.8652 133.089 15.8652C131.337 15.8652 130.937 15.0999 131.117 14.3639C131.343 13.4426 132.176 11.5532 133.044 9.71724C134.004 7.88124 135.052 5.9919 135.744 5.07057C136.297 4.33324 137.459 3.56924 139.211 3.56924C139.653 3.56924 140.096 3.5679 140.537 3.56924C140.98 3.5679 141.421 3.56924 141.864 3.56924C143.616 3.56924 144.016 4.33324 143.836 5.07057C143.611 5.9919 142.779 7.88124 141.909 9.71724C140.949 11.5532 139.901 13.4426 139.209 14.3639C138.656 15.0999 137.495 15.8652 135.743 15.8652ZM148.331 9.71724C148.339 9.70257 148.345 9.6879 148.353 9.67324C149.733 6.88524 150.975 3.69324 151.068 3.28524C151.403 1.8199 150.331 0.903902 148.297 0.51857C147.059 0.28257 145.699 0.167904 144.345 0.0772362C143.663 0.030571 142.315 -9.72748e-05 142.315 -9.72748e-05C142.315 -9.72748e-05 140.935 0.030571 140.207 0.0772362C138.761 0.167904 137.287 0.28257 135.815 0.51857C133.397 0.903902 131.413 1.8199 130.289 3.28524C129.976 3.69324 128.04 6.88524 126.645 9.67324C126.639 9.6879 126.629 9.70257 126.623 9.71724C126.616 9.7319 126.608 9.74657 126.6 9.76124C125.22 12.5479 123.979 15.7399 123.885 16.1492C123.551 17.6146 124.623 18.5292 126.656 18.9159C127.895 19.1506 129.255 19.2652 130.608 19.3572C131.291 19.4039 132.639 19.4346 132.639 19.4346C132.639 19.4346 134.019 19.4039 134.747 19.3572C136.192 19.2652 137.667 19.1506 139.139 18.9159C141.556 18.5292 143.54 17.6146 144.664 16.1492C144.977 15.7399 146.913 12.5479 148.309 9.76124C148.316 9.74657 148.324 9.7319 148.331 9.71724Z" fill="#131415"/>
<path d="M48.5063 0.588261C47.2956 0.353594 45.905 0.049593 42.325 0.0775928C36.2956 0.122927 30.553 0.649593 30.553 0.649593L21.0503 19.4336H27.605L35.369 4.07626C35.957 3.79493 38.941 3.43493 42.0076 3.56826C43.733 3.64293 44.173 4.13893 43.8663 5.12426C43.853 5.16826 36.581 19.4336 36.581 19.4336H43.049L50.0476 5.58026C50.4356 4.83359 50.753 4.08426 50.9943 3.34693C51.4703 1.88693 50.493 0.973593 48.5063 0.588261Z" fill="#131415"/>
<path d="M206.708 2.23612L207.665 0.344118H193.011L192.964 0.434784L191.259 3.80412L189.217 7.83479L188.625 9.00545L187.595 11.0388L186.008 14.1735L184.961 16.2401L183.487 19.1535L198.143 19.1548L199.1 17.2628H187.699L189.325 14.0508L191.296 10.1588H200.54L201.499 8.26678L192.228 8.31878L195.307 2.23612H206.708Z" fill="#131415"/>
<path d="M303.694 2.23612L304.653 0.344118H289.997L289.95 0.434784L288.245 3.80412L286.203 7.83479L285.611 9.00545L284.581 11.0388L282.994 14.1735L281.947 16.2401L280.473 19.1535L295.129 19.1548L296.086 17.2628H284.685L286.311 14.0508L288.282 10.1588H297.526L298.485 8.26678L289.214 8.31878L292.293 2.23612H303.694Z" fill="#131415"/>
<path d="M222.277 19.1543L223.273 17.189H211.871L220.437 0.270296H217.182L207.666 19.065L222.277 19.1543Z" fill="#131415"/>
<path d="M240.805 17.199C240.251 17.199 239.696 17.2003 239.143 17.199C238.587 17.2003 238.033 17.199 237.48 17.199C235.284 17.199 234.772 16.275 234.989 15.3843C235.261 14.271 236.281 11.9883 237.347 9.76963C238.528 7.55096 239.819 5.2683 240.675 4.15496C241.359 3.2643 242.807 2.3403 245.003 2.3403C245.557 2.3403 246.112 2.33896 246.665 2.3403C247.22 2.33896 247.773 2.3403 248.328 2.3403C250.525 2.3403 251.035 3.2643 250.819 4.15496C250.547 5.2683 249.527 7.55096 248.461 9.76963C247.28 11.9883 245.988 14.271 245.133 15.3843C244.448 16.275 243.001 17.199 240.805 17.199ZM251.749 9.76963C251.756 9.75496 251.764 9.74163 251.772 9.72696H251.771C253.133 7.02296 254.419 3.92696 254.529 3.53096C254.927 2.10963 254.132 1.22163 252.508 0.846962C251.519 0.618963 250.42 0.508295 249.324 0.418962C248.772 0.373629 246.549 0.373629 245.952 0.418962C244.767 0.508295 243.555 0.618963 242.335 0.846962C240.332 1.22163 238.637 2.10963 237.596 3.53096C237.305 3.92696 235.455 7.02296 234.08 9.72696C234.072 9.74163 234.065 9.75496 234.059 9.76963C234.051 9.7843 234.044 9.79896 234.036 9.8123C232.673 12.5163 231.389 15.6123 231.279 16.0083C230.881 17.4296 231.676 18.3176 233.3 18.6923C234.289 18.9203 235.388 19.0323 236.483 19.1203C237.036 19.1656 239.259 19.1656 239.856 19.1203C241.041 19.0323 242.252 18.9203 243.472 18.6923C245.476 18.3176 247.171 17.4296 248.212 16.0083C248.503 15.6123 250.353 12.5163 251.728 9.8123C251.735 9.79896 251.743 9.7843 251.749 9.76963Z" fill="#131415"/>
<path d="M271.874 14.1696C271.573 14.6483 271.292 15.067 271.048 15.3843C270.362 16.275 268.916 17.199 266.72 17.199C266.165 17.199 265.61 17.2003 265.057 17.199C264.502 17.2003 263.948 17.199 263.394 17.199C261.198 17.199 260.686 16.275 260.904 15.3843C261.176 14.271 262.197 11.9883 263.261 9.76963C264.444 7.55096 265.734 5.2683 266.589 4.15496C267.273 3.2643 268.721 2.3403 270.917 2.3403C271.472 2.3403 272.026 2.33896 272.58 2.3403C273.134 2.33896 273.689 2.3403 274.242 2.3403C276.44 2.3403 276.95 3.2643 276.733 4.15496C276.658 4.45896 276.525 4.8563 276.353 5.3083H279.73C280.128 4.37896 280.396 3.70163 280.444 3.53096C280.841 2.10963 280.046 1.22163 278.422 0.846964C277.433 0.618963 276.334 0.508297 275.24 0.418964C274.686 0.373631 272.464 0.373631 271.866 0.418964C270.681 0.508297 269.47 0.618963 268.25 0.846964C266.246 1.22163 264.552 2.10963 263.51 3.53096C263.22 3.92696 261.37 7.02296 259.994 9.72696C259.988 9.74163 259.98 9.75496 259.973 9.76963C259.966 9.7843 259.958 9.79896 259.95 9.8123C258.588 12.5163 257.304 15.6123 257.193 16.0083C256.796 17.4296 257.59 18.3176 259.214 18.6923C260.204 18.9203 261.302 19.0323 262.398 19.1203C262.95 19.1656 265.173 19.1656 265.77 19.1203C266.956 19.0323 268.168 18.9203 269.388 18.6923C271.39 18.3176 273.085 17.4296 274.126 16.0083C274.254 15.8336 274.688 15.131 275.249 14.1696H271.874Z" fill="#131415"/>
<path d="M176.598 5.85514L166.637 16.7711L166.693 7.92447L163.066 8.68314L163.078 19.1538H167.751L180.937 4.94847L176.598 5.85514Z" fill="#131415"/>
</svg>
