<svg width="270" height="30" viewBox="0 0 270 30" fill="none" xmlns="http://www.w3.org/2000/svg">
<path fill-rule="evenodd" clip-rule="evenodd" d="M224.956 23.3218C224.536 23.967 224.117 24.6122 223.666 25.2251C223.311 25.7624 222.864 26.2321 222.344 26.6123H229.243L224.956 23.3218ZM247.908 29.4834H254.936L249.681 24.3541C255.935 24.0315 258.965 22.5475 259.997 20.9668C261.029 19.3861 258.74 17.515 251.615 17.515H246.135C246.112 17.8499 246.001 18.1726 245.813 18.4506C245.481 18.9001 245.078 19.2924 244.62 19.6119H245.523C251.1 19.6119 249.327 22.2895 243.814 22.2895H238.495L247.908 29.4834Z" fill="black"/>
<path fill-rule="evenodd" clip-rule="evenodd" d="M231.661 27.0006H238.688L233.982 21.8391C240.236 21.5165 243.298 20.0325 244.33 18.4518C245.651 16.3549 243.04 15 235.916 15H211.061C211.258 15.3907 211.347 15.8272 211.319 16.264C211.291 16.7008 211.146 17.1221 210.9 17.484L207.322 22.7423C206.975 23.2772 206.526 23.7378 206 24.0972H215.542L220.055 17.0969H229.791C235.4 17.0969 233.595 19.8067 228.082 19.7744H222.183L231.661 27.0006Z" fill="black"/>
<path d="M45.616 5.0876L47.2784 2.6372C47.8358 1.77235 48.4988 0.965153 49.037 0.0906943L49.0946 0.00420936H66.1322C68.4288 0.00420936 71.8978 0.0810849 73.9831 1.03242C75.3188 1.63781 75.905 2.65641 75.0209 3.97291C74.0787 5.10063 72.8255 5.92611 71.4173 6.34644C69.0776 7.10955 66.6413 7.53662 64.1814 7.61488L66.5261 10.0461L69.1783 12.7848L69.4858 13.1115H61.5004L61.4427 13.0442C60.6259 12.1409 59.7995 11.2473 58.9923 10.344L56.6476 7.69176H50.5456C49.9306 8.55661 49.3156 9.43107 48.7102 10.3151L46.8652 13.025L46.8076 13.1115H40.081L40.2924 12.804L42.1374 10.1037C42.6851 9.30614 43.2329 8.49895 43.7998 7.70137H39.7639L39.956 7.40348C40.4557 6.65394 40.9746 5.91401 41.4839 5.16448L41.5416 5.0876H45.616ZM6.95723 5.0876C7.51458 4.2708 8.08154 3.454 8.62928 2.6372C9.17701 1.82039 9.79202 0.965153 10.3878 0.0906943L10.4455 0.00420936H10.5512C17.8063 0.00420936 25.071 0.00420936 32.3358 0.00420936C34.5555 0.00420936 38.1783 0.388587 38.9663 2.88704C39.1085 3.51887 39.1126 4.17395 38.9782 4.8075C38.8439 5.44105 38.5743 6.03811 38.1879 6.55785C36.8116 8.49966 34.9447 10.0416 32.7778 11.0262C29.9407 12.3863 26.8335 13.0892 23.6873 13.0827C16.3745 13.0827 9.07131 13.0827 1.75853 13.0827H1.41259L1.624 12.7752L3.46901 10.0749L5.11222 7.69176H0L0.182579 7.40348C0.663051 6.63472 1.14352 5.89479 1.69126 5.16448L1.74892 5.07799H6.93801L6.95723 5.0876ZM96.2577 10.7187C96.546 11.4779 96.8631 12.237 97.2187 12.9866V13.1115H104.416L104.291 12.8328C103.33 10.7283 102.369 8.60466 101.408 6.48097C100.447 4.35728 99.4865 2.24321 98.5256 0.119523V0.00420936H84.2267L84.1787 0.0906943C83.679 0.782574 83.2177 1.48406 82.718 2.19516L82.5259 2.49305H89.8963L80.7001 7.44191C77.4136 9.21966 74.108 10.9686 70.8216 12.7463L70.1585 13.1115H77.7115C79.1145 12.3235 80.5175 11.5259 81.9301 10.7476L96.2577 10.7187ZM189.056 2.61798H178.995L179.206 2.32008C179.716 1.57055 180.235 0.830621 180.754 0.0906943L180.802 0.00420936H207.593L207.391 0.302102C206.882 1.04203 206.372 1.78196 205.873 2.53149L205.815 2.61798H195.802L192.266 7.77824C191.064 9.52716 189.854 11.2761 188.662 13.025L188.604 13.1115H181.801L182.003 12.804C183.204 11.0647 184.396 9.30614 185.606 7.55723L189.037 2.61798H189.056ZM206.516 7.69176C205.959 8.48934 205.411 9.29653 204.864 10.1037C204.316 10.9109 203.643 11.9007 203.028 12.804L202.826 13.1019H229.3L229.358 13.0154L230.53 11.2857C230.924 10.7091 231.318 10.1326 231.732 9.5656L231.953 9.2581H225.168L225.111 9.34458C224.842 9.71935 224.582 10.1037 224.332 10.4881H211.379C212.013 9.52716 212.657 8.62387 213.301 7.70137H221.651L221.709 7.61488C222.199 6.86535 222.718 6.12542 223.227 5.3951L223.391 5.09721H215.05L216.76 2.61798H229.675C229.454 2.92548 229.233 3.23298 229.031 3.57892L228.868 3.84798H235.643L235.691 3.7615L236.844 2.0318C237.238 1.45523 237.651 0.878668 238.064 0.311711L238.285 0.00420936H211.859L211.802 0.0906943C211.206 0.936325 210.6 1.77235 210.033 2.6372C209.467 3.50204 208.9 4.26119 208.352 5.0876H204.277L204.22 5.16448C203.701 5.9044 203.192 6.64433 202.692 7.40348L202.5 7.69176H206.536H206.516ZM258.725 7.61488L261.088 10.0461C261.982 11.007 262.876 11.8815 263.779 12.7752L264.106 13.1019H256.063L256.005 13.0442C255.179 12.1409 254.333 11.2569 253.516 10.3344L251.2 7.69176H245.127C244.512 8.55661 243.897 9.43107 243.301 10.3151C242.706 11.1992 242.071 12.1121 241.466 13.0154L241.408 13.1019H234.634L236.671 10.0941C237.219 9.28693 237.786 8.48934 238.343 7.69176H234.269L234.48 7.39387C234.989 6.64433 235.508 5.9044 236.017 5.16448L236.075 5.07799H240.13C240.678 4.26119 241.264 3.454 241.802 2.62759C242.34 1.80117 242.984 0.965153 243.57 0.0906943L243.628 0.00420936H260.675C262.962 0.00420936 266.441 0.0906944 268.497 1.03242C269.823 1.63781 270.496 2.6468 269.574 3.97291C268.628 5.10091 267.371 5.92625 265.96 6.34644C263.621 7.11031 261.184 7.5374 258.725 7.61488ZM132.456 7.69176H127.296L127.498 7.39387C127.988 6.65394 128.459 5.91401 128.997 5.1837V5.10682H140.98L140.769 5.41432C140.25 6.13503 139.808 6.87496 139.27 7.60527C138.664 8.50856 138.03 9.39263 137.434 10.3055C136.838 11.2184 136.214 12.1025 135.618 13.0154L135.56 13.1019H135.455C128.046 13.1019 120.637 13.1019 113.228 13.1019C111.037 13.1019 107.193 12.7271 106.501 10.219C106.376 9.54151 106.405 8.84457 106.584 8.17941C106.764 7.51425 107.09 6.89778 107.539 6.37527C109.052 4.4622 111.012 2.95073 113.247 1.97414C116.004 0.693773 119.01 0.0375423 122.049 0.0522565C129.401 0.0522565 136.742 0.0522565 144.084 0.0522565H144.449L144.247 0.359759C143.853 0.926715 143.44 1.49367 143.065 2.07985C142.691 2.66602 142.287 3.21376 141.922 3.80955L141.864 3.89603H135.138L135.339 3.59814C135.541 3.28103 135.743 2.97353 135.954 2.6372H122.895C119.743 2.6372 115.573 3.99213 113.641 6.60589C113.386 6.89349 113.196 7.23326 113.084 7.60164C112.973 7.97002 112.944 8.35818 112.997 8.73919C113.401 10.2383 115.88 10.4881 117.168 10.5169H130.554C131.188 9.55599 131.813 8.64309 132.476 7.72059L132.456 7.69176ZM148.293 10.4785C148.495 10.171 148.706 9.86349 148.927 9.5656L149.148 9.2581H142.354L142.297 9.34458C141.903 9.92115 141.489 10.4881 141.115 11.0743C140.74 11.6605 140.336 12.2178 139.971 12.804L139.779 13.1019H158.219C161.384 13.1563 164.54 12.7517 167.589 11.9007C169.116 11.4298 171.327 10.5458 172.268 9.20044C172.554 8.81978 172.694 8.34927 172.662 7.87434C172.374 5.31823 166.628 5.10682 164.725 5.10682H155.586C154.991 5.10682 152.319 5.02034 152.262 4.21314C152.262 3.75189 153.222 3.31947 153.54 3.19454C154.821 2.76632 156.167 2.56471 157.518 2.59876H168.713L168.088 3.5597L167.896 3.85759H174.623L174.68 3.77111C175.046 3.18493 175.459 2.62759 175.833 2.04141C176.208 1.45523 176.612 0.888278 176.996 0.321321L177.265 0.00420936H159.584C156.47 -0.0453438 153.365 0.342827 150.359 1.15734C148.86 1.59938 146.621 2.46423 145.679 3.7615C145.4 4.10511 145.26 4.54025 145.285 4.9819C145.554 7.54762 151.848 7.69176 153.741 7.69176H162.39C163.063 7.69176 165.561 7.80707 165.638 8.72958C165.638 9.24849 164.792 9.69052 164.398 9.84427C163.078 10.3061 161.683 10.5179 160.285 10.4689L148.293 10.4785ZM54.1204 2.60837C53.5438 3.43478 52.9768 4.25158 52.4099 5.0876H63.1821C64.4505 5.0876 67.6216 4.86658 68.3904 3.7615C69.1591 2.65641 65.6229 2.61798 65.152 2.61798L54.1204 2.60837ZM15.452 2.60837C14.491 3.95369 13.5301 5.2894 12.6172 6.65394C11.7043 8.01848 10.8587 9.21005 9.98421 10.4977H22.8128C24.8479 10.4669 26.853 10.0017 28.6938 9.13317C30.038 8.53003 31.1961 7.5777 32.0475 6.37527C32.2545 6.08492 32.3998 5.75514 32.4742 5.40636C32.5485 5.05758 32.5505 4.69724 32.4799 4.34767C32.0283 2.8486 29.7124 2.61798 28.4055 2.61798L15.452 2.60837ZM86.3696 8.22989L89.8002 6.308L93.644 4.13627L94.4608 6.21191C94.7298 6.88457 94.9989 7.55723 95.2584 8.22989H86.3696ZM246.905 5.09721H257.716C258.974 5.09721 262.184 4.8858 262.943 3.77111C263.702 2.65641 260.156 2.62759 259.676 2.62759H248.625L246.905 5.09721Z" fill="black"/>
</svg>
