<svg width="325" height="104" viewBox="0 0 325 104" fill="none" xmlns="http://www.w3.org/2000/svg">
<path d="M267.424 103.323C267.019 103.299 265.581 103.158 264.229 103.008C251.878 101.646 240.889 96.9234 233.579 89.838C225.453 81.9606 222.677 71.8351 225.945 61.9916C227.287 57.9513 229.972 53.6136 233.324 50.0728L234.394 48.942H235.975H237.557L236.012 50.4477C227.483 58.7612 224.665 68.9189 228.285 78.2988C229.736 82.0574 231.77 85.0312 235.121 88.2958C242.132 95.1242 252.467 99.4935 265.082 100.963C266.625 101.143 268.204 101.198 271.908 101.202C276.815 101.207 278.229 101.121 281.879 100.595C297.514 98.3419 310.868 90.9532 317.623 80.8184C321.619 74.8228 323.007 68.1847 321.573 61.9247C320.721 58.2071 318.837 54.3886 316.395 51.4315C313.808 48.2981 309.79 44.9715 306.104 42.9108C305.405 42.5199 304.811 42.1839 304.784 42.1644C304.717 42.1163 305.18 40.1985 305.285 40.0872C305.395 39.971 307.791 41.3394 309.691 42.6036C314.992 46.1299 318.988 50.4702 321.501 55.4333C326.822 65.9382 324.335 78.0141 314.894 87.525C306.059 96.4258 292.274 102.176 277.128 103.278C275.432 103.402 269.25 103.43 267.424 103.323ZM267.027 99.6601C256.657 98.6799 247.902 95.532 240.89 90.262C239.85 89.4804 239.451 89.1017 239.451 88.8958C239.451 87.7956 240.34 81.8344 241.015 78.4127C241.29 77.0181 241.401 76.6693 241.524 76.8066C241.611 76.903 242.423 78.2467 243.329 79.7926C244.235 81.3385 244.986 82.6161 244.997 82.6318C245.008 82.6476 245.347 82.5725 245.748 82.4652C247.724 81.9371 248.875 81.8114 251.789 81.8058L254.691 81.7995L255.499 80.1264C256.363 78.3375 256.864 77.1049 257.444 75.3459C257.799 74.2705 257.818 74.2441 258.299 74.1626C259.309 73.9917 261.109 73.5483 262.423 73.1467L263.779 72.7323L264.86 69.9772C265.454 68.4619 265.923 67.2041 265.901 67.182C265.879 67.1601 265.174 67.4674 264.334 67.8651C262.84 68.5724 259.304 69.9545 258.988 69.9545C258.882 69.9545 258.854 69.8093 258.905 69.5195C259.384 66.7798 259.464 62.1678 259.08 59.381C258.676 56.4554 257.975 53.7 256.961 51.0493C256.742 50.4788 256.53 50.012 256.489 50.012C256.449 50.012 255.893 50.2212 255.254 50.4768C253.22 51.2903 251.969 51.5265 249.623 51.5396C248.482 51.5459 247.217 51.5034 246.811 51.4453L246.074 51.3392L244.738 53.5866C239.907 61.7162 235.977 71.5676 233.952 80.6232C233.726 81.6382 233.525 82.4837 233.506 82.5021C233.428 82.5804 231.819 79.5636 231.382 78.5203C230.148 75.571 229.753 73.5141 229.75 70.0214C229.747 66.8745 229.937 65.6115 230.821 62.9087C232.614 57.4242 236.652 52.0813 242.165 47.8966L243.072 47.2083L243.692 47.682C244.513 48.3084 245.331 48.7135 246.548 49.0955C247.402 49.3635 247.814 49.4081 249.355 49.3992C250.921 49.3898 251.322 49.3403 252.359 49.0245C256.163 47.8658 259.514 44.9981 262.749 40.1319C263.737 38.6462 263.946 38.401 264.001 38.6596C264.037 38.8304 264.159 39.438 264.271 40.01C264.774 42.5749 265.884 44.932 267.31 46.4584C269.343 48.6352 271.814 49.5954 274.979 49.4381C277.26 49.3248 279.635 48.5604 281.74 47.2621C282.272 46.9342 282.725 46.6659 282.746 46.6659C282.768 46.6659 282.664 47.1498 282.515 47.7413C282.367 48.3327 282.288 48.8597 282.341 48.9124C282.394 48.965 287.066 49.0254 292.725 49.0463L303.013 49.0844L303.149 48.5777C303.224 48.2991 303.475 47.258 303.707 46.2643C303.94 45.2705 304.169 44.3839 304.217 44.2941C304.318 44.1038 307.222 46.0093 308.875 47.3511C310.059 48.3119 312.758 50.8957 312.948 51.2497C313.05 51.4397 312.852 51.7135 311.898 52.7035C310.815 53.8272 309.081 55.3317 309.004 55.2145C307.386 52.741 305.052 51.4804 302.101 51.4864C297.023 51.4975 292.306 55.4125 291.394 60.3757C291.22 61.324 291.208 63.1299 291.372 63.8352L291.489 64.3413L290.264 65.3531C289.591 65.9096 288.57 66.64 287.997 66.9761C287.424 67.3122 286.933 67.6231 286.905 67.667C286.83 67.7885 286.27 73.4261 286.32 73.5631C286.396 73.7746 289.518 71.1639 291.422 69.2965L293.269 67.4852L293.623 67.9502C295.101 69.8877 297.249 70.7612 300.081 70.5766C302.913 70.392 305.32 69.294 307.305 67.2818C309.58 64.9743 310.806 61.6343 310.408 58.823C310.323 58.2218 310.269 57.718 310.287 57.7034C310.679 57.3924 315.549 54.9643 315.68 55.0145C315.966 55.1245 317.663 58.6657 318.134 60.1379C319.412 64.1292 319.547 68.3451 318.529 72.4066C317.39 76.9451 314.943 81.1301 311.126 85.0639C303.519 92.9045 292.722 97.8198 279.47 99.4741C277.378 99.7353 269.13 99.8588 267.027 99.6601ZM266.893 91.1799C271.799 90.1399 277.555 86.2715 279.862 82.4644C280.978 80.6244 281.296 78.6675 280.686 77.4063C280.323 76.6571 279.349 75.766 278.683 75.5734C277.251 75.1593 275.277 75.2905 272.54 75.9818C271.686 76.1974 270.976 76.3601 270.963 76.3433C270.933 76.3057 272.439 73.5949 272.554 73.4801C272.6 73.4349 273.008 73.5021 273.462 73.6293C273.973 73.7727 274.759 73.8609 275.525 73.8609C279.776 73.8609 283.644 70.7753 284.785 66.4752C285.22 64.8368 285.039 62.3379 284.358 60.5735C284.217 60.2086 286.405 59.3698 289.025 58.7844L289.411 58.6979L289.337 57.6679C289.259 56.6026 288.773 54.3104 288.585 54.1217C288.526 54.0627 287.171 54.9262 285.574 56.0406L282.671 58.0668L282.203 57.7096C281.472 57.1521 280.154 56.6091 278.927 56.3606C274.751 55.5145 270.346 57.8866 268.49 61.9813C267.067 65.1181 267.486 68.8928 269.505 71.1385L270.108 71.8093L268.264 73.3781C267.25 74.241 266.337 75.0236 266.235 75.1173C266.078 75.2614 266.076 75.6942 266.219 77.9415C266.312 79.4012 266.427 80.6385 266.473 80.6911C266.52 80.7435 266.932 80.5258 267.39 80.2072C270.649 77.9392 273.93 77.6339 275.153 79.4848C275.474 79.9701 275.521 80.1721 275.52 81.0548C275.518 81.9499 275.465 82.1655 275.065 82.9071C273.651 85.5238 268.993 88.0168 265.416 88.0713C264.288 88.0885 264.077 88.0528 263.543 87.7554C262.305 87.0662 262.187 85.9643 263.156 84.1452L263.717 83.0921L262.935 82.2017L262.154 81.3114L261.902 81.6227C260.153 83.7861 259.301 86.1076 259.657 87.7401C260.262 90.5199 263.267 91.9485 266.893 91.1799ZM274.986 69.0999C273.558 68.4228 272.735 67.0856 272.734 65.442C272.732 63.0923 274.684 60.9712 277.045 60.7572C278.7 60.6072 280.291 61.5311 280.95 63.0249C281.436 64.1278 281.39 65.5146 280.829 66.6546C279.705 68.9374 277.017 70.0626 274.986 69.0999ZM247.504 79.7369C247.185 79.1585 246.573 78.1515 246.145 77.499C245.637 76.7258 245.42 76.2837 245.52 76.2295C245.605 76.1838 246.187 76.1054 246.812 76.0552C247.438 76.0051 248.567 75.8594 249.322 75.7313C250.076 75.6032 250.694 75.5457 250.694 75.6035C250.694 75.9525 248.319 80.802 248.153 80.7925C248.115 80.7909 247.823 80.3153 247.504 79.7369ZM144.15 77.3196L140.33 77.2496L142.689 68.7986C143.986 64.1507 145.126 60.1602 145.221 59.931C145.558 59.1163 146.986 58.1857 148.648 57.6973C149.34 57.4939 150.228 57.4574 155.532 57.4146C158.882 57.3876 164.573 57.4141 168.18 57.4736L174.738 57.5817L175.542 57.9536C176.53 58.4114 177.186 59.0258 177.292 59.5938C177.353 59.9148 176.772 62.1714 175.001 68.5028C173.696 73.1664 172.599 77.0874 172.563 77.2162C172.502 77.4374 171.816 77.4488 160.234 77.4201C153.489 77.4033 146.251 77.3582 144.15 77.3196ZM164.777 67.4122L166.74 60.3855L161.45 60.3504C158.54 60.3311 156.132 60.3425 156.099 60.3765C156.065 60.41 155.171 63.5276 154.111 67.3044C153.052 71.0811 152.156 74.2472 152.122 74.34C152.072 74.4745 153.154 74.5017 157.437 74.4739L162.815 74.439L164.777 67.4122ZM84.3905 77.1857L80.5045 77.1157L82.8731 68.6836C84.1758 64.046 85.2319 60.2419 85.2199 60.23C85.2079 60.2174 83.7907 61.0463 82.0704 62.0703C80.3501 63.0944 78.8981 63.9322 78.8438 63.9322C78.7207 63.9322 79.3079 61.4038 79.4682 61.2436C79.5325 61.1794 81.0508 60.2523 82.8424 59.1835L86.0998 57.2401H91.4377C94.3735 57.2401 96.7767 57.2853 96.778 57.3405C96.7794 57.3957 95.5331 61.9129 94.0085 67.3787L91.2364 77.3164L89.7565 77.2861C88.9425 77.2693 86.5278 77.2241 84.3905 77.1857ZM99.7674 76.9126C99.9496 76.0013 104.442 60.0847 104.628 59.6895C104.87 59.1772 105.396 58.757 106.479 58.2119C108.22 57.3357 107.844 57.3559 121.536 57.4006L133.917 57.4409L134.72 57.7619C135.793 58.1908 136.66 59.0423 136.66 59.6664C136.66 60.0227 132.566 75.0257 131.963 76.8815L131.821 77.3164H115.754H99.6867L99.7674 76.9126ZM124.02 67.6799C125.058 63.9624 125.949 60.7552 126 60.5528L126.092 60.1847H120.758H115.425L113.462 67.1785C112.382 71.0251 111.498 74.2481 111.498 74.3406C111.498 74.4734 112.616 74.5015 116.815 74.4739L122.133 74.439L124.02 67.6799ZM180.889 76.9484C180.973 76.6014 185.438 60.5405 185.601 59.9979C185.758 59.4727 186.722 58.6161 187.619 58.2039C189.495 57.3413 188.92 57.374 202.198 57.374C210.523 57.374 214.496 57.4202 214.985 57.5225C215.96 57.7264 217.219 58.4152 217.52 58.909C217.656 59.1322 217.768 59.5255 217.768 59.7831C217.768 60.1717 213.189 76.903 212.996 77.2162C212.962 77.2713 205.704 77.3165 196.867 77.3165H180.799L180.889 76.9484ZM203.314 74.2047C203.424 73.9457 206.885 61.5781 207.135 60.5528L207.224 60.1847H201.931C199.02 60.1847 196.609 60.2312 196.574 60.2881C196.539 60.345 195.659 63.4317 194.618 67.1475C193.578 70.8633 192.696 74.0067 192.659 74.1329C192.579 74.4059 193.101 74.4331 199.268 74.4775L203.186 74.5059L203.314 74.2047ZM242.262 73.2245C242.262 72.9577 243.809 67.7651 244.452 65.873C245.917 61.5634 247.111 58.8297 247.903 57.9703C248.75 57.0509 249.605 56.6584 250.783 56.6471C251.64 56.6392 251.802 56.6804 252.314 57.0407C253.481 57.8606 253.859 59.4044 253.723 62.7946C253.678 63.8988 253.549 65.4046 253.437 66.1407C253.181 67.8101 252.335 71.3325 252.123 71.6075C251.871 71.9358 247.006 72.8514 244.202 73.0982C243.687 73.1436 243.04 73.2131 242.764 73.2528C242.488 73.2925 242.262 73.2796 242.262 73.2245ZM298.917 65.0215C295.578 63.8679 294.908 59.6636 297.624 56.9045C299.436 55.0629 302.105 54.7111 304.06 56.056C304.713 56.5053 305.412 57.4544 305.222 57.6346C305.051 57.7976 302.666 58.5786 302.34 58.5786C302.09 58.5786 302.077 58.6351 302.163 59.3482C302.215 59.7715 302.271 60.1353 302.29 60.1567C302.325 60.1979 304.654 59.8594 305.423 59.7013L305.879 59.6074L305.795 60.3156C305.619 61.805 304.331 63.7246 302.976 64.5169C301.701 65.2628 300.167 65.4535 298.917 65.0215ZM24.3832 53.9945C24.5423 53.6817 27.2866 48.4043 30.4818 42.2671C33.6769 36.1299 36.2655 31.0828 36.2341 31.0515C36.2027 31.0202 28.1444 29.2473 18.3267 27.1119C8.50896 24.9765 0.265493 23.1741 0.00784754 23.1066C-0.280593 23.031 7.40078 22.9953 19.9978 23.0136L40.4562 23.0435L43.7476 16.698C45.5578 13.2079 47.0564 10.4073 47.0776 10.4743C47.0988 10.5413 47.4467 13.3902 47.8507 16.805C48.2546 20.2198 48.6032 23.0319 48.6252 23.0539C48.6473 23.0761 52.097 19.0073 56.2914 14.0124C60.4857 9.01747 63.9275 4.94075 63.9399 4.953C63.9522 4.96565 63.253 9.7935 62.386 15.6824C61.5189 21.5714 60.8194 26.4028 60.8314 26.4189C60.8904 26.4985 64.3861 23.463 64.3877 23.3307C64.3915 23.0152 67.3054 5.15591 67.3624 5.09894C67.3951 5.06621 68.8735 4.74809 70.6478 4.39192L73.8737 3.74433L73.8067 4.0919C73.6805 4.74692 71.3701 20.5005 71.3963 20.5278C71.4107 20.542 74.4855 16.3099 78.2293 11.1214C81.973 5.93284 85.1027 1.64507 85.1841 1.59298C85.3522 1.48549 93.1904 -0.0603179 93.2525 0.00182378C93.2747 0.0239551 89.6473 5.21667 85.1915 11.541C80.7357 17.8654 77.1377 23.0508 77.1958 23.064C77.254 23.0767 80.4698 23.1181 84.342 23.1546L91.3823 23.2211L91.466 21.7589C91.6316 18.8651 92.4819 15.6132 93.7569 12.9985C95.8405 8.7253 99.1441 6.11261 102.464 6.11261C104.265 6.11261 106.033 6.8601 107.516 8.24886L108.466 9.13929L107.634 12.4777C107.176 14.3139 106.743 16.0366 106.672 16.3061L106.542 16.796L105.775 15.9908C103.491 13.5961 101.381 12.8052 99.6185 13.6837C97.6467 14.6663 96.7424 17.4047 97.7959 19.2025C97.9885 19.531 98.9364 20.5748 99.9026 21.5221L101.659 23.2444H105.22H108.781L110.743 15.4481C111.821 11.1601 112.767 7.42595 112.844 7.14989L112.983 6.64798H115.462C117.76 6.64798 117.936 6.66504 117.871 6.8822C117.729 7.35892 113.774 23.0686 113.774 23.1549C113.774 23.204 114.06 23.2515 114.409 23.2602L115.045 23.276L114.399 23.4103C113.946 23.5047 113.717 23.6296 113.631 23.8295C113.311 24.5806 111.869 30.8098 111.733 32.0322C111.388 35.1194 112.291 37.4957 113.992 37.9718C116.248 38.6036 118.798 36.7544 120.579 33.1955C121.483 31.3869 122.045 29.4134 124.963 17.791L127.76 6.64933L130.203 6.64861C131.776 6.64815 132.645 6.6965 132.645 6.78455C132.645 7.1844 126.564 30.9374 126.087 32.3988C124.622 36.8917 122.828 40.2064 120.566 42.596C118.399 44.8851 116.222 46.0136 113.581 46.2165C109.912 46.4986 107.485 44.7403 106.534 41.1122C106.175 39.7422 106.047 36.7026 106.268 34.7486C106.468 32.9648 107.196 29.3699 107.877 26.7956C108.168 25.6939 108.387 24.7732 108.364 24.7497C108.313 24.6991 103.326 25.7509 103.248 25.8286C103.219 25.8579 103.297 26.2972 103.423 26.8049C103.789 28.2893 103.73 30.926 103.282 33.0817C101.271 42.7474 95.175 48.2844 89.5481 45.5551C88.5536 45.0727 86.5417 43.1855 86.3939 42.5963C86.334 42.358 86.6154 40.999 87.2495 38.4636C88.4799 33.5438 88.3522 33.847 88.8119 34.756C89.7276 36.5663 90.9882 38.0781 92.0162 38.5991C92.8071 38.9999 94.0426 39.1371 94.8627 38.9151C96.1617 38.5636 97.2315 37.1989 97.6519 35.357C98.1033 33.3793 97.7934 32.7452 95.0606 30.0552L92.9377 27.9656L82.0413 30.2713C76.0482 31.5394 70.9524 32.6194 70.7172 32.6711C70.3353 32.755 69.7845 33.4815 65.5685 39.4608C62.9719 43.1435 60.832 46.1057 60.8131 46.0435C60.7942 45.9814 61.1911 43.3407 61.6951 40.1754C62.1991 37.01 62.599 34.405 62.5839 34.3866C62.5398 34.3327 59.7029 34.9763 59.6202 35.059C59.5789 35.1002 59.1569 37.7708 58.6824 40.9936C58.2079 44.2163 57.8064 46.8618 57.7902 46.8724C57.641 46.9704 50.8298 48.4133 50.7751 48.3586C50.7352 48.3187 51.1632 45.2313 51.7263 41.4979C52.2894 37.7644 52.7031 34.6687 52.6455 34.6185C52.5879 34.5682 51.4679 34.2951 50.1567 34.0114L47.7725 33.4956L46.7306 34.6249L45.6887 35.7542L45.4684 34.7526C45.3473 34.2017 45.2119 33.564 45.1676 33.3356C45.0897 32.934 45.0463 32.9111 43.8618 32.6429C42.9264 32.4312 42.6015 32.4028 42.4886 32.5229C42.4072 32.6094 40.0047 37.1673 37.1495 42.6515C34.2944 48.1357 31.8916 52.69 31.8099 52.7722C31.6851 52.898 24.6372 54.5634 24.2299 54.5634C24.1551 54.5634 24.2241 54.3074 24.3832 53.9945ZM28.9637 52.2332C30.0563 51.9846 30.9977 51.7296 31.0555 51.6666C31.1134 51.6035 34.1922 45.7549 37.8973 38.6696C41.6024 31.5844 44.6676 25.7873 44.7088 25.7873C44.7499 25.7873 45.1061 27.3684 45.5003 29.3007C45.8945 31.233 46.2546 32.9109 46.3006 33.0294C46.3613 33.186 47.6189 31.8445 50.9171 28.1042C53.4103 25.277 55.4764 22.99 55.5085 23.0221C55.5405 23.0542 54.8037 28.4205 53.871 34.9473C52.9383 41.4741 52.1999 46.8388 52.2301 46.869C52.2818 46.9207 56.7425 45.7887 56.8294 45.7018C56.9048 45.6264 62.1278 9.29741 62.0714 9.24099C62.0407 9.21032 58.8323 12.9483 54.9416 17.5477C51.0509 22.147 47.8567 25.8975 47.8433 25.8822C47.83 25.8663 47.4979 23.2493 47.1055 20.0656C46.713 16.8818 46.36 14.2772 46.3211 14.2775C46.2821 14.2778 42.4558 21.6382 37.8182 30.6339C33.1806 39.6296 28.7087 48.3035 27.8806 49.9091C26.5794 52.4321 26.4159 52.8187 26.676 52.7568C26.8416 52.7174 27.871 52.4818 28.9637 52.2332ZM76.7567 21.6567C84.3918 10.8089 90.6684 1.85615 90.7047 1.76159C90.7512 1.6405 90.0265 1.74531 88.2539 2.11612C86.8697 2.40567 85.7005 2.68551 85.6557 2.73799C85.6108 2.79048 81.9397 7.87614 77.4974 14.0394C73.0552 20.2027 69.4107 25.2318 69.3984 25.2152C69.3861 25.1986 70.0662 20.7391 70.9096 15.3052C71.753 9.87131 72.4155 5.39793 72.382 5.36437C72.3009 5.28327 68.4931 6.09765 68.3861 6.21893C68.3403 6.27078 67.0884 14.0527 65.604 23.512C64.1197 32.9713 62.8699 40.8914 62.8268 41.1122C62.7837 41.3331 62.7769 41.4837 62.8115 41.4469C62.8462 41.41 69.1216 32.5045 76.7567 21.6567ZM61.3839 33.5482C62.1047 33.3999 62.7233 33.2497 62.7585 33.2145C62.8569 33.116 64.1349 25.358 64.0644 25.2874C63.9461 25.1691 60.6273 27.9931 60.5691 28.2615C60.537 28.4098 60.3573 29.5851 60.1698 30.8733C59.9823 32.1615 59.7991 33.3511 59.7626 33.5167C59.6804 33.8899 59.7197 33.8907 61.3839 33.5482ZM53.4464 30.0703C53.7033 28.2667 53.8989 26.7742 53.881 26.7535C53.8536 26.7218 50.3607 30.5581 49.021 32.0913L48.5999 32.5732L50.7042 33.0436C51.8616 33.3023 52.8469 33.4769 52.8939 33.4317C52.9408 33.3865 53.1895 31.8738 53.4464 30.0703ZM44.8105 31.6429C44.7759 31.5509 44.638 31.0088 44.5041 30.4383C44.3702 29.8678 44.2121 29.4011 44.1529 29.4011C44.0124 29.4011 43.0658 31.2803 43.1592 31.3737C43.2235 31.4379 44.4756 31.7707 44.7589 31.7988C44.8219 31.8052 44.8452 31.7349 44.8105 31.6429ZM82.1698 29.1387C87.7183 27.9644 92.2908 26.9707 92.331 26.9305C92.3713 26.8902 92.2707 26.5714 92.1076 26.2219C91.9445 25.8725 91.7346 25.2854 91.6412 24.9173L91.4714 24.2482L83.8939 24.2135L76.3165 24.1789L73.8311 27.7128C72.4641 29.6565 71.3456 31.288 71.3456 31.3383C71.3456 31.3887 71.5113 31.3947 71.7137 31.3525C71.9161 31.3095 76.6214 30.313 82.1698 29.1387ZM38.3604 27.1195C39.1902 25.5403 39.8594 24.2403 39.8475 24.2308C39.8356 24.2213 32.9899 24.1797 24.6348 24.1386C16.2797 24.0975 9.53405 24.0944 9.64447 24.1323C10.0363 24.2653 36.6156 30.0367 36.7326 30.0143C36.7981 30.0016 37.5306 28.6988 38.3604 27.1195ZM103.936 24.5237L104.739 24.3425L103.635 24.3283C102.622 24.3156 102.38 24.3869 102.62 24.6269C102.745 24.7522 103.015 24.7316 103.936 24.5237ZM273.715 46.2614C270.13 45.7011 268.077 42.892 267.419 37.6474C267.196 35.8691 267.324 32.2386 267.687 30.0703C269.008 22.1762 272.214 15.25 276.722 10.5486C279.463 7.68926 282.401 6.2426 285.454 6.24839C287.529 6.25155 289.313 6.94743 290.577 8.24425C291.848 9.54951 291.843 9.13426 290.65 13.8406C290.076 16.105 289.562 18.0407 289.509 18.1423C289.438 18.2752 289.293 18.1549 288.99 17.7152C287.986 16.2559 286.511 15.0684 285.193 14.6581C282.974 13.9674 280.795 14.7013 278.582 16.8853C276.07 19.3647 274.451 22.5628 273.364 27.1927C273.023 28.6425 272.986 29.0332 272.987 31.2079C272.988 33.4609 273.011 33.6858 273.344 34.676C274.424 37.8893 276.777 38.9482 280.058 37.6985C280.868 37.39 283.282 35.8421 284.821 34.6444C285.298 34.2731 285.707 33.9875 285.729 34.0099C285.752 34.0321 285.31 35.9104 284.748 38.1837C283.742 42.2541 283.719 42.3236 283.238 42.7663C281.871 44.0235 278.813 45.6839 277.195 46.0476C276.012 46.3134 274.602 46.4 273.715 46.2614ZM189.445 44.0233C189.489 42.7903 189.591 34.0119 189.67 24.5158C189.75 15.0197 189.842 7.11472 189.875 6.94908C189.935 6.64914 189.945 6.64793 192.542 6.64793H195.149L195.138 9.62592C195.132 11.2638 195.054 16.2176 194.966 20.6344C194.877 25.0512 194.822 28.69 194.844 28.7207C194.865 28.7514 194.902 28.7514 194.926 28.7207C194.949 28.6901 197.31 23.7111 200.171 17.6564L205.373 6.64793H208.018H210.663L210.502 7.02321C210.414 7.22962 206.125 16.143 200.972 26.8308L191.603 46.2632L190.484 46.2641L189.364 46.265L189.445 44.0233ZM247.201 45.9574C243.916 44.8375 242.112 40.8182 242.114 34.6209C242.115 25.625 246.301 15.2674 252.203 9.65004C254.568 7.39975 256.597 6.39811 259.038 6.27555C260.601 6.19714 261.555 6.37592 262.645 6.95113C267.525 9.52751 268.303 20.7377 264.315 31.0072C262.164 36.5443 258.714 41.6154 255.38 44.1409C254.316 44.9469 252.642 45.7913 251.569 46.0631C250.337 46.3751 248.281 46.3253 247.201 45.9574ZM252.64 38.0269C255.954 37.164 259.026 32.7171 260.654 26.4267C261.284 23.9914 261.452 22.7571 261.452 20.5675C261.452 18.6757 261.42 18.3974 261.092 17.4086C260.629 16.0101 260.019 15.209 259.059 14.7393C258.394 14.4141 258.208 14.383 257.258 14.438C255.842 14.5201 254.753 15.0521 253.429 16.3105C251.193 18.434 249.464 21.7705 248.354 26.1028C246.716 32.4992 247.458 36.9927 250.316 37.9796C251.196 38.2836 251.621 38.2923 252.64 38.0269ZM206.827 45.7633C204.748 45.7426 203.049 45.7115 203.053 45.6943C203.058 45.677 205.273 36.8996 207.976 26.1889L212.892 6.71487L220.096 6.68023C225.842 6.65256 227.289 6.67973 227.24 6.81413C227.206 6.90676 226.794 8.5335 226.324 10.429L225.47 13.8755H220.755H216.039L215.907 14.3774C215.623 15.4536 214.021 21.9023 214.021 21.9691C214.021 22.008 216.032 22.0398 218.489 22.0398H222.956L222.061 25.62L221.165 29.2003L216.661 29.2356L212.157 29.2708L212.025 29.7709C211.593 31.4053 209.872 38.3847 209.872 38.499C209.872 38.5901 211.468 38.6362 214.623 38.6362C217.237 38.6362 219.375 38.6672 219.375 38.705C219.375 38.7428 218.976 40.369 218.488 42.3187L217.601 45.8638L214.105 45.8325C212.182 45.8152 208.907 45.784 206.827 45.7633ZM221.382 45.7249C221.382 45.6486 223.581 36.8656 226.268 26.2071C228.955 15.5486 231.153 6.78748 231.153 6.73795C231.153 6.68847 232.267 6.64786 233.629 6.64786C234.991 6.64786 236.105 6.68405 236.105 6.72847C236.105 6.81573 228.248 38.0155 228.129 38.4019C228.061 38.6221 228.36 38.6361 233.135 38.6361H238.212L237.381 41.8818C236.923 43.6669 236.508 45.2931 236.458 45.4955L236.368 45.8636H228.875C223.794 45.8636 221.382 45.819 221.382 45.7249ZM289.586 34.5205C291.159 28.2818 293.372 19.5034 294.504 15.013L296.561 6.84867L303.742 6.81405C307.691 6.79493 310.922 6.82511 310.922 6.88092C310.922 6.93672 310.53 8.50843 310.052 10.3735C309.574 12.2386 309.183 13.7895 309.183 13.82C309.183 13.8505 307.078 13.8753 304.506 13.8753C301.934 13.8753 299.797 13.9279 299.757 13.9921C299.684 14.111 297.672 21.9165 297.672 22.0826C297.672 22.1326 299.697 22.1734 302.17 22.1734C305.711 22.1734 306.656 22.2089 306.61 22.3407C306.579 22.4327 306.168 24.0288 305.698 25.8875L304.843 29.267L300.354 29.2673L295.866 29.2675L294.736 33.7176C294.115 36.165 293.581 38.2729 293.55 38.4018C293.496 38.6215 293.786 38.636 298.259 38.636C302.71 38.636 303.026 38.6518 303.025 38.8702C303.023 39.0607 302.018 43.1057 301.417 45.338L301.276 45.8635H294.001H286.726L289.586 34.5205ZM127.321 45.5625C127.353 45.4705 129.573 36.6749 132.254 26.0168L137.129 6.6384L142.148 6.67666C147.02 6.71381 147.183 6.72344 147.715 7.00813C148.861 7.62142 149.597 8.84643 149.987 10.7884C150.286 12.2842 150.188 15.3675 149.779 17.2884C148.896 21.4407 146.857 25.5979 144.588 27.8718C142.758 29.7063 141.733 30.0703 138.394 30.0703H136.168L134.332 37.3981C133.323 41.4285 132.438 44.9519 132.365 45.2279L132.233 45.7298H129.748C127.818 45.7298 127.276 45.6925 127.321 45.5625ZM141.377 22.6837C142.614 22.3131 143.717 20.82 144.338 18.6763C145.09 16.0841 144.899 14.6743 143.726 14.142C143.274 13.9366 142.849 13.8807 141.723 13.8783L140.295 13.8752L140.156 14.3101C140.079 14.5494 139.59 16.4616 139.069 18.5596C138.548 20.6576 138.09 22.4795 138.051 22.6083C137.987 22.8212 138.111 22.8426 139.413 22.8426C140.201 22.8426 141.084 22.7712 141.377 22.6837ZM146.163 45.5993C146.163 45.5013 154.977 10.3878 155.814 7.14982L155.944 6.64791H163.099C167.935 6.64791 170.255 6.69282 170.255 6.78624C170.255 6.90291 169.057 11.7803 168.637 13.3735L168.505 13.8754L163.792 13.876L159.079 13.8767L158.087 17.791C157.541 19.9438 157.068 21.7805 157.035 21.8725C156.988 22.0042 157.933 22.0398 161.474 22.0398C163.948 22.0398 165.972 22.0719 165.972 22.1112C165.972 22.1784 164.639 27.55 164.354 28.6298L164.223 29.1299L159.724 29.1652L155.225 29.2004L154.043 33.818C153.393 36.3577 152.86 38.4807 152.858 38.5359C152.857 38.5911 155.017 38.6363 157.659 38.6363H162.462L161.574 42.1497L160.685 45.663L153.424 45.6976C148.687 45.7202 146.163 45.6864 146.163 45.5993ZM168.196 30.6391C170.288 22.3392 172.499 13.5608 173.11 11.1316L174.22 6.71482L178.889 6.67958C184.139 6.6399 184.506 6.68591 185.477 7.51854C187.361 9.13112 187.809 13.4864 186.585 18.2921C185.723 21.6749 184.069 24.6206 181.906 26.6232L180.963 27.4959L181.22 28.0804C181.776 29.3468 181.834 30.1232 181.805 36.0262C181.791 39.118 181.739 42.5661 181.691 43.6887L181.603 45.7298H178.941H176.278V44.7594C176.278 44.2257 176.34 41.8991 176.416 39.5891C176.622 33.3239 176.386 31.0589 175.445 30.2671C175.085 29.9641 174.938 29.9294 174.16 29.9641L173.282 30.0033L171.443 37.3646C170.432 41.4134 169.537 44.9518 169.456 45.2279L169.307 45.7298H166.849H164.392L168.196 30.6391ZM178.658 22.5018C179.362 22.2088 180.249 21.3002 180.705 20.4064C181.665 18.5215 182.094 15.8033 181.584 14.8398C181.163 14.0439 180.701 13.8765 178.926 13.8759L177.359 13.8754L177.226 14.3773C176.797 16.0028 175.207 22.4567 175.207 22.5716C175.207 22.8026 178.074 22.7447 178.658 22.5018Z" fill="black"/>
</svg>
