<svg width="323" height="31" viewBox="0 0 323 31" fill="none" xmlns="http://www.w3.org/2000/svg">
<g clip-path="url(#clip0_582_2)">
<path d="M309.166 29.4991H308.452L308.744 28.8558C308.776 28.7333 308.841 28.6107 308.874 28.4882C308.906 28.3656 308.874 28.4269 308.841 28.3963C308.835 28.3897 308.827 28.3845 308.819 28.381C308.811 28.3774 308.802 28.3755 308.792 28.3755C308.783 28.3755 308.774 28.3774 308.766 28.381C308.757 28.3845 308.75 28.3897 308.744 28.3963L308.094 28.8252L307.284 29.4072H307.154L306.83 28.8558C306.756 28.6965 306.669 28.5428 306.57 28.3963H306.473C306.44 28.3963 306.408 28.3963 306.408 28.4575L306.213 28.9171L305.921 29.5604H305.208C305.37 29.1927 305.532 28.8558 305.662 28.4882C305.791 28.1205 305.986 27.7836 306.116 27.4466H306.862C306.968 27.6572 307.087 27.8617 307.219 28.0593L307.51 28.5801H307.673L308.452 28.0286L309.328 27.416H310.074C309.912 27.753 309.782 28.1205 309.62 28.4575L309.166 29.5297" fill="black"/>
<path d="M305.597 27.8763H303.165C303.1 27.8763 303.067 27.9069 303.067 27.9375C303.067 27.9681 303.034 28.0295 303.002 28.06V28.1519H305.305L305.111 28.6421H302.808L302.71 28.7034C302.71 28.7647 302.677 28.7953 302.646 28.8566C302.613 28.9178 302.646 28.9178 302.677 28.9178L302.742 28.9791H305.144C305.078 29.1323 304.981 29.2855 304.917 29.4692H301.964C301.93 29.4718 301.896 29.4644 301.867 29.4479C301.838 29.4314 301.815 29.4068 301.802 29.3774C301.776 29.3303 301.764 29.2771 301.77 29.2241C301.899 28.9485 302.029 28.6727 302.126 28.397C302.224 28.1214 302.418 27.7844 302.548 27.478C302.555 27.4429 302.576 27.4114 302.605 27.389C302.636 27.3666 302.672 27.3548 302.71 27.3555H305.824C305.762 27.5242 305.687 27.6881 305.597 27.8456" fill="black"/>
<path d="M302.126 27.8755H300.828L300.731 27.9367L300.407 28.672L300.05 29.4991H299.368L299.693 28.672L300.017 27.9981C300.019 27.9814 300.017 27.9648 300.011 27.9489C300.005 27.9331 299.997 27.9185 299.985 27.9061H298.688L298.914 27.416H302.353C302.264 27.5734 302.188 27.7373 302.126 27.9061" fill="black"/>
<path d="M297.974 28.8571C297.879 29.0352 297.733 29.184 297.552 29.286C297.345 29.4295 297.094 29.5049 296.838 29.5004H294.21C294.275 29.3167 294.372 29.1634 294.437 29.0103H297.065C297.11 29.0059 297.153 28.989 297.187 28.9617C297.222 28.9345 297.247 28.898 297.26 28.8571C297.292 28.7345 297.292 28.6733 297.195 28.6733H295.281C295.181 28.6812 295.08 28.6689 294.985 28.6372C294.889 28.6055 294.802 28.5552 294.729 28.4895C294.684 28.4213 294.658 28.3437 294.653 28.2636C294.647 28.1834 294.662 28.1033 294.697 28.03C294.811 27.8477 294.966 27.6909 295.151 27.5705C295.367 27.4497 295.613 27.3862 295.865 27.3867H298.46L298.266 27.8769H295.638C295.589 27.8793 295.54 27.895 295.5 27.9222C295.46 27.9493 295.429 27.9867 295.411 28.03C295.378 28.1525 295.378 28.1832 295.476 28.1832H297.39C297.493 28.1771 297.596 28.1932 297.692 28.2304C297.787 28.2675 297.872 28.3247 297.941 28.3976C297.986 28.4658 298.012 28.5434 298.018 28.6235C298.024 28.7037 298.008 28.7839 297.974 28.8571Z" fill="black"/>
<path d="M294.405 28.03C294.322 28.2227 294.173 28.3841 293.983 28.4895C293.765 28.6106 293.521 28.6839 293.269 28.704H292.653L292.458 29.1022C292.384 29.2271 292.33 29.3612 292.296 29.5004H291.582C291.647 29.3473 291.679 29.2248 291.744 29.1022L291.939 28.704H291.29C291.187 28.7101 291.083 28.6939 290.988 28.6567C290.893 28.6196 290.807 28.5624 290.738 28.4895C290.694 28.4213 290.667 28.3437 290.662 28.2636C290.656 28.1834 290.671 28.1033 290.706 28.03L290.836 27.7236L290.998 27.3867H291.712L291.55 27.7236L291.42 28.03C291.355 28.1525 291.387 28.2138 291.485 28.2138H293.497C293.593 28.2138 293.658 28.1525 293.723 28.03L293.853 27.7236C293.885 27.6011 293.95 27.5092 293.983 27.3867H294.697C294.665 27.5092 294.599 27.6011 294.567 27.7236C294.534 27.8462 294.469 27.9381 294.405 28.03Z" fill="black"/>
<path d="M290.058 28.8573C289.964 29.0354 289.817 29.1842 289.636 29.2862C289.429 29.4297 289.179 29.5051 288.923 29.5006H286.294C286.383 29.3432 286.459 29.1793 286.521 29.0105H289.149C289.195 29.0111 289.241 28.996 289.277 28.9679C289.312 28.9398 289.336 28.9005 289.344 28.8573C289.409 28.7347 289.376 28.7042 289.279 28.7042H287.365C287.262 28.7081 287.16 28.691 287.064 28.6539C286.969 28.6169 286.883 28.5609 286.813 28.4897C286.768 28.4272 286.742 28.3547 286.736 28.2794C286.73 28.2041 286.746 28.1287 286.781 28.0608C286.877 27.8659 287.036 27.705 287.236 27.6013C287.442 27.4578 287.693 27.3824 287.949 27.3869H290.544L290.35 27.877H287.722C287.624 27.877 287.559 27.9383 287.495 28.0608C287.43 28.1834 287.463 28.214 287.592 28.214H289.474C289.574 28.204 289.676 28.2154 289.771 28.2471C289.867 28.279 289.954 28.3304 290.025 28.3978C290.081 28.4618 290.113 28.5404 290.119 28.6227C290.125 28.705 290.103 28.787 290.058 28.8573Z" fill="black"/>
<path fill-rule="evenodd" clip-rule="evenodd" d="M318.737 14.3965H297.195V14.4272C294.697 14.4272 292.881 14.611 291.809 14.9785C291.291 15.1489 290.815 15.4193 290.413 15.7727C290.011 16.1261 289.691 16.5546 289.474 17.0311L288.89 18.2564C288.403 19.2367 288.533 19.9106 289.247 20.2783C289.961 20.6458 291.583 20.8297 294.08 20.8297H307.317C307.361 20.8297 307.409 20.8189 307.455 20.8087C307.614 20.7735 307.739 20.7458 307.512 21.1973C307.366 21.4883 307.228 21.741 307.09 21.9938C306.952 22.2465 306.814 22.4993 306.668 22.7903C306.625 22.8956 306.549 22.9864 306.45 23.0517C306.353 23.117 306.237 23.1539 306.117 23.1578H285.678L284.672 25.3329H291.453L306.766 25.2716C309.253 25.2716 311.037 25.0878 312.118 24.7202C312.637 24.5587 313.114 24.2987 313.522 23.9563C313.929 23.6138 314.257 23.1961 314.487 22.729C314.578 22.5462 314.665 22.3672 314.751 22.1907C314.91 21.8642 315.064 21.546 315.233 21.2279C315.752 20.2476 315.623 19.5737 314.941 19.2367C314.228 18.8691 312.606 18.6853 310.074 18.6853H296.839C296.643 18.6853 296.547 18.5015 296.643 18.2871L297.423 16.6941C297.473 16.5928 297.55 16.5057 297.646 16.4412C297.743 16.3768 297.856 16.3372 297.974 16.3264H317.732V16.326C318.055 15.6828 318.38 15.0397 318.737 14.3965ZM285.581 24.7508L286.067 23.7093L306.117 23.7706C306.351 23.7582 306.577 23.6861 306.771 23.5621C306.966 23.438 307.121 23.2666 307.22 23.0659L308.031 21.4729C308.104 21.3531 308.144 21.2171 308.144 21.0786C308.145 20.9401 308.107 20.8039 308.035 20.6832C307.963 20.5627 307.859 20.4618 307.733 20.3908C307.607 20.3198 307.464 20.281 307.317 20.2783H294.08C293.075 20.2783 290.09 20.0945 289.539 19.8187C288.987 19.5431 289.247 18.9304 289.442 18.5321L290.026 17.3067C290.199 16.896 290.466 16.5266 290.808 16.2247C291.151 15.9229 291.558 15.6961 292.005 15.5606C293.432 15.0704 295.703 15.0092 297.195 15.0092H317.763L317.375 15.7751H297.974C297.741 15.7935 297.518 15.8681 297.325 15.9914C297.132 16.1148 296.976 16.2829 296.871 16.4796L296.092 18.1033C296.026 18.2245 295.993 18.36 295.997 18.4966C296.002 18.6332 296.044 18.7664 296.119 18.8832C296.194 19.0002 296.299 19.097 296.425 19.1642C296.551 19.2315 296.694 19.267 296.839 19.2673H310.107C311.081 19.2673 314.13 19.4817 314.649 19.7575C315.168 20.0332 314.908 20.6153 314.714 21.0135L313.936 22.5146C313.739 22.9132 313.46 23.2706 313.115 23.5653C312.769 23.8601 312.364 24.0861 311.924 24.23C310.529 24.6896 308.258 24.7508 306.766 24.7508H285.581Z" fill="black"/>
<path d="M292.035 14.4597C289.958 14.9191 289.374 15.685 288.986 16.4509H266.859C266.629 16.4775 266.41 16.5588 266.223 16.6875C266.036 16.8162 265.886 16.9877 265.789 17.1861C264.978 18.9936 263.907 20.7397 263.096 22.5471C262.902 22.9453 263.096 23.2823 263.486 23.2823L285.059 23.221L284.022 25.4267H257.711C256.283 25.4267 255.667 24.232 256.283 22.8228C257.127 20.9235 258.262 18.9936 259.138 17.0024C259.787 15.5625 261.474 14.3984 262.902 14.3984H292.035V14.4597Z" fill="black"/>
<path fill-rule="evenodd" clip-rule="evenodd" d="M261.118 14.3965H235.91V14.4272C233.316 14.4272 231.466 14.611 230.396 15.0092C229.869 15.1758 229.388 15.4485 228.985 15.8082C228.582 16.1678 228.266 16.606 228.06 17.0923C227.987 17.2711 227.901 17.45 227.814 17.6316V17.6319C227.707 17.8546 227.597 18.0815 227.508 18.3177C227.086 19.298 227.281 20.0025 228.027 20.3702C228.773 20.7377 230.461 20.9216 233.024 20.9216H246.682C246.876 20.9216 246.974 21.0747 246.876 21.2892L246.13 23.0354C246.086 23.1406 246.01 23.2315 245.913 23.2968C245.814 23.3621 245.698 23.399 245.579 23.4029H224.945C224.792 23.774 224.593 24.145 224.397 24.5117V24.5119C224.22 24.8414 224.045 25.1672 223.907 25.486H235.522L246.422 25.4248C249.018 25.4248 250.801 25.2104 251.873 24.8427C252.39 24.6923 252.863 24.4318 253.257 24.0812C253.651 23.7307 253.954 23.2995 254.144 22.8209C254.238 22.6179 254.298 22.4938 254.369 22.3484C254.469 22.1426 254.591 21.894 254.857 21.3198C255.311 20.3395 255.149 19.6656 254.403 19.298C253.656 18.9304 252.002 18.7465 249.407 18.7465H235.781C235.743 18.7465 235.704 18.7501 235.668 18.7534V18.7536C235.49 18.7699 235.365 18.7809 235.554 18.3483C235.658 18.1106 235.782 17.8666 235.907 17.619V17.6188C236.056 17.324 236.209 17.0243 236.332 16.7247C236.377 16.6194 236.452 16.5286 236.55 16.4632C236.648 16.398 236.764 16.361 236.884 16.3571H258.49C258.73 15.8552 259.093 15.4151 259.551 15.0739C260.009 14.7326 260.546 14.5003 261.118 14.3965ZM224.848 24.904L225.367 23.9544H245.579C245.819 23.9464 246.05 23.8726 246.246 23.742C246.442 23.6114 246.593 23.4298 246.682 23.2192C246.941 22.6371 247.201 22.0551 247.428 21.4729C247.496 21.3495 247.528 21.2111 247.523 21.0719C247.517 20.9327 247.472 20.7974 247.392 20.6795C247.314 20.5617 247.204 20.4655 247.073 20.4004C246.943 20.3354 246.797 20.3039 246.649 20.3089H233.024C231.952 20.3089 228.871 20.0945 228.287 19.8187C227.703 19.5431 227.865 18.8691 228.06 18.4708C228.254 18.0726 228.449 17.6744 228.611 17.2455C228.784 16.8348 229.052 16.4653 229.394 16.1635C229.736 15.8616 230.145 15.6348 230.59 15.4993C232.018 15.0092 234.386 14.9785 235.91 14.9785H258.782C258.52 15.2267 258.291 15.5045 258.102 15.8056H236.884C236.644 15.8137 236.412 15.8875 236.216 16.018C236.021 16.1486 235.869 16.3304 235.781 16.5408C235.668 16.8166 235.529 17.0847 235.391 17.3527C235.254 17.6208 235.116 17.8888 235.003 18.1645C234.934 18.2881 234.901 18.4264 234.908 18.5656C234.914 18.7049 234.959 18.8401 235.037 18.9579C235.116 19.0758 235.226 19.172 235.357 19.237C235.487 19.3021 235.633 19.3337 235.781 19.3286H249.407C250.477 19.3286 253.527 19.5431 254.111 19.8187C254.695 20.0945 254.532 20.6153 254.305 21.1361C254.192 21.3964 254.071 21.6415 253.948 21.8866C253.827 22.1316 253.706 22.3767 253.592 22.6371C253.42 23.0347 253.16 23.3934 252.83 23.689C252.5 23.9848 252.107 24.211 251.677 24.3526C250.25 24.8427 247.947 24.904 246.422 24.904H224.848Z" fill="black"/>
<path fill-rule="evenodd" clip-rule="evenodd" d="M261.118 14.3965H235.91V14.4272C233.315 14.4272 231.466 14.611 230.396 15.0092C229.869 15.1759 229.388 15.4485 228.985 15.8082C228.582 16.1678 228.266 16.606 228.06 17.0923C227.987 17.2711 227.901 17.45 227.814 17.6316C227.707 17.8545 227.597 18.0814 227.508 18.3177C227.086 19.298 227.281 20.0025 228.027 20.3702C228.773 20.7378 230.46 20.9216 233.023 20.9216H246.682C246.876 20.9216 246.974 21.0748 246.876 21.2892L246.13 23.0354C246.086 23.1406 246.01 23.2316 245.912 23.2968C245.814 23.3621 245.698 23.399 245.579 23.403H224.945C224.792 23.774 224.593 24.1451 224.396 24.5117C224.219 24.8412 224.045 25.1671 223.906 25.4861H235.522L246.422 25.4249C249.017 25.4249 250.801 25.2104 251.872 24.8428C252.389 24.6923 252.863 24.4318 253.257 24.0812C253.651 23.7307 253.954 23.2995 254.143 22.821C254.237 22.6179 254.298 22.4936 254.369 22.3481C254.469 22.1424 254.591 21.8941 254.857 21.3199C255.311 20.3395 255.149 19.6656 254.403 19.298C253.656 18.9304 252.002 18.7465 249.406 18.7465H235.781C235.743 18.7465 235.704 18.7501 235.668 18.7534C235.49 18.7697 235.365 18.781 235.554 18.3483C235.658 18.1105 235.782 17.8664 235.907 17.6188C236.056 17.324 236.209 17.0244 236.332 16.7248C236.377 16.6195 236.452 16.5286 236.55 16.4633C236.648 16.398 236.764 16.3611 236.884 16.3571H258.49C258.729 15.8552 259.093 15.4152 259.551 15.0739C260.009 14.7326 260.546 14.5003 261.118 14.3965ZM224.848 24.9037L225.367 23.9541H245.579C245.818 23.9461 246.05 23.8723 246.246 23.7417C246.442 23.6111 246.593 23.4295 246.682 23.2189C246.941 22.6369 247.201 22.0548 247.428 21.4727C247.496 21.3492 247.528 21.2109 247.523 21.0716C247.517 20.9324 247.472 20.7971 247.392 20.6792C247.314 20.5615 247.204 20.4652 247.073 20.4001C246.943 20.3352 246.797 20.3036 246.649 20.3086H233.023C231.952 20.3086 228.871 20.0942 228.287 19.8184C227.703 19.5428 227.865 18.8688 228.06 18.4705C228.254 18.0723 228.449 17.6741 228.611 17.2452C228.784 16.8345 229.052 16.465 229.394 16.1632C229.736 15.8613 230.145 15.6346 230.59 15.4991C232.018 15.0089 234.386 14.9783 235.91 14.9783H258.782C258.52 15.2264 258.291 15.5042 258.102 15.8054H236.884C236.644 15.8134 236.412 15.8872 236.216 16.0178C236.021 16.1484 235.869 16.3301 235.781 16.5406C235.668 16.8163 235.529 17.0844 235.391 17.3524C235.253 17.6205 235.116 17.8885 235.003 18.1642C234.934 18.2878 234.901 18.4261 234.908 18.5654C234.914 18.7046 234.959 18.8398 235.037 18.9577C235.116 19.0755 235.226 19.1717 235.357 19.2368C235.487 19.3018 235.633 19.3334 235.781 19.3283H249.407C250.477 19.3283 253.527 19.5428 254.111 19.8184C254.695 20.0942 254.532 20.615 254.305 21.1358C254.192 21.3961 254.071 21.6412 253.948 21.8863C253.827 22.1313 253.706 22.3764 253.591 22.6369C253.42 23.0344 253.16 23.3931 252.83 23.6887C252.5 23.9845 252.107 24.2107 251.677 24.3523C250.25 24.8425 247.947 24.9037 246.422 24.9037H224.848Z" fill="black"/>
<path d="M248.239 27.9061H247.007C246.942 27.9061 246.844 27.9367 246.844 27.9981C246.844 28.0593 246.617 28.4882 246.519 28.7026C246.423 28.9171 246.26 29.2541 246.163 29.5297H245.449L245.806 28.7026L246.098 28.0286C246.105 28.0229 246.111 28.0158 246.114 28.0079C246.118 28 246.12 27.9914 246.12 27.9827C246.12 27.974 246.118 27.9654 246.114 27.9575C246.111 27.9496 246.105 27.9425 246.098 27.9367C246.098 27.9061 246.066 27.9061 246.033 27.9061H244.8C244.89 27.7486 244.965 27.5847 245.027 27.416H248.466C248.404 27.5847 248.329 27.7486 248.239 27.9061Z" fill="black"/>
<path d="M231.724 28.888C231.63 29.0661 231.484 29.2149 231.303 29.3168C231.097 29.4604 230.846 29.5357 230.589 29.5313H227.961C228.026 29.3474 228.124 29.1943 228.189 29.0411H230.816C230.913 29.0411 230.979 28.9798 231.044 28.888C231.108 28.7961 231.044 28.7042 230.946 28.7042H229.065C228.961 28.7103 228.858 28.6941 228.763 28.6569C228.667 28.6198 228.582 28.5626 228.513 28.4897C228.468 28.4215 228.441 28.3439 228.436 28.2638C228.43 28.1836 228.446 28.1035 228.481 28.0302C228.587 27.8509 228.744 27.7027 228.935 27.6013C229.141 27.4578 229.392 27.3824 229.649 27.3869H232.243C232.188 27.5578 232.112 27.7222 232.016 27.877H229.421C229.372 27.8795 229.325 27.8951 229.284 27.9224C229.243 27.9495 229.212 27.9869 229.194 28.0302C229.129 28.1527 229.161 28.214 229.259 28.214H231.173C231.272 28.2079 231.37 28.2242 231.461 28.2615C231.551 28.2988 231.63 28.3561 231.692 28.4284C231.753 28.4901 231.788 28.5692 231.794 28.6528C231.8 28.7364 231.775 28.8193 231.724 28.888Z" fill="black"/>
<path d="M243.534 29.5298H242.561L242.074 28.9171C241.938 28.7877 241.818 28.6439 241.717 28.4882C241.705 28.4757 241.696 28.4611 241.691 28.4454C241.685 28.4296 241.683 28.4129 241.685 28.3962L241.782 28.335H243.404C243.472 28.3366 243.537 28.3161 243.59 28.277C243.644 28.2379 243.682 28.1827 243.696 28.1205C243.761 27.9674 243.729 27.9061 243.599 27.9061H241.458C241.441 27.9061 241.424 27.9126 241.412 27.924C241.4 27.9355 241.393 27.9512 241.393 27.9674L241.036 28.7026C240.939 28.9783 240.809 29.254 240.679 29.5298H239.965L240.452 28.4575L240.939 27.416H243.859C243.963 27.4016 244.069 27.414 244.165 27.4517C244.263 27.4894 244.347 27.5511 244.41 27.6304C244.459 27.7038 244.485 27.7887 244.485 27.8754C244.485 27.9623 244.459 28.0472 244.41 28.1205C244.314 28.3234 244.156 28.4943 243.955 28.6107C243.752 28.7586 243.499 28.8344 243.242 28.8251H242.95L243.242 29.1621L243.534 29.5298Z" fill="black"/>
<path d="M239.674 29.531H238.961C239.008 29.4161 239.062 29.3036 239.122 29.194C239.163 29.0763 239.217 28.9633 239.285 28.857H237.403C237.493 28.6995 237.568 28.5356 237.63 28.3669H239.479C239.537 28.2704 239.58 28.1675 239.609 28.0606C239.674 27.9687 239.641 27.9073 239.545 27.9073H237.533C237.486 27.9068 237.442 27.9219 237.406 27.9499C237.369 27.978 237.346 28.0172 237.338 28.0606L236.982 28.7958C236.887 29.0461 236.779 29.2915 236.657 29.531H235.943L236.3 28.7958C236.394 28.5454 236.503 28.3 236.625 28.0606C236.73 27.8718 236.887 27.7131 237.078 27.601C237.281 27.4764 237.518 27.4124 237.76 27.4172H239.771C239.868 27.4048 239.965 27.4152 240.056 27.4472C240.146 27.4793 240.227 27.5321 240.29 27.601C240.35 27.6627 240.387 27.7418 240.392 27.8254C240.398 27.909 240.374 27.9919 240.323 28.0606C240.229 28.3109 240.12 28.5562 239.998 28.7958C239.904 29.0461 239.796 29.2915 239.674 29.531Z" fill="black"/>
<path d="M235.65 29.5304H234.969L235.261 28.8871C235.301 28.7594 235.356 28.6362 235.423 28.5194C235.425 28.5029 235.423 28.4861 235.417 28.4704C235.411 28.4546 235.403 28.44 235.391 28.4275H235.261L234.612 28.8564L233.801 29.4385H233.671C233.551 29.2614 233.442 29.0772 233.347 28.8871L233.12 28.4275H233.023C232.991 28.4275 232.958 28.4275 232.958 28.4582L232.731 28.9483L232.439 29.5916H231.725L232.211 28.5194L232.699 27.4779H233.444C233.542 27.6923 233.671 27.8762 233.769 28.0906C233.854 28.2703 233.951 28.4443 234.061 28.6114H234.19L235.002 28.06C235.261 27.8455 235.586 27.6618 235.878 27.4473H236.624L236.137 28.4889L235.65 29.5611" fill="black"/>
<path d="M272.798 27.9061H271.565C271.501 27.9061 271.403 27.9367 271.403 27.9981C271.282 28.2271 271.173 28.4624 271.078 28.7026L270.721 29.4991H270.008L270.365 28.7026C270.453 28.4699 270.562 28.2445 270.689 28.0286C270.69 28.0121 270.689 27.9953 270.683 27.9796C270.678 27.9638 270.668 27.9492 270.657 27.9367C270.657 27.9061 270.625 27.9061 270.592 27.9061H269.359C269.415 27.7352 269.491 27.5707 269.586 27.416H273.025C272.929 27.5707 272.854 27.7352 272.798 27.9061Z" fill="black"/>
<path d="M279.19 29.4991H278.476L278.671 29.1008L278.8 28.8252V28.7333H277.081C277.048 28.7333 277.016 28.7333 277.016 28.7945C276.942 28.8977 276.888 29.0115 276.854 29.1315L276.66 29.5297H275.978C276.108 29.1927 276.27 28.8252 276.432 28.4882C276.594 28.1512 276.756 27.7836 276.886 27.4466H277.6L277.405 27.8448L277.308 28.1205C277.276 28.1512 277.276 28.1818 277.308 28.1818L277.373 28.2431H278.995L279.092 28.1818C279.127 28.0619 279.182 27.948 279.255 27.8448C279.294 27.6973 279.349 27.5537 279.417 27.416H280.13C279.968 27.7836 279.806 28.1205 279.676 28.4882L279.19 29.5297" fill="black"/>
<path d="M275.686 29.4993H273.318C273.097 29.5087 272.878 29.4435 272.702 29.3155C272.634 29.2526 272.591 29.17 272.579 29.0811C272.567 28.9921 272.587 28.902 272.637 28.8254L272.799 28.4577C272.864 28.3352 272.897 28.182 272.962 28.0595C273.076 27.8564 273.258 27.6948 273.481 27.5999C273.719 27.4755 273.987 27.4121 274.259 27.4162H276.595L276.401 27.9063H274.032C273.869 27.9063 273.74 27.9369 273.675 28.0595C273.61 28.182 273.577 28.3352 273.513 28.4577L273.35 28.8254C273.285 28.9478 273.35 29.0091 273.546 29.0091H275.881L275.686 29.4993Z" fill="black"/>
<path d="M268.646 28.8558C268.558 29.0561 268.397 29.2195 268.191 29.3153C267.975 29.4361 267.729 29.4996 267.478 29.4991H265.499C265.397 29.5091 265.296 29.4977 265.2 29.4659C265.105 29.4342 265.019 29.3826 264.947 29.3153C264.892 29.2513 264.859 29.1727 264.854 29.0904C264.847 29.0081 264.869 28.9261 264.915 28.8558C265.009 28.6054 265.117 28.36 265.239 28.1205C265.334 27.8803 265.441 27.6451 265.563 27.416H266.277C266.179 27.6611 266.05 27.8755 265.952 28.1205L265.628 28.8558C265.563 28.9477 265.595 29.0089 265.693 29.0089H267.704C267.754 29.0064 267.802 28.9908 267.842 28.9637C267.882 28.9365 267.913 28.8991 267.931 28.8558L268.256 28.1205C268.354 27.8755 268.483 27.6611 268.58 27.416H269.294C269.197 27.6611 269.067 27.8755 268.97 28.1205L268.646 28.8558Z" fill="black"/>
<path d="M264.33 29.4998H261.345C261.345 29.4691 261.313 29.4385 261.345 29.4079C261.377 29.3772 261.605 28.7952 261.767 28.4889C261.929 28.1825 262.059 27.7842 262.221 27.4473H262.935C262.805 27.6923 262.708 27.9681 262.578 28.2438C262.483 28.474 262.376 28.699 262.253 28.9178C262.252 28.9343 262.254 28.9511 262.26 28.9668C262.265 28.9826 262.274 28.9972 262.286 29.0096C262.286 29.0402 262.319 29.0402 262.351 29.0402H264.524L264.33 29.5304" fill="black"/>
<path d="M260.988 29.4993H258.652C258.541 29.5102 258.429 29.4995 258.323 29.4678C258.218 29.4363 258.119 29.3844 258.035 29.3155C257.974 29.2561 257.932 29.181 257.915 29.0994C257.897 29.0178 257.905 28.9332 257.938 28.8559L258.133 28.4577C258.197 28.3352 258.23 28.2126 258.295 28.0595C258.409 27.8564 258.593 27.6948 258.814 27.5999C259.052 27.4755 259.321 27.4121 259.593 27.4162H261.928C261.864 27.5694 261.766 27.7225 261.701 27.9063H259.365C259.297 27.8998 259.228 27.9104 259.166 27.9374C259.103 27.9643 259.049 28.0064 259.009 28.0595C258.946 28.1889 258.892 28.3219 258.846 28.4577L258.652 28.8559C258.62 28.9478 258.685 29.0091 258.879 29.0091H261.215C261.15 29.1929 261.052 29.3461 260.988 29.4993Z" fill="black"/>
<path fill-rule="evenodd" clip-rule="evenodd" d="M75.4839 9.0746H81.064C81.4619 8.5736 81.8819 8.08305 82.2983 7.59684C82.5948 7.25063 82.8894 6.90661 83.1728 6.5626C83.854 5.73548 84.5678 4.87771 85.2815 4.05059H80.5125C80.2724 4.03213 80.0313 4.07001 79.8105 4.16088C79.5897 4.25174 79.3962 4.39277 79.2472 4.57138L77.3331 6.80767L75.4839 9.0746ZM49.7896 4.01996H45.053C44.8088 4.00666 44.5648 4.04673 44.3397 4.13705C44.1146 4.22738 43.9147 4.36553 43.7553 4.54074L42.4576 6.10309L41.1599 7.6348C41.059 7.71884 40.9402 7.78147 40.8115 7.81847C40.6828 7.85546 40.5472 7.86595 40.4138 7.84923H29.5456C29.286 7.84923 29.0914 7.75733 29.2537 7.54289L30.7135 5.79674L32.2059 4.01996H27.4368C27.1978 4.00909 26.9593 4.05044 26.7398 4.14076C26.5204 4.23108 26.3259 4.36795 26.1716 4.54074L24.9713 5.94991L23.8357 7.35908C22.5056 8.98269 24.6468 9.04397 25.7823 9.04397H43.2687C43.2943 9.04397 43.3202 9.04399 43.3466 9.04401C44.2569 9.04487 45.6265 9.04614 46.3831 8.06367L48.0701 6.04181L49.7896 4.01996ZM92.6461 5.94991C91.9646 5.94991 92.4509 5.52103 92.5485 5.45977C92.6452 5.36849 92.7629 5.29906 92.8916 5.25662C93.0212 5.21418 93.1589 5.19985 93.2949 5.21469H105.493C105.72 5.21469 105.915 5.3066 105.85 5.4904H111.397C112.338 4.11186 110.359 4.01996 109.256 4.01996H90.4398C89.499 4.01996 88.0715 4.01996 87.2929 5.00026L86.7414 5.64357C85.7357 7.05274 87.7795 7.14464 88.8826 7.14464H103.806C104.27 7.14464 104.091 7.4051 103.984 7.56062C103.964 7.58987 103.946 7.6154 103.936 7.6348H103.968C103.862 7.71962 103.737 7.78249 103.603 7.81941C103.468 7.85633 103.328 7.86649 103.189 7.84923H91.0562C90.8291 7.84923 90.6344 7.75733 90.7643 7.60416H85.1517C84.2108 8.98269 86.2223 9.04397 87.2929 9.04397H106.044C106.069 9.04397 106.094 9.04399 106.12 9.04401C107 9.04487 108.371 9.04619 109.159 8.06367C109.29 7.89293 109.43 7.72929 109.581 7.57353C110.749 6.07245 108.834 5.94991 107.504 5.94991H92.6461ZM148.998 5.45977C149.098 5.37347 149.217 5.30727 149.345 5.26514C149.473 5.22303 149.609 5.20587 149.744 5.21469H160.645C160.872 5.21469 161.066 5.33723 160.904 5.52103L160.028 6.59323C159.704 6.93021 159.412 7.26718 159.12 7.6348C159.019 7.71884 158.9 7.78147 158.772 7.81847C158.643 7.85546 158.507 7.86595 158.374 7.84923H147.506C147.279 7.84923 147.052 7.75733 147.246 7.54289L148.998 5.45977ZM141.731 7.35908C140.401 8.95206 142.574 9.04397 143.71 9.04397H161.262C161.285 9.04397 161.311 9.04399 161.337 9.04401C162.219 9.04487 163.619 9.04621 164.376 8.06367L165.349 6.89957C165.574 6.59348 165.837 6.30548 166.108 6.00776C166.19 5.91813 166.272 5.82762 166.355 5.73548C167.685 4.11186 165.511 4.01996 164.376 4.01996H146.889C146.013 4.01996 144.553 4.01996 143.775 5.00026C143.656 5.13262 143.534 5.26499 143.412 5.39736L143.411 5.39845C143.166 5.66397 142.921 5.92947 142.705 6.19499L141.731 7.35908ZM33.6982 1.87556H5.40855C5.22395 1.85936 5.03801 1.88736 4.86789 1.95696C4.69778 2.02657 4.549 2.13555 4.43528 2.27381C4.2202 2.5038 4.02493 2.74966 3.85132 3.00903H13.8435L11.2806 6.04181L8.75011 9.0746H17.0878L19.0992 6.6545C19.5317 6.12351 19.9931 5.59252 20.4546 5.06153C20.6853 4.79603 20.916 4.53053 21.1431 4.26503C21.8244 3.46855 22.8625 3.00903 24.1927 3.00903H32.725L33.6982 1.87556ZM177.352 9.0746H182.868C184.166 8.46192 185.496 7.87986 186.858 7.29782L198.927 1.87556H194.126C193.543 1.85599 192.963 1.97169 192.439 2.21254L186.826 4.63265L181.279 7.08337C181.105 6.86889 180.928 6.65441 180.752 6.43993L180.751 6.43905C180.398 6.01051 180.045 5.58197 179.721 5.15342L178.228 3.2541C177.908 2.83642 177.489 2.49458 177.005 2.2554C176.521 2.01622 175.985 1.88621 175.438 1.87556H170.345L171.74 3.68298C172.043 4.09144 172.374 4.49989 172.706 4.90835C172.872 5.11258 173.038 5.31681 173.2 5.52103L175.146 7.97177C175.403 8.29973 175.735 8.56906 176.117 8.75992C176.498 8.95079 176.921 9.05833 177.352 9.0746ZM251.288 5.45977C251.384 5.36658 251.501 5.29586 251.631 5.25329C251.76 5.21072 251.899 5.19749 252.035 5.21469H262.838C263.098 5.21469 263.325 5.33723 263.13 5.52103L262.254 6.59323L261.411 7.6348C261.305 7.7213 261.18 7.78524 261.046 7.82224C260.912 7.85925 260.77 7.86846 260.632 7.84923H249.797C249.569 7.84923 249.342 7.75733 249.537 7.54289L251.288 5.45977ZM244.054 7.35908C242.723 8.95206 244.898 9.04397 246.066 9.04397H263.52C263.544 9.04397 263.569 9.04399 263.594 9.04401C264.475 9.04487 265.845 9.04619 266.634 8.06367C266.78 7.86455 266.942 7.67308 267.104 7.48162C267.267 7.29016 267.428 7.0987 267.574 6.89957L268.581 5.73548C269.91 4.11186 267.737 4.01996 266.569 4.01996H249.148C248.272 4.01996 246.812 4.01996 246.033 5.00026L244.994 6.19499C244.885 6.33345 244.765 6.47626 244.644 6.62178L244.643 6.6225C244.442 6.86309 244.236 7.11109 244.054 7.35908ZM141.731 4.05059C141.018 4.87771 140.303 5.70484 139.623 6.5626C139.282 6.99127 138.934 7.40465 138.584 7.81801V7.8186L138.583 7.81918C138.235 8.23255 137.886 8.64592 137.546 9.0746H132.842C133.174 8.64351 133.519 8.22496 133.861 7.81092L133.861 7.81058V7.81025V7.80992C134.054 7.577 134.245 7.3455 134.432 7.11401L136.054 5.15342L131.22 7.11401L126.418 9.0746H122.849L121.162 7.20592C120.948 6.96936 120.742 6.73694 120.538 6.50713C120.188 6.112 119.845 5.72462 119.475 5.33723C119.452 5.29965 119.42 5.2685 119.379 5.24697C119.34 5.22544 119.295 5.2143 119.249 5.21469C119.213 5.20215 119.175 5.20141 119.139 5.21257C119.104 5.22374 119.074 5.24613 119.054 5.27596C118.503 5.88864 117.951 6.53196 117.431 7.17528L115.875 9.0746H111.365C111.72 8.60799 112.101 8.15274 112.482 7.69502C112.728 7.40148 112.973 7.10692 113.214 6.80767C113.831 6.04182 114.447 5.3066 115.096 4.57138C115.247 4.40045 115.435 4.26258 115.648 4.16735C115.861 4.07212 116.093 4.02183 116.329 4.01996H122.169C122.339 4.2199 122.511 4.41688 122.681 4.61275C123.059 5.04708 123.432 5.4759 123.79 5.91928L125.477 7.8186L129.89 5.98054L134.302 4.17313C134.606 4.08297 134.924 4.04155 135.243 4.05059H141.731ZM48.3621 9.04397H54.4937L57.4785 5.42913C57.6731 5.21469 57.7704 5.12279 58.3219 5.12279H68.3141C68.6711 5.12279 68.8008 5.24532 68.7035 5.42913L68.3141 5.88864C67.9897 6.28689 67.5031 6.28689 66.9191 6.28689H58.9059L58.841 6.34815C58.841 6.39496 58.8789 6.42389 58.9113 6.4486C58.9212 6.45623 58.9307 6.46346 58.9384 6.4707L63.1558 7.75733L67.4058 9.0746H73.732L68.7683 7.29782C68.7035 7.26718 68.6711 7.23655 68.6711 7.17528C68.6711 7.11401 68.7035 7.11401 68.7359 7.11401H70.942C71.1398 7.11049 71.3291 7.10858 71.5101 7.10676C72.9026 7.09276 73.8104 7.08364 74.4133 6.37879C74.5117 6.23007 74.6341 6.09264 74.7585 5.95279C74.8392 5.86218 74.9207 5.77056 74.9973 5.67421C76.395 4.03178 73.6593 4.04604 72.8542 4.05024C72.8397 4.05032 72.8258 4.05039 72.8126 4.05045C72.7931 4.05054 72.7752 4.05059 72.7587 4.05059H53.2933C53.0795 4.03972 52.8658 4.07551 52.6689 4.1552C52.4719 4.23488 52.2971 4.35632 52.1579 4.5101C51.9575 4.7467 51.757 4.98037 51.5575 5.21294L51.557 5.21349C51.1109 5.73352 50.6697 6.24797 50.2438 6.77703L48.3621 9.04397ZM220.858 9.04397H242.789C242.188 8.77533 242.142 8.24493 242.11 7.87785C242.109 7.8682 242.108 7.85865 242.108 7.84923H227.476L229.033 5.94991C229.41 5.45207 229.825 4.97256 230.25 4.48302C230.25 4.48247 230.251 4.48189 230.251 4.48134L230.251 4.48089C230.375 4.33855 230.499 4.19535 230.623 4.05059H225.822C225.606 4.03205 225.39 4.06435 225.192 4.14458C224.994 4.22481 224.82 4.35044 224.686 4.5101C224.454 4.78435 224.226 5.05859 223.999 5.33142C223.998 5.33208 223.998 5.33275 223.997 5.33341C223.591 5.82183 223.187 6.30573 222.772 6.77703C222.447 7.1443 222.132 7.52684 221.816 7.9094L221.815 7.9105L221.814 7.9116C221.498 8.29416 221.182 8.6767 220.858 9.04397ZM295.572 9.0746H313.189C315.33 9.0746 317.568 8.46192 318.769 7.66543H313.545C312.785 7.92375 311.985 8.0584 311.178 8.06367H299.141C298.882 8.06367 298.687 7.94114 298.849 7.75733L299.433 7.05274H310.788C311.307 7.05274 311.631 6.96084 311.858 6.68513L312.183 6.25625V6.16435H300.212L300.925 5.3066C301.032 5.22177 301.156 5.15889 301.29 5.12197C301.425 5.08505 301.565 5.0749 301.704 5.09216H313.545C314.356 5.09216 315.005 5.21469 315.33 5.45977H320.553C320.682 4.66328 319.32 4.08122 317.179 4.08122H298.654C298.623 4.08122 298.592 4.08119 298.56 4.08114C297.748 4.08 296.549 4.07833 295.799 4.78581C295.609 4.97626 295.435 5.18118 295.28 5.3985C294.956 5.79674 294.826 6.13372 294.891 6.34815C294.493 6.48937 294.144 6.73352 293.885 7.05274L293.334 7.69606C292.588 8.98269 294.502 9.0746 295.572 9.0746ZM196.785 9.0746H214.37C216.51 9.0746 218.814 8.46192 219.949 7.66543H214.726C213.968 7.92914 213.166 8.06397 212.358 8.06367H200.387C200.128 8.06367 199.932 7.94114 200.095 7.75733L200.679 7.05274H212.001C212.197 7.07477 212.397 7.05299 212.582 6.98915C212.768 6.9253 212.936 6.82118 213.071 6.68513L213.396 6.25625C213.419 6.25625 213.41 6.24094 213.391 6.2103V6.20995C213.387 6.20443 213.383 6.1984 213.379 6.19188C213.376 6.18694 213.373 6.1817 213.37 6.17619C213.368 6.17237 213.366 6.16843 213.363 6.16435H201.457L202.139 5.3066C202.241 5.22419 202.359 5.16261 202.488 5.12571C202.617 5.0888 202.752 5.07738 202.885 5.09216H214.758C215.57 5.09216 216.251 5.21469 216.543 5.45977H221.766C221.896 4.66328 220.533 4.08122 218.393 4.08122H199.9C199.869 4.08122 199.838 4.08119 199.806 4.08114C198.996 4.08 197.826 4.07837 197.045 4.78581C196.855 4.97626 196.681 5.18118 196.526 5.3985C196.169 5.79674 196.039 6.13372 196.072 6.34815C195.698 6.50034 195.373 6.74346 195.131 7.05274L194.547 7.7267C193.801 8.98269 195.715 9.0746 196.785 9.0746ZM269.716 7.35908C268.386 8.95206 270.56 9.04397 271.728 9.04397H288.078C288.104 9.04397 288.13 9.04399 288.156 9.04401C289.067 9.04487 290.436 9.04614 291.193 8.06367L291.355 7.84923H275.458C275.231 7.84923 275.004 7.75733 275.166 7.54289L276.01 6.50133C276.099 6.39783 276.189 6.29145 276.28 6.18395C276.484 5.94144 276.693 5.69325 276.918 5.45977C277.017 5.37193 277.135 5.30474 277.263 5.26252C277.392 5.22031 277.529 5.20402 277.664 5.21469H293.496C293.983 4.11186 292.166 4.01996 291.161 4.01996H274.809C273.901 4.01996 272.441 4.01996 271.695 5.00026L270.657 6.19499C270.549 6.33077 270.432 6.47073 270.313 6.61332C270.313 6.61453 270.311 6.61574 270.31 6.61695C270.309 6.61856 270.307 6.62016 270.306 6.62177L270.305 6.62245V6.62311C270.105 6.86351 269.897 7.1113 269.716 7.35908Z" fill="black"/>
<path fill-rule="evenodd" clip-rule="evenodd" d="M267.38 9.9624C266.31 10.7589 264.947 10.9121 263.52 10.9121H196.785L195.715 10.8508C194.514 10.7589 193.315 10.422 192.731 9.34968C192.147 8.27752 192.341 7.57293 192.828 6.74581L192.893 6.68454C192.893 6.66521 192.893 6.64587 192.901 6.63424L192.925 6.62328C192.913 6.62328 192.906 6.62744 192.901 6.63424L187.702 8.98211L183.711 10.7589L183.452 10.8814L183.192 10.9427H177.353C176.618 10.9308 175.896 10.7588 175.243 10.44C174.591 10.1211 174.024 9.66409 173.59 9.10462C173.265 8.67576 172.941 8.27752 172.584 7.87928L171.611 6.65391C171.299 6.24298 170.976 5.84456 170.655 5.45064L170.654 5.44968V5.44938C170.474 5.22704 170.294 5.00613 170.118 4.78523L167.166 0.89468C167.1 0.811778 167.061 0.712061 167.056 0.608343C167.049 0.504625 167.077 0.401644 167.133 0.31263C167.182 0.221215 167.256 0.144177 167.347 0.0900916C167.439 0.0360066 167.545 0.00699596 167.653 0.00628883H175.439C176.295 0.0157456 177.138 0.214651 177.898 0.58705C178.659 0.959448 179.317 1.49497 179.819 2.15069L181.311 4.05001L181.571 4.38698C181.657 4.48894 181.777 4.56183 181.911 4.59491C182.046 4.62799 182.188 4.61954 182.316 4.57078L185.982 2.94717L191.628 0.496436C192.413 0.164035 193.265 -0.00320867 194.126 0.00628883H205.091C205.236 -0.0146759 205.385 0.0172037 205.507 0.0955271C205.63 0.17385 205.715 0.292819 205.748 0.428548C205.781 0.564277 205.758 0.706717 205.684 0.827272C205.61 0.947827 205.492 1.03757 205.35 1.07849H205.319C205.194 1.1263 205.094 1.21473 205.034 1.32738C204.975 1.44002 204.96 1.56927 204.994 1.69117C205.017 1.82098 205.089 1.93865 205.195 2.02293C205.303 2.1072 205.438 2.15252 205.578 2.15069H218.393C219.722 2.15069 221.442 2.36512 222.545 3.13097C222.665 3.21552 222.813 3.25593 222.963 3.24465C223.112 3.23338 223.251 3.1712 223.356 3.06971C223.68 2.76728 224.065 2.52993 224.49 2.37198C224.913 2.21403 225.366 2.13876 225.822 2.15069H233.511C233.622 2.1552 233.731 2.18549 233.826 2.23891C233.923 2.29233 234.003 2.36722 234.062 2.45702C234.113 2.55661 234.13 2.66825 234.113 2.7775C234.096 2.88673 234.044 2.98854 233.964 3.06971L232.278 5.06093C232.211 5.14243 232.169 5.24022 232.157 5.34316C232.145 5.44609 232.165 5.54999 232.212 5.64298C232.253 5.7394 232.326 5.82102 232.419 5.87609C232.513 5.93115 232.622 5.9568 232.732 5.94932H242.367C242.461 5.95295 242.554 5.93537 242.638 5.89806C242.723 5.86075 242.797 5.80478 242.854 5.73488L243.438 5.03029L244.476 3.83556C245.644 2.39575 247.363 2.15069 249.148 2.15069H266.569L267.672 2.21195C268.572 2.23385 269.439 2.53535 270.137 3.06971C270.241 3.16444 270.377 3.21995 270.521 3.22561C270.665 3.23126 270.805 3.18666 270.917 3.10034C271.987 2.30385 273.382 2.15069 274.809 2.15069H291.161L292.264 2.21195C293.04 2.2432 293.792 2.47643 294.437 2.88591C294.54 2.94555 294.657 2.97713 294.778 2.97713C294.898 2.97713 295.016 2.94555 295.118 2.88591C296.156 2.27322 297.389 2.18132 298.655 2.18132H317.179C319.158 2.18132 322.078 2.67146 322.5 4.90776C322.922 7.14406 321.624 8.03244 319.904 9.19653C318.185 10.3606 315.362 10.9427 313.189 10.9427H295.572L294.502 10.8814C293.706 10.8505 292.932 10.6177 292.264 10.2075C292.167 10.1469 292.055 10.1146 291.939 10.1146C291.823 10.1146 291.711 10.1469 291.614 10.2075C290.609 10.7895 289.343 10.9121 288.079 10.9121H270.592C269.716 10.8202 268.808 10.6057 268.158 10.0236C268.053 9.93464 267.918 9.88304 267.775 9.8774C267.634 9.87185 267.494 9.91271 267.38 9.99306V9.9624ZM107.439 10.8508C106.977 10.9017 106.511 10.9222 106.044 10.9121H86.1901C85.2817 10.8202 84.3409 10.5751 83.6919 9.99306C83.5721 9.87758 83.4089 9.81152 83.2378 9.80924C83.1559 9.81661 83.0764 9.83936 83.004 9.87622C82.9315 9.91298 82.8677 9.96312 82.816 10.0236L82.6539 10.2381L82.2321 10.7283C82.1838 10.8014 82.117 10.8621 82.0377 10.9049C81.9584 10.9477 81.8692 10.9711 81.7779 10.9733H67.0167L66.7896 10.9121L62.5397 9.59475L58.3221 8.30815H58.2573C58.2486 8.30815 58.2404 8.30493 58.2343 8.29918C58.2282 8.29344 58.2248 8.28565 58.2248 8.27752H58.1599L57.8355 8.12435L57.5435 8.49196L56.0512 10.2994L55.6294 10.7895C55.5819 10.8613 55.5144 10.9193 55.4343 10.9571C55.3542 10.995 55.2645 11.0112 55.1752 11.004H24.7119C23.544 10.9121 22.3761 10.5444 21.7596 9.53351C21.5785 9.23247 21.4678 8.89815 21.4353 8.55323C21.4315 8.43918 21.3882 8.32946 21.312 8.2409C21.2358 8.15235 21.131 8.08988 21.0134 8.06308C20.9003 8.02622 20.7771 8.02744 20.6648 8.06652C20.5525 8.1056 20.4579 8.18014 20.3971 8.27752C19.8131 8.95147 19.2292 9.62542 18.6776 10.33L18.2559 10.8202C18.2005 10.8939 18.1277 10.9544 18.0432 10.997C17.9587 11.0395 17.8649 11.0629 17.7693 11.0652H5.89538C5.77826 11.0678 5.66304 11.037 5.56468 10.9769C5.46632 10.9168 5.38939 10.8302 5.34386 10.7283C5.29928 10.6344 5.28179 10.5312 5.29319 10.429C5.30459 10.3268 5.34445 10.2292 5.40874 10.1462L7.19307 7.90991L8.94495 5.79615C9.02572 5.72138 9.07638 5.62237 9.08822 5.51614C9.10007 5.40992 9.07235 5.30312 9.00984 5.2141C8.97009 5.11462 8.89905 5.02899 8.80625 4.96875C8.71346 4.90852 8.60337 4.87654 8.49076 4.87713H1.28857C1.18443 4.87632 1.0822 4.85061 0.991433 4.8024C0.900658 4.75419 0.824304 4.68504 0.769494 4.60142C0.72024 4.51026 0.697305 4.40847 0.703 4.30629C0.708697 4.20409 0.742822 4.10514 0.801936 4.01937L2.19695 1.99751C2.40201 1.67711 2.62962 1.37008 2.87825 1.07849C3.18527 0.729107 3.57299 0.450804 4.01165 0.264941C4.45031 0.0790771 4.92824 -0.00940428 5.40874 0.00628883H36.748C36.8651 0.00373928 36.9803 0.0345112 37.0787 0.0946061C37.177 0.154701 37.2539 0.24134 37.2995 0.343265C37.3475 0.438215 37.3638 0.544643 37.3464 0.648538C37.329 0.752433 37.2788 0.848925 37.2022 0.925313C36.5666 1.6228 36.0584 2.28593 35.5137 2.99656C35.0297 3.62803 34.517 4.29701 33.8606 5.06093C33.7822 5.14328 33.7337 5.24708 33.722 5.35724C33.7103 5.46742 33.7362 5.57824 33.7958 5.67361C33.8437 5.76503 33.9177 5.84206 34.0094 5.89616C34.101 5.95024 34.2067 5.97925 34.3148 5.97996H39.7327C39.8211 5.98119 39.9084 5.96235 39.9875 5.92503C40.0665 5.88771 40.1349 5.83301 40.1869 5.76551L40.9006 4.93839L42.1983 3.37605C42.5439 2.98001 42.9808 2.66374 43.4756 2.45138C43.9703 2.23901 44.51 2.13617 45.0532 2.15069H72.7589C73.2788 2.14048 73.7989 2.16093 74.3162 2.21195C75.257 2.33449 76.1978 2.64083 76.7818 3.31478C76.8388 3.38468 76.9128 3.44064 76.9975 3.47795C77.0821 3.51527 77.175 3.53285 77.2685 3.52922C77.4395 3.52692 77.6028 3.46085 77.7226 3.34542C78.0599 2.95998 78.4876 2.65408 78.972 2.45201C79.4563 2.24993 79.9837 2.15726 80.5127 2.18132H89.337L90.44 2.12005H109.256L110.294 2.18132C111.268 2.24259 112.242 2.48766 112.89 3.13097C112.945 3.18318 113.011 3.22382 113.084 3.25022C113.156 3.27662 113.234 3.28819 113.312 3.28415C113.477 3.2844 113.638 3.23026 113.766 3.13097C114.103 2.8148 114.503 2.56522 114.942 2.3969C115.383 2.22856 115.854 2.14486 116.329 2.15069H122.849C122.939 2.14348 123.028 2.15969 123.109 2.19752C123.189 2.23536 123.256 2.29336 123.304 2.36512L123.725 2.85527C123.897 3.0552 124.068 3.25219 124.239 3.44805V3.44849C124.617 3.88267 124.99 4.31135 125.348 4.75459L125.737 5.2141C125.819 5.31263 125.935 5.38152 126.066 5.40938C126.195 5.43723 126.331 5.42238 126.451 5.36727L129.112 4.26444L133.523 2.45702C134.071 2.25958 134.656 2.1659 135.243 2.18132H145.786L146.889 2.12005H164.376L165.479 2.18132C166.647 2.27322 167.847 2.64083 168.431 3.68239C169.015 4.72396 168.658 5.94932 167.88 6.86835L166.906 8.00181L165.933 9.19653C164.766 10.6364 163.046 10.8814 161.262 10.8814H142.607C141.701 10.8376 140.835 10.5149 140.142 9.9624C140.011 9.86721 139.852 9.81361 139.687 9.80924C139.602 9.81625 139.519 9.842 139.446 9.88459C139.373 9.92709 139.311 9.98524 139.266 10.0543C139.22 10.0757 139.191 10.1119 139.166 10.1423C139.156 10.1555 139.145 10.1676 139.135 10.1768L138.714 10.6976C138.668 10.7728 138.602 10.8351 138.522 10.8781C138.442 10.9212 138.352 10.9435 138.26 10.9427H130.084C129.972 10.9433 129.862 10.9113 129.769 10.851C129.676 10.7908 129.605 10.7052 129.565 10.6057C129.516 10.5146 129.493 10.4128 129.499 10.3106C129.505 10.2084 129.539 10.1095 129.598 10.0236L129.89 9.68666L127.197 10.7895L126.937 10.8814L126.711 10.9427H122.234C122.146 10.9395 122.06 10.9186 121.982 10.8817C121.903 10.8447 121.835 10.7924 121.779 10.7283L121.358 10.2994L119.735 8.5226C119.681 8.45863 119.611 8.40704 119.533 8.3716C119.454 8.33616 119.369 8.31776 119.281 8.31776C119.194 8.31776 119.109 8.33616 119.029 8.3716C118.951 8.40704 118.881 8.45863 118.827 8.5226L117.464 10.2075L117.043 10.6976C116.987 10.7713 116.914 10.8319 116.83 10.8744C116.745 10.9169 116.651 10.9403 116.556 10.9427H107.343L107.439 10.8508ZM196.397 4.05001L196.365 4.06426C196.372 4.05001 196.38 4.05001 196.397 4.05001ZM196.365 4.06426C196.357 4.0792 196.348 4.10982 196.332 4.17254H196.266L195.715 4.81586C195.46 5.0954 195.262 5.41745 195.131 5.76551C194.824 5.95891 194.55 6.19666 194.32 6.4701L193.736 7.17469H193.704V7.23596L193.696 7.24922C193.376 7.79428 193.124 8.22216 193.574 8.95147C194.028 9.68666 194.969 9.90115 195.78 9.9624H214.37C216.024 9.9624 218.166 9.62542 219.755 8.85957L218.846 9.9624H263.52C264.98 9.9624 266.439 9.80924 267.413 8.6145L268.71 7.02152C268.354 7.57293 268.094 8.15499 268.516 8.89021C268.938 9.62542 269.878 9.83991 270.69 9.90115L271.728 9.9624H288.079C289.538 9.9624 291.03 9.80924 291.972 8.58386L292.037 8.5226H292.101L292.166 8.43069C292.202 8.62261 292.268 8.80845 292.361 8.98211C292.782 9.71733 293.756 9.93173 294.567 9.99306H313.189C315.135 9.99306 317.764 9.50293 319.353 8.43069L321.851 6.74581H313.221C313.14 6.78449 313.055 6.81304 312.967 6.8308C313.059 6.71052 313.123 6.57353 313.156 6.4285C313.19 6.28066 313.19 6.12781 313.157 5.97996H313.545C313.837 5.97996 314.519 6.01059 314.746 6.19439L315.005 6.3782H321.397L321.526 5.58171C321.559 5.4095 321.559 5.23314 321.526 5.06093C321.202 3.40668 318.607 3.10034 317.18 3.10034H298.655C297.389 3.10034 296.092 3.19224 295.118 4.08064H295.021C294.852 4.26156 294.7 4.45635 294.567 4.66268C294.537 4.45978 294.471 4.26305 294.373 4.08064C293.95 3.34542 293.009 3.16161 292.166 3.06971H274.809C273.349 3.06971 271.857 3.19224 270.917 4.41762C270.805 4.54178 270.694 4.66297 270.584 4.78303L270.582 4.78539L270.58 4.78749L270.578 4.78937C270.336 5.05221 270.1 5.30981 269.878 5.58171L269.684 5.82678C269.864 5.58286 269.971 5.29766 269.993 5.00116C270.016 4.70467 269.954 4.40784 269.814 4.14191C269.392 3.37605 268.418 3.16161 267.574 3.10034H249.148C247.688 3.10034 246.195 3.22288 245.255 4.44825C244.898 4.81586 244.541 5.2141 244.216 5.61235L243.243 6.80708L243.048 7.08279V6.92961H229.488C229.588 6.79127 229.696 6.65831 229.812 6.53137C230.331 5.88806 230.85 5.24474 231.402 4.63205L232.7 3.10034H225.822C225.449 3.08834 225.078 3.15978 224.74 3.30884C224.401 3.45791 224.105 3.68038 223.876 3.9581L222.772 5.306C222.772 5.26005 222.764 5.22176 222.756 5.18347C222.748 5.14517 222.74 5.10688 222.74 5.06093C222.416 3.40668 219.82 3.10034 218.393 3.10034H199.901C199.346 3.09427 198.792 3.13529 198.245 3.22287L203.339 0.955953H194.126C193.399 0.934268 192.678 1.07053 192.017 1.35419L181.571 5.91869L181.57 5.918C181.213 5.48935 180.856 5.06069 180.532 4.60142L179.008 2.7021C178.602 2.16499 178.066 1.72661 177.446 1.42303C176.825 1.11945 176.137 0.959366 175.439 0.955953H168.399L170.929 4.23381C171.3 4.75965 171.716 5.24457 172.138 5.73874L172.144 5.74659L172.154 5.75776L172.168 5.77394C172.252 5.8727 172.337 5.97187 172.422 6.07186L174.368 8.5226C174.714 8.96627 175.163 9.32939 175.68 9.58428C176.197 9.83909 176.77 9.97896 177.353 9.99306H183.095L183.29 9.90115L187.28 8.15499L193.315 5.42854L196.365 4.06426ZM312.967 6.8308L312.961 6.83771H312.93C312.942 6.83563 312.954 6.83333 312.967 6.8308ZM277.599 6.16376H293.366L293.107 6.43947L292.717 6.92961H276.951C277.149 6.66114 277.366 6.4053 277.599 6.16376ZM216.186 6.3782H221.864L221.54 6.74581H214.564L214.402 6.80708L214.175 6.86835C214.195 6.85408 214.211 6.83558 214.223 6.81432C214.234 6.79304 214.239 6.76959 214.239 6.74581C214.315 6.6332 214.366 6.5072 214.388 6.37551C214.411 6.24384 214.404 6.10924 214.37 5.97996H214.759C215.019 5.97996 215.7 6.01059 215.926 6.16376L216.186 6.3782ZM182.868 9.07431H177.353C176.921 9.05804 176.499 8.9505 176.117 8.75964C175.735 8.56877 175.404 8.29944 175.146 7.97148L173.2 5.52075C173.038 5.31652 172.873 5.1123 172.706 4.90807C172.374 4.49961 172.043 4.09116 171.74 3.6827L170.345 1.87528H175.438C175.985 1.88593 176.521 2.01594 177.005 2.25512C177.489 2.4943 177.908 2.83614 178.228 3.25382L179.721 5.15314C180.045 5.58168 180.398 6.01023 180.751 6.43876L180.752 6.43964C180.928 6.65413 181.105 6.86861 181.279 7.08309L186.826 4.63236L192.439 2.21226C192.963 1.9714 193.543 1.8557 194.126 1.87528H198.927L186.858 7.29753C185.496 7.87958 184.166 8.46163 182.868 9.07431ZM246.066 9.04368C244.898 9.04368 242.724 8.95178 244.054 7.3588C244.236 7.11081 244.443 6.86281 244.643 6.62221L244.644 6.62149C244.766 6.47597 244.885 6.33316 244.995 6.1947L246.033 4.99997C246.812 4.01968 248.272 4.01968 249.148 4.01968H266.569C267.737 4.01968 269.91 4.11158 268.581 5.73519L267.574 6.89928C267.429 7.09841 267.267 7.28987 267.105 7.48134C266.942 7.6728 266.78 7.86426 266.634 8.06338C265.845 9.0459 264.475 9.04458 263.594 9.04373L263.52 9.04368H246.066ZM242.789 9.04368H220.858C221.182 8.67642 221.498 8.29387 221.814 7.91131L221.815 7.91022L221.816 7.90912C222.132 7.52656 222.448 7.14401 222.772 6.77675C223.188 6.30544 223.591 5.82154 223.997 5.33313L223.999 5.33114C224.226 5.0583 224.454 4.78406 224.686 4.50982C224.82 4.35016 224.994 4.22452 225.192 4.14429C225.39 4.06407 225.606 4.03176 225.822 4.05031H230.623C230.499 4.19506 230.375 4.33826 230.252 4.48061L230.251 4.48105L230.25 4.48274C229.825 4.97228 229.41 5.45179 229.033 5.94963L227.476 7.84895H242.108L242.11 7.87757C242.142 8.24464 242.188 8.77504 242.789 9.04368ZM313.189 9.07431H295.572C294.502 9.07431 292.588 8.98241 293.334 7.69577L293.885 7.05246C294.144 6.73323 294.493 6.48909 294.891 6.34787C294.826 6.13343 294.956 5.79645 295.28 5.39821C295.436 5.18089 295.609 4.97597 295.8 4.78553C296.549 4.07804 297.749 4.07972 298.561 4.08086L298.655 4.08094H317.179C319.32 4.08094 320.682 4.66299 320.553 5.45948H315.33C315.005 5.21441 314.357 5.09187 313.545 5.09187H301.704C301.565 5.07461 301.425 5.08477 301.291 5.12169C301.156 5.15861 301.032 5.22149 300.926 5.30631L300.212 6.16406H312.183V6.25597L311.858 6.68485C311.631 6.96055 311.307 7.05246 310.788 7.05246H299.433L298.849 7.75705C298.687 7.94085 298.882 8.06338 299.141 8.06338H311.178C311.985 8.05812 312.785 7.92346 313.545 7.66514H318.769C317.568 8.46163 315.33 9.07431 313.189 9.07431ZM214.37 9.07431H196.785C195.715 9.07431 193.801 8.98241 194.547 7.72642L195.131 7.05246C195.373 6.74318 195.698 6.50006 196.072 6.34787C196.039 6.13343 196.17 5.79645 196.526 5.39821C196.681 5.18089 196.855 4.97597 197.046 4.78553C197.826 4.07808 198.996 4.07972 199.807 4.08086L199.901 4.08094H218.393C220.533 4.08094 221.896 4.66299 221.766 5.45948H216.543C216.251 5.21441 215.57 5.09187 214.759 5.09187H202.885C202.752 5.0771 202.617 5.08852 202.488 5.12543C202.36 5.16233 202.241 5.22391 202.139 5.30631L201.457 6.16406H213.363C213.366 6.16815 213.368 6.17209 213.37 6.1759C213.373 6.18142 213.376 6.18665 213.379 6.19159C213.383 6.19812 213.387 6.20414 213.391 6.20966V6.21002C213.41 6.24065 213.419 6.25597 213.396 6.25597L213.071 6.68485C212.936 6.82089 212.769 6.92502 212.582 6.98887C212.397 7.0527 212.197 7.07449 212.001 7.05246H200.679L200.095 7.75705C199.932 7.94085 200.128 8.06338 200.387 8.06338H212.358C213.166 8.06369 213.968 7.92886 214.727 7.66514H219.949C218.814 8.46163 216.51 9.07431 214.37 9.07431ZM271.728 9.04368C270.56 9.04368 268.386 8.95178 269.716 7.3588C269.898 7.11102 270.105 6.86323 270.305 6.62282V6.62217L270.306 6.62148L270.31 6.61667L270.314 6.61304C270.432 6.47045 270.549 6.33049 270.657 6.1947L271.695 4.99997C272.441 4.01968 273.901 4.01968 274.809 4.01968H291.161C292.166 4.01968 293.983 4.11158 293.497 5.21441H277.664C277.529 5.20373 277.392 5.22002 277.264 5.26224C277.135 5.30445 277.017 5.37164 276.918 5.45948C276.693 5.69297 276.484 5.94116 276.28 6.18367C276.189 6.29117 276.099 6.39755 276.01 6.50104L275.166 7.54261C275.004 7.75705 275.232 7.84895 275.458 7.84895H291.355L291.193 8.06338C290.436 9.04586 289.067 9.04458 288.156 9.04373L288.079 9.04368H271.728ZM251.631 5.253C251.501 5.29557 251.384 5.3663 251.289 5.45948L249.537 7.54261C249.342 7.75705 249.57 7.84895 249.797 7.84895H260.632C260.77 7.86818 260.912 7.85897 261.046 7.82196C261.18 7.78496 261.305 7.72102 261.411 7.63451L262.254 6.59295L263.13 5.52075C263.325 5.33694 263.098 5.21441 262.838 5.21441H252.035C251.899 5.19721 251.76 5.21043 251.631 5.253ZM251.321 6.92961H260.762L261.346 6.16376H251.938C251.868 6.25148 251.794 6.33919 251.719 6.42831C251.585 6.58819 251.446 6.75259 251.321 6.92961ZM142.997 4.41762C143.938 3.22288 145.429 3.10034 146.889 3.10034H165.381C166.225 3.19224 167.166 3.37605 167.588 4.11127C168.009 4.84649 167.621 5.67361 167.101 6.2863L165.154 8.6145C164.214 9.80924 162.722 9.9624 161.262 9.9624H143.71L142.705 9.90115C141.894 9.83991 140.953 9.62542 140.531 8.89021C140.109 8.15499 140.434 7.3585 140.953 6.77645L141.926 5.58171C142.061 5.42871 142.208 5.27571 142.357 5.11828C142.569 4.89749 142.788 4.66799 142.997 4.41762ZM143.71 9.04368C142.574 9.04368 140.401 8.95178 141.731 7.3588L142.705 6.1947C142.921 5.92919 143.166 5.66368 143.411 5.39817L143.412 5.39708C143.534 5.2647 143.657 5.13233 143.775 4.99997C144.553 4.01968 146.013 4.01968 146.889 4.01968H164.376C165.511 4.01968 167.685 4.11158 166.355 5.73519C166.272 5.82734 166.19 5.91785 166.108 6.00748C165.837 6.3052 165.574 6.59319 165.35 6.89928L164.376 8.06338C163.62 9.04593 162.219 9.04458 161.337 9.04373L161.262 9.04368H143.71ZM149.345 5.26486C149.217 5.30698 149.098 5.37319 148.998 5.45948L147.246 7.54261C147.052 7.75705 147.279 7.84895 147.506 7.84895H158.374C158.507 7.86567 158.643 7.85517 158.772 7.81818C158.9 7.78119 159.019 7.71855 159.12 7.63451C159.412 7.26689 159.704 6.92992 160.028 6.59295L160.904 5.52075C161.067 5.33694 160.872 5.21441 160.645 5.21441H149.744C149.609 5.20558 149.473 5.22274 149.345 5.26486ZM149.679 6.16376L149.031 6.92961H158.472C158.67 6.66114 158.887 6.4053 159.12 6.16376H149.679ZM132.939 7.41977L131.609 7.97118L126.808 9.93173L126.613 9.99306H122.396L122.104 9.68666C121.725 9.28971 121.36 8.87981 120.992 8.46539C120.791 8.24028 120.589 8.01383 120.384 7.78738L119.249 6.50074L118.211 7.72611L116.653 9.62542L116.361 9.99306H109.354L110.586 8.49196C110.927 8.04622 111.288 7.61087 111.647 7.17985C111.904 6.8703 112.159 6.56298 112.403 6.25567C112.805 5.75113 113.251 5.23216 113.701 4.70868C113.907 4.46932 114.114 4.22903 114.317 3.98874C114.554 3.70057 114.86 3.46972 115.21 3.31523C115.559 3.16076 115.943 3.08709 116.329 3.10034H122.655L122.947 3.46795C123.119 3.66789 123.29 3.86487 123.461 4.06074V4.06117C123.839 4.49535 124.212 4.92404 124.569 5.36727L125.737 6.71518L129.5 5.1222L133.913 3.31478C134.339 3.16949 134.79 3.09689 135.243 3.10034H143.775L142.51 4.63205C142.252 4.94475 141.986 5.25307 141.719 5.56198C141.279 6.07017 140.837 6.57995 140.434 7.11342C140.07 7.59444 139.676 8.05618 139.279 8.52027V8.52076L139.278 8.5211C138.968 8.88431 138.656 9.24894 138.357 9.62542L138.065 9.99306H130.863L132.063 8.49196L132.939 7.41977ZM139.623 6.56231C140.303 5.70455 141.018 4.87743 141.731 4.05031H135.243C134.924 4.04126 134.606 4.08269 134.302 4.17284L129.89 5.98026L125.477 7.81832L123.79 5.919C123.433 5.47562 123.059 5.04679 122.682 4.61247C122.511 4.4166 122.339 4.21962 122.169 4.01968H116.329C116.093 4.02154 115.861 4.07184 115.648 4.16706C115.435 4.26229 115.247 4.40016 115.096 4.57109C114.447 5.30631 113.831 6.04153 113.214 6.80738C112.973 7.10663 112.728 7.40119 112.482 7.69474C112.101 8.15246 111.721 8.6077 111.365 9.07431H115.875L117.431 7.17499C117.951 6.53167 118.503 5.88836 119.054 5.27568C119.074 5.24585 119.104 5.22345 119.14 5.21229C119.175 5.20112 119.213 5.20187 119.249 5.21441C119.295 5.21402 119.34 5.22516 119.38 5.24669C119.42 5.26822 119.453 5.29937 119.475 5.33694C119.845 5.72433 120.188 6.11172 120.538 6.50685C120.742 6.73665 120.948 6.96907 121.162 7.20563L122.849 9.07431H126.418L131.22 7.11373L136.054 5.15314L134.432 7.11373C134.245 7.34522 134.054 7.57672 133.862 7.80964V7.80996V7.81029L133.861 7.81064C133.519 8.22468 133.174 8.64323 132.842 9.07431H137.546C137.886 8.64564 138.235 8.23227 138.583 7.8189L138.584 7.81832V7.81773C138.934 7.40436 139.282 6.99099 139.623 6.56231ZM90.44 3.10034C88.9476 3.10034 87.4878 3.22288 86.5145 4.41762L85.9629 5.03029H85.9305V5.09156C85.7514 5.30472 85.6238 5.55222 85.5566 5.81679C85.4893 6.08135 85.4841 6.3566 85.5412 6.62328H84.6004L84.3084 7.05216C83.9515 7.6342 83.692 8.21625 84.1138 8.92084C84.5355 9.62542 85.4763 9.83991 86.2874 9.90115L87.293 9.9624H106.044C107.504 9.9624 108.964 9.80924 109.938 8.6145L110.359 8.09372C110.749 7.60357 111.041 6.99089 110.878 6.3782H111.95L112.242 5.94932C112.452 5.69077 112.583 5.3815 112.617 5.05659C112.651 4.73169 112.588 4.40418 112.436 4.11127C112.014 3.37605 111.041 3.16161 110.23 3.10034H90.44ZM92.6463 5.94963C91.9647 5.94963 92.451 5.52075 92.5486 5.45948C92.6453 5.36821 92.7631 5.29878 92.8917 5.25633C93.0213 5.2139 93.159 5.19957 93.295 5.21441H105.493C105.72 5.21441 105.915 5.30631 105.85 5.49012H111.398C112.338 4.11158 110.359 4.01968 109.256 4.01968H90.4399C89.4991 4.01968 88.0716 4.01968 87.293 4.99997L86.7415 5.64329C85.7358 7.05246 87.7796 7.14436 88.8827 7.14436H103.806C104.271 7.14436 104.091 7.40482 103.984 7.56034C103.964 7.58959 103.946 7.61511 103.936 7.63451H103.969C103.862 7.71934 103.737 7.78221 103.603 7.81913C103.469 7.85605 103.328 7.8662 103.189 7.84895H91.0564C90.8293 7.84895 90.6345 7.75705 90.7644 7.60387H85.1518C84.2109 8.98241 86.2224 9.04368 87.293 9.04368H106.044L106.12 9.04373C107.001 9.04458 108.371 9.0459 109.159 8.06338C109.29 7.89265 109.43 7.72901 109.581 7.57324C110.749 6.07216 108.835 5.94963 107.504 5.94963H92.6463ZM74.7379 8.43069C74.9599 8.16593 75.1777 7.90116 75.3942 7.63782C75.7791 7.1699 76.1603 6.70651 76.5547 6.25567C76.9092 5.85043 77.2745 5.40466 77.6443 4.95332L77.6446 4.95299C77.9176 4.61969 78.1932 4.28337 78.4688 3.9581C78.7187 3.67857 79.0324 3.45615 79.3864 3.30759C79.7404 3.15902 80.1254 3.08817 80.5127 3.10034H87.3255L86.0603 4.63205C85.891 4.82818 85.7218 5.02258 85.553 5.21648L85.5525 5.21705C85.0096 5.84072 84.4711 6.45925 83.9515 7.11342C83.6108 7.5423 83.2621 7.95586 82.9134 8.36942C82.5646 8.78299 82.2158 9.19653 81.8752 9.62542L81.5832 9.99306H67.1139L62.8316 8.67576L58.6141 7.38913H58.5492C58.3684 7.3204 58.2101 7.20765 58.0904 7.06236C57.9708 6.91707 57.8939 6.74442 57.8679 6.562C57.5966 6.86092 57.341 7.17471 57.0903 7.48264L57.0898 7.48319C56.9809 7.61689 56.8729 7.74948 56.7649 7.87928L55.2725 9.68666L54.9805 10.0543H46.3509L47.5513 8.55323C47.8595 8.1703 48.1839 7.79503 48.5083 7.41977C48.8328 7.04449 49.1571 6.66922 49.4654 6.2863C50.0818 5.52045 50.7306 4.75459 51.3795 3.98874C51.6059 3.71716 51.8977 3.50048 52.2306 3.35663C52.5635 3.21279 52.9278 3.14593 53.2935 3.16161H72.7589C73.2357 3.15144 73.7126 3.1719 74.1864 3.22287C74.965 3.31478 75.8085 3.55985 76.1978 4.26444C76.5871 4.96903 76.2627 5.73488 75.7761 6.31693H75.7436L75.1921 6.96025C74.739 7.49693 74.0921 7.85688 73.3753 7.97118L74.0891 8.21625L74.7379 8.43069ZM81.0641 9.07431H75.484L77.3332 6.80738L79.2473 4.57109C79.3963 4.39248 79.5899 4.25146 79.8107 4.16059C80.0314 4.06973 80.2725 4.03184 80.5126 4.05031H85.2816C84.5679 4.87743 83.8541 5.73519 83.1729 6.56231C82.8895 6.90633 82.5949 7.25034 82.2984 7.59656C81.8821 8.08277 81.462 8.57331 81.0641 9.07431ZM54.4938 9.04368H48.3622L50.2439 6.77675C50.6698 6.24768 51.111 5.73324 51.5571 5.21321L51.5577 5.21265C51.7571 4.98009 51.9576 4.74641 52.158 4.50982C52.2972 4.35604 52.472 4.23459 52.669 4.15491C52.8659 4.07522 53.0796 4.03943 53.2935 4.05031H72.7589C72.7753 4.05031 72.7933 4.05025 72.8127 4.05016L72.8543 4.04995C73.6594 4.04576 76.3951 4.0315 74.9974 5.67392C74.9209 5.77027 74.8393 5.86189 74.7586 5.9525C74.6342 6.09235 74.5118 6.22979 74.4135 6.37851C73.8105 7.08335 72.9027 7.09248 71.5102 7.10648C71.3292 7.1083 71.1399 7.11021 70.9421 7.11373H68.736C68.7036 7.11373 68.6712 7.11373 68.6712 7.17499C68.6712 7.23626 68.7036 7.26689 68.7684 7.29753L73.7321 9.07431H67.4059L63.1559 7.75705L58.9385 6.47041C58.9308 6.46318 58.9213 6.45594 58.9114 6.44832C58.879 6.42361 58.8411 6.39468 58.8411 6.34787L58.906 6.28661H66.9192C67.5032 6.28661 67.9899 6.28661 68.3142 5.88836L68.7036 5.42884C68.8009 5.24504 68.6712 5.12251 68.3142 5.12251H58.322C57.7706 5.12251 57.6732 5.21441 57.4786 5.42884L54.4938 9.04368ZM31.0381 6.92961L31.4923 6.34757L35.8721 0.955953H5.40874C5.07565 0.936534 4.74251 0.993218 4.43756 1.1212C4.1326 1.24919 3.8648 1.4447 3.65686 1.69117C3.415 1.94814 3.19786 2.22494 3.00801 2.5183L2.03474 3.9581H11.7674L10.5022 5.45917L7.97168 8.49196L6.70643 9.99306H17.5746L17.8666 9.62542L21.8895 4.84649C22.4734 4.17254 23.2845 3.9581 24.1928 3.9581H25.3932L24.1928 5.3979L23.0574 6.77645C22.5707 7.38913 22.2138 8.21625 22.6356 8.95147C23.0574 9.68666 23.9982 9.87048 24.8092 9.93173L25.7825 9.99306H43.2689C44.7288 9.99306 46.2211 9.83991 47.1944 8.64513C47.5405 8.17541 47.9153 7.73291 48.2902 7.29042C48.4777 7.06917 48.6652 6.84792 48.849 6.62328C49.4005 5.94932 49.9844 5.27537 50.5684 4.63205L51.8337 3.10034H45.0532C44.6603 3.08108 44.2682 3.14856 43.9077 3.29747C43.5472 3.44637 43.2285 3.67256 42.9769 3.9581L41.6792 5.52045L40.4788 6.92961H31.0381ZM49.7897 4.01968H45.0531C44.809 4.00637 44.5649 4.04645 44.3398 4.13677C44.1147 4.2271 43.9148 4.36524 43.7555 4.54046L42.4577 6.1028L41.1601 7.63451C41.0591 7.71855 40.9403 7.78119 40.8116 7.81818C40.683 7.85517 40.5473 7.86567 40.4139 7.84895H29.5457C29.2862 7.84895 29.0915 7.75705 29.2538 7.54261L30.7137 5.79645L32.206 4.01968H27.4369C27.1979 4.00881 26.9594 4.05015 26.7399 4.14047C26.5205 4.23079 26.3261 4.36767 26.1718 4.54046L24.9714 5.94963L23.8359 7.3588C22.5057 8.98241 24.6469 9.04368 25.7824 9.04368H43.2688C43.2944 9.04368 43.3203 9.04371 43.3467 9.04373C44.257 9.04458 45.6266 9.04586 46.3833 8.06338L48.0703 6.04153L49.7897 4.01968ZM33.6983 1.87528H5.40867C5.22407 1.85908 5.03812 1.88707 4.86801 1.95668C4.69789 2.02629 4.54911 2.13526 4.4354 2.27353C4.22031 2.50352 4.02504 2.74938 3.85143 3.00875H13.8437L11.2807 6.04153L8.75022 9.07431H17.0879L19.0993 6.65422C19.5318 6.12322 19.9933 5.59224 20.4547 5.06124C20.6854 4.79575 20.9161 4.53025 21.1432 4.26474C21.8245 3.46826 22.8627 3.00875 24.1928 3.00875H32.7251L33.6983 1.87528Z" fill="black"/>
<path d="M218.886 14.3781H191.083C190.831 14.3632 190.579 14.4026 190.345 14.4933C190.112 14.5841 189.904 14.7237 189.736 14.9017L183.399 24.0269C183.003 24.5505 183.32 25.3733 183.874 25.3733H212.074C212.349 25.3855 212.623 25.3455 212.882 25.2556C213.141 25.1656 213.377 25.0276 213.579 24.8497L213.975 24.2514L215.559 22.157C215.876 21.783 214.925 21.783 214.925 21.783H205.578L203.915 23.9521H194.964L200.667 15.7992H210.093L208.589 17.8187H218.886C219.557 17.0134 220.165 16.1635 220.707 15.2757C221.103 14.378 218.886 14.3781 218.886 14.3781Z" fill="black"/>
<path d="M162.246 20.3655L158.286 25.3768H148.147C147.995 25.3745 147.847 25.331 147.721 25.2513C147.595 25.1718 147.494 25.0596 147.434 24.9281C147.439 24.5819 147.548 24.2442 147.751 23.9557L152.742 17.5979L154.801 14.9801C154.952 14.7966 155.14 14.644 155.356 14.5313C155.593 14.3956 155.873 14.3426 156.147 14.3817H183.158C184.664 14.3817 186.089 15.2044 185.931 16.3264C185.435 17.4018 184.675 18.3503 183.713 19.0939C183.268 19.3874 182.749 19.5677 182.209 19.6174C180.815 19.7795 179.413 19.8545 178.011 19.8418H176.742C178.094 19.9654 179.422 20.2417 180.703 20.6646C181.088 20.7873 181.421 21.0233 181.654 21.3378C181.891 21.637 181.891 21.9362 181.654 22.5346L180.703 23.8809L179.594 25.4517H168.267L170.881 21.9362C171.021 21.7548 171.128 21.5525 171.197 21.3378C171.238 21.275 171.265 21.2048 171.275 21.1316C171.285 21.0584 171.279 20.9842 171.256 20.9136C171.234 20.8429 171.196 20.7777 171.144 20.7219C171.094 20.666 171.03 20.6211 170.96 20.5899C170.644 20.2907 162.246 20.3655 162.246 20.3655ZM172.465 19.0939C172.955 19.0944 173.43 18.936 173.812 18.6451C174.167 18.3015 174.485 17.9256 174.762 17.5231C175.634 16.4012 175.554 15.8028 174.842 15.8028H165.732L163.197 19.0939H172.465Z" fill="black"/>
</g>
<defs>
<clipPath id="clip0_582_2">
<rect width="323" height="30.0305" fill="white"/>
</clipPath>
</defs>
</svg>
