<svg width="234" height="44" viewBox="0 0 234 44" fill="none" xmlns="http://www.w3.org/2000/svg">
<path d="M75.1505 9.29655L74.0471 13.6651C72.8879 12.3299 71.8652 11.662 70.9771 11.661C70.4718 11.6605 70.0269 11.8276 69.6433 12.1635C69.2597 12.4993 68.9981 12.9447 68.8582 13.4993C68.7501 13.9261 68.7558 14.3314 68.8736 14.7163C68.9919 15.1 69.3909 15.5966 70.0716 16.206C70.7519 16.8149 71.2757 17.3813 71.6441 17.9046C72.0125 18.4282 72.258 19.1645 72.3813 20.1147C72.5046 21.0646 72.3832 22.2651 72.0169 23.7159C71.4938 25.7857 70.6807 27.4337 69.5774 28.6599C68.4739 29.8858 67.2737 30.4976 65.9776 30.4961C64.5787 30.4946 63.4052 29.7728 62.4561 28.3312L63.6728 23.5142C64.1728 24.518 64.6552 25.2497 65.1204 25.7086C65.5852 26.1686 66.1436 26.3987 66.7946 26.3995C67.897 26.4007 68.6224 25.7135 68.9701 24.3377C69.0883 23.8688 69.0896 23.4262 68.9744 23.0102C68.8582 22.5938 68.4549 22.0869 67.7637 21.4889C67.0725 20.8912 66.5456 20.3356 66.1831 19.8228C65.8201 19.3102 65.5796 18.5786 65.4627 17.6278C65.3446 16.6782 65.4727 15.4609 65.8474 13.9779C66.3324 12.0568 67.1143 10.5074 68.1921 9.32844C69.2701 8.1508 70.4625 7.56203 71.77 7.56356C72.975 7.56498 74.1017 8.14293 75.1505 9.29655Z" fill="black"/>
<path d="M86.2073 7.86889L89.0154 7.87216L85.8096 20.5626C84.9853 23.827 83.8731 26.3019 82.4741 27.9861C81.0741 29.6713 79.4711 30.5118 77.6634 30.5098C75.8771 30.5077 74.7059 29.653 74.1506 27.9445C73.5943 26.2366 73.7206 23.7822 74.5291 20.5817L77.7423 7.85917L80.5588 7.86233L77.313 20.7125C76.9194 22.2706 76.8607 23.5188 77.1374 24.458C77.414 25.3974 77.9696 25.8674 78.8032 25.8684C79.6695 25.8694 80.483 25.3904 81.2449 24.4313C82.0065 23.4713 82.6111 22.1059 83.0585 20.3352L86.2073 7.86889Z" fill="black"/>
<path d="M91.5648 7.8735L96.5917 7.87928C97.732 7.88059 98.473 8.53739 98.8138 9.85054C99.1551 11.1637 99.0994 12.717 98.6463 14.5088C98.1776 16.3654 97.4439 17.9546 96.4456 19.2766C95.4471 20.599 94.3746 21.2593 93.2291 21.258L90.9936 21.2554L88.6752 30.5059L85.8672 30.5026L91.5648 7.8735ZM93.3379 11.9731L92.0286 17.1583L93.3357 17.1598C94.5026 17.1611 95.3051 16.2978 95.7417 14.5696C95.9867 13.5987 96.0011 12.9238 95.7847 12.5449C95.5683 12.1661 95.0834 11.9751 94.3307 11.9742L93.3379 11.9731Z" fill="black"/>
<path d="M106.021 26.1555L104.917 30.5391L96.6055 30.5295L102.321 7.88628L110.52 7.89567L109.485 11.9924L104.095 11.9861L102.911 16.6753L108.05 16.6812L107.016 20.7782L101.876 20.7723L100.518 26.1492L106.021 26.1555Z" fill="black"/>
<path d="M113.048 7.90034L118.084 7.90612C119.176 7.90743 119.905 8.53485 120.272 9.78849C120.638 11.0422 120.597 12.5593 120.147 14.3394C119.525 16.8024 118.419 18.6244 116.829 19.8066C117.266 20.3172 117.457 21.693 117.401 23.933C117.345 26.1724 117.304 28.5404 117.278 30.5242L114.197 30.5206C114.199 29.7845 114.232 28.1246 114.298 26.0548C114.364 23.9841 114.308 22.656 114.131 22.0682C113.953 21.4815 113.679 21.1877 113.308 21.1872L112.501 21.1864L110.152 30.5273L107.344 30.5242L113.048 7.90034ZM114.821 12L113.536 17.0893L115.021 17.091C115.494 17.0915 115.925 16.8706 116.314 16.4283C116.703 15.986 117.002 15.3542 117.209 14.5323C117.635 12.8467 117.312 12.0028 116.242 12.0016L114.821 12Z" fill="black"/>
<path d="M134.405 7.9224L123.476 30.5605L122.257 30.5591L122.515 7.90875L125.574 7.91224L125.33 20.6896L131.38 7.91891L134.405 7.9224Z" fill="black"/>
<path d="M140.2 26.1941L139.115 30.5059L130.804 30.4963L136.5 7.92482L144.699 7.93421L143.664 12.0309L138.273 12.0247L137.089 16.7138L142.229 16.7199L141.195 20.8168L136.054 20.8109L134.696 26.1877L140.2 26.1941Z" fill="black"/>
<path d="M151.208 26.2076L150.115 30.5391L141.521 30.5291L147.225 7.93804L150.033 7.94131L145.422 26.2009L151.208 26.2076Z" fill="black"/>
<path d="M163.176 7.66707C165.097 7.66926 166.361 8.82102 166.969 11.1212C167.577 13.4217 167.496 16.0977 166.725 19.1492C165.944 22.2431 164.663 24.926 162.884 27.1962C161.106 29.4674 159.272 30.6018 157.384 30.5996C155.474 30.5974 154.205 29.4653 153.577 27.2017C152.948 24.9387 153.028 22.2498 153.815 19.1344C154.588 16.072 155.86 13.3953 157.631 11.1026C159.402 8.80956 161.25 7.66489 163.176 7.66707ZM158.556 25.9588C159.621 25.9601 160.637 25.3347 161.605 24.0814C162.572 22.829 163.314 21.1834 163.828 19.146C164.346 17.0972 164.436 15.4486 164.101 14.1995C163.766 12.9506 163.065 12.3253 162 12.3241C160.929 12.3229 159.91 12.9462 158.941 14.1935C157.972 15.4412 157.229 17.089 156.711 19.1377C156.197 21.1752 156.108 22.8216 156.445 24.0755C156.782 25.3302 157.486 25.9576 158.556 25.9588Z" fill="black"/>
<path d="M178.703 23.517L177.47 28.3977C175.686 29.8795 174.022 30.6189 172.478 30.6172C170.477 30.6149 169.16 29.5166 168.528 27.3233C167.895 25.1294 167.985 22.4262 168.796 19.2154C169.607 16.0046 170.921 13.279 172.738 11.0403C174.554 8.80104 176.471 7.68258 178.488 7.68487C180.097 7.68673 181.292 8.34505 182.075 9.6582L180.817 14.6351C179.837 13.1081 178.735 12.3439 177.514 12.3425C176.314 12.3411 175.173 12.9778 174.09 14.2508C173.006 15.5258 172.215 17.1491 171.717 19.1232C171.216 21.1074 171.177 22.7456 171.602 24.0372C172.026 25.3287 172.824 25.9755 173.997 25.9768C174.579 25.9775 175.176 25.8264 175.791 25.5225C176.406 25.2194 177.376 24.5503 178.703 23.517Z" fill="black"/>
<path d="M188.595 26.2502L187.531 30.5547L179.22 30.5451L184.896 7.98085L193.095 7.99035L192.059 12.087L186.669 12.0808L185.485 16.77L190.625 16.7759L189.59 20.8729L184.45 20.8669L183.092 26.2439L188.595 26.2502Z" fill="black"/>
<path fill-rule="evenodd" clip-rule="evenodd" d="M53.0179 24.9111L45.691 35.0044L46.2195 31.8623L44.4874 34.2485L45.3669 29.018L44.1778 27.9567L42.9114 36.1213L37.9722 37.1778L38.1387 36.127L36.7681 36.4198L37.8401 29.6561L34.8114 26.8062L34.1181 27.5591L33.7507 25.8932L32.9145 26.8015L32.2564 23.8192L23.2744 40.4026L17.9635 41.6016L18.5922 40.43L16.7595 40.8438L26.2231 23.2135L0 16.7113L29.5956 16.9306L33.8098 9.07962L34.0891 11.5605L35.014 9.83742L35.8604 17.3541L46.3954 5.14126L45.9883 7.76604L47.5992 5.89873L45.4625 19.6741L47.1402 18.4724L49.4453 4.76357L53.9239 3.87987L53.7616 4.90693L55.128 4.63745L53.5284 14.7496L62.8766 2.24831L68.4996 1.16916L67.6661 2.31732L69.7032 1.92598L58.6522 17.1496M58.2463 17.7087L53.5752 24.1434L58.2463 17.7087ZM33.334 11.1296L34.4414 19.9816L45.3321 7.4283L41.1711 34.7351L37.6464 35.5541L40.3558 17.6636L33.2695 25.4523L32.097 19.7124L21.6408 39.0714L18.1271 39.8465L33.334 11.1296ZM50.7305 19.5987L63.2084 2.81098L67.1255 2.04139L45.6489 31.6036L50.0288 5.35561L53.1507 4.75035L50.7305 19.5987ZM4.59603 17.3061L29.2957 17.4891L26.5563 22.5926L4.59603 17.3061ZM45.3243 20.5645L46.9856 19.3916L45.4956 28.2533L44.2942 27.2058L45.3243 20.5645ZM37.9603 28.8971L35.2679 26.3103L39.0154 22.2398L37.9603 28.8971Z" fill="black"/>
<path d="M48.2349 31.3164L47.6426 30.8438L52.4189 24.8578L52.5434 24.8267L81.784 17.5356L57.7461 17.5786L57.7446 16.8206L88.0013 16.7666L52.8512 25.5312L48.2349 31.3164Z" fill="black"/>
<path d="M223.734 18.5734C220.975 18.5734 218.99 17.4265 218.99 15.442C218.99 13.5815 220.479 12.372 223.734 12.372C227.021 12.372 228.479 13.4888 228.479 15.4732C228.479 17.4577 226.711 18.5734 223.734 18.5734ZM223.734 3.75172C226.587 3.75172 227.548 4.96114 227.548 6.35706C227.548 7.78323 226.401 8.80614 223.734 8.80614C221.223 8.80614 219.92 7.72077 219.92 6.32583C219.92 4.93002 221.037 3.75172 223.734 3.75172ZM206.34 18.6946C203.611 18.6946 201.999 17.6716 201.999 15.4705C201.999 13.4548 203.673 12.214 206.557 12.214C209.379 12.214 210.867 13.4235 210.867 15.4393C210.867 17.7028 209.285 18.6946 206.34 18.6946ZM229.378 10.2635C231.052 9.33332 231.889 7.81446 231.889 6.26337C231.889 2.01523 228.014 0.00041008 223.734 0.00041008C219.176 0.00041008 215.58 2.1704 215.58 6.44977C215.58 8.06232 216.541 9.42603 218.091 10.2635C216.828 10.812 215.477 11.8581 214.917 13.677C213.784 9.9008 210.6 8.18364 206.743 8.18364C201.627 8.18364 197.596 10.7879 197.596 15.6247C197.596 20.4312 200.944 22.6323 205.254 22.6323C207.456 22.6323 208.82 22.1989 210.216 21.2687C208.975 24.5866 205.782 26.3534 200.758 26.3534V30.5703C211.076 30.5703 214.747 23.9282 215.288 18.4265C216.532 20.9456 219.534 22.3872 223.734 22.3872C229.347 22.3872 232.82 19.6901 232.82 15.318C232.82 12.5584 231.052 11.0386 229.378 10.2635Z" fill="black"/>
<path d="M202.196 34.9179L205.33 33.7422L205.014 34.4258L202.897 35.2202L202.616 35.844L204.616 35.0934L204.3 35.7772L202.3 36.5278L201.991 37.209L204.226 36.3707L203.917 37.0518L200.666 38.2715L202.196 34.9179Z" fill="black"/>
<path d="M206.056 35.6855L206.584 35.4874C207.528 35.133 208.359 34.6054 208.708 33.8422C209.004 33.1852 208.421 33.1491 207.561 33.4719L206.961 33.6968L206.056 35.6855ZM206.26 33.3943L207.785 32.8224C209.27 32.2649 210.303 32.2583 209.741 33.4861C209.248 34.5701 207.767 35.6089 206.392 36.1248L204.73 36.748L206.26 33.3943Z" fill="black"/>
<path d="M211.192 31.543L212.208 31.1615L210.678 34.5153L209.662 34.8965L211.192 31.543Z" fill="black"/>
<path d="M211.672 33.5766L214.93 30.6814L212.676 31.5271L212.977 30.8722L216.463 29.5644L216.161 30.2194L212.948 33.0974L215.32 32.2077L215.011 32.8889L211.362 34.2578L211.672 33.5766Z" fill="black"/>
<path d="M217.225 29.2792L218.242 28.8978L216.712 32.2515L215.695 32.6328L217.225 29.2792Z" fill="black"/>
<path d="M220.152 30.4683C221.019 30.1431 221.789 29.4772 222.077 28.8508C222.358 28.2274 222.001 27.9844 221.135 28.3095C220.268 28.6346 219.491 29.3029 219.21 29.9264C218.923 30.5527 219.286 30.7935 220.152 30.4683ZM221.444 27.628C222.884 27.0879 223.623 27.3798 223.132 28.4549C222.642 29.5301 221.277 30.6117 219.837 31.1519C218.397 31.6921 217.665 31.3978 218.155 30.3225C218.645 29.2474 220.004 28.1684 221.444 27.628Z" fill="black"/>
<path d="M224.588 26.5154L225.969 25.9972L226.863 27.593L226.876 27.5882L227.943 25.2565L228.959 24.8751L227.429 28.2287L226.1 28.7275L225.175 27.096L225.162 27.1009L224.074 29.4877L223.058 29.8691L224.588 26.5154Z" fill="black"/>
<path d="M229.936 24.5098L233.07 23.3339L232.754 24.0176L230.637 24.8121L230.356 25.4356L232.356 24.6852L232.041 25.369L230.041 26.1195L229.732 26.8009L231.966 25.9622L231.657 26.6435L228.406 27.8633L229.936 24.5098Z" fill="black"/>
<path d="M202.226 39.8574L203.243 39.476L202.022 42.1486L203.904 41.442L203.596 42.1232L200.696 43.2109L202.226 39.8574Z" fill="black"/>
<path d="M205.672 38.5643L206.688 38.1829L205.158 41.5367L204.142 41.918L205.672 38.5643Z" fill="black"/>
<path d="M207.614 37.8339L209.152 37.2569L209.217 39.0463L209.23 39.0413L211.295 36.4528L212.826 35.8783L211.296 39.232L210.28 39.6133L211.449 37.043L211.435 37.0479L209.055 40.0729L208.28 40.3636L208.282 38.2311L208.269 38.2359L207.1 40.8062L206.084 41.1875L207.614 37.8339Z" fill="black"/>
<path d="M213.752 35.5311L214.768 35.1497L213.238 38.5035L212.222 38.8848L213.752 35.5311Z" fill="black"/>
<path d="M216.284 35.1255L214.968 35.6193L215.269 34.9644L218.918 33.5954L218.616 34.2503L217.3 34.7441L216.072 37.4429L215.055 37.8242L216.284 35.1255Z" fill="black"/>
<path d="M220.297 33.8854L219.262 35.1375L220.389 34.7146L220.297 33.8854ZM220.351 33.0565L221.191 32.7411L221.668 35.3419L220.521 35.7721L220.447 35.2112L218.655 35.8835L217.948 36.7377L216.827 37.1582L220.351 33.0565Z" fill="black"/>
<path d="M223.653 32.3579L222.337 32.8516L222.638 32.1968L226.287 30.8279L225.985 31.4829L224.669 31.9766L223.441 34.6753L222.424 35.0566L223.653 32.3579Z" fill="black"/>
<path d="M227.665 31.1199L226.63 32.3717L227.757 31.9491L227.665 31.1199ZM227.719 30.2909L228.559 29.9756L229.036 32.5764L227.889 33.0066L227.815 32.4457L226.023 33.1179L225.316 33.9721L224.195 34.3926L227.719 30.2909Z" fill="black"/>
</svg>
